M48
;GenerationSoftware,Autodesk,EAGLE,9.6.1*%
;CreationDate,2024-02-10T12:35:29Z*%
FMAT,2
ICI,OFF
METRIC,TZ,000.000
T5C0.250
T4C0.300
T3C0.350
T2C1.016
T1C1.020
%
G90
M71
T1
X13811Y20796
X13811Y13811
X13811Y11271
X-13811Y23336
X-13811Y20796
X-13811Y13811
X-13811Y11271
X13811Y23336
T2
X1587Y29527
X0Y3334
X-2540Y3334
X2540Y3334
T3
X12859Y10001
X12065Y9366
X2064Y1905
X-1905Y1905
X-14446Y12541
X-10954Y6826
X12065Y15399
X11112Y15399
X13017Y24447
X12224Y24447
X1905Y32861
X1270Y32226
X-635Y28099
X1751Y5084
X-11747Y25717
T4
X-9049Y24289
X-9049Y21749
X-6509Y21749
X1270Y21749
X3810Y21749
X6509Y21749
X9049Y21749
X9049Y19368
X6509Y19209
X3810Y19209
X-3810Y19209
X-6509Y19209
X-9049Y19209
X-6509Y26829
X-9049Y26829
X-1270Y26829
X3810Y26829
X9049Y27146
X3810Y24289
X6509Y16669
X1270Y16669
X-1270Y16669
X9049Y16828
X-6509Y16669
X-9049Y16669
X6509Y14129
X1270Y14129
X-1270Y14129
X-6509Y14129
X-9049Y14129
X9049Y14129
X9049Y11589
X9049Y8890
X3810Y11589
X6509Y11589
X-3810Y11589
X-6509Y11589
X-9049Y11589
X3810Y9049
X6509Y9049
X-3810Y9049
X-6509Y9049
X-9049Y9049
X-1270Y24289
X9049Y24289
X1270Y9049
X-12541Y14129
X-5126Y6625
X5431Y6784
X-12588Y15058
X11795Y18280
X-10001Y28099
X5111Y28141
X-3175Y29321
X10160Y7620
X-10319Y10001
X10160Y9208
X10160Y10160
X10160Y11747
X10160Y12700
X10160Y14287
X10160Y15240
X10001Y16828
X10160Y17780
X10160Y19368
X10319Y20161
X10319Y21907
X10319Y22860
X10478Y24447
X10319Y25400
X10160Y27146
X6509Y25559
X1270Y25559
X-3810Y25559
X-6509Y25559
X-9049Y25559
X3810Y25559
X9049Y25559
X9049Y23019
X6509Y23019
X3810Y23019
X1270Y23019
X-6509Y23019
X-9049Y23019
X-3810Y20479
X-6509Y20479
X3810Y20479
X6509Y20479
X9049Y20320
X9049Y18098
X-6509Y17939
X-9049Y17939
X6509Y15399
X-6509Y15399
X-9049Y15399
X9049Y15399
X9049Y12859
X9049Y10160
X9049Y7620
X6509Y12859
X-6509Y12859
X-9049Y12859
X3810Y10319
X6509Y10319
X-6509Y10319
X-9049Y10319
X-9049Y20479
X6509Y7620
X1270Y7620
X-1270Y7620
X-3810Y7620
X-6509Y7620
X-1270Y25559
X-3810Y10319
X-10160Y8731
X-10160Y6350
X-12224Y13335
X-3810Y26829
X1270Y26829
X6509Y26829
X-3810Y24289
X1270Y24289
X6509Y24289
X-6509Y24289
X3810Y7620
T5
X-10319Y17621
X-9843Y15399
X-10319Y24606
X-10319Y19368
X-11293Y8826
X-11051Y9665
X-10636Y10795
X-10478Y25400
X-10478Y26987
X-9843Y14129
X-10319Y20320
X-10319Y16828
X-10319Y21590
X-9843Y12859
X-10319Y23336
X-9843Y11271
M30