M48
;GenerationSoftware,Autodesk,EAGLE,9.6.1*%
;CreationDate,2024-04-19T11:13:12Z*%
FMAT,2
ICI,OFF
METRIC,TZ,000.000
T5C0.250
T4C0.300
T3C0.350
T2C1.016
T1C1.020
%
G90
M71
T1
X13811Y23336
X13811Y20796
X13811Y13811
X13811Y11271
X-13811Y23336
X-13811Y20796
X-13811Y13811
X-13811Y11271
T2
X1587Y29527
X-2540Y3334
X0Y3334
X2540Y3334
T3
X1270Y32226
X-635Y28099
X2182Y4805
X38Y29604
X-11747Y25717
X12859Y10001
X-13Y4712
X12065Y9366
X2978Y4801
X-3480Y5029
X-14370Y12541
X-10928Y7029
X12065Y15399
X11112Y15399
X12992Y24447
X12224Y24447
X1880Y32836
X394Y28486
T4
X-3150Y29372
X-12224Y13335
X-10344Y8807
X-9220Y7061
X-12541Y14129
T5
X13Y22079
X-7760Y22079
X-5169Y11995
X-7760Y19539
X5194Y19539
X-5169Y9379
X2604Y9354
X7760Y9379
X5169Y11919
X-5126Y6625
X5990Y7140
X-12588Y15058
X11795Y18280
X-10001Y28099
X5111Y28141
X-11051Y9665
X-11293Y8826
X10319Y8414
X-10497Y11525
X10160Y9208
X-9760Y11614
X10319Y10954
X-10084Y13462
X-9843Y14180
X10344Y11824
X-10319Y16034
X10414Y12554
X-10319Y16828
X10160Y14287
X-10319Y17621
X10344Y15056
X-10319Y19368
X10103Y17291
X-10370Y20371
X10516Y19329
X-10319Y21590
X10414Y20180
X-10344Y23336
X10319Y20974
X10319Y21907
X-10370Y24073
X10478Y22860
X-10300Y25933
X-10300Y26683
X10630Y23685
X10554Y24460
X10160Y27146
X1575Y25502
X6833Y25502
X-7798Y25603
X-7798Y22987
X7341Y22987
X1854Y22987
X-7798Y17983
X-10636Y10795
X7087Y20447
X-7823Y20472
X6909Y12852
X6833Y10262
X6833Y7696
X-6096Y7772
X-8763Y10287
X-6299Y10262
X5131Y15342
X2515Y7645
X-7798Y15469
X-7747Y12776
X-3683Y20472
X7036Y17907
X-9074Y27438
X-3848Y27388
X-9017Y24816
X-152Y24867
X3873Y27362
X9157Y27438
X13Y17075
X-7785Y17101
X5220Y17101
X2553Y14586
X-5169Y14510
X7785Y14535
X7760Y22079
X1626Y10262
M30