G04 EAGLE Gerber RS-274X export*
G75*
%MOMM*%
%FSLAX34Y34*%
%LPD*%
%INBottom Copper*%
%IPPOS*%
%AMOC8*
5,1,8,0,0,1.08239X$1,22.5*%
G01*
%ADD10R,0.700000X0.900000*%
%ADD11R,1.100000X1.000000*%
%ADD12P,1.649562X8X22.500000*%
%ADD13C,1.524000*%
%ADD14R,0.900000X0.700000*%
%ADD15R,0.297181X0.550000*%
%ADD16R,0.550000X0.297181*%
%ADD17R,5.600000X5.600000*%
%ADD18R,0.400000X1.399997*%
%ADD19C,1.000000*%
%ADD20C,1.530000*%
%ADD21R,0.200000X0.650000*%
%ADD22R,0.200000X0.600000*%
%ADD23R,0.800000X0.500000*%
%ADD24C,0.304800*%
%ADD25C,0.750000*%
%ADD26C,0.406400*%
%ADD27C,0.604800*%
%ADD28C,0.203200*%
%ADD29C,0.554800*%
%ADD30C,0.600000*%
%ADD31C,0.152400*%
%ADD32C,0.254000*%

G36*
X18Y-656D02*
X18Y-656D01*
X96Y-657D01*
X119Y-648D01*
X139Y-646D01*
X178Y-626D01*
X252Y-599D01*
X16706Y8901D01*
X16728Y8920D01*
X16753Y8932D01*
X16788Y8970D01*
X16791Y8972D01*
X16794Y8977D01*
X16801Y8985D01*
X16855Y9033D01*
X16867Y9059D01*
X16886Y9080D01*
X16910Y9148D01*
X16941Y9212D01*
X16942Y9241D01*
X16952Y9268D01*
X16947Y9339D01*
X16950Y9411D01*
X16940Y9438D01*
X16938Y9466D01*
X16895Y9558D01*
X16881Y9597D01*
X16873Y9605D01*
X16868Y9617D01*
X16461Y10208D01*
X49021Y29006D01*
X49053Y29033D01*
X49091Y29053D01*
X49138Y29105D01*
X49192Y29151D01*
X49213Y29188D01*
X49241Y29219D01*
X49268Y29285D01*
X49303Y29346D01*
X49309Y29388D01*
X49325Y29427D01*
X49327Y29498D01*
X49338Y29568D01*
X49330Y29609D01*
X49331Y29652D01*
X49304Y29738D01*
X49294Y29788D01*
X49283Y29806D01*
X49275Y29831D01*
X48422Y31603D01*
X48359Y31689D01*
X48298Y31777D01*
X48293Y31781D01*
X48290Y31784D01*
X48264Y31802D01*
X48181Y31863D01*
X47990Y32482D01*
X47972Y32517D01*
X47956Y32570D01*
X47673Y33157D01*
X47683Y33218D01*
X47702Y33323D01*
X47701Y33329D01*
X47702Y33334D01*
X47696Y33365D01*
X47674Y33509D01*
X47000Y35693D01*
X46951Y35788D01*
X46903Y35884D01*
X46899Y35888D01*
X46897Y35892D01*
X46873Y35914D01*
X46801Y35986D01*
X46704Y36627D01*
X46692Y36664D01*
X46683Y36719D01*
X46492Y37341D01*
X46510Y37400D01*
X46545Y37502D01*
X46545Y37507D01*
X46546Y37512D01*
X46545Y37544D01*
X46544Y37689D01*
X46204Y39949D01*
X46170Y40049D01*
X46137Y40152D01*
X46133Y40157D01*
X46132Y40161D01*
X46112Y40186D01*
X46051Y40268D01*
X46051Y40917D01*
X46044Y40956D01*
X46044Y41011D01*
X45947Y41655D01*
X45974Y41710D01*
X46023Y41806D01*
X46024Y41811D01*
X46026Y41816D01*
X46029Y41847D01*
X46042Y41929D01*
X46044Y41936D01*
X46044Y41943D01*
X46051Y41991D01*
X46051Y44276D01*
X46032Y44382D01*
X46015Y44487D01*
X46012Y44493D01*
X46011Y44497D01*
X45995Y44525D01*
X45947Y44615D01*
X46044Y45256D01*
X46043Y45296D01*
X46051Y45351D01*
X46051Y46001D01*
X46086Y46051D01*
X46149Y46139D01*
X46150Y46145D01*
X46153Y46149D01*
X46161Y46179D01*
X46204Y46318D01*
X46212Y46375D01*
X46212Y46376D01*
X46308Y47010D01*
X46404Y47644D01*
X46499Y48278D01*
X46499Y48279D01*
X46544Y48578D01*
X46541Y48685D01*
X46540Y48792D01*
X46538Y48798D01*
X46538Y48803D01*
X46526Y48832D01*
X46492Y48929D01*
X46683Y49548D01*
X46688Y49587D01*
X46705Y49641D01*
X46801Y50284D01*
X46844Y50329D01*
X46919Y50406D01*
X46921Y50411D01*
X46925Y50414D01*
X46937Y50443D01*
X47000Y50575D01*
X47674Y52759D01*
X47687Y52864D01*
X47701Y52971D01*
X47700Y52977D01*
X47701Y52981D01*
X47694Y53012D01*
X47674Y53113D01*
X47956Y53697D01*
X47966Y53735D01*
X47990Y53785D01*
X48182Y54407D01*
X48231Y54445D01*
X48316Y54510D01*
X48320Y54514D01*
X48323Y54517D01*
X48340Y54545D01*
X48422Y54665D01*
X49413Y56724D01*
X49442Y56827D01*
X49472Y56930D01*
X49472Y56935D01*
X49474Y56940D01*
X49471Y56972D01*
X49467Y57074D01*
X49832Y57610D01*
X49848Y57646D01*
X49880Y57692D01*
X50162Y58278D01*
X50216Y58309D01*
X50310Y58360D01*
X50314Y58364D01*
X50318Y58366D01*
X50339Y58391D01*
X50437Y58497D01*
X51725Y60386D01*
X51768Y60483D01*
X51814Y60580D01*
X51814Y60586D01*
X51816Y60590D01*
X51818Y60622D01*
X51830Y60724D01*
X52271Y61199D01*
X52292Y61232D01*
X52330Y61273D01*
X52696Y61811D01*
X52754Y61833D01*
X52855Y61869D01*
X52860Y61873D01*
X52864Y61875D01*
X52888Y61896D01*
X53001Y61986D01*
X53666Y62703D01*
X53696Y62749D01*
X53733Y62788D01*
X53756Y62842D01*
X53787Y62892D01*
X53799Y62945D01*
X53820Y62995D01*
X53823Y63053D01*
X53835Y63111D01*
X53828Y63165D01*
X53830Y63219D01*
X53812Y63275D01*
X53804Y63333D01*
X53778Y63381D01*
X53761Y63432D01*
X53719Y63490D01*
X53697Y63531D01*
X53674Y63551D01*
X53650Y63583D01*
X51815Y65418D01*
X51815Y67746D01*
X51808Y67788D01*
X51810Y67830D01*
X51788Y67897D01*
X51787Y67902D01*
X51787Y75316D01*
X55582Y79111D01*
X55606Y79146D01*
X55638Y79174D01*
X55670Y79237D01*
X55710Y79295D01*
X55721Y79336D01*
X55740Y79374D01*
X55754Y79464D01*
X55766Y79512D01*
X55764Y79533D01*
X55768Y79559D01*
X55768Y123299D01*
X55760Y123341D01*
X55762Y123384D01*
X55741Y123451D01*
X55728Y123520D01*
X55707Y123557D01*
X55694Y123597D01*
X55640Y123670D01*
X55614Y123713D01*
X55598Y123727D01*
X55582Y123748D01*
X52162Y127167D01*
X52128Y127192D01*
X52099Y127223D01*
X52036Y127255D01*
X51978Y127296D01*
X51937Y127306D01*
X51899Y127326D01*
X51810Y127339D01*
X51761Y127352D01*
X51740Y127349D01*
X51714Y127353D01*
X38709Y127353D01*
X38644Y127342D01*
X38578Y127340D01*
X38535Y127322D01*
X38488Y127314D01*
X38431Y127280D01*
X38371Y127255D01*
X38336Y127224D01*
X38295Y127199D01*
X38253Y127148D01*
X38205Y127104D01*
X38183Y127062D01*
X38154Y127025D01*
X38133Y126963D01*
X38102Y126904D01*
X38094Y126850D01*
X38082Y126813D01*
X38083Y126773D01*
X38075Y126719D01*
X38075Y122775D01*
X37182Y121882D01*
X31152Y121882D01*
X31087Y121871D01*
X31021Y121869D01*
X30978Y121851D01*
X30931Y121843D01*
X30874Y121809D01*
X30813Y121784D01*
X30779Y121753D01*
X30738Y121729D01*
X30696Y121677D01*
X30648Y121633D01*
X30626Y121591D01*
X30596Y121554D01*
X30575Y121492D01*
X30545Y121433D01*
X30537Y121379D01*
X30525Y121342D01*
X30526Y121303D01*
X30518Y121248D01*
X30518Y115218D01*
X29625Y114325D01*
X25371Y114325D01*
X25353Y114343D01*
X25310Y114361D01*
X25271Y114388D01*
X25207Y114404D01*
X25146Y114430D01*
X25099Y114432D01*
X25054Y114444D01*
X24988Y114437D01*
X24922Y114440D01*
X24877Y114426D01*
X24830Y114421D01*
X24771Y114391D01*
X24709Y114371D01*
X24665Y114339D01*
X24638Y114325D01*
X20370Y114325D01*
X20352Y114343D01*
X20308Y114361D01*
X20269Y114388D01*
X20206Y114405D01*
X20145Y114430D01*
X20098Y114433D01*
X20052Y114444D01*
X19987Y114438D01*
X19921Y114440D01*
X19876Y114426D01*
X19829Y114421D01*
X19770Y114392D01*
X19707Y114372D01*
X19663Y114339D01*
X19635Y114325D01*
X15368Y114325D01*
X15350Y114343D01*
X15307Y114361D01*
X15268Y114388D01*
X15204Y114404D01*
X15143Y114430D01*
X15096Y114432D01*
X15051Y114444D01*
X14985Y114437D01*
X14919Y114440D01*
X14874Y114426D01*
X14827Y114421D01*
X14768Y114391D01*
X14706Y114371D01*
X14662Y114339D01*
X14635Y114325D01*
X10367Y114325D01*
X10349Y114343D01*
X10306Y114361D01*
X10267Y114388D01*
X10203Y114404D01*
X10142Y114430D01*
X10095Y114432D01*
X10050Y114444D01*
X9984Y114437D01*
X9918Y114440D01*
X9873Y114426D01*
X9826Y114421D01*
X9767Y114391D01*
X9705Y114371D01*
X9661Y114339D01*
X9634Y114325D01*
X5384Y114325D01*
X4491Y115218D01*
X4491Y121982D01*
X5384Y122875D01*
X9638Y122875D01*
X9656Y122857D01*
X9699Y122839D01*
X9738Y122812D01*
X9802Y122796D01*
X9863Y122770D01*
X9910Y122768D01*
X9956Y122756D01*
X10021Y122763D01*
X10087Y122760D01*
X10132Y122775D01*
X10179Y122779D01*
X10238Y122809D01*
X10300Y122829D01*
X10344Y122861D01*
X10372Y122875D01*
X14639Y122875D01*
X14657Y122857D01*
X14700Y122839D01*
X14739Y122812D01*
X14803Y122796D01*
X14864Y122770D01*
X14911Y122768D01*
X14957Y122756D01*
X15022Y122763D01*
X15088Y122760D01*
X15133Y122775D01*
X15180Y122779D01*
X15239Y122809D01*
X15301Y122829D01*
X15345Y122861D01*
X15373Y122875D01*
X19640Y122875D01*
X19659Y122857D01*
X19702Y122839D01*
X19741Y122812D01*
X19805Y122795D01*
X19865Y122770D01*
X19912Y122767D01*
X19958Y122756D01*
X20023Y122762D01*
X20089Y122760D01*
X20134Y122774D01*
X20181Y122779D01*
X20240Y122808D01*
X20303Y122828D01*
X20347Y122861D01*
X20375Y122875D01*
X24642Y122875D01*
X24660Y122857D01*
X24703Y122839D01*
X24742Y122812D01*
X24806Y122796D01*
X24867Y122770D01*
X24914Y122768D01*
X24960Y122756D01*
X25025Y122763D01*
X25091Y122760D01*
X25136Y122775D01*
X25183Y122779D01*
X25242Y122809D01*
X25304Y122829D01*
X25348Y122861D01*
X25376Y122875D01*
X28891Y122875D01*
X28956Y122886D01*
X29022Y122888D01*
X29065Y122906D01*
X29112Y122914D01*
X29169Y122948D01*
X29229Y122973D01*
X29264Y123004D01*
X29305Y123029D01*
X29347Y123080D01*
X29395Y123124D01*
X29417Y123166D01*
X29446Y123203D01*
X29467Y123265D01*
X29498Y123324D01*
X29506Y123378D01*
X29518Y123415D01*
X29517Y123455D01*
X29525Y123509D01*
X29525Y127029D01*
X29543Y127047D01*
X29561Y127090D01*
X29588Y127129D01*
X29604Y127193D01*
X29630Y127254D01*
X29632Y127301D01*
X29644Y127347D01*
X29637Y127412D01*
X29640Y127478D01*
X29625Y127523D01*
X29621Y127570D01*
X29591Y127629D01*
X29571Y127691D01*
X29539Y127735D01*
X29525Y127763D01*
X29525Y132030D01*
X29543Y132049D01*
X29561Y132092D01*
X29588Y132131D01*
X29605Y132195D01*
X29630Y132255D01*
X29633Y132302D01*
X29644Y132348D01*
X29638Y132413D01*
X29640Y132479D01*
X29626Y132524D01*
X29621Y132571D01*
X29592Y132630D01*
X29572Y132693D01*
X29539Y132737D01*
X29525Y132765D01*
X29525Y137032D01*
X29543Y137050D01*
X29561Y137093D01*
X29588Y137132D01*
X29604Y137196D01*
X29630Y137257D01*
X29632Y137304D01*
X29644Y137350D01*
X29637Y137415D01*
X29640Y137481D01*
X29625Y137526D01*
X29621Y137573D01*
X29591Y137632D01*
X29571Y137694D01*
X29539Y137738D01*
X29525Y137766D01*
X29525Y142033D01*
X29543Y142051D01*
X29561Y142094D01*
X29588Y142133D01*
X29604Y142197D01*
X29630Y142258D01*
X29632Y142305D01*
X29644Y142351D01*
X29637Y142416D01*
X29640Y142482D01*
X29625Y142527D01*
X29621Y142574D01*
X29591Y142633D01*
X29571Y142695D01*
X29539Y142739D01*
X29525Y142767D01*
X29525Y147034D01*
X29543Y147052D01*
X29561Y147095D01*
X29588Y147134D01*
X29604Y147198D01*
X29630Y147259D01*
X29632Y147306D01*
X29644Y147352D01*
X29637Y147417D01*
X29640Y147483D01*
X29625Y147528D01*
X29621Y147575D01*
X29591Y147634D01*
X29571Y147696D01*
X29539Y147740D01*
X29525Y147768D01*
X29525Y152035D01*
X29543Y152054D01*
X29555Y152081D01*
X29556Y152083D01*
X29560Y152093D01*
X29561Y152097D01*
X29588Y152136D01*
X29605Y152200D01*
X29630Y152260D01*
X29633Y152307D01*
X29644Y152353D01*
X29638Y152418D01*
X29640Y152484D01*
X29626Y152529D01*
X29621Y152576D01*
X29592Y152635D01*
X29572Y152698D01*
X29539Y152742D01*
X29525Y152770D01*
X29525Y157037D01*
X29543Y157055D01*
X29561Y157098D01*
X29588Y157137D01*
X29604Y157201D01*
X29630Y157262D01*
X29632Y157309D01*
X29644Y157355D01*
X29637Y157420D01*
X29640Y157486D01*
X29625Y157531D01*
X29621Y157578D01*
X29591Y157637D01*
X29571Y157699D01*
X29539Y157743D01*
X29525Y157771D01*
X29525Y162038D01*
X29543Y162056D01*
X29561Y162099D01*
X29588Y162138D01*
X29604Y162202D01*
X29630Y162263D01*
X29632Y162310D01*
X29644Y162355D01*
X29637Y162421D01*
X29640Y162487D01*
X29626Y162532D01*
X29621Y162579D01*
X29591Y162638D01*
X29571Y162700D01*
X29539Y162744D01*
X29525Y162771D01*
X29525Y167039D01*
X29543Y167057D01*
X29561Y167100D01*
X29588Y167139D01*
X29604Y167203D01*
X29630Y167264D01*
X29632Y167311D01*
X29644Y167357D01*
X29637Y167422D01*
X29640Y167488D01*
X29625Y167533D01*
X29621Y167580D01*
X29591Y167639D01*
X29571Y167701D01*
X29539Y167745D01*
X29525Y167773D01*
X29525Y172040D01*
X29543Y172059D01*
X29561Y172102D01*
X29588Y172141D01*
X29605Y172205D01*
X29630Y172265D01*
X29633Y172312D01*
X29644Y172358D01*
X29638Y172423D01*
X29640Y172489D01*
X29626Y172534D01*
X29621Y172581D01*
X29592Y172640D01*
X29572Y172703D01*
X29539Y172747D01*
X29525Y172775D01*
X29525Y177042D01*
X29543Y177060D01*
X29561Y177103D01*
X29588Y177142D01*
X29604Y177206D01*
X29630Y177267D01*
X29632Y177314D01*
X29644Y177360D01*
X29637Y177425D01*
X29640Y177491D01*
X29625Y177536D01*
X29621Y177583D01*
X29591Y177642D01*
X29571Y177704D01*
X29539Y177748D01*
X29525Y177776D01*
X29525Y181291D01*
X29514Y181356D01*
X29512Y181422D01*
X29494Y181465D01*
X29486Y181512D01*
X29452Y181569D01*
X29427Y181629D01*
X29396Y181664D01*
X29371Y181705D01*
X29320Y181747D01*
X29276Y181795D01*
X29234Y181817D01*
X29197Y181846D01*
X29135Y181867D01*
X29076Y181898D01*
X29022Y181906D01*
X28985Y181918D01*
X28945Y181917D01*
X28891Y181925D01*
X25371Y181925D01*
X25353Y181943D01*
X25310Y181961D01*
X25271Y181988D01*
X25207Y182004D01*
X25146Y182030D01*
X25099Y182032D01*
X25053Y182044D01*
X24988Y182037D01*
X24922Y182040D01*
X24877Y182025D01*
X24830Y182021D01*
X24771Y181991D01*
X24709Y181971D01*
X24665Y181939D01*
X24637Y181925D01*
X20370Y181925D01*
X20351Y181943D01*
X20308Y181961D01*
X20269Y181988D01*
X20205Y182005D01*
X20145Y182030D01*
X20098Y182033D01*
X20052Y182044D01*
X19987Y182038D01*
X19921Y182040D01*
X19876Y182026D01*
X19829Y182021D01*
X19770Y181992D01*
X19707Y181972D01*
X19663Y181939D01*
X19635Y181925D01*
X15368Y181925D01*
X15350Y181943D01*
X15307Y181961D01*
X15268Y181988D01*
X15204Y182004D01*
X15143Y182030D01*
X15096Y182032D01*
X15050Y182044D01*
X14985Y182037D01*
X14919Y182040D01*
X14874Y182025D01*
X14827Y182021D01*
X14768Y181991D01*
X14706Y181971D01*
X14662Y181939D01*
X14634Y181925D01*
X10367Y181925D01*
X10349Y181943D01*
X10306Y181961D01*
X10267Y181988D01*
X10203Y182004D01*
X10142Y182030D01*
X10095Y182032D01*
X10049Y182044D01*
X9984Y182037D01*
X9918Y182040D01*
X9873Y182025D01*
X9826Y182021D01*
X9767Y181991D01*
X9705Y181971D01*
X9661Y181939D01*
X9633Y181925D01*
X5366Y181925D01*
X5348Y181943D01*
X5305Y181961D01*
X5266Y181988D01*
X5202Y182004D01*
X5141Y182030D01*
X5094Y182032D01*
X5048Y182044D01*
X4983Y182037D01*
X4917Y182040D01*
X4872Y182025D01*
X4825Y182021D01*
X4766Y181991D01*
X4704Y181971D01*
X4660Y181939D01*
X4632Y181925D01*
X365Y181925D01*
X347Y181943D01*
X303Y181961D01*
X264Y181988D01*
X201Y182005D01*
X140Y182030D01*
X93Y182033D01*
X47Y182044D01*
X-18Y182038D01*
X-84Y182040D01*
X-129Y182026D01*
X-176Y182021D01*
X-235Y181992D01*
X-298Y181972D01*
X-342Y181939D01*
X-370Y181925D01*
X-4637Y181925D01*
X-4655Y181943D01*
X-4698Y181961D01*
X-4737Y181988D01*
X-4801Y182004D01*
X-4862Y182030D01*
X-4909Y182032D01*
X-4955Y182044D01*
X-5020Y182037D01*
X-5086Y182040D01*
X-5131Y182025D01*
X-5178Y182021D01*
X-5237Y181991D01*
X-5299Y181971D01*
X-5343Y181939D01*
X-5371Y181925D01*
X-9638Y181925D01*
X-9656Y181943D01*
X-9699Y181961D01*
X-9738Y181988D01*
X-9802Y182004D01*
X-9863Y182030D01*
X-9910Y182032D01*
X-9956Y182044D01*
X-10021Y182037D01*
X-10087Y182040D01*
X-10132Y182025D01*
X-10179Y182021D01*
X-10238Y181991D01*
X-10300Y181971D01*
X-10344Y181939D01*
X-10372Y181925D01*
X-14639Y181925D01*
X-14657Y181943D01*
X-14700Y181961D01*
X-14739Y181988D01*
X-14803Y182004D01*
X-14864Y182030D01*
X-14911Y182032D01*
X-14957Y182044D01*
X-15022Y182037D01*
X-15088Y182040D01*
X-15133Y182025D01*
X-15180Y182021D01*
X-15239Y181991D01*
X-15301Y181971D01*
X-15345Y181939D01*
X-15373Y181925D01*
X-19640Y181925D01*
X-19659Y181943D01*
X-19702Y181961D01*
X-19741Y181988D01*
X-19805Y182005D01*
X-19865Y182030D01*
X-19912Y182033D01*
X-19958Y182044D01*
X-20023Y182038D01*
X-20089Y182040D01*
X-20134Y182026D01*
X-20181Y182021D01*
X-20240Y181992D01*
X-20303Y181972D01*
X-20347Y181939D01*
X-20375Y181925D01*
X-24642Y181925D01*
X-24660Y181943D01*
X-24703Y181961D01*
X-24742Y181988D01*
X-24806Y182004D01*
X-24867Y182030D01*
X-24914Y182032D01*
X-24960Y182044D01*
X-25025Y182037D01*
X-25091Y182040D01*
X-25136Y182025D01*
X-25183Y182021D01*
X-25242Y181991D01*
X-25304Y181971D01*
X-25348Y181939D01*
X-25376Y181925D01*
X-28891Y181925D01*
X-28956Y181914D01*
X-29022Y181912D01*
X-29065Y181894D01*
X-29112Y181886D01*
X-29169Y181852D01*
X-29229Y181827D01*
X-29264Y181796D01*
X-29305Y181771D01*
X-29347Y181720D01*
X-29395Y181676D01*
X-29417Y181634D01*
X-29446Y181597D01*
X-29467Y181535D01*
X-29498Y181476D01*
X-29506Y181422D01*
X-29518Y181385D01*
X-29517Y181345D01*
X-29525Y181291D01*
X-29525Y177771D01*
X-29543Y177753D01*
X-29561Y177710D01*
X-29588Y177671D01*
X-29604Y177607D01*
X-29630Y177546D01*
X-29632Y177499D01*
X-29644Y177453D01*
X-29637Y177388D01*
X-29640Y177322D01*
X-29625Y177277D01*
X-29621Y177230D01*
X-29591Y177171D01*
X-29571Y177109D01*
X-29539Y177065D01*
X-29525Y177037D01*
X-29525Y172770D01*
X-29543Y172751D01*
X-29561Y172708D01*
X-29588Y172669D01*
X-29605Y172605D01*
X-29630Y172545D01*
X-29633Y172498D01*
X-29644Y172452D01*
X-29638Y172387D01*
X-29640Y172321D01*
X-29626Y172276D01*
X-29621Y172229D01*
X-29592Y172170D01*
X-29572Y172107D01*
X-29539Y172063D01*
X-29525Y172035D01*
X-29525Y167768D01*
X-29543Y167750D01*
X-29561Y167707D01*
X-29588Y167668D01*
X-29604Y167604D01*
X-29630Y167543D01*
X-29632Y167496D01*
X-29644Y167450D01*
X-29637Y167385D01*
X-29640Y167319D01*
X-29625Y167274D01*
X-29621Y167227D01*
X-29591Y167168D01*
X-29571Y167106D01*
X-29539Y167062D01*
X-29525Y167034D01*
X-29525Y162767D01*
X-29543Y162749D01*
X-29561Y162706D01*
X-29588Y162667D01*
X-29604Y162603D01*
X-29630Y162542D01*
X-29632Y162495D01*
X-29644Y162449D01*
X-29637Y162384D01*
X-29640Y162318D01*
X-29625Y162273D01*
X-29621Y162226D01*
X-29591Y162167D01*
X-29571Y162105D01*
X-29539Y162061D01*
X-29525Y162033D01*
X-29525Y157766D01*
X-29543Y157748D01*
X-29561Y157705D01*
X-29588Y157666D01*
X-29604Y157602D01*
X-29630Y157541D01*
X-29632Y157494D01*
X-29644Y157448D01*
X-29637Y157383D01*
X-29640Y157317D01*
X-29625Y157272D01*
X-29621Y157225D01*
X-29591Y157166D01*
X-29571Y157104D01*
X-29539Y157060D01*
X-29525Y157032D01*
X-29525Y152765D01*
X-29543Y152746D01*
X-29561Y152703D01*
X-29588Y152664D01*
X-29605Y152600D01*
X-29630Y152540D01*
X-29633Y152493D01*
X-29644Y152447D01*
X-29638Y152382D01*
X-29640Y152316D01*
X-29626Y152271D01*
X-29621Y152224D01*
X-29592Y152165D01*
X-29572Y152102D01*
X-29542Y152061D01*
X-29537Y152051D01*
X-29533Y152046D01*
X-29525Y152030D01*
X-29525Y147763D01*
X-29543Y147745D01*
X-29561Y147702D01*
X-29588Y147663D01*
X-29604Y147599D01*
X-29630Y147538D01*
X-29632Y147491D01*
X-29644Y147445D01*
X-29637Y147380D01*
X-29640Y147314D01*
X-29625Y147269D01*
X-29621Y147222D01*
X-29591Y147163D01*
X-29571Y147101D01*
X-29539Y147057D01*
X-29525Y147029D01*
X-29525Y142762D01*
X-29543Y142744D01*
X-29561Y142701D01*
X-29588Y142662D01*
X-29604Y142598D01*
X-29630Y142537D01*
X-29632Y142490D01*
X-29644Y142444D01*
X-29637Y142379D01*
X-29640Y142313D01*
X-29625Y142268D01*
X-29621Y142221D01*
X-29591Y142162D01*
X-29571Y142100D01*
X-29539Y142056D01*
X-29525Y142028D01*
X-29525Y137761D01*
X-29543Y137743D01*
X-29561Y137700D01*
X-29588Y137661D01*
X-29604Y137597D01*
X-29630Y137536D01*
X-29632Y137489D01*
X-29644Y137443D01*
X-29637Y137378D01*
X-29640Y137312D01*
X-29625Y137267D01*
X-29621Y137220D01*
X-29591Y137161D01*
X-29571Y137099D01*
X-29539Y137055D01*
X-29525Y137027D01*
X-29525Y132760D01*
X-29543Y132741D01*
X-29561Y132698D01*
X-29588Y132659D01*
X-29605Y132595D01*
X-29630Y132535D01*
X-29633Y132488D01*
X-29644Y132442D01*
X-29638Y132377D01*
X-29640Y132311D01*
X-29626Y132266D01*
X-29621Y132219D01*
X-29592Y132160D01*
X-29572Y132097D01*
X-29539Y132053D01*
X-29525Y132025D01*
X-29525Y127758D01*
X-29543Y127740D01*
X-29561Y127697D01*
X-29588Y127658D01*
X-29604Y127594D01*
X-29630Y127533D01*
X-29632Y127486D01*
X-29644Y127440D01*
X-29637Y127375D01*
X-29640Y127309D01*
X-29625Y127264D01*
X-29621Y127217D01*
X-29591Y127158D01*
X-29571Y127096D01*
X-29539Y127052D01*
X-29525Y127024D01*
X-29525Y123509D01*
X-29514Y123444D01*
X-29512Y123378D01*
X-29494Y123335D01*
X-29486Y123288D01*
X-29452Y123231D01*
X-29427Y123171D01*
X-29396Y123136D01*
X-29371Y123095D01*
X-29320Y123053D01*
X-29276Y123005D01*
X-29234Y122983D01*
X-29197Y122954D01*
X-29135Y122933D01*
X-29076Y122902D01*
X-29022Y122894D01*
X-28985Y122882D01*
X-28945Y122883D01*
X-28891Y122875D01*
X-25371Y122875D01*
X-25353Y122857D01*
X-25310Y122839D01*
X-25271Y122812D01*
X-25207Y122796D01*
X-25146Y122770D01*
X-25099Y122768D01*
X-25053Y122756D01*
X-24988Y122763D01*
X-24922Y122760D01*
X-24877Y122775D01*
X-24830Y122779D01*
X-24771Y122809D01*
X-24709Y122829D01*
X-24665Y122861D01*
X-24637Y122875D01*
X-20370Y122875D01*
X-20351Y122857D01*
X-20308Y122839D01*
X-20269Y122812D01*
X-20205Y122795D01*
X-20145Y122770D01*
X-20098Y122767D01*
X-20052Y122756D01*
X-19987Y122762D01*
X-19921Y122760D01*
X-19876Y122774D01*
X-19829Y122779D01*
X-19770Y122808D01*
X-19707Y122828D01*
X-19663Y122861D01*
X-19635Y122875D01*
X-15368Y122875D01*
X-15350Y122857D01*
X-15307Y122839D01*
X-15268Y122812D01*
X-15204Y122796D01*
X-15143Y122770D01*
X-15096Y122768D01*
X-15050Y122756D01*
X-14985Y122763D01*
X-14919Y122760D01*
X-14874Y122775D01*
X-14827Y122779D01*
X-14768Y122809D01*
X-14706Y122829D01*
X-14662Y122861D01*
X-14634Y122875D01*
X-10367Y122875D01*
X-10349Y122857D01*
X-10306Y122839D01*
X-10267Y122812D01*
X-10203Y122796D01*
X-10142Y122770D01*
X-10095Y122768D01*
X-10049Y122756D01*
X-9984Y122763D01*
X-9918Y122760D01*
X-9873Y122775D01*
X-9826Y122779D01*
X-9767Y122809D01*
X-9705Y122829D01*
X-9661Y122861D01*
X-9633Y122875D01*
X-5366Y122875D01*
X-5348Y122857D01*
X-5305Y122839D01*
X-5266Y122812D01*
X-5202Y122796D01*
X-5141Y122770D01*
X-5094Y122768D01*
X-5048Y122756D01*
X-4983Y122763D01*
X-4917Y122760D01*
X-4872Y122775D01*
X-4825Y122779D01*
X-4766Y122809D01*
X-4704Y122829D01*
X-4660Y122861D01*
X-4632Y122875D01*
X-384Y122875D01*
X510Y121982D01*
X510Y120164D01*
X517Y120122D01*
X515Y120079D01*
X537Y120012D01*
X548Y119952D01*
X548Y109099D01*
X-1290Y107261D01*
X-1314Y107227D01*
X-1345Y107198D01*
X-1377Y107135D01*
X-1418Y107077D01*
X-1428Y107036D01*
X-1448Y106998D01*
X-1461Y106909D01*
X-1474Y106860D01*
X-1471Y106839D01*
X-1475Y106813D01*
X-1475Y91706D01*
X-1901Y91280D01*
X-1926Y91245D01*
X-1957Y91216D01*
X-1989Y91153D01*
X-2030Y91096D01*
X-2040Y91054D01*
X-2060Y91017D01*
X-2073Y90927D01*
X-2086Y90878D01*
X-2083Y90857D01*
X-2087Y90831D01*
X-2087Y77255D01*
X-2080Y77214D01*
X-2082Y77171D01*
X-2060Y77104D01*
X-2048Y77035D01*
X-2026Y76998D01*
X-2013Y76958D01*
X-1959Y76885D01*
X-1933Y76841D01*
X-1917Y76828D01*
X-1901Y76807D01*
X21394Y53511D01*
X21429Y53487D01*
X21458Y53455D01*
X21521Y53423D01*
X21579Y53383D01*
X21620Y53372D01*
X21658Y53353D01*
X21747Y53339D01*
X21796Y53327D01*
X21817Y53329D01*
X21843Y53325D01*
X24010Y53325D01*
X25377Y51958D01*
X25431Y51920D01*
X25479Y51875D01*
X25522Y51857D01*
X25561Y51830D01*
X25625Y51814D01*
X25686Y51788D01*
X25733Y51786D01*
X25778Y51774D01*
X25844Y51781D01*
X25910Y51778D01*
X25955Y51792D01*
X26002Y51797D01*
X26061Y51826D01*
X26123Y51847D01*
X26167Y51879D01*
X26203Y51897D01*
X26230Y51925D01*
X26274Y51958D01*
X27597Y53281D01*
X31966Y53281D01*
X35056Y50191D01*
X35056Y45821D01*
X31966Y42731D01*
X29806Y42731D01*
X29707Y42713D01*
X29608Y42699D01*
X29597Y42694D01*
X29585Y42692D01*
X29499Y42640D01*
X29410Y42592D01*
X29403Y42584D01*
X29392Y42577D01*
X29329Y42499D01*
X29263Y42424D01*
X29258Y42412D01*
X29251Y42403D01*
X29219Y42308D01*
X29183Y42214D01*
X29183Y42202D01*
X29179Y42191D01*
X29182Y42091D01*
X29181Y41990D01*
X29185Y41978D01*
X29186Y41966D01*
X29223Y41874D01*
X29258Y41779D01*
X29266Y41770D01*
X29270Y41759D01*
X29338Y41684D01*
X29403Y41608D01*
X29414Y41601D01*
X29421Y41593D01*
X29462Y41572D01*
X29564Y41511D01*
X30580Y41090D01*
X33153Y38518D01*
X34545Y35157D01*
X34545Y31518D01*
X33153Y28157D01*
X30580Y25585D01*
X27219Y24193D01*
X23581Y24193D01*
X20220Y25585D01*
X17647Y28157D01*
X16255Y31518D01*
X16255Y35157D01*
X17186Y37404D01*
X17198Y37457D01*
X17219Y37507D01*
X17222Y37566D01*
X17234Y37624D01*
X17227Y37677D01*
X17229Y37731D01*
X17211Y37787D01*
X17203Y37846D01*
X17177Y37893D01*
X17160Y37945D01*
X17118Y38002D01*
X17096Y38043D01*
X17073Y38063D01*
X17049Y38095D01*
X-23884Y79028D01*
X-23957Y79079D01*
X-24026Y79135D01*
X-24048Y79142D01*
X-24068Y79156D01*
X-24154Y79178D01*
X-24238Y79207D01*
X-24262Y79206D01*
X-24285Y79212D01*
X-24374Y79203D01*
X-24463Y79200D01*
X-24485Y79191D01*
X-24508Y79189D01*
X-24588Y79149D01*
X-24670Y79116D01*
X-24688Y79100D01*
X-24709Y79089D01*
X-24770Y79024D01*
X-24836Y78964D01*
X-24847Y78943D01*
X-24863Y78926D01*
X-24898Y78844D01*
X-24939Y78765D01*
X-24942Y78739D01*
X-24951Y78719D01*
X-24953Y78669D01*
X-24966Y78579D01*
X-24966Y60634D01*
X-24955Y60569D01*
X-24953Y60503D01*
X-24935Y60460D01*
X-24927Y60413D01*
X-24893Y60356D01*
X-24868Y60296D01*
X-24837Y60261D01*
X-24812Y60220D01*
X-24761Y60178D01*
X-24717Y60130D01*
X-24675Y60108D01*
X-24638Y60079D01*
X-24576Y60058D01*
X-24517Y60027D01*
X-24463Y60019D01*
X-24426Y60007D01*
X-24386Y60008D01*
X-24332Y60000D01*
X-16656Y60000D01*
X-15763Y59107D01*
X-15763Y48843D01*
X-16656Y47950D01*
X-24332Y47950D01*
X-24397Y47939D01*
X-24463Y47937D01*
X-24506Y47919D01*
X-24553Y47911D01*
X-24610Y47877D01*
X-24670Y47852D01*
X-24705Y47821D01*
X-24746Y47796D01*
X-24788Y47745D01*
X-24836Y47701D01*
X-24858Y47659D01*
X-24887Y47622D01*
X-24908Y47560D01*
X-24939Y47501D01*
X-24947Y47447D01*
X-24959Y47410D01*
X-24958Y47370D01*
X-24966Y47316D01*
X-24966Y43116D01*
X-24955Y43052D01*
X-24953Y42986D01*
X-24935Y42942D01*
X-24927Y42896D01*
X-24893Y42839D01*
X-24868Y42778D01*
X-24837Y42743D01*
X-24812Y42702D01*
X-24761Y42661D01*
X-24717Y42612D01*
X-24675Y42591D01*
X-24638Y42561D01*
X-24576Y42540D01*
X-24517Y42510D01*
X-24463Y42502D01*
X-24426Y42489D01*
X-24386Y42490D01*
X-24332Y42482D01*
X-23581Y42482D01*
X-20220Y41090D01*
X-17647Y38518D01*
X-16255Y35157D01*
X-16255Y31518D01*
X-17647Y28157D01*
X-20220Y25585D01*
X-23581Y24193D01*
X-27219Y24193D01*
X-30580Y25585D01*
X-33153Y28157D01*
X-34545Y31518D01*
X-34545Y35157D01*
X-33153Y38518D01*
X-30580Y41090D01*
X-30439Y41148D01*
X-30394Y41178D01*
X-30344Y41198D01*
X-30300Y41238D01*
X-30250Y41270D01*
X-30218Y41313D01*
X-30178Y41349D01*
X-30151Y41402D01*
X-30116Y41449D01*
X-30100Y41501D01*
X-30075Y41549D01*
X-30065Y41619D01*
X-30052Y41664D01*
X-30054Y41694D01*
X-30048Y41734D01*
X-30048Y46051D01*
X-30063Y46139D01*
X-30073Y46228D01*
X-30083Y46249D01*
X-30087Y46272D01*
X-30133Y46349D01*
X-30172Y46429D01*
X-30189Y46445D01*
X-30202Y46466D01*
X-30271Y46522D01*
X-30335Y46583D01*
X-30357Y46592D01*
X-30376Y46607D01*
X-30460Y46635D01*
X-30542Y46670D01*
X-30566Y46671D01*
X-30588Y46679D01*
X-30677Y46676D01*
X-30766Y46680D01*
X-30789Y46673D01*
X-30813Y46672D01*
X-30895Y46639D01*
X-30980Y46611D01*
X-31001Y46596D01*
X-31020Y46588D01*
X-31058Y46554D01*
X-31130Y46500D01*
X-32613Y45017D01*
X-36983Y45017D01*
X-40073Y48107D01*
X-40073Y52477D01*
X-36983Y55567D01*
X-32613Y55567D01*
X-31130Y54084D01*
X-31057Y54033D01*
X-30988Y53977D01*
X-30966Y53970D01*
X-30946Y53956D01*
X-30860Y53934D01*
X-30776Y53905D01*
X-30752Y53906D01*
X-30729Y53900D01*
X-30640Y53909D01*
X-30551Y53912D01*
X-30529Y53921D01*
X-30506Y53923D01*
X-30426Y53963D01*
X-30344Y53996D01*
X-30326Y54012D01*
X-30305Y54023D01*
X-30244Y54087D01*
X-30178Y54148D01*
X-30167Y54169D01*
X-30151Y54186D01*
X-30116Y54268D01*
X-30075Y54347D01*
X-30072Y54373D01*
X-30063Y54393D01*
X-30061Y54443D01*
X-30048Y54533D01*
X-30048Y114486D01*
X-30055Y114528D01*
X-30053Y114570D01*
X-30075Y114637D01*
X-30087Y114707D01*
X-30109Y114743D01*
X-30122Y114784D01*
X-30176Y114856D01*
X-30202Y114900D01*
X-30218Y114913D01*
X-30234Y114934D01*
X-30518Y115218D01*
X-30518Y121248D01*
X-30529Y121313D01*
X-30531Y121379D01*
X-30549Y121422D01*
X-30557Y121469D01*
X-30591Y121526D01*
X-30616Y121587D01*
X-30647Y121621D01*
X-30671Y121662D01*
X-30723Y121704D01*
X-30767Y121752D01*
X-30809Y121774D01*
X-30846Y121804D01*
X-30908Y121825D01*
X-30967Y121855D01*
X-31021Y121863D01*
X-31058Y121875D01*
X-31097Y121874D01*
X-31152Y121882D01*
X-36195Y121882D01*
X-36260Y121871D01*
X-36326Y121869D01*
X-36369Y121851D01*
X-36416Y121843D01*
X-36473Y121809D01*
X-36533Y121784D01*
X-36568Y121753D01*
X-36609Y121729D01*
X-36651Y121677D01*
X-36699Y121633D01*
X-36721Y121591D01*
X-36750Y121554D01*
X-36771Y121492D01*
X-36802Y121433D01*
X-36810Y121379D01*
X-36822Y121342D01*
X-36821Y121303D01*
X-36829Y121248D01*
X-36829Y62832D01*
X-47207Y52455D01*
X-47221Y52435D01*
X-47240Y52419D01*
X-47285Y52343D01*
X-47335Y52271D01*
X-47341Y52247D01*
X-47353Y52226D01*
X-47369Y52139D01*
X-47391Y52053D01*
X-47388Y52029D01*
X-47393Y52005D01*
X-47371Y51863D01*
X-47368Y51830D01*
X-47365Y51826D01*
X-47364Y51819D01*
X-46980Y50571D01*
X-46931Y50476D01*
X-46883Y50380D01*
X-46879Y50376D01*
X-46877Y50372D01*
X-46854Y50351D01*
X-46781Y50278D01*
X-46685Y49637D01*
X-46672Y49599D01*
X-46663Y49544D01*
X-46472Y48923D01*
X-46491Y48863D01*
X-46525Y48762D01*
X-46525Y48756D01*
X-46526Y48752D01*
X-46525Y48720D01*
X-46525Y48574D01*
X-46185Y46312D01*
X-46150Y46210D01*
X-46117Y46109D01*
X-46114Y46104D01*
X-46112Y46100D01*
X-46092Y46075D01*
X-46032Y45993D01*
X-46032Y45344D01*
X-46025Y45305D01*
X-46025Y45250D01*
X-45928Y44606D01*
X-45955Y44552D01*
X-46004Y44456D01*
X-46005Y44450D01*
X-46007Y44446D01*
X-46011Y44415D01*
X-46032Y44270D01*
X-46033Y41982D01*
X-46020Y41908D01*
X-46019Y41899D01*
X-46017Y41893D01*
X-46014Y41877D01*
X-45997Y41771D01*
X-45994Y41766D01*
X-45993Y41762D01*
X-45977Y41735D01*
X-45929Y41644D01*
X-45953Y41489D01*
X-46026Y41003D01*
X-46025Y40963D01*
X-46033Y40908D01*
X-46033Y40258D01*
X-46069Y40207D01*
X-46131Y40120D01*
X-46133Y40114D01*
X-46136Y40110D01*
X-46144Y40080D01*
X-46187Y39941D01*
X-46528Y37678D01*
X-46525Y37571D01*
X-46524Y37464D01*
X-46522Y37459D01*
X-46522Y37454D01*
X-46510Y37425D01*
X-46476Y37328D01*
X-46668Y36709D01*
X-46672Y36669D01*
X-46689Y36616D01*
X-46719Y36415D01*
X-46786Y35973D01*
X-46828Y35928D01*
X-46903Y35851D01*
X-46906Y35846D01*
X-46909Y35843D01*
X-46922Y35813D01*
X-46985Y35682D01*
X-47660Y33496D01*
X-47673Y33390D01*
X-47687Y33284D01*
X-47686Y33278D01*
X-47687Y33274D01*
X-47679Y33243D01*
X-47660Y33142D01*
X-47942Y32558D01*
X-47953Y32520D01*
X-47977Y32470D01*
X-48168Y31848D01*
X-48218Y31810D01*
X-48303Y31746D01*
X-48306Y31741D01*
X-48310Y31738D01*
X-48327Y31711D01*
X-48408Y31591D01*
X-49259Y29825D01*
X-49271Y29784D01*
X-49291Y29747D01*
X-49300Y29677D01*
X-49319Y29609D01*
X-49316Y29567D01*
X-49322Y29525D01*
X-49306Y29456D01*
X-49300Y29385D01*
X-49282Y29347D01*
X-49273Y29306D01*
X-49235Y29246D01*
X-49205Y29182D01*
X-49175Y29153D01*
X-49152Y29117D01*
X-49081Y29060D01*
X-49045Y29025D01*
X-49026Y29017D01*
X-49005Y29000D01*
X-16491Y10228D01*
X-16886Y9657D01*
X-16897Y9631D01*
X-16915Y9609D01*
X-16936Y9540D01*
X-16964Y9474D01*
X-16964Y9446D01*
X-16972Y9418D01*
X-16964Y9347D01*
X-16965Y9276D01*
X-16954Y9249D01*
X-16950Y9221D01*
X-16916Y9158D01*
X-16888Y9092D01*
X-16867Y9072D01*
X-16853Y9047D01*
X-16776Y8983D01*
X-16745Y8953D01*
X-16735Y8949D01*
X-16725Y8941D01*
X-248Y-598D01*
X-174Y-623D01*
X-103Y-654D01*
X-81Y-655D01*
X-59Y-662D01*
X18Y-656D01*
G37*
G36*
X18893Y216487D02*
X18893Y216487D01*
X23813Y216487D01*
X23877Y216499D01*
X23943Y216501D01*
X23987Y216519D01*
X24033Y216527D01*
X24090Y216560D01*
X24151Y216585D01*
X24186Y216617D01*
X24227Y216641D01*
X24268Y216692D01*
X24317Y216736D01*
X24338Y216779D01*
X24368Y216815D01*
X24389Y216877D01*
X24419Y216936D01*
X24427Y216991D01*
X24440Y217028D01*
X24439Y217067D01*
X24447Y217121D01*
X24447Y233054D01*
X24435Y233118D01*
X24433Y233184D01*
X24415Y233228D01*
X24407Y233274D01*
X24374Y233331D01*
X24349Y233392D01*
X24317Y233427D01*
X24293Y233468D01*
X24242Y233509D01*
X24197Y233558D01*
X24155Y233579D01*
X24119Y233609D01*
X24057Y233630D01*
X23998Y233660D01*
X23943Y233668D01*
X23906Y233681D01*
X23886Y233680D01*
X23885Y233681D01*
X23864Y233680D01*
X23813Y233688D01*
X23006Y233688D01*
X22113Y234581D01*
X22113Y244844D01*
X23006Y245737D01*
X23813Y245737D01*
X23862Y245749D01*
X23913Y245751D01*
X23945Y245768D01*
X23981Y245777D01*
X24021Y245809D01*
X24065Y245834D01*
X24087Y245864D01*
X24115Y245887D01*
X24136Y245934D01*
X24165Y245975D01*
X24168Y245989D01*
X24188Y246029D01*
X24218Y246065D01*
X24239Y246127D01*
X24269Y246186D01*
X24277Y246241D01*
X24290Y246278D01*
X24289Y246317D01*
X24297Y246371D01*
X24297Y248285D01*
X24285Y248350D01*
X24283Y248416D01*
X24265Y248459D01*
X24257Y248506D01*
X24224Y248563D01*
X24199Y248623D01*
X24167Y248658D01*
X24143Y248699D01*
X24092Y248741D01*
X24047Y248789D01*
X24005Y248811D01*
X23969Y248840D01*
X23907Y248861D01*
X23848Y248892D01*
X23793Y248900D01*
X23756Y248912D01*
X23717Y248911D01*
X23663Y248919D01*
X9498Y248919D01*
X8381Y250036D01*
X8381Y259552D01*
X9498Y260668D01*
X23663Y260668D01*
X23727Y260680D01*
X23793Y260682D01*
X23837Y260700D01*
X23883Y260708D01*
X23940Y260741D01*
X24001Y260766D01*
X24036Y260798D01*
X24077Y260822D01*
X24118Y260873D01*
X24167Y260918D01*
X24188Y260960D01*
X24218Y260996D01*
X24239Y261058D01*
X24269Y261117D01*
X24277Y261172D01*
X24290Y261209D01*
X24289Y261248D01*
X24297Y261302D01*
X24297Y285330D01*
X24289Y285372D01*
X24291Y285414D01*
X24270Y285482D01*
X24257Y285551D01*
X24236Y285588D01*
X24223Y285628D01*
X24169Y285701D01*
X24143Y285744D01*
X24127Y285757D01*
X24111Y285779D01*
X22160Y287730D01*
X22106Y287768D01*
X22058Y287813D01*
X22014Y287831D01*
X21975Y287858D01*
X21912Y287875D01*
X21851Y287900D01*
X21804Y287902D01*
X21758Y287914D01*
X21693Y287907D01*
X21627Y287910D01*
X21582Y287896D01*
X21535Y287891D01*
X21476Y287862D01*
X21413Y287842D01*
X21369Y287809D01*
X21334Y287791D01*
X21307Y287763D01*
X21263Y287730D01*
X19663Y286130D01*
X12087Y286130D01*
X6730Y291487D01*
X6730Y299063D01*
X12087Y304420D01*
X19663Y304420D01*
X25020Y299063D01*
X25020Y292319D01*
X25027Y292277D01*
X25025Y292235D01*
X25047Y292168D01*
X25059Y292098D01*
X25081Y292062D01*
X25094Y292021D01*
X25148Y291948D01*
X25174Y291905D01*
X25190Y291892D01*
X25206Y291871D01*
X29378Y287698D01*
X29378Y246371D01*
X29390Y246307D01*
X29392Y246241D01*
X29410Y246197D01*
X29418Y246151D01*
X29451Y246094D01*
X29476Y246033D01*
X29508Y245998D01*
X29532Y245957D01*
X29583Y245916D01*
X29628Y245867D01*
X29670Y245846D01*
X29706Y245816D01*
X29768Y245795D01*
X29827Y245765D01*
X29882Y245757D01*
X29919Y245744D01*
X29958Y245745D01*
X30012Y245737D01*
X31269Y245737D01*
X32162Y244844D01*
X32162Y234581D01*
X31269Y233688D01*
X30162Y233688D01*
X30098Y233676D01*
X30032Y233674D01*
X29988Y233656D01*
X29942Y233648D01*
X29885Y233615D01*
X29824Y233590D01*
X29789Y233558D01*
X29748Y233534D01*
X29707Y233483D01*
X29658Y233438D01*
X29637Y233396D01*
X29607Y233360D01*
X29586Y233298D01*
X29556Y233239D01*
X29548Y233184D01*
X29535Y233147D01*
X29536Y233108D01*
X29528Y233054D01*
X29528Y202295D01*
X29544Y202207D01*
X29553Y202119D01*
X29564Y202097D01*
X29568Y202074D01*
X29613Y201997D01*
X29653Y201917D01*
X29670Y201901D01*
X29682Y201881D01*
X29751Y201825D01*
X29816Y201764D01*
X29838Y201754D01*
X29856Y201739D01*
X29940Y201711D01*
X30023Y201676D01*
X30046Y201675D01*
X30069Y201667D01*
X30158Y201670D01*
X30247Y201666D01*
X30269Y201673D01*
X30293Y201674D01*
X30375Y201707D01*
X30460Y201735D01*
X30482Y201751D01*
X30501Y201758D01*
X30538Y201792D01*
X30611Y201846D01*
X45204Y216440D01*
X45229Y216474D01*
X45260Y216503D01*
X45292Y216566D01*
X45332Y216624D01*
X45343Y216665D01*
X45362Y216703D01*
X45376Y216792D01*
X45388Y216841D01*
X45386Y216862D01*
X45390Y216888D01*
X45390Y279288D01*
X46621Y280519D01*
X46646Y280554D01*
X46677Y280583D01*
X46709Y280646D01*
X46749Y280703D01*
X46760Y280744D01*
X46779Y280782D01*
X46793Y280872D01*
X46805Y280921D01*
X46803Y280941D01*
X46807Y280968D01*
X46807Y283191D01*
X49325Y285709D01*
X50489Y285709D01*
X50518Y285715D01*
X50548Y285712D01*
X50628Y285734D01*
X50709Y285749D01*
X50735Y285764D01*
X50764Y285772D01*
X50831Y285821D01*
X50903Y285863D01*
X50922Y285886D01*
X50946Y285904D01*
X50992Y285973D01*
X51044Y286037D01*
X51054Y286066D01*
X51070Y286091D01*
X51089Y286171D01*
X51116Y286250D01*
X51115Y286280D01*
X51122Y286309D01*
X51112Y286391D01*
X51109Y286474D01*
X51098Y286502D01*
X51094Y286532D01*
X51042Y286640D01*
X51025Y286682D01*
X51018Y286689D01*
X51013Y286701D01*
X50416Y287576D01*
X50341Y287653D01*
X50267Y287730D01*
X50262Y287733D01*
X50259Y287736D01*
X50230Y287750D01*
X50140Y287798D01*
X49859Y288382D01*
X49835Y288414D01*
X49820Y288446D01*
X49815Y288457D01*
X49814Y288459D01*
X49811Y288464D01*
X49445Y289002D01*
X49445Y289064D01*
X49448Y289171D01*
X49447Y289176D01*
X49447Y289181D01*
X49436Y289211D01*
X49393Y289350D01*
X48401Y291411D01*
X48338Y291498D01*
X48277Y291586D01*
X48272Y291589D01*
X48269Y291593D01*
X48243Y291611D01*
X48161Y291672D01*
X47970Y292291D01*
X47952Y292326D01*
X47935Y292379D01*
X47653Y292966D01*
X47663Y293026D01*
X47682Y293132D01*
X47681Y293138D01*
X47681Y293143D01*
X47675Y293174D01*
X47653Y293318D01*
X46980Y295504D01*
X46931Y295599D01*
X46883Y295695D01*
X46879Y295699D01*
X46877Y295703D01*
X46854Y295724D01*
X46781Y295797D01*
X46685Y296438D01*
X46672Y296474D01*
X46672Y296494D01*
X46667Y296506D01*
X46663Y296531D01*
X46472Y297152D01*
X46491Y297212D01*
X46525Y297313D01*
X46525Y297319D01*
X46526Y297323D01*
X46525Y297355D01*
X46525Y297501D01*
X46185Y299763D01*
X46150Y299865D01*
X46117Y299966D01*
X46114Y299971D01*
X46112Y299975D01*
X46092Y300000D01*
X46032Y300082D01*
X46032Y300731D01*
X46025Y300770D01*
X46025Y300825D01*
X45928Y301469D01*
X45955Y301523D01*
X46004Y301619D01*
X46005Y301625D01*
X46007Y301629D01*
X46011Y301660D01*
X46032Y301805D01*
X46033Y304093D01*
X46014Y304198D01*
X45997Y304304D01*
X45994Y304309D01*
X45993Y304313D01*
X45977Y304341D01*
X45929Y304431D01*
X46026Y305072D01*
X46025Y305112D01*
X46033Y305167D01*
X46033Y305817D01*
X46069Y305868D01*
X46131Y305955D01*
X46133Y305961D01*
X46136Y305965D01*
X46144Y305995D01*
X46187Y306134D01*
X46229Y306418D01*
X46325Y307052D01*
X46421Y307686D01*
X46421Y307687D01*
X46517Y308321D01*
X46528Y308396D01*
X46525Y308503D01*
X46524Y308611D01*
X46522Y308616D01*
X46522Y308621D01*
X46510Y308650D01*
X46476Y308747D01*
X46668Y309366D01*
X46672Y309406D01*
X46689Y309459D01*
X46708Y309589D01*
X46708Y309590D01*
X46786Y310102D01*
X46828Y310147D01*
X46903Y310224D01*
X46906Y310229D01*
X46909Y310232D01*
X46922Y310262D01*
X46985Y310393D01*
X47660Y312579D01*
X47673Y312685D01*
X47687Y312791D01*
X47686Y312797D01*
X47687Y312801D01*
X47679Y312832D01*
X47660Y312933D01*
X47942Y313517D01*
X47953Y313555D01*
X47977Y313605D01*
X48168Y314227D01*
X48191Y314244D01*
X48246Y314277D01*
X48266Y314302D01*
X48303Y314329D01*
X48306Y314334D01*
X48310Y314337D01*
X48327Y314364D01*
X48376Y314437D01*
X48387Y314451D01*
X48389Y314456D01*
X48408Y314484D01*
X49259Y316250D01*
X49271Y316291D01*
X49291Y316328D01*
X49300Y316398D01*
X49319Y316466D01*
X49316Y316508D01*
X49322Y316550D01*
X49306Y316619D01*
X49300Y316690D01*
X49282Y316728D01*
X49273Y316769D01*
X49235Y316829D01*
X49205Y316893D01*
X49175Y316922D01*
X49152Y316958D01*
X49081Y317015D01*
X49045Y317050D01*
X49026Y317058D01*
X49005Y317075D01*
X25276Y330775D01*
X25270Y330777D01*
X25265Y330781D01*
X25165Y330815D01*
X25065Y330851D01*
X25059Y330851D01*
X25053Y330853D01*
X24947Y330850D01*
X24841Y330849D01*
X24835Y330847D01*
X24828Y330846D01*
X24731Y330807D01*
X24631Y330769D01*
X24626Y330764D01*
X24621Y330762D01*
X24542Y330690D01*
X24463Y330620D01*
X24460Y330615D01*
X24455Y330611D01*
X24406Y330516D01*
X24356Y330423D01*
X24355Y330417D01*
X24352Y330411D01*
X24325Y330226D01*
X24325Y326428D01*
X21235Y323338D01*
X18609Y323338D01*
X18544Y323326D01*
X18478Y323324D01*
X18435Y323306D01*
X18388Y323298D01*
X18331Y323265D01*
X18271Y323240D01*
X18236Y323208D01*
X18195Y323184D01*
X18153Y323133D01*
X18105Y323088D01*
X18083Y323046D01*
X18054Y323010D01*
X18033Y322948D01*
X18002Y322889D01*
X17994Y322834D01*
X17982Y322797D01*
X17983Y322758D01*
X17975Y322704D01*
X17975Y320078D01*
X14885Y316988D01*
X10515Y316988D01*
X7425Y320078D01*
X7425Y324447D01*
X10515Y327537D01*
X13141Y327537D01*
X13206Y327549D01*
X13272Y327551D01*
X13315Y327569D01*
X13362Y327577D01*
X13419Y327610D01*
X13479Y327635D01*
X13514Y327667D01*
X13555Y327691D01*
X13597Y327742D01*
X13645Y327787D01*
X13667Y327829D01*
X13696Y327865D01*
X13717Y327927D01*
X13748Y327986D01*
X13756Y328041D01*
X13768Y328078D01*
X13767Y328117D01*
X13775Y328171D01*
X13775Y330797D01*
X16865Y333887D01*
X17519Y333887D01*
X17577Y333898D01*
X17637Y333898D01*
X17687Y333917D01*
X17739Y333927D01*
X17791Y333957D01*
X17846Y333979D01*
X17887Y334014D01*
X17933Y334041D01*
X17970Y334087D01*
X18015Y334127D01*
X18040Y334174D01*
X18074Y334215D01*
X18093Y334272D01*
X18121Y334324D01*
X18129Y334377D01*
X18146Y334428D01*
X18144Y334487D01*
X18152Y334546D01*
X18141Y334599D01*
X18139Y334652D01*
X18117Y334707D01*
X18104Y334766D01*
X18075Y334811D01*
X18055Y334860D01*
X18015Y334904D01*
X17982Y334954D01*
X17933Y334994D01*
X17904Y335026D01*
X17873Y335041D01*
X17836Y335071D01*
X16491Y335847D01*
X16886Y336418D01*
X16897Y336444D01*
X16915Y336466D01*
X16936Y336535D01*
X16964Y336601D01*
X16964Y336629D01*
X16972Y336657D01*
X16964Y336728D01*
X16965Y336799D01*
X16954Y336826D01*
X16950Y336854D01*
X16916Y336917D01*
X16888Y336983D01*
X16867Y337003D01*
X16853Y337028D01*
X16776Y337092D01*
X16745Y337122D01*
X16735Y337126D01*
X16725Y337134D01*
X248Y346673D01*
X174Y346698D01*
X103Y346729D01*
X81Y346730D01*
X59Y346737D01*
X-18Y346731D01*
X-96Y346732D01*
X-119Y346723D01*
X-139Y346721D01*
X-178Y346701D01*
X-252Y346674D01*
X-16706Y337174D01*
X-16728Y337155D01*
X-16753Y337143D01*
X-16801Y337090D01*
X-16855Y337042D01*
X-16867Y337016D01*
X-16886Y336995D01*
X-16910Y336927D01*
X-16941Y336863D01*
X-16942Y336834D01*
X-16952Y336807D01*
X-16947Y336736D01*
X-16950Y336664D01*
X-16940Y336637D01*
X-16938Y336609D01*
X-16895Y336517D01*
X-16881Y336478D01*
X-16873Y336470D01*
X-16868Y336458D01*
X-16461Y335867D01*
X-49021Y317069D01*
X-49053Y317042D01*
X-49091Y317022D01*
X-49138Y316970D01*
X-49192Y316924D01*
X-49213Y316887D01*
X-49241Y316856D01*
X-49268Y316790D01*
X-49303Y316729D01*
X-49309Y316687D01*
X-49325Y316648D01*
X-49327Y316577D01*
X-49338Y316507D01*
X-49330Y316466D01*
X-49331Y316423D01*
X-49304Y316336D01*
X-49294Y316287D01*
X-49283Y316269D01*
X-49275Y316244D01*
X-48422Y314472D01*
X-48402Y314445D01*
X-48391Y314419D01*
X-48352Y314376D01*
X-48298Y314298D01*
X-48293Y314294D01*
X-48290Y314291D01*
X-48264Y314273D01*
X-48246Y314260D01*
X-48240Y314253D01*
X-48229Y314248D01*
X-48181Y314212D01*
X-47990Y313593D01*
X-47972Y313558D01*
X-47956Y313505D01*
X-47673Y312918D01*
X-47683Y312857D01*
X-47702Y312751D01*
X-47701Y312746D01*
X-47702Y312741D01*
X-47696Y312710D01*
X-47674Y312566D01*
X-47000Y310382D01*
X-46951Y310287D01*
X-46903Y310191D01*
X-46899Y310187D01*
X-46897Y310183D01*
X-46873Y310161D01*
X-46801Y310089D01*
X-46705Y309448D01*
X-46692Y309411D01*
X-46683Y309356D01*
X-46492Y308734D01*
X-46510Y308675D01*
X-46545Y308573D01*
X-46545Y308568D01*
X-46546Y308563D01*
X-46545Y308531D01*
X-46544Y308386D01*
X-46204Y306126D01*
X-46170Y306025D01*
X-46137Y305923D01*
X-46133Y305918D01*
X-46132Y305914D01*
X-46112Y305889D01*
X-46051Y305807D01*
X-46051Y305158D01*
X-46044Y305119D01*
X-46044Y305064D01*
X-45947Y304420D01*
X-45974Y304365D01*
X-46023Y304269D01*
X-46024Y304264D01*
X-46026Y304259D01*
X-46029Y304228D01*
X-46051Y304084D01*
X-46051Y301799D01*
X-46032Y301693D01*
X-46015Y301587D01*
X-46012Y301582D01*
X-46011Y301578D01*
X-45995Y301550D01*
X-45947Y301460D01*
X-46032Y300897D01*
X-46044Y300819D01*
X-46043Y300779D01*
X-46051Y300724D01*
X-46051Y300074D01*
X-46086Y300023D01*
X-46149Y299936D01*
X-46150Y299930D01*
X-46153Y299926D01*
X-46161Y299896D01*
X-46204Y299757D01*
X-46544Y297497D01*
X-46541Y297389D01*
X-46540Y297282D01*
X-46538Y297277D01*
X-46538Y297272D01*
X-46526Y297243D01*
X-46492Y297146D01*
X-46683Y296527D01*
X-46688Y296487D01*
X-46705Y296434D01*
X-46797Y295823D01*
X-46801Y295791D01*
X-46844Y295746D01*
X-46919Y295669D01*
X-46921Y295664D01*
X-46925Y295661D01*
X-46937Y295632D01*
X-47000Y295500D01*
X-47674Y293316D01*
X-47687Y293211D01*
X-47701Y293104D01*
X-47700Y293098D01*
X-47701Y293094D01*
X-47694Y293063D01*
X-47674Y292962D01*
X-47956Y292378D01*
X-47966Y292340D01*
X-47990Y292290D01*
X-48182Y291668D01*
X-48231Y291630D01*
X-48316Y291565D01*
X-48320Y291561D01*
X-48323Y291558D01*
X-48340Y291530D01*
X-48422Y291410D01*
X-49413Y289351D01*
X-49442Y289248D01*
X-49472Y289145D01*
X-49472Y289140D01*
X-49474Y289135D01*
X-49471Y289103D01*
X-49467Y289001D01*
X-49832Y288465D01*
X-49843Y288442D01*
X-49856Y288425D01*
X-49861Y288410D01*
X-49880Y288383D01*
X-50162Y287797D01*
X-50216Y287766D01*
X-50310Y287715D01*
X-50314Y287711D01*
X-50318Y287709D01*
X-50339Y287684D01*
X-50437Y287578D01*
X-51725Y285689D01*
X-51768Y285592D01*
X-51814Y285495D01*
X-51814Y285489D01*
X-51816Y285485D01*
X-51818Y285453D01*
X-51830Y285351D01*
X-52271Y284876D01*
X-52292Y284843D01*
X-52330Y284802D01*
X-52696Y284264D01*
X-52754Y284242D01*
X-52855Y284206D01*
X-52860Y284202D01*
X-52864Y284200D01*
X-52888Y284179D01*
X-53001Y284089D01*
X-53586Y283458D01*
X-53615Y283413D01*
X-53652Y283374D01*
X-53675Y283319D01*
X-53707Y283270D01*
X-53719Y283217D01*
X-53740Y283167D01*
X-53742Y283108D01*
X-53755Y283050D01*
X-53747Y282997D01*
X-53750Y282943D01*
X-53732Y282887D01*
X-53723Y282828D01*
X-53698Y282781D01*
X-53681Y282729D01*
X-53639Y282672D01*
X-53617Y282631D01*
X-53593Y282611D01*
X-53570Y282579D01*
X-53149Y282158D01*
X-53149Y272841D01*
X-53133Y272753D01*
X-53124Y272665D01*
X-53113Y272644D01*
X-53109Y272620D01*
X-53064Y272544D01*
X-53024Y272464D01*
X-53007Y272447D01*
X-52995Y272427D01*
X-52926Y272371D01*
X-52861Y272310D01*
X-52839Y272301D01*
X-52821Y272286D01*
X-52737Y272257D01*
X-52654Y272222D01*
X-52631Y272221D01*
X-52608Y272214D01*
X-52519Y272216D01*
X-52430Y272212D01*
X-52408Y272220D01*
X-52384Y272220D01*
X-52302Y272254D01*
X-52217Y272281D01*
X-52195Y272297D01*
X-52176Y272305D01*
X-52139Y272339D01*
X-52066Y272393D01*
X-37755Y286703D01*
X-37559Y286703D01*
X-37494Y286715D01*
X-37428Y286717D01*
X-37385Y286735D01*
X-37338Y286743D01*
X-37281Y286776D01*
X-37221Y286801D01*
X-37186Y286833D01*
X-37145Y286857D01*
X-37103Y286908D01*
X-37055Y286953D01*
X-37033Y286995D01*
X-37004Y287031D01*
X-36983Y287093D01*
X-36952Y287152D01*
X-36944Y287207D01*
X-36932Y287244D01*
X-36933Y287283D01*
X-36925Y287337D01*
X-36925Y289294D01*
X-36032Y290187D01*
X-35929Y290187D01*
X-35841Y290203D01*
X-35753Y290212D01*
X-35731Y290223D01*
X-35708Y290227D01*
X-35631Y290272D01*
X-35551Y290312D01*
X-35535Y290329D01*
X-35515Y290341D01*
X-35459Y290410D01*
X-35398Y290475D01*
X-35388Y290497D01*
X-35373Y290515D01*
X-35345Y290599D01*
X-35310Y290682D01*
X-35309Y290705D01*
X-35302Y290728D01*
X-35304Y290817D01*
X-35300Y290906D01*
X-35307Y290928D01*
X-35308Y290952D01*
X-35342Y291034D01*
X-35369Y291119D01*
X-35385Y291141D01*
X-35392Y291160D01*
X-35426Y291197D01*
X-35480Y291270D01*
X-36045Y291834D01*
X-36045Y295603D01*
X-33380Y298267D01*
X-29612Y298267D01*
X-28044Y296699D01*
X-28009Y296675D01*
X-27980Y296643D01*
X-27917Y296611D01*
X-27859Y296571D01*
X-27818Y296560D01*
X-27781Y296541D01*
X-27691Y296528D01*
X-27642Y296515D01*
X-27621Y296517D01*
X-27595Y296513D01*
X-27298Y296513D01*
X-21158Y290373D01*
X-21123Y290349D01*
X-21095Y290317D01*
X-21032Y290285D01*
X-20974Y290245D01*
X-20933Y290234D01*
X-20895Y290215D01*
X-20805Y290202D01*
X-20757Y290189D01*
X-20736Y290191D01*
X-20710Y290187D01*
X-14768Y290187D01*
X-13875Y289294D01*
X-13875Y280023D01*
X-13859Y279936D01*
X-13850Y279847D01*
X-13840Y279826D01*
X-13836Y279803D01*
X-13790Y279726D01*
X-13751Y279646D01*
X-13734Y279630D01*
X-13721Y279609D01*
X-13652Y279553D01*
X-13588Y279492D01*
X-13566Y279483D01*
X-13547Y279468D01*
X-13463Y279440D01*
X-13381Y279405D01*
X-13357Y279404D01*
X-13335Y279396D01*
X-13246Y279399D01*
X-13157Y279395D01*
X-13134Y279402D01*
X-13110Y279403D01*
X-13028Y279436D01*
X-12943Y279463D01*
X-12922Y279479D01*
X-12903Y279487D01*
X-12865Y279521D01*
X-12793Y279575D01*
X-11810Y280557D01*
X-11786Y280592D01*
X-11755Y280621D01*
X-11723Y280683D01*
X-11682Y280741D01*
X-11672Y280782D01*
X-11652Y280820D01*
X-11639Y280910D01*
X-11626Y280959D01*
X-11629Y280979D01*
X-11625Y281005D01*
X-11625Y283172D01*
X-8535Y286262D01*
X-4165Y286262D01*
X-1075Y283172D01*
X-1075Y278803D01*
X-4165Y275713D01*
X-6332Y275713D01*
X-6374Y275705D01*
X-6416Y275707D01*
X-6483Y275686D01*
X-6553Y275673D01*
X-6589Y275652D01*
X-6630Y275639D01*
X-6703Y275585D01*
X-6746Y275559D01*
X-6759Y275543D01*
X-6780Y275527D01*
X-7401Y274907D01*
X-7401Y274906D01*
X-19851Y262456D01*
X-19891Y262392D01*
X-19935Y262329D01*
X-19937Y262317D01*
X-19943Y262309D01*
X-19946Y262272D01*
X-19963Y262187D01*
X-19963Y255281D01*
X-20856Y254388D01*
X-33119Y254388D01*
X-34012Y255281D01*
X-34012Y266544D01*
X-33119Y267437D01*
X-25088Y267437D01*
X-25014Y267455D01*
X-24939Y267468D01*
X-24929Y267474D01*
X-24919Y267477D01*
X-24890Y267500D01*
X-24819Y267549D01*
X-15312Y277055D01*
X-15262Y277128D01*
X-15206Y277197D01*
X-15198Y277220D01*
X-15184Y277239D01*
X-15162Y277325D01*
X-15134Y277410D01*
X-15134Y277434D01*
X-15128Y277457D01*
X-15138Y277545D01*
X-15140Y277634D01*
X-15149Y277656D01*
X-15152Y277680D01*
X-15191Y277760D01*
X-15225Y277842D01*
X-15241Y277859D01*
X-15251Y277881D01*
X-15316Y277942D01*
X-15376Y278008D01*
X-15397Y278018D01*
X-15414Y278035D01*
X-15496Y278069D01*
X-15576Y278110D01*
X-15602Y278114D01*
X-15621Y278122D01*
X-15671Y278124D01*
X-15761Y278138D01*
X-23032Y278138D01*
X-23925Y279031D01*
X-23925Y284972D01*
X-23932Y285014D01*
X-23930Y285056D01*
X-23952Y285124D01*
X-23964Y285193D01*
X-23986Y285230D01*
X-23999Y285270D01*
X-24053Y285343D01*
X-24079Y285386D01*
X-24095Y285399D01*
X-24110Y285421D01*
X-25793Y287103D01*
X-25866Y287154D01*
X-25935Y287210D01*
X-25957Y287217D01*
X-25977Y287231D01*
X-26063Y287253D01*
X-26147Y287282D01*
X-26171Y287281D01*
X-26194Y287287D01*
X-26283Y287278D01*
X-26372Y287275D01*
X-26394Y287266D01*
X-26417Y287264D01*
X-26497Y287224D01*
X-26579Y287191D01*
X-26597Y287175D01*
X-26618Y287164D01*
X-26679Y287099D01*
X-26745Y287039D01*
X-26756Y287018D01*
X-26772Y287001D01*
X-26807Y286919D01*
X-26848Y286840D01*
X-26851Y286813D01*
X-26860Y286794D01*
X-26862Y286744D01*
X-26875Y286654D01*
X-26875Y279031D01*
X-27768Y278138D01*
X-36032Y278138D01*
X-37012Y279118D01*
X-37049Y279194D01*
X-37066Y279210D01*
X-37079Y279230D01*
X-37148Y279287D01*
X-37212Y279348D01*
X-37234Y279357D01*
X-37253Y279372D01*
X-37337Y279400D01*
X-37419Y279435D01*
X-37443Y279436D01*
X-37465Y279444D01*
X-37554Y279441D01*
X-37643Y279445D01*
X-37666Y279438D01*
X-37690Y279437D01*
X-37772Y279404D01*
X-37857Y279376D01*
X-37878Y279361D01*
X-37897Y279353D01*
X-37935Y279319D01*
X-38007Y279265D01*
X-49153Y268119D01*
X-49177Y268085D01*
X-49209Y268056D01*
X-49241Y267993D01*
X-49281Y267935D01*
X-49292Y267894D01*
X-49311Y267856D01*
X-49324Y267767D01*
X-49337Y267718D01*
X-49335Y267697D01*
X-49339Y267671D01*
X-49339Y198281D01*
X-49331Y198239D01*
X-49333Y198197D01*
X-49312Y198130D01*
X-49299Y198060D01*
X-49278Y198024D01*
X-49265Y197983D01*
X-49211Y197911D01*
X-49185Y197867D01*
X-49169Y197854D01*
X-49153Y197833D01*
X-39840Y188520D01*
X-39806Y188496D01*
X-39777Y188464D01*
X-39714Y188432D01*
X-39656Y188392D01*
X-39615Y188381D01*
X-39577Y188362D01*
X-39488Y188349D01*
X-39439Y188336D01*
X-39418Y188338D01*
X-39392Y188334D01*
X-36808Y188334D01*
X-36766Y188342D01*
X-36724Y188340D01*
X-36657Y188361D01*
X-36587Y188374D01*
X-36551Y188395D01*
X-36510Y188408D01*
X-36438Y188462D01*
X-36394Y188488D01*
X-36381Y188504D01*
X-36360Y188520D01*
X-36139Y188741D01*
X-31152Y188741D01*
X-31087Y188752D01*
X-31021Y188754D01*
X-30978Y188772D01*
X-30931Y188780D01*
X-30874Y188814D01*
X-30813Y188839D01*
X-30779Y188870D01*
X-30738Y188895D01*
X-30696Y188946D01*
X-30648Y188990D01*
X-30626Y189032D01*
X-30596Y189069D01*
X-30575Y189131D01*
X-30545Y189190D01*
X-30537Y189244D01*
X-30525Y189281D01*
X-30526Y189321D01*
X-30518Y189375D01*
X-30518Y189485D01*
X-30525Y189527D01*
X-30523Y189569D01*
X-30545Y189636D01*
X-30557Y189706D01*
X-30579Y189742D01*
X-30592Y189783D01*
X-30646Y189855D01*
X-30671Y189899D01*
X-30688Y189912D01*
X-30703Y189933D01*
X-33656Y192886D01*
X-33656Y197712D01*
X-33663Y197754D01*
X-33661Y197796D01*
X-33683Y197863D01*
X-33695Y197933D01*
X-33717Y197969D01*
X-33730Y198010D01*
X-33750Y198036D01*
X-33750Y200194D01*
X-33765Y200281D01*
X-33775Y200370D01*
X-33785Y200391D01*
X-33789Y200415D01*
X-33835Y200491D01*
X-33874Y200571D01*
X-33891Y200587D01*
X-33904Y200608D01*
X-33973Y200664D01*
X-34037Y200725D01*
X-34059Y200734D01*
X-34078Y200749D01*
X-34162Y200778D01*
X-34244Y200812D01*
X-34268Y200813D01*
X-34290Y200821D01*
X-34379Y200818D01*
X-34468Y200822D01*
X-34491Y200815D01*
X-34515Y200814D01*
X-34597Y200781D01*
X-34682Y200754D01*
X-34703Y200738D01*
X-34722Y200730D01*
X-34760Y200696D01*
X-34832Y200642D01*
X-35049Y200425D01*
X-38611Y200425D01*
X-41129Y202943D01*
X-41129Y206505D01*
X-38611Y209023D01*
X-35049Y209023D01*
X-34832Y208806D01*
X-34759Y208755D01*
X-34690Y208699D01*
X-34668Y208691D01*
X-34648Y208678D01*
X-34562Y208656D01*
X-34478Y208627D01*
X-34454Y208628D01*
X-34431Y208622D01*
X-34342Y208631D01*
X-34253Y208634D01*
X-34232Y208642D01*
X-34208Y208645D01*
X-34128Y208685D01*
X-34046Y208718D01*
X-34028Y208734D01*
X-34007Y208744D01*
X-33946Y208809D01*
X-33880Y208869D01*
X-33869Y208890D01*
X-33853Y208908D01*
X-33818Y208990D01*
X-33777Y209069D01*
X-33774Y209095D01*
X-33765Y209114D01*
X-33763Y209165D01*
X-33750Y209254D01*
X-33750Y228638D01*
X-33757Y228680D01*
X-33755Y228722D01*
X-33774Y228779D01*
X-33774Y237780D01*
X-33781Y237822D01*
X-33779Y237864D01*
X-33801Y237931D01*
X-33813Y238001D01*
X-33835Y238037D01*
X-33848Y238078D01*
X-33902Y238150D01*
X-33928Y238194D01*
X-33944Y238207D01*
X-33960Y238228D01*
X-34012Y238281D01*
X-34012Y249544D01*
X-33842Y249715D01*
X-33817Y249750D01*
X-33786Y249778D01*
X-33754Y249841D01*
X-33713Y249899D01*
X-33703Y249940D01*
X-33683Y249978D01*
X-33680Y250003D01*
X-32539Y251143D01*
X-23023Y251143D01*
X-22503Y250623D01*
X-22468Y250599D01*
X-22439Y250567D01*
X-22377Y250535D01*
X-22319Y250495D01*
X-22278Y250484D01*
X-22240Y250465D01*
X-22150Y250452D01*
X-22101Y250439D01*
X-22081Y250441D01*
X-22054Y250437D01*
X-20856Y250437D01*
X-19963Y249544D01*
X-19963Y238281D01*
X-20305Y237938D01*
X-20356Y237865D01*
X-20412Y237796D01*
X-20420Y237774D01*
X-20433Y237754D01*
X-20456Y237668D01*
X-20484Y237584D01*
X-20483Y237560D01*
X-20489Y237537D01*
X-20480Y237448D01*
X-20477Y237359D01*
X-20469Y237338D01*
X-20466Y237314D01*
X-20426Y237234D01*
X-20393Y237152D01*
X-20377Y237134D01*
X-20367Y237113D01*
X-20302Y237052D01*
X-20242Y236986D01*
X-20221Y236975D01*
X-20203Y236959D01*
X-20121Y236924D01*
X-20042Y236883D01*
X-20016Y236880D01*
X-19997Y236871D01*
X-19946Y236869D01*
X-19857Y236856D01*
X2377Y236856D01*
X2397Y236836D01*
X2432Y236811D01*
X2461Y236780D01*
X2523Y236748D01*
X2581Y236707D01*
X2622Y236697D01*
X2660Y236677D01*
X2750Y236664D01*
X2799Y236651D01*
X2819Y236654D01*
X2846Y236650D01*
X3544Y236650D01*
X4437Y235757D01*
X4437Y227493D01*
X3679Y226735D01*
X3655Y226700D01*
X3623Y226672D01*
X3591Y226609D01*
X3551Y226551D01*
X3540Y226510D01*
X3521Y226472D01*
X3508Y226382D01*
X3495Y226334D01*
X3497Y226313D01*
X3493Y226287D01*
X3493Y226223D01*
X2377Y225107D01*
X-8573Y225107D01*
X-8637Y225095D01*
X-8703Y225093D01*
X-8747Y225075D01*
X-8793Y225067D01*
X-8850Y225034D01*
X-8911Y225009D01*
X-8946Y224977D01*
X-8987Y224953D01*
X-9028Y224902D01*
X-9077Y224857D01*
X-9098Y224815D01*
X-9128Y224779D01*
X-9149Y224717D01*
X-9179Y224658D01*
X-9187Y224603D01*
X-9200Y224566D01*
X-9199Y224527D01*
X-9207Y224473D01*
X-9207Y205599D01*
X-9199Y205557D01*
X-9201Y205515D01*
X-9180Y205448D01*
X-9167Y205378D01*
X-9146Y205341D01*
X-9133Y205301D01*
X-9079Y205228D01*
X-9053Y205185D01*
X-9037Y205172D01*
X-9021Y205150D01*
X-7082Y203212D01*
X-7009Y203161D01*
X-6940Y203105D01*
X-6918Y203097D01*
X-6898Y203084D01*
X-6812Y203062D01*
X-6728Y203033D01*
X-6704Y203034D01*
X-6681Y203028D01*
X-6592Y203037D01*
X-6503Y203040D01*
X-6481Y203049D01*
X-6458Y203051D01*
X-6378Y203090D01*
X-6295Y203124D01*
X-6278Y203140D01*
X-6257Y203150D01*
X-6196Y203215D01*
X-6130Y203275D01*
X-6119Y203296D01*
X-6103Y203314D01*
X-6068Y203396D01*
X-6027Y203475D01*
X-6023Y203501D01*
X-6015Y203520D01*
X-6013Y203571D01*
X-6000Y203660D01*
X-6000Y215594D01*
X-5107Y216487D01*
X157Y216487D01*
X1050Y215594D01*
X1050Y206031D01*
X1057Y205989D01*
X1055Y205946D01*
X1077Y205879D01*
X1089Y205810D01*
X1111Y205773D01*
X1124Y205733D01*
X1178Y205660D01*
X1204Y205617D01*
X1220Y205603D01*
X1236Y205582D01*
X8369Y198449D01*
X9711Y197106D01*
X9766Y197069D01*
X9813Y197023D01*
X9857Y197005D01*
X9896Y196978D01*
X9959Y196962D01*
X10020Y196936D01*
X10067Y196934D01*
X10113Y196922D01*
X10178Y196929D01*
X10244Y196926D01*
X10289Y196940D01*
X10336Y196945D01*
X10395Y196974D01*
X10458Y196995D01*
X10502Y197027D01*
X10537Y197045D01*
X10564Y197073D01*
X10608Y197106D01*
X13258Y199756D01*
X17731Y204229D01*
X17814Y204312D01*
X17839Y204347D01*
X17870Y204376D01*
X17902Y204438D01*
X17943Y204496D01*
X17953Y204537D01*
X17973Y204575D01*
X17986Y204665D01*
X17998Y204714D01*
X17996Y204734D01*
X18000Y204761D01*
X18000Y215594D01*
X18893Y216487D01*
G37*
G36*
X96789Y169643D02*
X96789Y169643D01*
X96877Y169652D01*
X96899Y169663D01*
X96922Y169667D01*
X96999Y169712D01*
X97079Y169752D01*
X97095Y169769D01*
X97115Y169781D01*
X97171Y169850D01*
X97232Y169915D01*
X97242Y169937D01*
X97257Y169955D01*
X97285Y170039D01*
X97320Y170122D01*
X97321Y170145D01*
X97329Y170168D01*
X97326Y170257D01*
X97330Y170346D01*
X97323Y170368D01*
X97322Y170392D01*
X97288Y170474D01*
X97261Y170559D01*
X97245Y170581D01*
X97238Y170600D01*
X97204Y170637D01*
X97150Y170710D01*
X96730Y171130D01*
X96730Y174691D01*
X99248Y177209D01*
X102809Y177209D01*
X105327Y174691D01*
X105327Y171493D01*
X105343Y171405D01*
X105352Y171316D01*
X105363Y171295D01*
X105367Y171272D01*
X105412Y171195D01*
X105452Y171115D01*
X105469Y171099D01*
X105481Y171079D01*
X105550Y171022D01*
X105615Y170961D01*
X105637Y170952D01*
X105655Y170937D01*
X105739Y170909D01*
X105822Y170874D01*
X105845Y170873D01*
X105868Y170865D01*
X105957Y170868D01*
X106046Y170864D01*
X106068Y170871D01*
X106092Y170872D01*
X106174Y170905D01*
X106259Y170933D01*
X106281Y170948D01*
X106300Y170956D01*
X106337Y170990D01*
X106410Y171044D01*
X114565Y179200D01*
X114603Y179254D01*
X114648Y179301D01*
X114667Y179345D01*
X114693Y179384D01*
X114710Y179447D01*
X114736Y179508D01*
X114738Y179555D01*
X114749Y179601D01*
X114743Y179666D01*
X114746Y179732D01*
X114731Y179777D01*
X114726Y179824D01*
X114697Y179883D01*
X114677Y179946D01*
X114644Y179990D01*
X114641Y179996D01*
X114639Y180000D01*
X114639Y180001D01*
X114627Y180025D01*
X114598Y180052D01*
X114565Y180097D01*
X113646Y181015D01*
X113646Y184577D01*
X116164Y187095D01*
X119726Y187095D01*
X122397Y184424D01*
X122446Y184389D01*
X122489Y184347D01*
X122538Y184326D01*
X122581Y184295D01*
X122639Y184281D01*
X122694Y184256D01*
X122747Y184253D01*
X122798Y184240D01*
X122858Y184246D01*
X122918Y184242D01*
X122969Y184257D01*
X123022Y184263D01*
X123075Y184289D01*
X123133Y184307D01*
X123175Y184339D01*
X123223Y184362D01*
X123264Y184406D01*
X123312Y184442D01*
X123347Y184494D01*
X123377Y184525D01*
X123390Y184558D01*
X123417Y184597D01*
X124393Y186625D01*
X124422Y186729D01*
X124452Y186831D01*
X124452Y186837D01*
X124453Y186841D01*
X124450Y186873D01*
X124446Y186975D01*
X124811Y187511D01*
X124827Y187547D01*
X124859Y187593D01*
X125141Y188179D01*
X125194Y188210D01*
X125289Y188261D01*
X125293Y188265D01*
X125297Y188268D01*
X125317Y188292D01*
X125416Y188399D01*
X126704Y190289D01*
X126748Y190387D01*
X126793Y190484D01*
X126794Y190490D01*
X126796Y190494D01*
X126798Y190526D01*
X126809Y190628D01*
X127250Y191103D01*
X127271Y191136D01*
X127309Y191177D01*
X127675Y191715D01*
X127734Y191737D01*
X127834Y191774D01*
X127838Y191777D01*
X127843Y191779D01*
X127867Y191800D01*
X127943Y191861D01*
X127952Y191866D01*
X127957Y191872D01*
X127980Y191891D01*
X129536Y193568D01*
X129594Y193659D01*
X129653Y193747D01*
X129654Y193753D01*
X129657Y193757D01*
X129664Y193788D01*
X129690Y193887D01*
X130197Y194291D01*
X130223Y194321D01*
X130266Y194356D01*
X130709Y194833D01*
X130770Y194846D01*
X130874Y194867D01*
X130879Y194870D01*
X130884Y194871D01*
X130910Y194888D01*
X131037Y194961D01*
X132825Y196388D01*
X132896Y196470D01*
X132967Y196548D01*
X132969Y196553D01*
X132973Y196557D01*
X132984Y196587D01*
X133025Y196681D01*
X133586Y197005D01*
X133616Y197031D01*
X133664Y197058D01*
X134173Y197464D01*
X134235Y197468D01*
X134342Y197474D01*
X134347Y197476D01*
X134352Y197476D01*
X134381Y197489D01*
X134516Y197542D01*
X135398Y198052D01*
X135435Y198083D01*
X135477Y198106D01*
X135520Y198155D01*
X135569Y198197D01*
X135593Y198238D01*
X135624Y198275D01*
X135648Y198336D01*
X135680Y198392D01*
X135687Y198439D01*
X135704Y198484D01*
X135705Y198549D01*
X135715Y198614D01*
X135705Y198661D01*
X135706Y198709D01*
X135684Y198770D01*
X135671Y198834D01*
X135646Y198874D01*
X135629Y198920D01*
X135587Y198969D01*
X135553Y199025D01*
X135515Y199054D01*
X135484Y199091D01*
X135415Y199132D01*
X135376Y199163D01*
X135352Y199170D01*
X135323Y199187D01*
X132915Y200185D01*
X130335Y202765D01*
X128938Y206138D01*
X128938Y209787D01*
X130335Y213160D01*
X132915Y215740D01*
X136288Y217137D01*
X139937Y217137D01*
X143310Y215740D01*
X145890Y213160D01*
X147287Y209787D01*
X147287Y206138D01*
X145904Y202798D01*
X145901Y202786D01*
X145895Y202775D01*
X145878Y202677D01*
X145856Y202579D01*
X145858Y202567D01*
X145856Y202554D01*
X145874Y202455D01*
X145888Y202357D01*
X145894Y202346D01*
X145896Y202333D01*
X145947Y202248D01*
X145995Y202160D01*
X146004Y202151D01*
X146010Y202140D01*
X146153Y202018D01*
X146297Y201928D01*
X146396Y201888D01*
X146495Y201846D01*
X146501Y201845D01*
X146505Y201844D01*
X146537Y201843D01*
X146682Y201832D01*
X148655Y201981D01*
X148696Y201991D01*
X148738Y201992D01*
X148803Y202019D01*
X148872Y202037D01*
X148907Y202061D01*
X148946Y202077D01*
X148998Y202125D01*
X149056Y202165D01*
X149080Y202200D01*
X149111Y202228D01*
X149144Y202291D01*
X149184Y202349D01*
X149195Y202390D01*
X149214Y202428D01*
X149227Y202518D01*
X149240Y202567D01*
X149238Y202587D01*
X149242Y202613D01*
X149241Y240160D01*
X149978Y240100D01*
X150007Y240104D01*
X150035Y240099D01*
X150105Y240116D01*
X150176Y240124D01*
X150201Y240139D01*
X150229Y240145D01*
X150286Y240188D01*
X150348Y240223D01*
X150366Y240246D01*
X150389Y240263D01*
X150425Y240325D01*
X150468Y240382D01*
X150475Y240410D01*
X150490Y240435D01*
X150507Y240533D01*
X150517Y240574D01*
X150515Y240585D01*
X150518Y240599D01*
X150495Y259638D01*
X150479Y259714D01*
X150471Y259790D01*
X150460Y259810D01*
X150455Y259833D01*
X150411Y259896D01*
X150374Y259963D01*
X150354Y259980D01*
X150342Y259997D01*
X150305Y260021D01*
X150246Y260070D01*
X133769Y269609D01*
X133741Y269618D01*
X133717Y269635D01*
X133648Y269650D01*
X133580Y269672D01*
X133551Y269670D01*
X133523Y269676D01*
X133453Y269663D01*
X133382Y269657D01*
X133356Y269644D01*
X133328Y269638D01*
X133268Y269598D01*
X133205Y269566D01*
X133187Y269543D01*
X133163Y269527D01*
X133105Y269445D01*
X133078Y269413D01*
X133075Y269402D01*
X133067Y269391D01*
X132750Y268723D01*
X100234Y287497D01*
X100194Y287511D01*
X100159Y287534D01*
X100090Y287549D01*
X100023Y287573D01*
X99981Y287572D01*
X99940Y287581D01*
X99869Y287571D01*
X99799Y287571D01*
X99759Y287555D01*
X99718Y287550D01*
X99655Y287516D01*
X99589Y287490D01*
X99557Y287463D01*
X99520Y287442D01*
X99458Y287376D01*
X99421Y287342D01*
X99411Y287324D01*
X99393Y287305D01*
X98278Y285671D01*
X98234Y285573D01*
X98189Y285476D01*
X98188Y285470D01*
X98186Y285466D01*
X98184Y285434D01*
X98173Y285333D01*
X97732Y284857D01*
X97710Y284824D01*
X97673Y284783D01*
X97306Y284246D01*
X97248Y284224D01*
X97147Y284187D01*
X97143Y284184D01*
X97138Y284182D01*
X97115Y284161D01*
X97001Y284070D01*
X95444Y282394D01*
X95387Y282304D01*
X95327Y282214D01*
X95326Y282209D01*
X95323Y282205D01*
X95317Y282174D01*
X95290Y282075D01*
X94783Y281671D01*
X94757Y281641D01*
X94713Y281606D01*
X94271Y281130D01*
X94210Y281116D01*
X94105Y281095D01*
X94100Y281092D01*
X94095Y281091D01*
X94069Y281074D01*
X93943Y281001D01*
X92154Y279576D01*
X92084Y279496D01*
X92011Y279416D01*
X92009Y279410D01*
X92006Y279407D01*
X91995Y279377D01*
X91954Y279283D01*
X91392Y278959D01*
X91362Y278934D01*
X91314Y278906D01*
X90805Y278501D01*
X90743Y278497D01*
X90636Y278491D01*
X90631Y278489D01*
X90626Y278489D01*
X90597Y278476D01*
X90462Y278423D01*
X88480Y277279D01*
X88398Y277210D01*
X88315Y277143D01*
X88312Y277138D01*
X88308Y277135D01*
X88293Y277107D01*
X88239Y277020D01*
X87635Y276784D01*
X87601Y276763D01*
X87549Y276743D01*
X86986Y276417D01*
X86925Y276423D01*
X86818Y276433D01*
X86812Y276432D01*
X86807Y276433D01*
X86777Y276424D01*
X86635Y276392D01*
X84505Y275556D01*
X84413Y275500D01*
X84322Y275446D01*
X84318Y275441D01*
X84314Y275439D01*
X84294Y275414D01*
X84228Y275336D01*
X83595Y275192D01*
X83559Y275177D01*
X83505Y275164D01*
X83064Y274992D01*
X82947Y274946D01*
X82910Y274931D01*
X82866Y274950D01*
X82819Y274959D01*
X82774Y274977D01*
X82728Y274975D01*
X82696Y274981D01*
X82668Y274973D01*
X82629Y274972D01*
X82548Y274954D01*
X80318Y274445D01*
X80317Y274445D01*
X80236Y274427D01*
X80193Y274406D01*
X80146Y274394D01*
X80110Y274365D01*
X80080Y274351D01*
X80063Y274328D01*
X80032Y274304D01*
X80001Y274268D01*
X79364Y274221D01*
X79345Y274219D01*
X79321Y274212D01*
X79289Y274211D01*
X79270Y274206D01*
X78647Y274064D01*
X78607Y274090D01*
X78561Y274105D01*
X78520Y274130D01*
X78474Y274135D01*
X78443Y274146D01*
X78415Y274142D01*
X78376Y274147D01*
X78293Y274141D01*
X76011Y273970D01*
X75928Y273964D01*
X75882Y273950D01*
X75834Y273945D01*
X75794Y273922D01*
X75763Y273912D01*
X75742Y273893D01*
X75708Y273873D01*
X75672Y273842D01*
X75275Y273872D01*
X75016Y273892D01*
X74992Y273888D01*
X74959Y273892D01*
X74940Y273890D01*
X74302Y273843D01*
X74267Y273874D01*
X74224Y273896D01*
X74187Y273927D01*
X74142Y273939D01*
X74113Y273954D01*
X74084Y273955D01*
X74047Y273965D01*
X73964Y273971D01*
X72757Y274062D01*
X71599Y274149D01*
X71551Y274142D01*
X71503Y274144D01*
X71460Y274127D01*
X71428Y274122D01*
X71404Y274106D01*
X71368Y274092D01*
X71328Y274067D01*
X70705Y274209D01*
X70686Y274213D01*
X70662Y274213D01*
X70630Y274222D01*
X70611Y274223D01*
X70270Y274249D01*
X69974Y274271D01*
X69943Y274307D01*
X69904Y274336D01*
X69872Y274371D01*
X69829Y274390D01*
X69803Y274409D01*
X69775Y274414D01*
X69739Y274430D01*
X69658Y274449D01*
X67427Y274958D01*
X67346Y274977D01*
X67298Y274977D01*
X67251Y274986D01*
X67205Y274976D01*
X67173Y274976D01*
X67147Y274963D01*
X67109Y274955D01*
X67066Y274936D01*
X66925Y274991D01*
X66471Y275170D01*
X66432Y275178D01*
X66380Y275198D01*
X65746Y275343D01*
X65704Y275389D01*
X65633Y275469D01*
X65628Y275472D01*
X65625Y275475D01*
X65597Y275490D01*
X65471Y275563D01*
X63342Y276399D01*
X63237Y276420D01*
X63132Y276443D01*
X63126Y276442D01*
X63122Y276443D01*
X63091Y276438D01*
X62988Y276426D01*
X62427Y276751D01*
X62390Y276764D01*
X62342Y276792D01*
X61737Y277030D01*
X61732Y277041D01*
X61720Y277053D01*
X61702Y277081D01*
X61644Y277171D01*
X61639Y277175D01*
X61637Y277179D01*
X61611Y277197D01*
X61497Y277288D01*
X61433Y277325D01*
X61343Y277358D01*
X61255Y277395D01*
X61238Y277395D01*
X61221Y277401D01*
X61126Y277400D01*
X61031Y277405D01*
X61015Y277399D01*
X60997Y277399D01*
X60908Y277365D01*
X60818Y277336D01*
X60802Y277325D01*
X60788Y277319D01*
X60750Y277286D01*
X60667Y277225D01*
X54529Y271086D01*
X54504Y271051D01*
X54473Y271023D01*
X54441Y270960D01*
X54400Y270902D01*
X54390Y270861D01*
X54370Y270823D01*
X54357Y270733D01*
X54345Y270685D01*
X54347Y270664D01*
X54343Y270638D01*
X54343Y212618D01*
X30703Y188978D01*
X30679Y188943D01*
X30648Y188915D01*
X30622Y188865D01*
X30608Y188848D01*
X30604Y188835D01*
X30575Y188794D01*
X30565Y188753D01*
X30545Y188715D01*
X30532Y188626D01*
X30519Y188577D01*
X30522Y188556D01*
X30518Y188530D01*
X30518Y183552D01*
X30529Y183487D01*
X30531Y183421D01*
X30549Y183378D01*
X30557Y183331D01*
X30591Y183274D01*
X30616Y183213D01*
X30647Y183179D01*
X30671Y183138D01*
X30723Y183096D01*
X30767Y183048D01*
X30809Y183026D01*
X30846Y182996D01*
X30908Y182975D01*
X30967Y182945D01*
X31021Y182937D01*
X31058Y182925D01*
X31097Y182926D01*
X31152Y182918D01*
X32955Y182918D01*
X32997Y182925D01*
X33039Y182923D01*
X33106Y182945D01*
X33176Y182957D01*
X33212Y182979D01*
X33253Y182992D01*
X33325Y183046D01*
X33369Y183071D01*
X33382Y183088D01*
X33403Y183103D01*
X34272Y183972D01*
X56696Y183972D01*
X64703Y175966D01*
X64776Y175915D01*
X64845Y175859D01*
X64867Y175851D01*
X64887Y175838D01*
X64973Y175815D01*
X65057Y175787D01*
X65081Y175787D01*
X65104Y175782D01*
X65193Y175791D01*
X65282Y175793D01*
X65304Y175802D01*
X65327Y175805D01*
X65407Y175844D01*
X65489Y175878D01*
X65507Y175894D01*
X65528Y175904D01*
X65589Y175969D01*
X65655Y176029D01*
X65666Y176050D01*
X65682Y176068D01*
X65717Y176149D01*
X65758Y176229D01*
X65761Y176255D01*
X65770Y176274D01*
X65772Y176325D01*
X65785Y176414D01*
X65785Y184939D01*
X66902Y186056D01*
X83530Y186056D01*
X84646Y184939D01*
X84646Y175423D01*
X83530Y174307D01*
X83276Y174307D01*
X83234Y174299D01*
X83192Y174301D01*
X83124Y174280D01*
X83055Y174267D01*
X83018Y174246D01*
X82978Y174233D01*
X82951Y174213D01*
X72616Y174213D01*
X72563Y174249D01*
X72522Y174260D01*
X72485Y174279D01*
X72395Y174292D01*
X72346Y174305D01*
X72325Y174303D01*
X72299Y174307D01*
X67893Y174307D01*
X67805Y174291D01*
X67716Y174282D01*
X67695Y174271D01*
X67672Y174267D01*
X67595Y174222D01*
X67515Y174182D01*
X67499Y174165D01*
X67479Y174153D01*
X67422Y174084D01*
X67361Y174019D01*
X67352Y173997D01*
X67337Y173979D01*
X67309Y173895D01*
X67274Y173812D01*
X67273Y173789D01*
X67265Y173766D01*
X67268Y173677D01*
X67264Y173588D01*
X67271Y173566D01*
X67272Y173542D01*
X67305Y173460D01*
X67333Y173375D01*
X67348Y173353D01*
X67356Y173334D01*
X67390Y173297D01*
X67444Y173224D01*
X70855Y169813D01*
X70890Y169789D01*
X70919Y169757D01*
X70981Y169725D01*
X71039Y169685D01*
X71080Y169674D01*
X71118Y169655D01*
X71208Y169642D01*
X71257Y169629D01*
X71277Y169631D01*
X71304Y169627D01*
X96701Y169627D01*
X96789Y169643D01*
G37*
G36*
X100008Y58498D02*
X100008Y58498D01*
X100050Y58500D01*
X100134Y58533D01*
X100183Y58547D01*
X100200Y58559D01*
X100224Y58568D01*
X132784Y77367D01*
X133093Y76719D01*
X133110Y76697D01*
X133119Y76670D01*
X133169Y76618D01*
X133212Y76560D01*
X133237Y76546D01*
X133256Y76525D01*
X133322Y76497D01*
X133384Y76461D01*
X133412Y76457D01*
X133438Y76446D01*
X133510Y76445D01*
X133581Y76436D01*
X133609Y76444D01*
X133637Y76443D01*
X133733Y76479D01*
X133773Y76490D01*
X133781Y76497D01*
X133793Y76501D01*
X150247Y86001D01*
X150306Y86053D01*
X150368Y86099D01*
X150380Y86118D01*
X150396Y86133D01*
X150430Y86203D01*
X150470Y86270D01*
X150474Y86295D01*
X150482Y86312D01*
X150484Y86357D01*
X150497Y86434D01*
X150474Y105474D01*
X150469Y105502D01*
X150471Y105530D01*
X150449Y105598D01*
X150434Y105669D01*
X150418Y105692D01*
X150409Y105719D01*
X150362Y105773D01*
X150322Y105832D01*
X150298Y105848D01*
X150279Y105869D01*
X150215Y105901D01*
X150154Y105939D01*
X150126Y105944D01*
X150100Y105956D01*
X150000Y105965D01*
X149958Y105972D01*
X149947Y105970D01*
X149934Y105971D01*
X149243Y105914D01*
X149242Y143458D01*
X149235Y143500D01*
X149237Y143542D01*
X149215Y143610D01*
X149203Y143679D01*
X149181Y143716D01*
X149168Y143756D01*
X149124Y143812D01*
X149089Y143873D01*
X149056Y143899D01*
X149029Y143932D01*
X148969Y143969D01*
X148914Y144014D01*
X148874Y144027D01*
X148838Y144050D01*
X148750Y144070D01*
X148702Y144086D01*
X148681Y144085D01*
X148655Y144091D01*
X146701Y144237D01*
X146594Y144226D01*
X146488Y144216D01*
X146482Y144214D01*
X146478Y144214D01*
X146449Y144200D01*
X146316Y144141D01*
X146158Y144042D01*
X146149Y144034D01*
X146138Y144029D01*
X146113Y144004D01*
X146089Y143990D01*
X146054Y143947D01*
X145992Y143891D01*
X145987Y143880D01*
X145978Y143871D01*
X145958Y143829D01*
X145947Y143816D01*
X145935Y143780D01*
X145890Y143692D01*
X145888Y143679D01*
X145883Y143668D01*
X145878Y143612D01*
X145876Y143603D01*
X145876Y143584D01*
X145875Y143568D01*
X145863Y143469D01*
X145866Y143457D01*
X145865Y143444D01*
X145910Y143263D01*
X147287Y139937D01*
X147287Y136288D01*
X145890Y132915D01*
X143310Y130335D01*
X139937Y128938D01*
X136288Y128938D01*
X132915Y130335D01*
X130335Y132915D01*
X128938Y136288D01*
X128938Y139937D01*
X130335Y143310D01*
X132915Y145890D01*
X135319Y146886D01*
X135360Y146912D01*
X135405Y146929D01*
X135454Y146972D01*
X135508Y147007D01*
X135537Y147046D01*
X135573Y147078D01*
X135604Y147135D01*
X135643Y147187D01*
X135657Y147233D01*
X135680Y147275D01*
X135689Y147339D01*
X135707Y147402D01*
X135704Y147450D01*
X135711Y147497D01*
X135697Y147561D01*
X135692Y147626D01*
X135672Y147670D01*
X135662Y147716D01*
X135627Y147771D01*
X135600Y147830D01*
X135567Y147865D01*
X135540Y147905D01*
X135477Y147955D01*
X135443Y147990D01*
X135420Y148001D01*
X135394Y148022D01*
X134532Y148519D01*
X134450Y148548D01*
X134435Y148556D01*
X134425Y148557D01*
X134331Y148593D01*
X134325Y148593D01*
X134321Y148595D01*
X134289Y148595D01*
X134187Y148598D01*
X133680Y149002D01*
X133645Y149021D01*
X133601Y149056D01*
X133038Y149381D01*
X133012Y149436D01*
X132967Y149535D01*
X132963Y149539D01*
X132961Y149543D01*
X132939Y149565D01*
X132840Y149672D01*
X131051Y151098D01*
X130956Y151149D01*
X130863Y151201D01*
X130857Y151202D01*
X130853Y151204D01*
X130822Y151209D01*
X130721Y151227D01*
X130280Y151703D01*
X130248Y151726D01*
X130210Y151767D01*
X129702Y152173D01*
X129684Y152232D01*
X129655Y152335D01*
X129652Y152340D01*
X129650Y152344D01*
X129631Y152370D01*
X129549Y152490D01*
X127992Y154166D01*
X127906Y154231D01*
X127822Y154297D01*
X127817Y154298D01*
X127813Y154301D01*
X127783Y154310D01*
X127686Y154344D01*
X127321Y154880D01*
X127293Y154908D01*
X127262Y154954D01*
X127024Y155210D01*
X126943Y155270D01*
X126865Y155334D01*
X126854Y155337D01*
X126844Y155345D01*
X126748Y155373D01*
X126653Y155405D01*
X126641Y155405D01*
X126629Y155409D01*
X126528Y155402D01*
X126428Y155399D01*
X126417Y155394D01*
X126406Y155394D01*
X126313Y155352D01*
X126221Y155315D01*
X126212Y155307D01*
X126201Y155302D01*
X126129Y155231D01*
X126055Y155163D01*
X126049Y155152D01*
X126041Y155144D01*
X125999Y155053D01*
X125952Y154964D01*
X125950Y154951D01*
X125946Y154941D01*
X125942Y154896D01*
X125925Y154778D01*
X125925Y151803D01*
X122835Y148713D01*
X118465Y148713D01*
X116336Y150842D01*
X116282Y150880D01*
X116234Y150925D01*
X116191Y150943D01*
X116152Y150970D01*
X116088Y150986D01*
X116027Y151012D01*
X115980Y151014D01*
X115935Y151026D01*
X115869Y151019D01*
X115803Y151022D01*
X115758Y151008D01*
X115711Y151003D01*
X115652Y150974D01*
X115590Y150953D01*
X115546Y150921D01*
X115510Y150903D01*
X115483Y150875D01*
X115439Y150842D01*
X113310Y148713D01*
X108940Y148713D01*
X108756Y148897D01*
X108702Y148934D01*
X108654Y148980D01*
X108611Y148998D01*
X108572Y149025D01*
X108508Y149041D01*
X108448Y149067D01*
X108400Y149069D01*
X108355Y149081D01*
X108289Y149074D01*
X108223Y149077D01*
X108179Y149063D01*
X108131Y149058D01*
X108072Y149028D01*
X108010Y149008D01*
X107966Y148976D01*
X107930Y148958D01*
X107903Y148930D01*
X107859Y148897D01*
X105207Y146244D01*
X105169Y146190D01*
X105124Y146143D01*
X105106Y146099D01*
X105079Y146060D01*
X105062Y145997D01*
X105037Y145936D01*
X105035Y145889D01*
X105023Y145843D01*
X105030Y145778D01*
X105027Y145712D01*
X105041Y145667D01*
X105046Y145620D01*
X105075Y145561D01*
X105095Y145498D01*
X105128Y145454D01*
X105145Y145419D01*
X105174Y145392D01*
X105207Y145347D01*
X105899Y144656D01*
X105899Y141094D01*
X103381Y138576D01*
X99819Y138576D01*
X97301Y141094D01*
X97301Y144656D01*
X99835Y147189D01*
X99872Y147243D01*
X99917Y147291D01*
X99936Y147334D01*
X99963Y147373D01*
X99979Y147437D01*
X100005Y147498D01*
X100007Y147545D01*
X100019Y147590D01*
X100012Y147656D01*
X100015Y147722D01*
X100000Y147767D01*
X99995Y147814D01*
X99966Y147873D01*
X99946Y147935D01*
X99913Y147979D01*
X99896Y148015D01*
X99867Y148042D01*
X99835Y148086D01*
X99143Y148778D01*
X99143Y152339D01*
X101661Y154857D01*
X105216Y154857D01*
X105281Y154869D01*
X105347Y154871D01*
X105390Y154889D01*
X105437Y154897D01*
X105494Y154930D01*
X105554Y154955D01*
X105589Y154987D01*
X105630Y155011D01*
X105672Y155062D01*
X105720Y155107D01*
X105742Y155149D01*
X105771Y155185D01*
X105792Y155247D01*
X105823Y155306D01*
X105831Y155361D01*
X105843Y155398D01*
X105842Y155437D01*
X105850Y155491D01*
X105850Y156172D01*
X108940Y159262D01*
X113310Y159262D01*
X115439Y157133D01*
X115493Y157096D01*
X115541Y157050D01*
X115584Y157032D01*
X115623Y157005D01*
X115687Y156989D01*
X115748Y156963D01*
X115795Y156961D01*
X115841Y156949D01*
X115906Y156956D01*
X115972Y156953D01*
X116017Y156967D01*
X116064Y156972D01*
X116123Y157001D01*
X116185Y157022D01*
X116229Y157054D01*
X116265Y157072D01*
X116292Y157100D01*
X116336Y157133D01*
X118465Y159262D01*
X122835Y159262D01*
X123373Y158724D01*
X123378Y158721D01*
X123382Y158716D01*
X123469Y158657D01*
X123557Y158596D01*
X123563Y158595D01*
X123568Y158591D01*
X123672Y158567D01*
X123774Y158540D01*
X123780Y158541D01*
X123787Y158539D01*
X123893Y158553D01*
X123997Y158563D01*
X124003Y158566D01*
X124009Y158567D01*
X124104Y158616D01*
X124199Y158663D01*
X124203Y158667D01*
X124208Y158670D01*
X124279Y158748D01*
X124353Y158826D01*
X124355Y158832D01*
X124359Y158836D01*
X124398Y158934D01*
X124440Y159033D01*
X124440Y159039D01*
X124443Y159045D01*
X124445Y159151D01*
X124450Y159257D01*
X124448Y159263D01*
X124448Y159269D01*
X124393Y159448D01*
X123957Y160351D01*
X123936Y160381D01*
X123922Y160414D01*
X123871Y160471D01*
X123826Y160533D01*
X123795Y160553D01*
X123771Y160580D01*
X123703Y160615D01*
X123639Y160658D01*
X123604Y160666D01*
X123571Y160683D01*
X123469Y160698D01*
X123421Y160709D01*
X123405Y160707D01*
X123386Y160710D01*
X67181Y160710D01*
X64110Y163781D01*
X56173Y171719D01*
X53934Y173957D01*
X53899Y173982D01*
X53871Y174013D01*
X53808Y174045D01*
X53750Y174086D01*
X53709Y174096D01*
X53671Y174116D01*
X53581Y174129D01*
X53533Y174142D01*
X53512Y174139D01*
X53486Y174143D01*
X46799Y174143D01*
X46757Y174136D01*
X46715Y174138D01*
X46648Y174116D01*
X46578Y174104D01*
X46542Y174082D01*
X46501Y174069D01*
X46429Y174015D01*
X46385Y173989D01*
X46372Y173973D01*
X46351Y173957D01*
X44758Y172365D01*
X38709Y172365D01*
X38644Y172354D01*
X38578Y172352D01*
X38535Y172334D01*
X38488Y172326D01*
X38431Y172292D01*
X38371Y172267D01*
X38336Y172236D01*
X38295Y172211D01*
X38253Y172160D01*
X38205Y172116D01*
X38183Y172074D01*
X38154Y172037D01*
X38133Y171975D01*
X38102Y171916D01*
X38094Y171862D01*
X38082Y171825D01*
X38083Y171785D01*
X38075Y171731D01*
X38075Y167768D01*
X38057Y167750D01*
X38039Y167707D01*
X38012Y167668D01*
X37996Y167604D01*
X37970Y167543D01*
X37968Y167496D01*
X37956Y167451D01*
X37963Y167385D01*
X37960Y167319D01*
X37974Y167274D01*
X37979Y167227D01*
X38009Y167168D01*
X38029Y167106D01*
X38061Y167062D01*
X38075Y167035D01*
X38075Y162767D01*
X38057Y162749D01*
X38039Y162706D01*
X38012Y162667D01*
X37996Y162603D01*
X37970Y162542D01*
X37968Y162495D01*
X37956Y162449D01*
X37963Y162384D01*
X37960Y162318D01*
X37975Y162273D01*
X37979Y162226D01*
X38009Y162167D01*
X38029Y162105D01*
X38061Y162061D01*
X38075Y162033D01*
X38075Y157766D01*
X38057Y157748D01*
X38039Y157705D01*
X38012Y157666D01*
X37996Y157602D01*
X37970Y157541D01*
X37968Y157494D01*
X37956Y157449D01*
X37963Y157383D01*
X37960Y157317D01*
X37974Y157272D01*
X37979Y157225D01*
X38009Y157166D01*
X38029Y157104D01*
X38061Y157060D01*
X38075Y157033D01*
X38075Y152765D01*
X38057Y152747D01*
X38039Y152703D01*
X38012Y152664D01*
X37995Y152601D01*
X37970Y152540D01*
X37967Y152493D01*
X37956Y152447D01*
X37962Y152382D01*
X37960Y152316D01*
X37974Y152271D01*
X37979Y152224D01*
X38008Y152165D01*
X38028Y152102D01*
X38058Y152061D01*
X38063Y152051D01*
X38067Y152046D01*
X38075Y152030D01*
X38075Y147763D01*
X38057Y147745D01*
X38039Y147702D01*
X38012Y147663D01*
X37996Y147599D01*
X37970Y147538D01*
X37968Y147491D01*
X37956Y147446D01*
X37963Y147380D01*
X37960Y147314D01*
X37974Y147269D01*
X37979Y147222D01*
X38009Y147163D01*
X38029Y147101D01*
X38061Y147057D01*
X38075Y147030D01*
X38075Y142762D01*
X38057Y142744D01*
X38039Y142701D01*
X38012Y142662D01*
X37996Y142598D01*
X37970Y142537D01*
X37968Y142490D01*
X37956Y142445D01*
X37963Y142379D01*
X37960Y142313D01*
X37974Y142268D01*
X37979Y142221D01*
X38009Y142162D01*
X38029Y142100D01*
X38061Y142056D01*
X38075Y142029D01*
X38075Y137641D01*
X38086Y137576D01*
X38088Y137510D01*
X38106Y137467D01*
X38114Y137420D01*
X38148Y137363D01*
X38173Y137303D01*
X38204Y137268D01*
X38229Y137227D01*
X38280Y137185D01*
X38324Y137137D01*
X38366Y137115D01*
X38403Y137086D01*
X38465Y137065D01*
X38524Y137034D01*
X38578Y137026D01*
X38615Y137014D01*
X38655Y137015D01*
X38709Y137007D01*
X54898Y137007D01*
X59231Y132673D01*
X59285Y132636D01*
X59333Y132591D01*
X59377Y132572D01*
X59415Y132545D01*
X59479Y132529D01*
X59540Y132503D01*
X59587Y132501D01*
X59633Y132489D01*
X59698Y132496D01*
X59764Y132493D01*
X59809Y132508D01*
X59856Y132512D01*
X59915Y132542D01*
X59977Y132562D01*
X60022Y132594D01*
X60057Y132612D01*
X60084Y132641D01*
X60128Y132673D01*
X61123Y133668D01*
X83784Y133668D01*
X84900Y132552D01*
X84900Y123036D01*
X83784Y121919D01*
X65294Y121919D01*
X65229Y121908D01*
X65163Y121906D01*
X65119Y121888D01*
X65073Y121880D01*
X65016Y121846D01*
X64955Y121821D01*
X64920Y121790D01*
X64879Y121765D01*
X64838Y121714D01*
X64789Y121670D01*
X64768Y121628D01*
X64738Y121591D01*
X64717Y121529D01*
X64687Y121470D01*
X64679Y121416D01*
X64666Y121379D01*
X64667Y121339D01*
X64659Y121285D01*
X64659Y108902D01*
X64671Y108838D01*
X64673Y108772D01*
X64691Y108728D01*
X64699Y108682D01*
X64732Y108625D01*
X64757Y108564D01*
X64789Y108529D01*
X64813Y108488D01*
X64864Y108447D01*
X64909Y108398D01*
X64951Y108377D01*
X64987Y108347D01*
X65050Y108326D01*
X65108Y108296D01*
X65163Y108288D01*
X65200Y108275D01*
X65239Y108276D01*
X65294Y108268D01*
X83022Y108268D01*
X84138Y107152D01*
X84138Y97636D01*
X83022Y96519D01*
X65294Y96519D01*
X65229Y96508D01*
X65163Y96506D01*
X65119Y96488D01*
X65073Y96480D01*
X65016Y96446D01*
X64955Y96421D01*
X64920Y96390D01*
X64879Y96365D01*
X64838Y96314D01*
X64789Y96270D01*
X64768Y96228D01*
X64738Y96191D01*
X64717Y96129D01*
X64687Y96070D01*
X64679Y96016D01*
X64666Y95979D01*
X64667Y95939D01*
X64659Y95885D01*
X64659Y83502D01*
X64671Y83438D01*
X64673Y83372D01*
X64691Y83328D01*
X64699Y83282D01*
X64732Y83225D01*
X64757Y83164D01*
X64789Y83129D01*
X64813Y83088D01*
X64864Y83047D01*
X64909Y82998D01*
X64951Y82977D01*
X64987Y82947D01*
X65050Y82926D01*
X65108Y82896D01*
X65163Y82888D01*
X65200Y82875D01*
X65239Y82876D01*
X65294Y82868D01*
X83530Y82868D01*
X84646Y81752D01*
X84646Y72172D01*
X84186Y71712D01*
X84126Y71625D01*
X84063Y71538D01*
X84061Y71533D01*
X84058Y71528D01*
X84032Y71425D01*
X84003Y71322D01*
X84004Y71316D01*
X84002Y71311D01*
X84013Y71205D01*
X84023Y71098D01*
X84025Y71093D01*
X84026Y71088D01*
X84040Y71059D01*
X84098Y70926D01*
X84207Y70752D01*
X84279Y70674D01*
X84350Y70593D01*
X84355Y70590D01*
X84358Y70586D01*
X84387Y70572D01*
X84513Y70499D01*
X86640Y69664D01*
X86745Y69643D01*
X86850Y69621D01*
X86855Y69621D01*
X86860Y69621D01*
X86892Y69626D01*
X86993Y69637D01*
X87555Y69313D01*
X87592Y69299D01*
X87640Y69272D01*
X88246Y69034D01*
X88280Y68983D01*
X88338Y68893D01*
X88343Y68889D01*
X88345Y68885D01*
X88371Y68867D01*
X88456Y68799D01*
X88457Y68798D01*
X88485Y68776D01*
X90464Y67633D01*
X90565Y67597D01*
X90665Y67559D01*
X90671Y67559D01*
X90675Y67557D01*
X90707Y67557D01*
X90809Y67554D01*
X91316Y67149D01*
X91351Y67130D01*
X91395Y67096D01*
X91958Y66771D01*
X91984Y66715D01*
X92028Y66617D01*
X92032Y66613D01*
X92034Y66608D01*
X92057Y66586D01*
X92156Y66480D01*
X93943Y65055D01*
X94037Y65004D01*
X94130Y64951D01*
X94136Y64950D01*
X94140Y64948D01*
X94172Y64944D01*
X94272Y64925D01*
X94713Y64449D01*
X94745Y64425D01*
X94783Y64385D01*
X95292Y63979D01*
X95309Y63919D01*
X95338Y63817D01*
X95341Y63812D01*
X95343Y63807D01*
X95362Y63782D01*
X95444Y63662D01*
X96998Y61986D01*
X97084Y61922D01*
X97169Y61856D01*
X97174Y61854D01*
X97178Y61852D01*
X97208Y61843D01*
X97305Y61809D01*
X97670Y61273D01*
X97698Y61245D01*
X97729Y61199D01*
X98172Y60722D01*
X98180Y60661D01*
X98194Y60554D01*
X98196Y60549D01*
X98197Y60544D01*
X98212Y60517D01*
X98275Y60386D01*
X99383Y58760D01*
X99413Y58730D01*
X99435Y58694D01*
X99491Y58651D01*
X99540Y58600D01*
X99579Y58582D01*
X99612Y58556D01*
X99679Y58535D01*
X99743Y58505D01*
X99786Y58501D01*
X99826Y58489D01*
X99896Y58492D01*
X99967Y58486D01*
X100008Y58498D01*
G37*
G36*
X-106894Y189874D02*
X-106894Y189874D01*
X-106805Y189883D01*
X-106784Y189894D01*
X-106760Y189898D01*
X-106684Y189943D01*
X-106604Y189983D01*
X-106588Y190000D01*
X-106567Y190012D01*
X-106511Y190081D01*
X-106450Y190146D01*
X-106441Y190168D01*
X-106426Y190186D01*
X-106397Y190270D01*
X-106363Y190353D01*
X-106362Y190376D01*
X-106354Y190399D01*
X-106357Y190488D01*
X-106353Y190577D01*
X-106360Y190599D01*
X-106361Y190623D01*
X-106394Y190705D01*
X-106421Y190790D01*
X-106437Y190812D01*
X-106445Y190831D01*
X-106479Y190868D01*
X-106533Y190941D01*
X-107486Y191894D01*
X-107486Y195456D01*
X-104968Y197974D01*
X-101407Y197974D01*
X-98889Y195456D01*
X-98889Y191894D01*
X-99842Y190941D01*
X-99893Y190868D01*
X-99949Y190799D01*
X-99957Y190776D01*
X-99970Y190757D01*
X-99993Y190670D01*
X-100021Y190586D01*
X-100020Y190562D01*
X-100026Y190539D01*
X-100017Y190451D01*
X-100014Y190362D01*
X-100005Y190340D01*
X-100003Y190316D01*
X-99964Y190236D01*
X-99930Y190154D01*
X-99914Y190137D01*
X-99904Y190115D01*
X-99839Y190054D01*
X-99779Y189988D01*
X-99758Y189978D01*
X-99740Y189961D01*
X-99658Y189927D01*
X-99579Y189886D01*
X-99553Y189882D01*
X-99534Y189874D01*
X-99483Y189872D01*
X-99394Y189858D01*
X-62674Y189858D01*
X-62610Y189870D01*
X-62544Y189872D01*
X-62500Y189890D01*
X-62454Y189898D01*
X-62397Y189931D01*
X-62336Y189956D01*
X-62301Y189988D01*
X-62260Y190012D01*
X-62219Y190063D01*
X-62170Y190108D01*
X-62149Y190150D01*
X-62119Y190186D01*
X-62098Y190248D01*
X-62068Y190307D01*
X-62060Y190362D01*
X-62047Y190399D01*
X-62048Y190438D01*
X-62040Y190492D01*
X-62040Y255542D01*
X-62048Y255584D01*
X-62046Y255627D01*
X-62067Y255694D01*
X-62080Y255763D01*
X-62101Y255800D01*
X-62114Y255840D01*
X-62168Y255913D01*
X-62194Y255956D01*
X-62210Y255970D01*
X-62226Y255991D01*
X-66828Y260592D01*
X-66862Y260617D01*
X-66891Y260648D01*
X-66954Y260680D01*
X-67012Y260721D01*
X-67053Y260731D01*
X-67091Y260751D01*
X-67180Y260764D01*
X-67229Y260777D01*
X-67250Y260774D01*
X-67276Y260778D01*
X-71129Y260778D01*
X-71193Y260767D01*
X-71259Y260765D01*
X-71303Y260747D01*
X-71349Y260739D01*
X-71406Y260705D01*
X-71467Y260680D01*
X-71502Y260649D01*
X-71543Y260624D01*
X-71584Y260573D01*
X-71633Y260529D01*
X-71654Y260487D01*
X-71684Y260450D01*
X-71705Y260388D01*
X-71735Y260329D01*
X-71743Y260275D01*
X-71756Y260238D01*
X-71755Y260198D01*
X-71763Y260144D01*
X-71763Y252893D01*
X-72656Y252000D01*
X-75668Y252000D01*
X-75709Y251993D01*
X-75752Y251995D01*
X-75819Y251973D01*
X-75889Y251961D01*
X-75925Y251939D01*
X-75965Y251926D01*
X-76038Y251872D01*
X-76082Y251846D01*
X-76095Y251830D01*
X-76116Y251814D01*
X-76197Y251733D01*
X-79759Y251733D01*
X-79840Y251814D01*
X-79867Y251833D01*
X-79869Y251836D01*
X-79875Y251839D01*
X-79903Y251870D01*
X-79966Y251902D01*
X-80024Y251943D01*
X-80065Y251953D01*
X-80103Y251973D01*
X-80193Y251986D01*
X-80241Y251999D01*
X-80262Y251996D01*
X-80288Y252000D01*
X-82919Y252000D01*
X-83812Y252893D01*
X-83812Y260144D01*
X-83824Y260209D01*
X-83826Y260275D01*
X-83844Y260318D01*
X-83852Y260365D01*
X-83885Y260422D01*
X-83910Y260482D01*
X-83942Y260517D01*
X-83966Y260558D01*
X-84017Y260600D01*
X-84062Y260648D01*
X-84104Y260670D01*
X-84140Y260699D01*
X-84202Y260720D01*
X-84261Y260751D01*
X-84316Y260759D01*
X-84353Y260771D01*
X-84392Y260770D01*
X-84446Y260778D01*
X-95473Y260778D01*
X-97648Y262954D01*
X-98771Y264077D01*
X-98825Y264114D01*
X-98873Y264159D01*
X-98916Y264178D01*
X-98955Y264205D01*
X-99019Y264221D01*
X-99079Y264247D01*
X-99127Y264249D01*
X-99172Y264261D01*
X-99238Y264254D01*
X-99304Y264257D01*
X-99349Y264242D01*
X-99396Y264238D01*
X-99454Y264208D01*
X-99517Y264188D01*
X-99561Y264156D01*
X-99597Y264138D01*
X-99624Y264109D01*
X-99668Y264077D01*
X-100216Y263529D01*
X-100253Y263475D01*
X-100298Y263427D01*
X-100317Y263384D01*
X-100344Y263345D01*
X-100360Y263281D01*
X-100386Y263220D01*
X-100388Y263173D01*
X-100400Y263127D01*
X-100393Y263062D01*
X-100396Y262996D01*
X-100381Y262951D01*
X-100376Y262904D01*
X-100347Y262845D01*
X-100327Y262783D01*
X-100295Y262739D01*
X-100277Y262703D01*
X-100248Y262676D01*
X-100216Y262632D01*
X-98698Y261115D01*
X-98698Y257553D01*
X-101216Y255035D01*
X-104778Y255035D01*
X-107296Y257553D01*
X-107296Y261115D01*
X-105778Y262632D01*
X-105741Y262686D01*
X-105696Y262734D01*
X-105677Y262777D01*
X-105650Y262816D01*
X-105634Y262880D01*
X-105608Y262941D01*
X-105606Y262988D01*
X-105594Y263033D01*
X-105601Y263099D01*
X-105598Y263165D01*
X-105613Y263210D01*
X-105618Y263257D01*
X-105647Y263316D01*
X-105667Y263378D01*
X-105700Y263422D01*
X-105717Y263458D01*
X-105746Y263485D01*
X-105778Y263529D01*
X-107296Y265046D01*
X-107296Y268608D01*
X-104778Y271126D01*
X-101216Y271126D01*
X-100405Y270314D01*
X-100332Y270263D01*
X-100263Y270207D01*
X-100240Y270200D01*
X-100221Y270186D01*
X-100135Y270164D01*
X-100050Y270135D01*
X-100026Y270136D01*
X-100003Y270130D01*
X-99915Y270139D01*
X-99826Y270142D01*
X-99804Y270151D01*
X-99780Y270153D01*
X-99700Y270193D01*
X-99618Y270226D01*
X-99601Y270242D01*
X-99579Y270253D01*
X-99518Y270318D01*
X-99452Y270378D01*
X-99442Y270399D01*
X-99425Y270416D01*
X-99391Y270498D01*
X-99350Y270577D01*
X-99346Y270604D01*
X-99338Y270623D01*
X-99336Y270673D01*
X-99322Y270763D01*
X-99322Y276055D01*
X-99334Y276119D01*
X-99336Y276185D01*
X-99354Y276229D01*
X-99362Y276275D01*
X-99395Y276332D01*
X-99420Y276393D01*
X-99452Y276428D01*
X-99476Y276469D01*
X-99527Y276510D01*
X-99572Y276559D01*
X-99614Y276580D01*
X-99650Y276610D01*
X-99712Y276631D01*
X-99771Y276661D01*
X-99826Y276669D01*
X-99863Y276682D01*
X-99902Y276681D01*
X-99956Y276689D01*
X-101793Y276689D01*
X-104311Y279207D01*
X-104311Y282768D01*
X-102089Y284990D01*
X-102072Y285015D01*
X-102049Y285034D01*
X-102009Y285106D01*
X-101961Y285174D01*
X-101954Y285203D01*
X-101939Y285229D01*
X-101926Y285311D01*
X-101905Y285391D01*
X-101908Y285421D01*
X-101904Y285451D01*
X-101920Y285532D01*
X-101929Y285615D01*
X-101942Y285642D01*
X-101948Y285671D01*
X-101991Y285741D01*
X-102028Y285816D01*
X-102050Y285836D01*
X-102066Y285862D01*
X-102131Y285913D01*
X-102191Y285970D01*
X-102219Y285981D01*
X-102243Y286000D01*
X-102321Y286025D01*
X-102398Y286057D01*
X-102428Y286058D01*
X-102456Y286067D01*
X-102539Y286063D01*
X-102622Y286067D01*
X-102651Y286058D01*
X-102681Y286056D01*
X-102793Y286012D01*
X-102836Y285998D01*
X-102845Y285992D01*
X-102855Y285988D01*
X-132784Y268708D01*
X-133093Y269356D01*
X-133110Y269378D01*
X-133119Y269405D01*
X-133169Y269457D01*
X-133212Y269515D01*
X-133237Y269529D01*
X-133256Y269550D01*
X-133322Y269578D01*
X-133384Y269614D01*
X-133412Y269618D01*
X-133438Y269629D01*
X-133510Y269630D01*
X-133581Y269639D01*
X-133609Y269631D01*
X-133637Y269632D01*
X-133733Y269596D01*
X-133773Y269585D01*
X-133781Y269578D01*
X-133793Y269574D01*
X-150247Y260074D01*
X-150306Y260022D01*
X-150368Y259976D01*
X-150380Y259957D01*
X-150396Y259942D01*
X-150430Y259872D01*
X-150470Y259805D01*
X-150474Y259780D01*
X-150482Y259763D01*
X-150484Y259718D01*
X-150497Y259641D01*
X-150474Y240601D01*
X-150469Y240573D01*
X-150471Y240545D01*
X-150449Y240477D01*
X-150434Y240406D01*
X-150418Y240383D01*
X-150409Y240356D01*
X-150362Y240302D01*
X-150322Y240243D01*
X-150298Y240227D01*
X-150279Y240206D01*
X-150215Y240174D01*
X-150154Y240136D01*
X-150126Y240131D01*
X-150100Y240119D01*
X-150000Y240110D01*
X-149958Y240103D01*
X-149947Y240105D01*
X-149934Y240104D01*
X-149243Y240161D01*
X-149242Y202616D01*
X-149235Y202575D01*
X-149237Y202532D01*
X-149215Y202465D01*
X-149203Y202396D01*
X-149181Y202359D01*
X-149168Y202319D01*
X-149125Y202263D01*
X-149089Y202202D01*
X-149056Y202176D01*
X-149029Y202142D01*
X-148969Y202106D01*
X-148914Y202061D01*
X-148874Y202048D01*
X-148838Y202025D01*
X-148749Y202005D01*
X-148702Y201989D01*
X-148681Y201990D01*
X-148655Y201984D01*
X-146701Y201838D01*
X-146594Y201849D01*
X-146488Y201859D01*
X-146482Y201861D01*
X-146478Y201861D01*
X-146449Y201875D01*
X-146316Y201934D01*
X-146158Y202033D01*
X-146149Y202041D01*
X-146138Y202046D01*
X-146067Y202116D01*
X-145992Y202184D01*
X-145987Y202195D01*
X-145978Y202204D01*
X-145936Y202294D01*
X-145890Y202383D01*
X-145888Y202396D01*
X-145883Y202407D01*
X-145875Y202506D01*
X-145863Y202606D01*
X-145866Y202618D01*
X-145865Y202631D01*
X-145910Y202812D01*
X-147287Y206138D01*
X-147287Y209787D01*
X-145890Y213160D01*
X-143310Y215740D01*
X-139937Y217137D01*
X-136288Y217137D01*
X-132915Y215740D01*
X-130335Y213160D01*
X-128938Y209787D01*
X-128938Y206138D01*
X-130335Y202765D01*
X-132915Y200185D01*
X-135320Y199189D01*
X-135360Y199163D01*
X-135405Y199146D01*
X-135454Y199103D01*
X-135508Y199068D01*
X-135537Y199029D01*
X-135573Y198997D01*
X-135604Y198940D01*
X-135643Y198888D01*
X-135657Y198842D01*
X-135680Y198800D01*
X-135689Y198736D01*
X-135707Y198673D01*
X-135704Y198625D01*
X-135711Y198578D01*
X-135697Y198514D01*
X-135692Y198449D01*
X-135673Y198405D01*
X-135662Y198359D01*
X-135627Y198304D01*
X-135600Y198245D01*
X-135567Y198210D01*
X-135540Y198170D01*
X-135477Y198120D01*
X-135443Y198085D01*
X-135420Y198074D01*
X-135394Y198053D01*
X-134532Y197556D01*
X-134430Y197520D01*
X-134331Y197482D01*
X-134325Y197482D01*
X-134321Y197480D01*
X-134289Y197480D01*
X-134187Y197477D01*
X-133680Y197073D01*
X-133645Y197054D01*
X-133601Y197019D01*
X-133038Y196694D01*
X-133012Y196639D01*
X-132967Y196540D01*
X-132963Y196536D01*
X-132961Y196532D01*
X-132939Y196510D01*
X-132840Y196403D01*
X-131051Y194977D01*
X-130956Y194926D01*
X-130863Y194874D01*
X-130857Y194873D01*
X-130853Y194871D01*
X-130822Y194866D01*
X-130721Y194848D01*
X-130280Y194372D01*
X-130248Y194349D01*
X-130210Y194308D01*
X-129702Y193902D01*
X-129684Y193842D01*
X-129655Y193740D01*
X-129652Y193735D01*
X-129650Y193730D01*
X-129631Y193705D01*
X-129549Y193585D01*
X-127992Y191909D01*
X-127949Y191876D01*
X-127919Y191843D01*
X-127878Y191822D01*
X-127822Y191779D01*
X-127817Y191777D01*
X-127813Y191774D01*
X-127783Y191765D01*
X-127733Y191748D01*
X-127719Y191740D01*
X-127707Y191738D01*
X-127686Y191731D01*
X-127321Y191195D01*
X-127293Y191167D01*
X-127262Y191121D01*
X-126819Y190645D01*
X-126810Y190584D01*
X-126797Y190477D01*
X-126794Y190472D01*
X-126794Y190467D01*
X-126779Y190439D01*
X-126715Y190308D01*
X-126597Y190135D01*
X-126526Y190063D01*
X-126458Y189988D01*
X-126448Y189983D01*
X-126440Y189975D01*
X-126349Y189932D01*
X-126259Y189886D01*
X-126246Y189884D01*
X-126237Y189880D01*
X-126192Y189876D01*
X-126073Y189858D01*
X-106981Y189858D01*
X-106894Y189874D01*
G37*
G36*
X-99869Y58504D02*
X-99869Y58504D01*
X-99799Y58504D01*
X-99759Y58520D01*
X-99718Y58525D01*
X-99655Y58559D01*
X-99589Y58585D01*
X-99558Y58612D01*
X-99520Y58633D01*
X-99458Y58700D01*
X-99421Y58733D01*
X-99411Y58751D01*
X-99393Y58770D01*
X-98278Y60404D01*
X-98234Y60503D01*
X-98189Y60599D01*
X-98188Y60605D01*
X-98186Y60609D01*
X-98184Y60641D01*
X-98173Y60742D01*
X-97732Y61218D01*
X-97710Y61251D01*
X-97673Y61292D01*
X-97306Y61829D01*
X-97248Y61851D01*
X-97147Y61888D01*
X-97143Y61891D01*
X-97138Y61893D01*
X-97115Y61914D01*
X-97001Y62005D01*
X-95444Y63681D01*
X-95387Y63771D01*
X-95327Y63861D01*
X-95326Y63866D01*
X-95323Y63870D01*
X-95317Y63900D01*
X-95290Y64000D01*
X-94783Y64404D01*
X-94757Y64434D01*
X-94713Y64469D01*
X-94239Y64980D01*
X-94176Y65020D01*
X-94107Y65054D01*
X-94082Y65080D01*
X-94052Y65099D01*
X-94006Y65161D01*
X-93953Y65218D01*
X-93939Y65250D01*
X-93918Y65279D01*
X-93896Y65353D01*
X-93865Y65424D01*
X-93864Y65460D01*
X-93854Y65494D01*
X-93859Y65571D01*
X-93855Y65648D01*
X-93866Y65682D01*
X-93869Y65717D01*
X-93900Y65788D01*
X-93924Y65862D01*
X-93948Y65894D01*
X-93960Y65922D01*
X-93993Y65955D01*
X-94035Y66013D01*
X-96751Y68728D01*
X-96751Y72496D01*
X-94086Y75161D01*
X-91001Y75161D01*
X-90959Y75168D01*
X-90917Y75166D01*
X-90850Y75188D01*
X-90780Y75200D01*
X-90744Y75222D01*
X-90703Y75235D01*
X-90631Y75289D01*
X-90587Y75315D01*
X-90574Y75331D01*
X-90553Y75347D01*
X-84792Y81107D01*
X-84768Y81142D01*
X-84736Y81171D01*
X-84704Y81234D01*
X-84664Y81292D01*
X-84653Y81333D01*
X-84634Y81371D01*
X-84620Y81460D01*
X-84608Y81509D01*
X-84610Y81530D01*
X-84606Y81556D01*
X-84606Y85157D01*
X-83713Y86050D01*
X-73450Y86050D01*
X-72557Y85157D01*
X-72557Y76894D01*
X-73450Y76000D01*
X-82450Y76000D01*
X-82492Y75993D01*
X-82534Y75995D01*
X-82601Y75973D01*
X-82671Y75961D01*
X-82707Y75939D01*
X-82748Y75926D01*
X-82820Y75872D01*
X-82864Y75847D01*
X-82877Y75830D01*
X-82898Y75815D01*
X-87467Y71245D01*
X-87492Y71211D01*
X-87523Y71182D01*
X-87555Y71119D01*
X-87596Y71061D01*
X-87606Y71020D01*
X-87626Y70982D01*
X-87639Y70893D01*
X-87652Y70844D01*
X-87649Y70823D01*
X-87653Y70797D01*
X-87653Y70315D01*
X-87636Y70221D01*
X-87625Y70127D01*
X-87617Y70111D01*
X-87614Y70094D01*
X-87565Y70012D01*
X-87521Y69928D01*
X-87508Y69916D01*
X-87499Y69901D01*
X-87426Y69841D01*
X-87355Y69777D01*
X-87337Y69769D01*
X-87325Y69759D01*
X-87278Y69744D01*
X-87183Y69702D01*
X-87031Y69661D01*
X-86925Y69652D01*
X-86818Y69641D01*
X-86812Y69643D01*
X-86807Y69642D01*
X-86777Y69651D01*
X-86635Y69683D01*
X-84505Y70519D01*
X-84414Y70575D01*
X-84322Y70629D01*
X-84318Y70634D01*
X-84314Y70636D01*
X-84294Y70661D01*
X-84228Y70739D01*
X-83595Y70883D01*
X-83559Y70898D01*
X-83505Y70911D01*
X-82899Y71148D01*
X-82840Y71134D01*
X-82735Y71107D01*
X-82729Y71108D01*
X-82725Y71107D01*
X-82693Y71110D01*
X-82548Y71121D01*
X-80318Y71630D01*
X-80219Y71672D01*
X-80120Y71712D01*
X-80115Y71716D01*
X-80111Y71718D01*
X-80088Y71739D01*
X-80010Y71806D01*
X-79364Y71854D01*
X-79325Y71864D01*
X-79270Y71869D01*
X-78636Y72013D01*
X-78578Y71990D01*
X-78480Y71948D01*
X-78474Y71948D01*
X-78469Y71946D01*
X-78438Y71945D01*
X-78293Y71934D01*
X-76011Y72105D01*
X-75908Y72131D01*
X-75803Y72156D01*
X-75798Y72159D01*
X-75794Y72161D01*
X-75768Y72178D01*
X-75681Y72233D01*
X-75035Y72185D01*
X-74995Y72189D01*
X-74940Y72184D01*
X-74291Y72233D01*
X-74238Y72201D01*
X-74146Y72145D01*
X-74141Y72144D01*
X-74137Y72142D01*
X-74106Y72136D01*
X-73964Y72104D01*
X-71682Y71932D01*
X-71575Y71943D01*
X-71469Y71952D01*
X-71464Y71955D01*
X-71459Y71955D01*
X-71430Y71969D01*
X-71337Y72010D01*
X-70944Y71920D01*
X-70919Y71919D01*
X-70896Y71911D01*
X-70808Y71914D01*
X-70720Y71910D01*
X-70696Y71917D01*
X-70672Y71918D01*
X-70590Y71951D01*
X-70506Y71978D01*
X-70487Y71993D01*
X-70464Y72002D01*
X-70399Y72062D01*
X-70329Y72116D01*
X-70316Y72137D01*
X-70298Y72154D01*
X-70258Y72232D01*
X-70212Y72308D01*
X-70207Y72331D01*
X-70196Y72353D01*
X-70175Y72495D01*
X-70168Y72528D01*
X-70169Y72533D01*
X-70168Y72539D01*
X-70168Y83339D01*
X-69052Y84456D01*
X-51598Y84456D01*
X-50482Y83339D01*
X-50482Y72154D01*
X-50466Y72066D01*
X-50457Y71977D01*
X-50446Y71956D01*
X-50442Y71933D01*
X-50397Y71856D01*
X-50357Y71776D01*
X-50340Y71760D01*
X-50328Y71740D01*
X-50259Y71684D01*
X-50194Y71622D01*
X-50172Y71613D01*
X-50154Y71598D01*
X-50070Y71570D01*
X-49987Y71535D01*
X-49964Y71534D01*
X-49941Y71526D01*
X-49852Y71529D01*
X-49763Y71525D01*
X-49741Y71532D01*
X-49717Y71533D01*
X-49635Y71566D01*
X-49550Y71594D01*
X-49528Y71609D01*
X-49509Y71617D01*
X-49472Y71651D01*
X-49399Y71705D01*
X-46048Y75056D01*
X-46024Y75091D01*
X-45993Y75120D01*
X-45960Y75182D01*
X-45920Y75240D01*
X-45909Y75281D01*
X-45890Y75319D01*
X-45877Y75409D01*
X-45864Y75458D01*
X-45866Y75478D01*
X-45862Y75505D01*
X-45862Y137155D01*
X-45878Y137242D01*
X-45887Y137331D01*
X-45898Y137352D01*
X-45902Y137375D01*
X-45947Y137452D01*
X-45987Y137532D01*
X-46004Y137548D01*
X-46016Y137569D01*
X-46085Y137625D01*
X-46150Y137686D01*
X-46172Y137695D01*
X-46190Y137710D01*
X-46275Y137738D01*
X-46357Y137773D01*
X-46380Y137774D01*
X-46403Y137782D01*
X-46492Y137779D01*
X-46581Y137783D01*
X-46603Y137776D01*
X-46627Y137775D01*
X-46709Y137742D01*
X-46794Y137715D01*
X-46816Y137699D01*
X-46835Y137691D01*
X-46872Y137657D01*
X-46945Y137603D01*
X-50477Y134071D01*
X-52151Y132397D01*
X-58103Y132397D01*
X-58167Y132385D01*
X-58233Y132383D01*
X-58277Y132365D01*
X-58323Y132357D01*
X-58380Y132324D01*
X-58441Y132299D01*
X-58476Y132267D01*
X-58517Y132243D01*
X-58558Y132192D01*
X-58607Y132147D01*
X-58628Y132105D01*
X-58658Y132069D01*
X-58679Y132007D01*
X-58709Y131948D01*
X-58717Y131893D01*
X-58730Y131856D01*
X-58729Y131817D01*
X-58737Y131763D01*
X-58737Y123036D01*
X-59853Y121919D01*
X-83530Y121919D01*
X-84646Y123036D01*
X-84646Y128887D01*
X-84662Y128975D01*
X-84671Y129064D01*
X-84682Y129085D01*
X-84686Y129108D01*
X-84731Y129185D01*
X-84771Y129265D01*
X-84788Y129281D01*
X-84800Y129301D01*
X-84869Y129358D01*
X-84934Y129419D01*
X-84956Y129428D01*
X-84974Y129443D01*
X-85058Y129471D01*
X-85141Y129506D01*
X-85164Y129507D01*
X-85187Y129515D01*
X-85276Y129512D01*
X-85365Y129516D01*
X-85387Y129509D01*
X-85411Y129508D01*
X-85493Y129475D01*
X-85578Y129447D01*
X-85600Y129432D01*
X-85619Y129424D01*
X-85656Y129390D01*
X-85729Y129336D01*
X-88638Y126427D01*
X-106980Y126427D01*
X-107022Y126420D01*
X-107065Y126422D01*
X-107132Y126400D01*
X-107201Y126388D01*
X-107238Y126366D01*
X-107278Y126353D01*
X-107351Y126299D01*
X-107394Y126273D01*
X-107408Y126257D01*
X-107429Y126241D01*
X-111411Y122259D01*
X-111435Y122225D01*
X-111467Y122196D01*
X-111499Y122133D01*
X-111539Y122075D01*
X-111550Y122034D01*
X-111569Y121996D01*
X-111582Y121907D01*
X-111595Y121858D01*
X-111593Y121837D01*
X-111597Y121811D01*
X-111597Y117076D01*
X-111598Y117065D01*
X-111611Y117016D01*
X-111609Y116995D01*
X-111613Y116969D01*
X-111613Y115459D01*
X-111601Y115394D01*
X-111599Y115328D01*
X-111581Y115285D01*
X-111573Y115238D01*
X-111540Y115181D01*
X-111515Y115121D01*
X-111483Y115086D01*
X-111459Y115045D01*
X-111408Y115003D01*
X-111363Y114955D01*
X-111321Y114933D01*
X-111285Y114904D01*
X-111223Y114883D01*
X-111164Y114852D01*
X-111109Y114844D01*
X-111072Y114832D01*
X-111033Y114833D01*
X-110979Y114825D01*
X-109898Y114825D01*
X-109834Y114836D01*
X-109768Y114838D01*
X-109724Y114856D01*
X-109678Y114864D01*
X-109621Y114898D01*
X-109560Y114923D01*
X-109525Y114954D01*
X-109484Y114979D01*
X-109443Y115030D01*
X-109394Y115074D01*
X-109373Y115116D01*
X-109343Y115153D01*
X-109322Y115215D01*
X-109292Y115274D01*
X-109284Y115328D01*
X-109271Y115365D01*
X-109272Y115405D01*
X-109264Y115459D01*
X-109264Y117033D01*
X-106746Y119551D01*
X-103185Y119551D01*
X-102175Y118542D01*
X-102121Y118504D01*
X-102074Y118459D01*
X-102030Y118441D01*
X-101991Y118414D01*
X-101928Y118397D01*
X-101867Y118372D01*
X-101820Y118370D01*
X-101774Y118358D01*
X-101709Y118365D01*
X-101643Y118362D01*
X-101598Y118376D01*
X-101551Y118381D01*
X-101492Y118410D01*
X-101429Y118430D01*
X-101385Y118463D01*
X-101350Y118480D01*
X-101323Y118509D01*
X-101278Y118542D01*
X-99380Y120440D01*
X-95819Y120440D01*
X-93932Y118553D01*
X-93931Y118553D01*
X-93301Y117922D01*
X-93301Y114361D01*
X-93931Y113730D01*
X-95819Y111843D01*
X-99380Y111843D01*
X-100389Y112852D01*
X-100444Y112890D01*
X-100491Y112935D01*
X-100535Y112953D01*
X-100574Y112980D01*
X-100637Y112997D01*
X-100698Y113022D01*
X-100745Y113024D01*
X-100791Y113036D01*
X-100856Y113029D01*
X-100922Y113032D01*
X-100967Y113018D01*
X-101014Y113013D01*
X-101073Y112984D01*
X-101136Y112964D01*
X-101180Y112931D01*
X-101215Y112914D01*
X-101242Y112885D01*
X-101286Y112852D01*
X-102787Y111351D01*
X-102825Y111297D01*
X-102870Y111249D01*
X-102889Y111206D01*
X-102916Y111167D01*
X-102932Y111103D01*
X-102958Y111043D01*
X-102960Y110995D01*
X-102971Y110950D01*
X-102965Y110884D01*
X-102968Y110819D01*
X-102953Y110774D01*
X-102948Y110727D01*
X-102919Y110668D01*
X-102899Y110605D01*
X-102866Y110561D01*
X-102849Y110525D01*
X-102820Y110498D01*
X-102787Y110454D01*
X-102064Y109731D01*
X-102064Y106169D01*
X-104582Y103651D01*
X-108143Y103651D01*
X-108890Y104398D01*
X-108925Y104423D01*
X-108954Y104454D01*
X-109017Y104486D01*
X-109075Y104527D01*
X-109116Y104537D01*
X-109153Y104557D01*
X-109243Y104570D01*
X-109292Y104583D01*
X-109313Y104580D01*
X-109339Y104584D01*
X-110963Y104584D01*
X-111027Y104573D01*
X-111093Y104571D01*
X-111137Y104553D01*
X-111183Y104545D01*
X-111240Y104511D01*
X-111301Y104486D01*
X-111336Y104455D01*
X-111377Y104430D01*
X-111418Y104379D01*
X-111467Y104335D01*
X-111488Y104293D01*
X-111518Y104256D01*
X-111539Y104194D01*
X-111569Y104135D01*
X-111577Y104081D01*
X-111590Y104044D01*
X-111589Y104004D01*
X-111597Y103950D01*
X-111597Y101585D01*
X-111585Y101520D01*
X-111583Y101454D01*
X-111565Y101411D01*
X-111557Y101364D01*
X-111524Y101307D01*
X-111499Y101247D01*
X-111467Y101212D01*
X-111443Y101171D01*
X-111392Y101129D01*
X-111347Y101081D01*
X-111305Y101059D01*
X-111269Y101030D01*
X-111207Y101009D01*
X-111148Y100978D01*
X-111093Y100970D01*
X-111056Y100958D01*
X-111017Y100959D01*
X-110963Y100951D01*
X-108729Y100951D01*
X-106211Y98433D01*
X-106211Y97987D01*
X-106203Y97945D01*
X-106205Y97903D01*
X-106184Y97836D01*
X-106171Y97766D01*
X-106150Y97730D01*
X-106137Y97689D01*
X-106083Y97617D01*
X-106057Y97573D01*
X-106041Y97560D01*
X-106025Y97539D01*
X-105661Y97175D01*
X-105627Y97151D01*
X-105598Y97119D01*
X-105535Y97087D01*
X-105477Y97047D01*
X-105436Y97036D01*
X-105398Y97017D01*
X-105309Y97004D01*
X-105260Y96991D01*
X-105239Y96993D01*
X-105213Y96989D01*
X-98747Y96989D01*
X-98705Y96997D01*
X-98663Y96995D01*
X-98596Y97016D01*
X-98526Y97029D01*
X-98490Y97050D01*
X-98449Y97063D01*
X-98377Y97117D01*
X-98333Y97143D01*
X-98320Y97159D01*
X-98299Y97175D01*
X-96659Y98814D01*
X-93408Y98814D01*
X-93344Y98826D01*
X-93278Y98828D01*
X-93234Y98846D01*
X-93188Y98854D01*
X-93131Y98887D01*
X-93070Y98912D01*
X-93035Y98944D01*
X-92994Y98968D01*
X-92953Y99019D01*
X-92904Y99064D01*
X-92883Y99106D01*
X-92853Y99142D01*
X-92832Y99204D01*
X-92802Y99263D01*
X-92794Y99318D01*
X-92781Y99355D01*
X-92782Y99394D01*
X-92774Y99448D01*
X-92774Y108739D01*
X-91658Y109856D01*
X-53186Y109856D01*
X-52069Y108739D01*
X-52069Y97636D01*
X-53186Y96519D01*
X-71922Y96519D01*
X-71987Y96508D01*
X-72053Y96506D01*
X-72097Y96488D01*
X-72143Y96480D01*
X-72200Y96446D01*
X-72261Y96421D01*
X-72296Y96390D01*
X-72336Y96365D01*
X-72378Y96314D01*
X-72426Y96270D01*
X-72448Y96228D01*
X-72478Y96191D01*
X-72499Y96129D01*
X-72529Y96070D01*
X-72537Y96016D01*
X-72550Y95979D01*
X-72548Y95939D01*
X-72557Y95885D01*
X-72557Y89894D01*
X-73450Y89000D01*
X-83713Y89000D01*
X-84606Y89894D01*
X-84606Y93099D01*
X-84618Y93163D01*
X-84620Y93229D01*
X-84637Y93273D01*
X-84646Y93319D01*
X-84679Y93376D01*
X-84704Y93437D01*
X-84736Y93472D01*
X-84760Y93513D01*
X-84811Y93554D01*
X-84855Y93603D01*
X-84897Y93624D01*
X-84934Y93654D01*
X-84996Y93675D01*
X-85055Y93705D01*
X-85109Y93713D01*
X-85147Y93726D01*
X-85186Y93725D01*
X-85240Y93733D01*
X-94014Y93733D01*
X-94102Y93717D01*
X-94190Y93708D01*
X-94212Y93697D01*
X-94235Y93693D01*
X-94312Y93648D01*
X-94391Y93608D01*
X-94408Y93591D01*
X-94428Y93579D01*
X-94484Y93510D01*
X-94545Y93445D01*
X-94555Y93423D01*
X-94570Y93405D01*
X-94598Y93321D01*
X-94633Y93238D01*
X-94634Y93215D01*
X-94641Y93192D01*
X-94639Y93103D01*
X-94643Y93014D01*
X-94636Y92992D01*
X-94635Y92968D01*
X-94601Y92886D01*
X-94574Y92801D01*
X-94558Y92779D01*
X-94551Y92760D01*
X-94517Y92723D01*
X-94463Y92650D01*
X-94044Y92231D01*
X-94044Y81968D01*
X-94937Y81075D01*
X-103200Y81075D01*
X-104093Y81968D01*
X-104093Y82892D01*
X-104105Y82956D01*
X-104107Y83022D01*
X-104125Y83066D01*
X-104133Y83112D01*
X-104167Y83169D01*
X-104191Y83230D01*
X-104223Y83265D01*
X-104247Y83306D01*
X-104298Y83347D01*
X-104343Y83396D01*
X-104385Y83417D01*
X-104421Y83447D01*
X-104484Y83468D01*
X-104542Y83498D01*
X-104597Y83506D01*
X-104634Y83519D01*
X-104673Y83518D01*
X-104728Y83526D01*
X-105326Y83526D01*
X-105961Y84161D01*
X-106034Y84212D01*
X-106104Y84268D01*
X-106126Y84276D01*
X-106145Y84290D01*
X-106232Y84312D01*
X-106316Y84340D01*
X-106340Y84340D01*
X-106363Y84345D01*
X-106451Y84336D01*
X-106540Y84334D01*
X-106562Y84325D01*
X-106586Y84322D01*
X-106666Y84283D01*
X-106748Y84249D01*
X-106766Y84233D01*
X-106787Y84223D01*
X-106848Y84158D01*
X-106914Y84098D01*
X-106925Y84077D01*
X-106941Y84060D01*
X-106976Y83978D01*
X-107016Y83898D01*
X-107020Y83872D01*
X-107028Y83853D01*
X-107031Y83803D01*
X-107044Y83713D01*
X-107044Y81968D01*
X-107937Y81075D01*
X-116200Y81075D01*
X-117093Y81968D01*
X-117093Y86083D01*
X-117101Y86124D01*
X-117099Y86167D01*
X-117121Y86234D01*
X-117133Y86303D01*
X-117155Y86340D01*
X-117168Y86380D01*
X-117222Y86453D01*
X-117224Y86457D01*
X-117224Y88699D01*
X-117231Y88741D01*
X-117230Y88783D01*
X-117251Y88850D01*
X-117264Y88920D01*
X-117285Y88956D01*
X-117298Y88997D01*
X-117352Y89070D01*
X-117378Y89113D01*
X-117394Y89126D01*
X-117410Y89148D01*
X-120178Y91916D01*
X-120178Y94504D01*
X-120190Y94568D01*
X-120192Y94634D01*
X-120210Y94678D01*
X-120218Y94724D01*
X-120251Y94781D01*
X-120276Y94842D01*
X-120308Y94877D01*
X-120332Y94918D01*
X-120383Y94959D01*
X-120428Y95008D01*
X-120470Y95029D01*
X-120506Y95059D01*
X-120568Y95080D01*
X-120627Y95110D01*
X-120682Y95118D01*
X-120719Y95131D01*
X-120758Y95130D01*
X-120812Y95138D01*
X-130544Y95138D01*
X-131437Y96031D01*
X-131437Y104294D01*
X-130544Y105187D01*
X-128587Y105187D01*
X-128523Y105199D01*
X-128457Y105201D01*
X-128413Y105219D01*
X-128367Y105227D01*
X-128310Y105260D01*
X-128249Y105285D01*
X-128214Y105317D01*
X-128173Y105341D01*
X-128132Y105392D01*
X-128083Y105437D01*
X-128062Y105479D01*
X-128032Y105515D01*
X-128011Y105577D01*
X-127981Y105636D01*
X-127973Y105691D01*
X-127960Y105728D01*
X-127961Y105767D01*
X-127953Y105821D01*
X-127953Y115981D01*
X-127961Y116023D01*
X-127959Y116065D01*
X-127980Y116132D01*
X-127993Y116202D01*
X-128014Y116238D01*
X-128027Y116279D01*
X-128081Y116351D01*
X-128107Y116395D01*
X-128123Y116408D01*
X-128139Y116429D01*
X-135322Y123612D01*
X-135322Y128389D01*
X-135335Y128465D01*
X-135340Y128542D01*
X-135355Y128575D01*
X-135361Y128610D01*
X-135401Y128676D01*
X-135432Y128747D01*
X-135457Y128772D01*
X-135475Y128803D01*
X-135536Y128852D01*
X-135590Y128907D01*
X-135622Y128922D01*
X-135650Y128944D01*
X-135723Y128969D01*
X-135793Y129002D01*
X-135829Y129005D01*
X-135862Y129016D01*
X-135940Y129014D01*
X-136017Y129020D01*
X-136056Y129010D01*
X-136086Y129009D01*
X-136129Y128992D01*
X-136199Y128975D01*
X-136288Y128938D01*
X-138997Y128938D01*
X-139085Y128922D01*
X-139173Y128913D01*
X-139194Y128902D01*
X-139218Y128898D01*
X-139295Y128853D01*
X-139374Y128813D01*
X-139391Y128796D01*
X-139411Y128784D01*
X-139467Y128715D01*
X-139528Y128650D01*
X-139537Y128628D01*
X-139552Y128610D01*
X-139581Y128525D01*
X-139616Y128443D01*
X-139617Y128420D01*
X-139624Y128397D01*
X-139622Y128308D01*
X-139626Y128219D01*
X-139618Y128197D01*
X-139618Y128173D01*
X-139584Y128090D01*
X-139557Y128006D01*
X-139541Y127984D01*
X-139533Y127965D01*
X-139499Y127928D01*
X-139445Y127855D01*
X-139188Y127597D01*
X-139188Y123228D01*
X-142278Y120138D01*
X-146647Y120138D01*
X-148159Y121649D01*
X-148232Y121700D01*
X-148301Y121756D01*
X-148323Y121764D01*
X-148343Y121777D01*
X-148429Y121799D01*
X-148513Y121828D01*
X-148537Y121827D01*
X-148560Y121833D01*
X-148649Y121824D01*
X-148738Y121821D01*
X-148760Y121812D01*
X-148783Y121810D01*
X-148863Y121770D01*
X-148946Y121737D01*
X-148963Y121721D01*
X-148984Y121710D01*
X-149045Y121646D01*
X-149111Y121586D01*
X-149122Y121564D01*
X-149138Y121547D01*
X-149173Y121465D01*
X-149214Y121386D01*
X-149218Y121360D01*
X-149226Y121340D01*
X-149228Y121290D01*
X-149241Y121201D01*
X-149241Y105915D01*
X-149978Y105975D01*
X-150007Y105971D01*
X-150035Y105976D01*
X-150105Y105959D01*
X-150176Y105951D01*
X-150201Y105936D01*
X-150229Y105930D01*
X-150286Y105887D01*
X-150348Y105852D01*
X-150366Y105829D01*
X-150389Y105812D01*
X-150425Y105750D01*
X-150468Y105693D01*
X-150475Y105665D01*
X-150490Y105640D01*
X-150507Y105542D01*
X-150517Y105501D01*
X-150515Y105490D01*
X-150518Y105476D01*
X-150495Y86437D01*
X-150479Y86361D01*
X-150471Y86285D01*
X-150460Y86265D01*
X-150455Y86242D01*
X-150411Y86179D01*
X-150374Y86112D01*
X-150354Y86095D01*
X-150342Y86078D01*
X-150305Y86054D01*
X-150246Y86005D01*
X-133769Y76466D01*
X-133741Y76457D01*
X-133717Y76440D01*
X-133648Y76425D01*
X-133580Y76403D01*
X-133551Y76405D01*
X-133523Y76399D01*
X-133453Y76412D01*
X-133382Y76418D01*
X-133356Y76431D01*
X-133328Y76437D01*
X-133268Y76477D01*
X-133205Y76509D01*
X-133187Y76532D01*
X-133163Y76548D01*
X-133105Y76630D01*
X-133078Y76662D01*
X-133075Y76673D01*
X-133067Y76684D01*
X-132750Y77352D01*
X-115510Y67398D01*
X-115504Y67396D01*
X-115499Y67392D01*
X-115399Y67358D01*
X-115299Y67322D01*
X-115292Y67322D01*
X-115286Y67320D01*
X-115181Y67323D01*
X-115074Y67324D01*
X-115068Y67326D01*
X-115062Y67327D01*
X-114964Y67366D01*
X-114865Y67404D01*
X-114860Y67408D01*
X-114854Y67411D01*
X-114776Y67482D01*
X-114696Y67552D01*
X-114693Y67558D01*
X-114688Y67562D01*
X-114640Y67657D01*
X-114590Y67750D01*
X-114589Y67756D01*
X-114586Y67762D01*
X-114558Y67947D01*
X-114558Y71717D01*
X-111468Y74807D01*
X-107099Y74807D01*
X-104009Y71717D01*
X-104009Y67348D01*
X-107099Y64258D01*
X-107704Y64258D01*
X-107763Y64247D01*
X-107822Y64247D01*
X-107872Y64228D01*
X-107925Y64218D01*
X-107976Y64188D01*
X-108032Y64166D01*
X-108072Y64131D01*
X-108118Y64104D01*
X-108156Y64058D01*
X-108200Y64018D01*
X-108226Y63971D01*
X-108259Y63930D01*
X-108278Y63873D01*
X-108307Y63821D01*
X-108314Y63768D01*
X-108331Y63717D01*
X-108329Y63658D01*
X-108338Y63599D01*
X-108326Y63546D01*
X-108325Y63493D01*
X-108302Y63438D01*
X-108289Y63379D01*
X-108260Y63334D01*
X-108240Y63285D01*
X-108200Y63241D01*
X-108168Y63191D01*
X-108118Y63151D01*
X-108089Y63119D01*
X-108058Y63104D01*
X-108021Y63074D01*
X-100234Y58578D01*
X-100194Y58564D01*
X-100159Y58541D01*
X-100090Y58526D01*
X-100023Y58502D01*
X-99981Y58503D01*
X-99940Y58494D01*
X-99869Y58504D01*
G37*
G36*
X-57535Y164521D02*
X-57535Y164521D01*
X-57493Y164519D01*
X-57425Y164541D01*
X-57356Y164553D01*
X-57319Y164575D01*
X-57279Y164588D01*
X-57206Y164642D01*
X-57163Y164668D01*
X-57150Y164684D01*
X-57128Y164700D01*
X-54384Y167444D01*
X-48743Y167444D01*
X-48655Y167459D01*
X-48567Y167469D01*
X-48546Y167479D01*
X-48522Y167483D01*
X-48446Y167529D01*
X-48366Y167568D01*
X-48349Y167585D01*
X-48329Y167598D01*
X-48273Y167667D01*
X-48212Y167731D01*
X-48203Y167753D01*
X-48188Y167772D01*
X-48159Y167856D01*
X-48124Y167938D01*
X-48123Y167962D01*
X-48116Y167984D01*
X-48118Y168073D01*
X-48114Y168162D01*
X-48122Y168185D01*
X-48122Y168209D01*
X-48156Y168291D01*
X-48183Y168376D01*
X-48199Y168397D01*
X-48207Y168416D01*
X-48241Y168454D01*
X-48295Y168526D01*
X-48806Y169037D01*
X-64359Y184591D01*
X-64394Y184615D01*
X-64423Y184647D01*
X-64485Y184679D01*
X-64543Y184719D01*
X-64584Y184730D01*
X-64622Y184749D01*
X-64712Y184762D01*
X-64761Y184775D01*
X-64781Y184773D01*
X-64808Y184777D01*
X-71129Y184777D01*
X-71193Y184765D01*
X-71259Y184763D01*
X-71303Y184745D01*
X-71349Y184737D01*
X-71406Y184704D01*
X-71467Y184679D01*
X-71502Y184647D01*
X-71543Y184623D01*
X-71584Y184572D01*
X-71633Y184527D01*
X-71654Y184485D01*
X-71684Y184449D01*
X-71705Y184387D01*
X-71735Y184328D01*
X-71743Y184273D01*
X-71756Y184236D01*
X-71755Y184199D01*
X-71756Y184195D01*
X-71756Y184190D01*
X-71763Y184143D01*
X-71763Y176693D01*
X-72656Y175800D01*
X-75668Y175800D01*
X-75710Y175793D01*
X-75752Y175795D01*
X-75819Y175773D01*
X-75889Y175761D01*
X-75925Y175739D01*
X-75966Y175726D01*
X-76038Y175672D01*
X-76082Y175646D01*
X-76095Y175630D01*
X-76116Y175614D01*
X-76197Y175533D01*
X-79759Y175533D01*
X-79840Y175614D01*
X-79875Y175639D01*
X-79903Y175670D01*
X-79966Y175702D01*
X-80024Y175743D01*
X-80065Y175753D01*
X-80103Y175773D01*
X-80192Y175786D01*
X-80241Y175799D01*
X-80262Y175796D01*
X-80288Y175800D01*
X-82919Y175800D01*
X-83812Y176693D01*
X-83812Y184143D01*
X-83824Y184207D01*
X-83826Y184273D01*
X-83844Y184317D01*
X-83852Y184363D01*
X-83885Y184420D01*
X-83910Y184481D01*
X-83942Y184516D01*
X-83966Y184557D01*
X-84017Y184598D01*
X-84062Y184647D01*
X-84104Y184668D01*
X-84140Y184698D01*
X-84202Y184719D01*
X-84261Y184749D01*
X-84316Y184757D01*
X-84353Y184770D01*
X-84392Y184769D01*
X-84446Y184777D01*
X-122448Y184777D01*
X-122495Y184768D01*
X-122543Y184770D01*
X-122605Y184749D01*
X-122669Y184737D01*
X-122710Y184713D01*
X-122756Y184697D01*
X-122806Y184656D01*
X-122862Y184623D01*
X-122892Y184586D01*
X-122930Y184555D01*
X-122962Y184499D01*
X-123003Y184449D01*
X-123019Y184403D01*
X-123043Y184362D01*
X-123054Y184298D01*
X-123075Y184236D01*
X-123074Y184188D01*
X-123082Y184141D01*
X-123070Y184061D01*
X-123069Y184012D01*
X-123059Y183988D01*
X-123054Y183955D01*
X-122977Y183705D01*
X-122958Y183670D01*
X-122942Y183617D01*
X-122659Y183031D01*
X-122669Y182969D01*
X-122688Y182864D01*
X-122687Y182858D01*
X-122688Y182853D01*
X-122681Y182822D01*
X-122664Y182710D01*
X-122664Y182703D01*
X-122663Y182699D01*
X-122660Y182679D01*
X-121985Y180493D01*
X-121935Y180398D01*
X-121888Y180302D01*
X-121884Y180298D01*
X-121881Y180293D01*
X-121858Y180272D01*
X-121785Y180200D01*
X-121689Y179559D01*
X-121684Y179544D01*
X-121683Y179531D01*
X-121674Y179508D01*
X-121668Y179466D01*
X-121476Y178845D01*
X-121494Y178786D01*
X-121529Y178684D01*
X-121529Y178678D01*
X-121530Y178674D01*
X-121528Y178642D01*
X-121528Y178497D01*
X-121187Y176234D01*
X-121152Y176133D01*
X-121119Y176031D01*
X-121116Y176026D01*
X-121114Y176022D01*
X-121094Y175998D01*
X-121033Y175915D01*
X-121033Y175267D01*
X-121026Y175228D01*
X-121026Y175172D01*
X-120929Y174529D01*
X-120956Y174473D01*
X-121005Y174378D01*
X-121006Y174372D01*
X-121008Y174368D01*
X-121011Y174336D01*
X-121033Y174193D01*
X-121032Y171905D01*
X-121013Y171799D01*
X-120996Y171694D01*
X-120993Y171689D01*
X-120992Y171684D01*
X-120976Y171657D01*
X-120928Y171566D01*
X-120937Y171510D01*
X-121025Y170925D01*
X-121024Y170886D01*
X-121032Y170831D01*
X-121032Y170180D01*
X-121067Y170129D01*
X-121130Y170042D01*
X-121131Y170036D01*
X-121134Y170033D01*
X-121142Y170002D01*
X-121185Y169863D01*
X-121414Y168339D01*
X-121509Y167705D01*
X-121525Y167601D01*
X-121522Y167494D01*
X-121520Y167387D01*
X-121518Y167381D01*
X-121518Y167376D01*
X-121506Y167347D01*
X-121472Y167250D01*
X-121663Y166631D01*
X-121668Y166591D01*
X-121685Y166538D01*
X-121700Y166436D01*
X-121781Y165895D01*
X-121824Y165850D01*
X-121899Y165773D01*
X-121901Y165768D01*
X-121904Y165764D01*
X-121917Y165735D01*
X-121980Y165604D01*
X-122653Y163418D01*
X-122666Y163312D01*
X-122681Y163205D01*
X-122680Y163200D01*
X-122680Y163195D01*
X-122673Y163165D01*
X-122654Y163064D01*
X-122935Y162480D01*
X-122946Y162441D01*
X-122970Y162391D01*
X-123161Y161769D01*
X-123210Y161731D01*
X-123296Y161666D01*
X-123299Y161662D01*
X-123303Y161659D01*
X-123319Y161632D01*
X-123401Y161511D01*
X-124393Y159450D01*
X-124422Y159346D01*
X-124452Y159244D01*
X-124452Y159238D01*
X-124453Y159234D01*
X-124450Y159202D01*
X-124446Y159100D01*
X-124811Y158564D01*
X-124827Y158528D01*
X-124859Y158482D01*
X-125141Y157896D01*
X-125194Y157865D01*
X-125289Y157814D01*
X-125293Y157810D01*
X-125297Y157807D01*
X-125317Y157783D01*
X-125416Y157676D01*
X-126647Y155869D01*
X-126660Y155842D01*
X-126679Y155818D01*
X-126705Y155740D01*
X-126739Y155664D01*
X-126741Y155634D01*
X-126751Y155606D01*
X-126748Y155523D01*
X-126753Y155440D01*
X-126745Y155411D01*
X-126744Y155381D01*
X-126713Y155305D01*
X-126689Y155225D01*
X-126671Y155201D01*
X-126660Y155173D01*
X-126604Y155112D01*
X-126554Y155046D01*
X-126529Y155030D01*
X-126508Y155008D01*
X-126435Y154970D01*
X-126365Y154925D01*
X-126335Y154919D01*
X-126309Y154905D01*
X-126189Y154888D01*
X-126146Y154878D01*
X-126136Y154880D01*
X-126123Y154878D01*
X-124102Y154878D01*
X-122530Y153305D01*
X-122495Y153281D01*
X-122466Y153250D01*
X-122403Y153218D01*
X-122346Y153177D01*
X-122305Y153167D01*
X-122267Y153147D01*
X-122177Y153134D01*
X-122128Y153121D01*
X-122108Y153124D01*
X-122081Y153120D01*
X-104973Y153120D01*
X-104931Y153127D01*
X-104889Y153125D01*
X-104821Y153147D01*
X-104752Y153159D01*
X-104715Y153181D01*
X-104675Y153194D01*
X-104602Y153248D01*
X-104559Y153273D01*
X-104546Y153290D01*
X-104524Y153305D01*
X-102874Y154956D01*
X-102823Y155029D01*
X-102767Y155098D01*
X-102759Y155121D01*
X-102746Y155140D01*
X-102723Y155226D01*
X-102695Y155311D01*
X-102696Y155335D01*
X-102690Y155358D01*
X-102699Y155446D01*
X-102702Y155535D01*
X-102710Y155557D01*
X-102713Y155581D01*
X-102752Y155661D01*
X-102786Y155743D01*
X-102802Y155760D01*
X-102812Y155782D01*
X-102877Y155843D01*
X-102937Y155909D01*
X-102958Y155919D01*
X-102976Y155936D01*
X-103058Y155970D01*
X-103137Y156011D01*
X-103163Y156015D01*
X-103182Y156023D01*
X-103233Y156025D01*
X-103322Y156039D01*
X-104968Y156039D01*
X-107486Y158557D01*
X-107486Y162118D01*
X-105747Y163858D01*
X-105709Y163912D01*
X-105664Y163960D01*
X-105645Y164003D01*
X-105618Y164042D01*
X-105602Y164106D01*
X-105576Y164166D01*
X-105574Y164214D01*
X-105563Y164259D01*
X-105569Y164325D01*
X-105566Y164390D01*
X-105581Y164435D01*
X-105586Y164482D01*
X-105615Y164541D01*
X-105635Y164604D01*
X-105668Y164648D01*
X-105685Y164684D01*
X-105714Y164711D01*
X-105747Y164755D01*
X-107486Y166494D01*
X-107486Y170056D01*
X-105747Y171795D01*
X-105709Y171849D01*
X-105664Y171897D01*
X-105645Y171941D01*
X-105618Y171979D01*
X-105602Y172043D01*
X-105576Y172104D01*
X-105574Y172151D01*
X-105563Y172197D01*
X-105569Y172262D01*
X-105566Y172328D01*
X-105581Y172373D01*
X-105586Y172420D01*
X-105615Y172479D01*
X-105635Y172542D01*
X-105668Y172586D01*
X-105685Y172621D01*
X-105714Y172648D01*
X-105747Y172692D01*
X-107486Y174432D01*
X-107486Y177993D01*
X-104968Y180511D01*
X-101407Y180511D01*
X-98889Y177993D01*
X-98889Y174432D01*
X-100628Y172692D01*
X-100666Y172638D01*
X-100711Y172590D01*
X-100730Y172547D01*
X-100757Y172508D01*
X-100773Y172444D01*
X-100799Y172384D01*
X-100801Y172336D01*
X-100812Y172291D01*
X-100806Y172225D01*
X-100809Y172160D01*
X-100794Y172115D01*
X-100789Y172068D01*
X-100760Y172009D01*
X-100740Y171946D01*
X-100707Y171902D01*
X-100690Y171866D01*
X-100661Y171839D01*
X-100628Y171795D01*
X-98889Y170056D01*
X-98889Y166494D01*
X-100628Y164755D01*
X-100666Y164701D01*
X-100711Y164653D01*
X-100730Y164609D01*
X-100757Y164571D01*
X-100773Y164507D01*
X-100799Y164446D01*
X-100801Y164399D01*
X-100812Y164353D01*
X-100806Y164288D01*
X-100809Y164222D01*
X-100794Y164177D01*
X-100789Y164130D01*
X-100760Y164071D01*
X-100740Y164008D01*
X-100707Y163964D01*
X-100690Y163929D01*
X-100661Y163902D01*
X-100628Y163858D01*
X-98889Y162118D01*
X-98889Y160472D01*
X-98873Y160384D01*
X-98864Y160296D01*
X-98853Y160275D01*
X-98849Y160251D01*
X-98804Y160175D01*
X-98764Y160095D01*
X-98747Y160079D01*
X-98735Y160058D01*
X-98666Y160002D01*
X-98601Y159941D01*
X-98579Y159932D01*
X-98561Y159917D01*
X-98477Y159888D01*
X-98394Y159854D01*
X-98371Y159853D01*
X-98348Y159845D01*
X-98259Y159848D01*
X-98170Y159844D01*
X-98148Y159851D01*
X-98124Y159852D01*
X-98042Y159885D01*
X-97957Y159912D01*
X-97935Y159928D01*
X-97916Y159936D01*
X-97879Y159970D01*
X-97806Y160024D01*
X-94990Y162840D01*
X-93394Y164436D01*
X-93316Y164514D01*
X-57577Y164514D01*
X-57535Y164521D01*
G37*
G36*
X150093Y145539D02*
X150093Y145539D01*
X150165Y145548D01*
X150189Y145561D01*
X150215Y145568D01*
X150274Y145611D01*
X150337Y145648D01*
X150354Y145670D01*
X150376Y145686D01*
X150413Y145749D01*
X150457Y145807D01*
X150463Y145833D01*
X150477Y145857D01*
X150494Y145961D01*
X150504Y146000D01*
X150503Y146009D01*
X150505Y146021D01*
X150487Y200051D01*
X150482Y200077D01*
X150484Y200104D01*
X150462Y200174D01*
X150448Y200246D01*
X150432Y200268D01*
X150424Y200294D01*
X150376Y200349D01*
X150335Y200410D01*
X150312Y200424D01*
X150294Y200445D01*
X150229Y200477D01*
X150167Y200516D01*
X150141Y200521D01*
X150116Y200533D01*
X150011Y200543D01*
X149971Y200550D01*
X149962Y200547D01*
X149951Y200548D01*
X145924Y200245D01*
X145894Y200237D01*
X145851Y200234D01*
X141914Y199335D01*
X141885Y199321D01*
X141843Y199313D01*
X138085Y197836D01*
X138058Y197819D01*
X138018Y197804D01*
X134522Y195784D01*
X134498Y195763D01*
X134460Y195742D01*
X131304Y193223D01*
X131284Y193199D01*
X131249Y193173D01*
X128504Y190212D01*
X128487Y190185D01*
X128458Y190153D01*
X126184Y186817D01*
X126172Y186787D01*
X126147Y186752D01*
X124396Y183114D01*
X124388Y183083D01*
X124369Y183044D01*
X123180Y179186D01*
X123177Y179154D01*
X123163Y179113D01*
X122563Y175120D01*
X122565Y175088D01*
X122557Y175046D01*
X122559Y171008D01*
X122565Y170978D01*
X122563Y170967D01*
X122565Y170958D01*
X122564Y170934D01*
X123167Y166941D01*
X123178Y166911D01*
X123184Y166868D01*
X124375Y163011D01*
X124391Y162983D01*
X124403Y162941D01*
X126156Y159304D01*
X126175Y159278D01*
X126193Y159239D01*
X128469Y155904D01*
X128491Y155882D01*
X128515Y155846D01*
X131262Y152887D01*
X131288Y152868D01*
X131317Y152836D01*
X134475Y150319D01*
X134503Y150305D01*
X134536Y150277D01*
X138034Y148260D01*
X138064Y148250D01*
X138101Y148227D01*
X141860Y146753D01*
X141891Y146748D01*
X141931Y146731D01*
X145868Y145834D01*
X145900Y145834D01*
X145942Y145823D01*
X149968Y145523D01*
X149995Y145526D01*
X150022Y145522D01*
X150093Y145539D01*
G37*
G36*
X-149962Y145528D02*
X-149962Y145528D01*
X-149951Y145527D01*
X-145924Y145830D01*
X-145894Y145838D01*
X-145851Y145841D01*
X-141914Y146740D01*
X-141885Y146754D01*
X-141843Y146762D01*
X-138085Y148239D01*
X-138058Y148256D01*
X-138018Y148271D01*
X-134522Y150291D01*
X-134498Y150312D01*
X-134460Y150333D01*
X-131304Y152852D01*
X-131284Y152876D01*
X-131249Y152902D01*
X-128504Y155863D01*
X-128487Y155890D01*
X-128458Y155922D01*
X-126184Y159258D01*
X-126172Y159288D01*
X-126147Y159323D01*
X-124396Y162961D01*
X-124388Y162992D01*
X-124369Y163031D01*
X-123180Y166889D01*
X-123177Y166921D01*
X-123163Y166962D01*
X-122563Y170955D01*
X-122565Y170987D01*
X-122557Y171029D01*
X-122559Y175067D01*
X-122565Y175098D01*
X-122564Y175141D01*
X-123167Y179134D01*
X-123178Y179164D01*
X-123184Y179207D01*
X-124375Y183064D01*
X-124391Y183092D01*
X-124403Y183134D01*
X-126156Y186771D01*
X-126175Y186797D01*
X-126193Y186836D01*
X-128469Y190171D01*
X-128491Y190193D01*
X-128515Y190229D01*
X-131262Y193188D01*
X-131288Y193207D01*
X-131317Y193239D01*
X-134475Y195756D01*
X-134503Y195770D01*
X-134536Y195798D01*
X-138034Y197815D01*
X-138064Y197825D01*
X-138101Y197848D01*
X-141860Y199322D01*
X-141891Y199327D01*
X-141931Y199344D01*
X-145868Y200241D01*
X-145900Y200241D01*
X-145942Y200252D01*
X-149968Y200552D01*
X-149995Y200549D01*
X-150022Y200553D01*
X-150093Y200536D01*
X-150165Y200527D01*
X-150189Y200514D01*
X-150215Y200507D01*
X-150274Y200464D01*
X-150337Y200427D01*
X-150354Y200405D01*
X-150376Y200389D01*
X-150413Y200326D01*
X-150457Y200268D01*
X-150463Y200242D01*
X-150477Y200218D01*
X-150494Y200114D01*
X-150504Y200075D01*
X-150503Y200066D01*
X-150505Y200054D01*
X-150487Y146024D01*
X-150482Y145998D01*
X-150484Y145971D01*
X-150462Y145901D01*
X-150448Y145829D01*
X-150432Y145807D01*
X-150424Y145781D01*
X-150376Y145726D01*
X-150335Y145665D01*
X-150312Y145651D01*
X-150294Y145630D01*
X-150229Y145598D01*
X-150167Y145559D01*
X-150141Y145554D01*
X-150116Y145542D01*
X-150011Y145532D01*
X-149971Y145525D01*
X-149962Y145528D01*
G37*
G36*
X79052Y275727D02*
X79052Y275727D01*
X79082Y275736D01*
X79125Y275738D01*
X83062Y276635D01*
X83091Y276648D01*
X83133Y276657D01*
X86893Y278131D01*
X86919Y278148D01*
X86960Y278164D01*
X90457Y280181D01*
X90481Y280202D01*
X90519Y280223D01*
X93676Y282740D01*
X93697Y282764D01*
X93731Y282790D01*
X96478Y285749D01*
X96495Y285777D01*
X96525Y285808D01*
X98800Y289143D01*
X98811Y289168D01*
X98828Y289189D01*
X98838Y289221D01*
X98840Y289225D01*
X98842Y289233D01*
X98849Y289259D01*
X98878Y289326D01*
X98878Y289354D01*
X98885Y289380D01*
X98877Y289452D01*
X98877Y289525D01*
X98866Y289550D01*
X98863Y289577D01*
X98828Y289641D01*
X98799Y289708D01*
X98779Y289727D01*
X98766Y289751D01*
X98685Y289818D01*
X98656Y289846D01*
X98647Y289849D01*
X98638Y289857D01*
X51855Y316887D01*
X51829Y316895D01*
X51807Y316911D01*
X51736Y316927D01*
X51667Y316950D01*
X51639Y316948D01*
X51613Y316954D01*
X51541Y316940D01*
X51468Y316934D01*
X51444Y316922D01*
X51417Y316917D01*
X51357Y316877D01*
X51292Y316843D01*
X51274Y316822D01*
X51252Y316807D01*
X51191Y316721D01*
X51165Y316690D01*
X51162Y316681D01*
X51156Y316671D01*
X49403Y313034D01*
X49395Y313003D01*
X49375Y312964D01*
X48184Y309107D01*
X48181Y309075D01*
X48167Y309034D01*
X47564Y305041D01*
X47566Y305010D01*
X47559Y304967D01*
X47557Y300929D01*
X47564Y300898D01*
X47563Y300855D01*
X48163Y296862D01*
X48174Y296832D01*
X48180Y296789D01*
X49369Y292931D01*
X49384Y292903D01*
X49396Y292861D01*
X51147Y289223D01*
X51166Y289198D01*
X51184Y289158D01*
X53458Y285822D01*
X53480Y285799D01*
X53504Y285763D01*
X56249Y282802D01*
X56275Y282784D01*
X56304Y282752D01*
X59460Y280233D01*
X59488Y280219D01*
X59522Y280191D01*
X63018Y278171D01*
X63048Y278161D01*
X63085Y278139D01*
X66843Y276662D01*
X66874Y276657D01*
X66914Y276640D01*
X70851Y275741D01*
X70882Y275740D01*
X70924Y275730D01*
X74951Y275427D01*
X74982Y275431D01*
X75025Y275427D01*
X79052Y275727D01*
G37*
G36*
X-51541Y29135D02*
X-51541Y29135D01*
X-51468Y29141D01*
X-51444Y29153D01*
X-51417Y29158D01*
X-51357Y29198D01*
X-51292Y29232D01*
X-51274Y29253D01*
X-51252Y29268D01*
X-51191Y29354D01*
X-51165Y29385D01*
X-51162Y29394D01*
X-51156Y29404D01*
X-49403Y33041D01*
X-49395Y33072D01*
X-49375Y33111D01*
X-48184Y36968D01*
X-48181Y37000D01*
X-48167Y37041D01*
X-47564Y41034D01*
X-47566Y41065D01*
X-47559Y41108D01*
X-47557Y45146D01*
X-47564Y45177D01*
X-47563Y45220D01*
X-48163Y49213D01*
X-48174Y49243D01*
X-48180Y49286D01*
X-49369Y53144D01*
X-49384Y53172D01*
X-49396Y53214D01*
X-51147Y56852D01*
X-51166Y56877D01*
X-51184Y56917D01*
X-53458Y60253D01*
X-53480Y60276D01*
X-53504Y60312D01*
X-56249Y63273D01*
X-56275Y63291D01*
X-56304Y63323D01*
X-59460Y65842D01*
X-59488Y65856D01*
X-59522Y65884D01*
X-63018Y67904D01*
X-63048Y67914D01*
X-63085Y67936D01*
X-66843Y69413D01*
X-66874Y69418D01*
X-66914Y69435D01*
X-70851Y70334D01*
X-70882Y70335D01*
X-70924Y70345D01*
X-74951Y70648D01*
X-74982Y70644D01*
X-75025Y70648D01*
X-79052Y70348D01*
X-79082Y70339D01*
X-79125Y70337D01*
X-83062Y69440D01*
X-83091Y69427D01*
X-83133Y69418D01*
X-86893Y67944D01*
X-86919Y67927D01*
X-86960Y67911D01*
X-90457Y65894D01*
X-90481Y65873D01*
X-90519Y65852D01*
X-93676Y63335D01*
X-93697Y63311D01*
X-93731Y63285D01*
X-96478Y60326D01*
X-96495Y60298D01*
X-96525Y60267D01*
X-98800Y56932D01*
X-98811Y56907D01*
X-98828Y56886D01*
X-98849Y56816D01*
X-98878Y56749D01*
X-98878Y56721D01*
X-98885Y56695D01*
X-98877Y56623D01*
X-98877Y56550D01*
X-98866Y56525D01*
X-98863Y56498D01*
X-98828Y56434D01*
X-98799Y56367D01*
X-98779Y56348D01*
X-98766Y56324D01*
X-98685Y56257D01*
X-98656Y56229D01*
X-98647Y56226D01*
X-98638Y56218D01*
X-51855Y29188D01*
X-51829Y29180D01*
X-51807Y29164D01*
X-51736Y29148D01*
X-51667Y29125D01*
X-51639Y29127D01*
X-51613Y29121D01*
X-51541Y29135D01*
G37*
G36*
X51684Y29144D02*
X51684Y29144D01*
X51711Y29143D01*
X51810Y29180D01*
X51849Y29191D01*
X51856Y29197D01*
X51867Y29201D01*
X98632Y56201D01*
X98653Y56219D01*
X98677Y56231D01*
X98726Y56285D01*
X98781Y56333D01*
X98793Y56358D01*
X98811Y56378D01*
X98835Y56447D01*
X98867Y56512D01*
X98868Y56540D01*
X98877Y56565D01*
X98873Y56638D01*
X98876Y56711D01*
X98866Y56737D01*
X98865Y56764D01*
X98821Y56859D01*
X98807Y56897D01*
X98800Y56904D01*
X98795Y56915D01*
X96522Y60249D01*
X96499Y60271D01*
X96475Y60307D01*
X93731Y63266D01*
X93705Y63284D01*
X93676Y63316D01*
X90521Y65832D01*
X90493Y65847D01*
X90459Y65875D01*
X86964Y67892D01*
X86934Y67902D01*
X86897Y67925D01*
X83141Y69399D01*
X83109Y69404D01*
X83069Y69421D01*
X79135Y70319D01*
X79103Y70320D01*
X79061Y70330D01*
X75037Y70632D01*
X75006Y70628D01*
X74963Y70632D01*
X70939Y70330D01*
X70908Y70321D01*
X70865Y70319D01*
X66931Y69421D01*
X66902Y69408D01*
X66859Y69399D01*
X63103Y67925D01*
X63076Y67907D01*
X63036Y67892D01*
X59541Y65875D01*
X59517Y65853D01*
X59479Y65832D01*
X56324Y63316D01*
X56304Y63292D01*
X56269Y63266D01*
X53525Y60307D01*
X53508Y60280D01*
X53478Y60249D01*
X51205Y56915D01*
X51192Y56886D01*
X51168Y56850D01*
X49417Y53215D01*
X49409Y53184D01*
X49389Y53145D01*
X48200Y49289D01*
X48197Y49257D01*
X48183Y49216D01*
X47582Y45226D01*
X47583Y45194D01*
X47576Y45151D01*
X47576Y41116D01*
X47578Y41108D01*
X47577Y41100D01*
X47582Y41075D01*
X47582Y41042D01*
X48183Y37051D01*
X48194Y37021D01*
X48200Y36978D01*
X49389Y33122D01*
X49405Y33094D01*
X49417Y33053D01*
X51168Y29417D01*
X51184Y29395D01*
X51193Y29370D01*
X51244Y29317D01*
X51288Y29259D01*
X51311Y29245D01*
X51330Y29225D01*
X51397Y29196D01*
X51460Y29160D01*
X51487Y29157D01*
X51512Y29146D01*
X51585Y29145D01*
X51658Y29136D01*
X51684Y29144D01*
G37*
G36*
X-70939Y275745D02*
X-70939Y275745D01*
X-70908Y275754D01*
X-70865Y275756D01*
X-66931Y276654D01*
X-66902Y276667D01*
X-66859Y276676D01*
X-63103Y278150D01*
X-63076Y278168D01*
X-63036Y278183D01*
X-59541Y280200D01*
X-59517Y280222D01*
X-59479Y280243D01*
X-56324Y282759D01*
X-56304Y282783D01*
X-56269Y282809D01*
X-53525Y285768D01*
X-53508Y285795D01*
X-53478Y285826D01*
X-51205Y289160D01*
X-51192Y289189D01*
X-51168Y289225D01*
X-49417Y292860D01*
X-49409Y292891D01*
X-49389Y292930D01*
X-48200Y296786D01*
X-48197Y296818D01*
X-48183Y296859D01*
X-47582Y300849D01*
X-47583Y300881D01*
X-47576Y300924D01*
X-47576Y304959D01*
X-47583Y304990D01*
X-47582Y305033D01*
X-48183Y309024D01*
X-48194Y309054D01*
X-48200Y309097D01*
X-49389Y312953D01*
X-49405Y312981D01*
X-49417Y313022D01*
X-51168Y316658D01*
X-51184Y316680D01*
X-51193Y316705D01*
X-51244Y316758D01*
X-51288Y316816D01*
X-51311Y316830D01*
X-51330Y316850D01*
X-51397Y316879D01*
X-51460Y316915D01*
X-51487Y316918D01*
X-51512Y316929D01*
X-51585Y316930D01*
X-51658Y316939D01*
X-51684Y316931D01*
X-51711Y316932D01*
X-51810Y316895D01*
X-51849Y316884D01*
X-51856Y316878D01*
X-51867Y316874D01*
X-98632Y289874D01*
X-98653Y289856D01*
X-98677Y289844D01*
X-98726Y289790D01*
X-98781Y289742D01*
X-98793Y289717D01*
X-98811Y289697D01*
X-98835Y289628D01*
X-98867Y289563D01*
X-98868Y289535D01*
X-98877Y289510D01*
X-98873Y289437D01*
X-98876Y289364D01*
X-98866Y289338D01*
X-98865Y289311D01*
X-98825Y289225D01*
X-98822Y289211D01*
X-98816Y289203D01*
X-98807Y289178D01*
X-98800Y289171D01*
X-98795Y289160D01*
X-96522Y285826D01*
X-96499Y285804D01*
X-96475Y285768D01*
X-93731Y282809D01*
X-93705Y282791D01*
X-93676Y282759D01*
X-90521Y280243D01*
X-90493Y280228D01*
X-90459Y280200D01*
X-86964Y278183D01*
X-86934Y278173D01*
X-86897Y278150D01*
X-83141Y276676D01*
X-83109Y276671D01*
X-83069Y276654D01*
X-79135Y275756D01*
X-79103Y275755D01*
X-79061Y275745D01*
X-75037Y275443D01*
X-75006Y275447D01*
X-74963Y275443D01*
X-70939Y275745D01*
G37*
%LPC*%
G36*
X103375Y188995D02*
X103375Y188995D01*
X100857Y191513D01*
X100857Y195075D01*
X102375Y196592D01*
X102412Y196646D01*
X102457Y196694D01*
X102476Y196737D01*
X102503Y196776D01*
X102519Y196840D01*
X102545Y196901D01*
X102547Y196948D01*
X102559Y196993D01*
X102552Y197059D01*
X102555Y197125D01*
X102540Y197170D01*
X102535Y197217D01*
X102506Y197276D01*
X102486Y197338D01*
X102453Y197382D01*
X102436Y197418D01*
X102407Y197445D01*
X102375Y197489D01*
X99841Y200022D01*
X99841Y203584D01*
X101105Y204847D01*
X101142Y204901D01*
X101187Y204949D01*
X101206Y204992D01*
X101233Y205031D01*
X101249Y205095D01*
X101275Y205156D01*
X101277Y205203D01*
X101289Y205248D01*
X101282Y205314D01*
X101285Y205380D01*
X101270Y205425D01*
X101265Y205472D01*
X101236Y205531D01*
X101216Y205593D01*
X101183Y205637D01*
X101166Y205673D01*
X101137Y205700D01*
X101105Y205744D01*
X98889Y207960D01*
X98889Y211521D01*
X101327Y213959D01*
X101365Y214013D01*
X101410Y214061D01*
X101428Y214105D01*
X101455Y214143D01*
X101471Y214207D01*
X101497Y214268D01*
X101499Y214315D01*
X101511Y214361D01*
X101504Y214426D01*
X101507Y214492D01*
X101493Y214537D01*
X101488Y214584D01*
X101459Y214643D01*
X101438Y214706D01*
X101406Y214750D01*
X101388Y214785D01*
X101360Y214812D01*
X101327Y214856D01*
X98889Y217294D01*
X98889Y220856D01*
X101407Y223374D01*
X102391Y223374D01*
X102478Y223390D01*
X102567Y223399D01*
X102588Y223409D01*
X102612Y223413D01*
X102688Y223459D01*
X102768Y223498D01*
X102784Y223515D01*
X102805Y223528D01*
X102861Y223597D01*
X102922Y223661D01*
X102931Y223683D01*
X102946Y223702D01*
X102975Y223786D01*
X103009Y223868D01*
X103010Y223892D01*
X103018Y223914D01*
X103015Y224003D01*
X103019Y224092D01*
X103012Y224115D01*
X103011Y224139D01*
X102978Y224221D01*
X102951Y224306D01*
X102935Y224327D01*
X102927Y224346D01*
X102893Y224384D01*
X102839Y224456D01*
X100476Y226819D01*
X100476Y230381D01*
X103137Y233041D01*
X103174Y233095D01*
X103219Y233143D01*
X103238Y233186D01*
X103265Y233225D01*
X103281Y233289D01*
X103307Y233350D01*
X103309Y233397D01*
X103321Y233442D01*
X103314Y233508D01*
X103317Y233574D01*
X103302Y233619D01*
X103297Y233666D01*
X103268Y233725D01*
X103248Y233787D01*
X103215Y233831D01*
X103198Y233867D01*
X103169Y233894D01*
X103137Y233938D01*
X102000Y235074D01*
X102000Y238636D01*
X103264Y239899D01*
X103301Y239953D01*
X103346Y240001D01*
X103365Y240044D01*
X103392Y240083D01*
X103408Y240147D01*
X103434Y240208D01*
X103436Y240255D01*
X103448Y240300D01*
X103441Y240366D01*
X103444Y240432D01*
X103429Y240477D01*
X103424Y240524D01*
X103395Y240583D01*
X103375Y240645D01*
X103342Y240689D01*
X103325Y240725D01*
X103296Y240752D01*
X103264Y240796D01*
X101238Y242821D01*
X101238Y246383D01*
X103756Y248901D01*
X107318Y248901D01*
X109836Y246383D01*
X109836Y245683D01*
X109843Y245641D01*
X109841Y245599D01*
X109863Y245532D01*
X109875Y245462D01*
X109897Y245426D01*
X109910Y245385D01*
X109964Y245313D01*
X109990Y245269D01*
X110006Y245256D01*
X110022Y245235D01*
X119167Y236089D01*
X119202Y236065D01*
X119231Y236033D01*
X119294Y236001D01*
X119351Y235961D01*
X119392Y235950D01*
X119430Y235931D01*
X119520Y235918D01*
X119569Y235905D01*
X119589Y235907D01*
X119616Y235903D01*
X128810Y235903D01*
X128864Y235913D01*
X128918Y235912D01*
X128973Y235933D01*
X129031Y235943D01*
X129078Y235970D01*
X129129Y235989D01*
X129174Y236027D01*
X129224Y236057D01*
X129259Y236099D01*
X129300Y236134D01*
X129337Y236195D01*
X129366Y236231D01*
X129376Y236260D01*
X129396Y236295D01*
X130237Y238323D01*
X130253Y238399D01*
X130278Y238472D01*
X130277Y238508D01*
X130285Y238543D01*
X130274Y238619D01*
X130271Y238697D01*
X130258Y238729D01*
X130253Y238765D01*
X130216Y238833D01*
X130187Y238904D01*
X130163Y238931D01*
X130146Y238962D01*
X130088Y239013D01*
X130036Y239070D01*
X130004Y239086D01*
X129977Y239110D01*
X129905Y239137D01*
X129836Y239173D01*
X129796Y239179D01*
X129768Y239189D01*
X129721Y239190D01*
X129651Y239200D01*
X127736Y239200D01*
X126528Y240409D01*
X126474Y240446D01*
X126426Y240491D01*
X126382Y240510D01*
X126344Y240537D01*
X126280Y240553D01*
X126219Y240579D01*
X126172Y240581D01*
X126126Y240593D01*
X126061Y240586D01*
X125995Y240589D01*
X125950Y240574D01*
X125903Y240569D01*
X125844Y240540D01*
X125781Y240520D01*
X125737Y240487D01*
X125702Y240470D01*
X125675Y240441D01*
X125631Y240409D01*
X124422Y239200D01*
X120053Y239200D01*
X116963Y242290D01*
X116963Y246660D01*
X120053Y249750D01*
X124422Y249750D01*
X125631Y248541D01*
X125685Y248504D01*
X125733Y248459D01*
X125776Y248440D01*
X125815Y248413D01*
X125879Y248397D01*
X125939Y248371D01*
X125987Y248369D01*
X126032Y248357D01*
X126098Y248364D01*
X126163Y248361D01*
X126208Y248376D01*
X126255Y248381D01*
X126314Y248410D01*
X126377Y248430D01*
X126421Y248462D01*
X126457Y248480D01*
X126484Y248509D01*
X126528Y248541D01*
X127736Y249750D01*
X132106Y249750D01*
X135196Y246660D01*
X135196Y243034D01*
X135209Y242959D01*
X135209Y242956D01*
X135210Y242956D01*
X135215Y242881D01*
X135229Y242848D01*
X135235Y242813D01*
X135275Y242747D01*
X135307Y242676D01*
X135331Y242651D01*
X135350Y242620D01*
X135410Y242571D01*
X135464Y242516D01*
X135496Y242501D01*
X135524Y242479D01*
X135597Y242454D01*
X135667Y242421D01*
X135703Y242418D01*
X135736Y242407D01*
X135814Y242409D01*
X135891Y242403D01*
X135930Y242413D01*
X135961Y242414D01*
X136004Y242431D01*
X136073Y242448D01*
X136288Y242537D01*
X139937Y242537D01*
X143310Y241140D01*
X145890Y238560D01*
X147287Y235187D01*
X147287Y231538D01*
X145890Y228165D01*
X143310Y225585D01*
X139937Y224188D01*
X136288Y224188D01*
X132915Y225585D01*
X130335Y228165D01*
X129396Y230430D01*
X129367Y230476D01*
X129347Y230526D01*
X129307Y230569D01*
X129275Y230619D01*
X129232Y230652D01*
X129195Y230692D01*
X129143Y230719D01*
X129096Y230754D01*
X129044Y230769D01*
X128996Y230794D01*
X128925Y230805D01*
X128881Y230818D01*
X128850Y230816D01*
X128810Y230822D01*
X117248Y230822D01*
X111680Y236389D01*
X111607Y236440D01*
X111538Y236496D01*
X111516Y236504D01*
X111496Y236517D01*
X111410Y236540D01*
X111326Y236568D01*
X111302Y236568D01*
X111279Y236573D01*
X111190Y236564D01*
X111101Y236562D01*
X111079Y236553D01*
X111056Y236550D01*
X110976Y236511D01*
X110894Y236477D01*
X110876Y236461D01*
X110855Y236451D01*
X110794Y236386D01*
X110728Y236326D01*
X110717Y236305D01*
X110701Y236287D01*
X110666Y236206D01*
X110625Y236126D01*
X110622Y236100D01*
X110613Y236081D01*
X110611Y236030D01*
X110598Y235941D01*
X110598Y235074D01*
X107937Y232414D01*
X107900Y232360D01*
X107855Y232312D01*
X107836Y232269D01*
X107809Y232230D01*
X107793Y232166D01*
X107767Y232105D01*
X107765Y232058D01*
X107753Y232012D01*
X107760Y231947D01*
X107757Y231881D01*
X107772Y231836D01*
X107777Y231789D01*
X107806Y231730D01*
X107826Y231668D01*
X107858Y231624D01*
X107876Y231588D01*
X107905Y231561D01*
X107937Y231517D01*
X109074Y230381D01*
X109074Y226819D01*
X106556Y224301D01*
X105572Y224301D01*
X105484Y224285D01*
X105396Y224276D01*
X105374Y224266D01*
X105351Y224262D01*
X105274Y224216D01*
X105194Y224177D01*
X105178Y224160D01*
X105158Y224147D01*
X105102Y224078D01*
X105041Y224014D01*
X105031Y223992D01*
X105016Y223973D01*
X104988Y223889D01*
X104953Y223807D01*
X104952Y223783D01*
X104944Y223761D01*
X104947Y223672D01*
X104943Y223583D01*
X104950Y223560D01*
X104951Y223536D01*
X104985Y223454D01*
X105012Y223369D01*
X105028Y223348D01*
X105035Y223329D01*
X105069Y223291D01*
X105123Y223219D01*
X107486Y220856D01*
X107486Y217294D01*
X105048Y214856D01*
X105011Y214802D01*
X104965Y214754D01*
X104947Y214711D01*
X104920Y214672D01*
X104904Y214608D01*
X104878Y214548D01*
X104876Y214500D01*
X104864Y214455D01*
X104871Y214389D01*
X104868Y214324D01*
X104882Y214279D01*
X104887Y214232D01*
X104916Y214173D01*
X104937Y214110D01*
X104969Y214066D01*
X104987Y214030D01*
X105015Y214003D01*
X105048Y213959D01*
X107486Y211521D01*
X107486Y207960D01*
X106223Y206696D01*
X106185Y206642D01*
X106140Y206595D01*
X106122Y206551D01*
X106095Y206512D01*
X106078Y206449D01*
X106053Y206388D01*
X106051Y206341D01*
X106039Y206295D01*
X106046Y206230D01*
X106043Y206164D01*
X106057Y206119D01*
X106062Y206072D01*
X106091Y206013D01*
X106111Y205950D01*
X106144Y205906D01*
X106161Y205871D01*
X106190Y205844D01*
X106223Y205799D01*
X108439Y203584D01*
X108439Y200022D01*
X106921Y198505D01*
X106884Y198451D01*
X106839Y198403D01*
X106826Y198374D01*
X106816Y198361D01*
X106811Y198346D01*
X106793Y198321D01*
X106777Y198257D01*
X106751Y198196D01*
X106750Y198166D01*
X106744Y198149D01*
X106744Y198131D01*
X106737Y198103D01*
X106744Y198038D01*
X106741Y197972D01*
X106750Y197945D01*
X106751Y197925D01*
X106758Y197907D01*
X106761Y197880D01*
X106790Y197821D01*
X106810Y197759D01*
X106828Y197735D01*
X106835Y197717D01*
X106849Y197701D01*
X106860Y197679D01*
X106889Y197652D01*
X106921Y197608D01*
X109455Y195075D01*
X109455Y191513D01*
X106937Y188995D01*
X103375Y188995D01*
G37*
%LPD*%
G36*
X-1538Y183781D02*
X-1538Y183781D01*
X-1487Y183783D01*
X-1455Y183801D01*
X-1419Y183809D01*
X-1379Y183842D01*
X-1335Y183866D01*
X-1314Y183896D01*
X-1285Y183919D01*
X-1264Y183966D01*
X-1235Y184008D01*
X-1227Y184050D01*
X-1214Y184078D01*
X-1215Y184108D01*
X-1207Y184150D01*
X-1207Y185738D01*
X-1225Y185812D01*
X-1238Y185886D01*
X-1244Y185896D01*
X-1247Y185906D01*
X-1271Y185935D01*
X-1319Y186006D01*
X-12376Y197064D01*
X-12441Y197104D01*
X-12503Y197148D01*
X-12515Y197150D01*
X-12523Y197155D01*
X-12560Y197159D01*
X-12645Y197175D01*
X-19888Y197175D01*
X-19927Y197203D01*
X-19939Y197205D01*
X-19947Y197210D01*
X-19984Y197214D01*
X-20069Y197230D01*
X-23432Y197230D01*
X-23432Y249238D01*
X-23444Y249287D01*
X-23446Y249338D01*
X-23463Y249370D01*
X-23472Y249406D01*
X-23504Y249446D01*
X-23529Y249490D01*
X-23559Y249512D01*
X-23582Y249540D01*
X-23629Y249561D01*
X-23670Y249590D01*
X-23712Y249598D01*
X-23740Y249611D01*
X-23771Y249610D01*
X-23813Y249618D01*
X-31750Y249618D01*
X-31800Y249606D01*
X-31851Y249604D01*
X-31883Y249587D01*
X-31919Y249578D01*
X-31958Y249546D01*
X-32003Y249521D01*
X-32024Y249491D01*
X-32052Y249468D01*
X-32073Y249421D01*
X-32103Y249380D01*
X-32111Y249338D01*
X-32123Y249310D01*
X-32122Y249279D01*
X-32130Y249238D01*
X-32130Y193675D01*
X-32113Y193601D01*
X-32100Y193526D01*
X-32093Y193516D01*
X-32091Y193506D01*
X-32067Y193477D01*
X-32019Y193406D01*
X-29199Y190586D01*
X-29134Y190546D01*
X-29072Y190502D01*
X-29060Y190500D01*
X-29052Y190495D01*
X-29015Y190491D01*
X-28930Y190475D01*
X-25390Y190475D01*
X-25275Y190361D01*
X-25232Y190334D01*
X-25195Y190299D01*
X-25159Y190289D01*
X-25128Y190269D01*
X-25077Y190264D01*
X-25028Y190250D01*
X-24992Y190256D01*
X-24956Y190253D01*
X-24908Y190271D01*
X-24858Y190280D01*
X-24822Y190303D01*
X-24794Y190314D01*
X-24773Y190337D01*
X-24738Y190361D01*
X-24623Y190475D01*
X-20389Y190475D01*
X-20274Y190360D01*
X-20231Y190333D01*
X-20193Y190298D01*
X-20158Y190288D01*
X-20127Y190269D01*
X-20076Y190264D01*
X-20027Y190249D01*
X-19991Y190256D01*
X-19954Y190252D01*
X-19907Y190270D01*
X-19856Y190279D01*
X-19821Y190303D01*
X-19792Y190314D01*
X-19772Y190336D01*
X-19736Y190360D01*
X-19621Y190475D01*
X-15387Y190475D01*
X-14493Y189582D01*
X-14493Y184150D01*
X-14482Y184100D01*
X-14480Y184049D01*
X-14462Y184017D01*
X-14454Y183981D01*
X-14421Y183942D01*
X-14397Y183897D01*
X-14367Y183876D01*
X-14344Y183848D01*
X-14297Y183827D01*
X-14255Y183797D01*
X-14214Y183789D01*
X-14186Y183777D01*
X-14155Y183778D01*
X-14113Y183770D01*
X-1588Y183770D01*
X-1538Y183781D01*
G37*
G36*
X-54477Y137486D02*
X-54477Y137486D01*
X-54435Y137484D01*
X-54367Y137505D01*
X-54298Y137518D01*
X-54261Y137539D01*
X-54221Y137552D01*
X-54148Y137606D01*
X-54105Y137632D01*
X-54092Y137648D01*
X-54070Y137664D01*
X-39295Y152440D01*
X-38709Y152440D01*
X-38644Y152451D01*
X-38578Y152453D01*
X-38535Y152471D01*
X-38488Y152479D01*
X-38431Y152513D01*
X-38371Y152538D01*
X-38336Y152569D01*
X-38295Y152594D01*
X-38254Y152645D01*
X-38205Y152689D01*
X-38183Y152731D01*
X-38154Y152768D01*
X-38133Y152830D01*
X-38102Y152889D01*
X-38094Y152943D01*
X-38082Y152980D01*
X-38083Y153020D01*
X-38075Y153074D01*
X-38075Y156727D01*
X-38086Y156792D01*
X-38088Y156858D01*
X-38106Y156901D01*
X-38114Y156948D01*
X-38148Y157005D01*
X-38173Y157065D01*
X-38204Y157100D01*
X-38229Y157141D01*
X-38280Y157183D01*
X-38324Y157231D01*
X-38366Y157253D01*
X-38403Y157282D01*
X-38465Y157303D01*
X-38524Y157334D01*
X-38578Y157342D01*
X-38615Y157354D01*
X-38655Y157353D01*
X-38709Y157361D01*
X-44438Y157361D01*
X-44480Y157354D01*
X-44523Y157356D01*
X-44590Y157334D01*
X-44659Y157322D01*
X-44696Y157300D01*
X-44736Y157287D01*
X-44809Y157233D01*
X-44853Y157207D01*
X-44866Y157191D01*
X-44887Y157175D01*
X-55640Y146423D01*
X-95442Y146423D01*
X-95529Y146407D01*
X-95618Y146398D01*
X-95639Y146387D01*
X-95663Y146383D01*
X-95739Y146338D01*
X-95819Y146298D01*
X-95835Y146281D01*
X-95856Y146269D01*
X-95912Y146200D01*
X-95973Y146135D01*
X-95982Y146113D01*
X-95997Y146095D01*
X-96026Y146011D01*
X-96060Y145928D01*
X-96061Y145905D01*
X-96069Y145882D01*
X-96066Y145793D01*
X-96070Y145704D01*
X-96063Y145682D01*
X-96062Y145658D01*
X-96029Y145576D01*
X-96002Y145491D01*
X-95986Y145469D01*
X-95978Y145450D01*
X-95944Y145413D01*
X-95890Y145340D01*
X-94126Y143576D01*
X-94126Y140015D01*
X-96691Y137450D01*
X-96729Y137396D01*
X-96774Y137348D01*
X-96793Y137304D01*
X-96820Y137266D01*
X-96836Y137202D01*
X-96862Y137141D01*
X-96864Y137094D01*
X-96875Y137048D01*
X-96869Y136983D01*
X-96872Y136917D01*
X-96857Y136872D01*
X-96852Y136825D01*
X-96823Y136766D01*
X-96803Y136703D01*
X-96770Y136659D01*
X-96753Y136624D01*
X-96724Y136597D01*
X-96691Y136553D01*
X-96539Y136401D01*
X-96539Y132839D01*
X-96787Y132591D01*
X-96838Y132518D01*
X-96894Y132449D01*
X-96902Y132427D01*
X-96915Y132407D01*
X-96937Y132321D01*
X-96966Y132237D01*
X-96965Y132213D01*
X-96971Y132190D01*
X-96962Y132101D01*
X-96959Y132012D01*
X-96951Y131991D01*
X-96948Y131967D01*
X-96908Y131887D01*
X-96875Y131805D01*
X-96859Y131787D01*
X-96849Y131766D01*
X-96784Y131705D01*
X-96724Y131639D01*
X-96703Y131628D01*
X-96685Y131612D01*
X-96603Y131577D01*
X-96524Y131536D01*
X-96498Y131533D01*
X-96479Y131524D01*
X-96428Y131522D01*
X-96339Y131509D01*
X-91005Y131509D01*
X-90963Y131516D01*
X-90921Y131514D01*
X-90854Y131536D01*
X-90784Y131548D01*
X-90748Y131570D01*
X-90707Y131583D01*
X-90635Y131637D01*
X-90591Y131663D01*
X-90578Y131679D01*
X-90557Y131695D01*
X-85995Y136256D01*
X-84773Y137478D01*
X-54519Y137478D01*
X-54477Y137486D01*
G37*
G36*
X-11063Y199656D02*
X-11063Y199656D01*
X-11012Y199658D01*
X-10980Y199676D01*
X-10944Y199684D01*
X-10904Y199717D01*
X-10860Y199741D01*
X-10839Y199771D01*
X-10810Y199794D01*
X-10789Y199841D01*
X-10760Y199883D01*
X-10752Y199925D01*
X-10739Y199953D01*
X-10740Y199983D01*
X-10732Y200025D01*
X-10732Y226632D01*
X1588Y226632D01*
X1637Y226644D01*
X1688Y226646D01*
X1720Y226663D01*
X1756Y226672D01*
X1796Y226704D01*
X1840Y226729D01*
X1862Y226759D01*
X1890Y226782D01*
X1911Y226829D01*
X1940Y226870D01*
X1948Y226912D01*
X1961Y226940D01*
X1960Y226949D01*
X1961Y226950D01*
X1960Y226972D01*
X1968Y227013D01*
X1968Y234950D01*
X1956Y235000D01*
X1954Y235051D01*
X1937Y235083D01*
X1928Y235119D01*
X1896Y235158D01*
X1871Y235203D01*
X1841Y235224D01*
X1818Y235252D01*
X1771Y235273D01*
X1730Y235303D01*
X1688Y235311D01*
X1660Y235323D01*
X1629Y235322D01*
X1588Y235330D01*
X-19050Y235330D01*
X-19100Y235319D01*
X-19151Y235317D01*
X-19183Y235299D01*
X-19219Y235291D01*
X-19258Y235258D01*
X-19303Y235234D01*
X-19324Y235204D01*
X-19352Y235181D01*
X-19373Y235134D01*
X-19403Y235092D01*
X-19411Y235050D01*
X-19423Y235022D01*
X-19422Y234992D01*
X-19430Y234950D01*
X-19430Y200025D01*
X-19419Y199975D01*
X-19417Y199924D01*
X-19399Y199892D01*
X-19391Y199856D01*
X-19358Y199817D01*
X-19334Y199772D01*
X-19304Y199751D01*
X-19281Y199723D01*
X-19234Y199702D01*
X-19192Y199672D01*
X-19150Y199664D01*
X-19122Y199652D01*
X-19092Y199653D01*
X-19050Y199645D01*
X-11113Y199645D01*
X-11063Y199656D01*
G37*
G36*
X-58823Y260089D02*
X-58823Y260089D01*
X-58734Y260092D01*
X-58712Y260101D01*
X-58688Y260103D01*
X-58608Y260143D01*
X-58526Y260176D01*
X-58509Y260192D01*
X-58487Y260203D01*
X-58426Y260268D01*
X-58360Y260328D01*
X-58350Y260349D01*
X-58333Y260366D01*
X-58299Y260448D01*
X-58258Y260527D01*
X-58254Y260553D01*
X-58246Y260573D01*
X-58244Y260623D01*
X-58230Y260713D01*
X-58230Y277970D01*
X-58240Y278023D01*
X-58239Y278077D01*
X-58259Y278133D01*
X-58270Y278191D01*
X-58297Y278237D01*
X-58316Y278288D01*
X-58354Y278333D01*
X-58384Y278384D01*
X-58426Y278418D01*
X-58461Y278459D01*
X-58512Y278488D01*
X-58558Y278526D01*
X-58609Y278543D01*
X-58656Y278569D01*
X-58715Y278579D01*
X-58771Y278598D01*
X-58824Y278596D01*
X-58878Y278604D01*
X-58936Y278593D01*
X-58995Y278591D01*
X-59045Y278571D01*
X-59098Y278560D01*
X-59160Y278524D01*
X-59166Y278522D01*
X-59255Y278516D01*
X-59361Y278511D01*
X-59367Y278509D01*
X-59371Y278508D01*
X-59400Y278495D01*
X-59536Y278442D01*
X-61515Y277299D01*
X-61597Y277230D01*
X-61680Y277162D01*
X-61683Y277157D01*
X-61686Y277154D01*
X-61702Y277127D01*
X-61756Y277040D01*
X-62360Y276803D01*
X-62378Y276796D01*
X-62398Y276782D01*
X-62429Y276772D01*
X-62980Y276454D01*
X-62999Y276442D01*
X-63045Y276455D01*
X-63093Y276456D01*
X-63140Y276468D01*
X-63185Y276459D01*
X-63218Y276460D01*
X-63244Y276448D01*
X-63282Y276441D01*
X-63390Y276399D01*
X-65487Y275576D01*
X-65565Y275545D01*
X-65605Y275518D01*
X-65649Y275499D01*
X-65681Y275465D01*
X-65708Y275447D01*
X-65722Y275422D01*
X-65748Y275394D01*
X-65773Y275353D01*
X-66415Y275207D01*
X-66438Y275196D01*
X-66470Y275190D01*
X-66487Y275183D01*
X-67083Y274950D01*
X-67126Y274969D01*
X-67130Y274969D01*
X-67133Y274971D01*
X-67182Y274981D01*
X-67218Y274996D01*
X-67251Y274994D01*
X-67275Y274999D01*
X-67284Y274999D01*
X-67287Y274998D01*
X-67296Y275000D01*
X-67324Y274992D01*
X-67363Y274991D01*
X-69754Y274445D01*
X-69797Y274424D01*
X-69844Y274412D01*
X-69880Y274383D01*
X-69909Y274369D01*
X-69927Y274346D01*
X-69957Y274322D01*
X-69988Y274286D01*
X-70645Y274237D01*
X-70668Y274230D01*
X-70701Y274229D01*
X-70719Y274225D01*
X-70720Y274225D01*
X-71343Y274082D01*
X-71383Y274107D01*
X-71429Y274123D01*
X-71470Y274148D01*
X-71516Y274153D01*
X-71547Y274164D01*
X-71575Y274160D01*
X-71614Y274165D01*
X-72985Y274062D01*
X-73976Y273988D01*
X-74059Y273981D01*
X-74105Y273967D01*
X-74153Y273962D01*
X-74194Y273939D01*
X-74225Y273929D01*
X-74245Y273910D01*
X-74279Y273890D01*
X-74315Y273860D01*
X-74972Y273909D01*
X-74996Y273905D01*
X-75028Y273909D01*
X-75685Y273860D01*
X-75721Y273890D01*
X-75763Y273913D01*
X-75801Y273943D01*
X-75846Y273955D01*
X-75874Y273971D01*
X-75903Y273971D01*
X-75940Y273981D01*
X-76024Y273988D01*
X-77383Y274090D01*
X-78386Y274165D01*
X-78434Y274157D01*
X-78482Y274160D01*
X-78525Y274143D01*
X-78557Y274138D01*
X-78581Y274122D01*
X-78617Y274107D01*
X-78657Y274082D01*
X-79280Y274225D01*
X-79299Y274229D01*
X-79324Y274229D01*
X-79355Y274237D01*
X-80012Y274286D01*
X-80043Y274322D01*
X-80081Y274351D01*
X-80114Y274386D01*
X-80156Y274405D01*
X-80183Y274424D01*
X-80211Y274429D01*
X-80246Y274445D01*
X-82440Y274946D01*
X-82552Y274971D01*
X-82637Y274991D01*
X-82673Y274991D01*
X-82716Y274999D01*
X-82725Y274999D01*
X-82726Y274999D01*
X-82733Y275000D01*
X-82778Y274990D01*
X-82811Y274990D01*
X-82836Y274977D01*
X-82874Y274969D01*
X-82917Y274950D01*
X-83530Y275190D01*
X-83555Y275194D01*
X-83585Y275207D01*
X-83764Y275248D01*
X-84227Y275353D01*
X-84252Y275393D01*
X-84286Y275427D01*
X-84312Y275467D01*
X-84352Y275492D01*
X-84375Y275515D01*
X-84402Y275524D01*
X-84435Y275545D01*
X-84673Y275639D01*
X-86640Y276411D01*
X-86718Y276441D01*
X-86766Y276448D01*
X-86811Y276465D01*
X-86857Y276461D01*
X-86889Y276466D01*
X-86916Y276457D01*
X-86955Y276455D01*
X-87001Y276442D01*
X-87571Y276772D01*
X-87595Y276779D01*
X-87622Y276796D01*
X-87640Y276803D01*
X-87679Y276819D01*
X-88235Y277037D01*
X-88254Y277080D01*
X-88283Y277119D01*
X-88303Y277162D01*
X-88338Y277193D01*
X-88358Y277219D01*
X-88383Y277232D01*
X-88413Y277257D01*
X-89944Y278142D01*
X-89945Y278142D01*
X-90464Y278442D01*
X-90564Y278478D01*
X-90665Y278516D01*
X-90671Y278516D01*
X-90675Y278518D01*
X-90707Y278518D01*
X-90809Y278521D01*
X-91316Y278926D01*
X-91351Y278945D01*
X-91395Y278979D01*
X-91958Y279304D01*
X-91984Y279360D01*
X-92028Y279458D01*
X-92032Y279462D01*
X-92034Y279467D01*
X-92057Y279489D01*
X-92156Y279595D01*
X-93943Y281020D01*
X-94037Y281071D01*
X-94130Y281124D01*
X-94136Y281125D01*
X-94140Y281127D01*
X-94172Y281131D01*
X-94272Y281150D01*
X-94615Y281519D01*
X-94695Y281580D01*
X-94773Y281643D01*
X-94784Y281647D01*
X-94794Y281654D01*
X-94891Y281683D01*
X-94986Y281715D01*
X-94998Y281715D01*
X-95009Y281718D01*
X-95110Y281711D01*
X-95210Y281708D01*
X-95221Y281704D01*
X-95233Y281703D01*
X-95325Y281662D01*
X-95418Y281624D01*
X-95427Y281616D01*
X-95437Y281611D01*
X-95509Y281541D01*
X-95584Y281473D01*
X-95589Y281462D01*
X-95597Y281454D01*
X-95640Y281363D01*
X-95686Y281273D01*
X-95688Y281260D01*
X-95692Y281251D01*
X-95696Y281206D01*
X-95714Y281088D01*
X-95714Y280545D01*
X-95706Y280503D01*
X-95708Y280460D01*
X-95687Y280393D01*
X-95674Y280324D01*
X-95653Y280287D01*
X-95640Y280247D01*
X-95586Y280174D01*
X-95560Y280131D01*
X-95544Y280117D01*
X-95528Y280096D01*
X-94241Y278809D01*
X-94241Y266996D01*
X-94233Y266954D01*
X-94235Y266911D01*
X-94214Y266844D01*
X-94201Y266775D01*
X-94180Y266738D01*
X-94167Y266698D01*
X-94113Y266625D01*
X-94087Y266582D01*
X-94071Y266568D01*
X-94055Y266547D01*
X-93932Y266424D01*
X-93931Y266423D01*
X-93479Y265971D01*
X-93414Y265931D01*
X-93352Y265887D01*
X-93340Y265885D01*
X-93332Y265880D01*
X-93295Y265876D01*
X-93210Y265860D01*
X-64909Y265860D01*
X-63892Y264844D01*
X-63234Y264186D01*
X-59313Y260264D01*
X-59240Y260213D01*
X-59171Y260157D01*
X-59148Y260150D01*
X-59129Y260136D01*
X-59043Y260114D01*
X-58958Y260085D01*
X-58934Y260086D01*
X-58911Y260080D01*
X-58823Y260089D01*
G37*
G36*
X-53925Y98056D02*
X-53925Y98056D01*
X-53874Y98058D01*
X-53842Y98076D01*
X-53806Y98084D01*
X-53767Y98117D01*
X-53722Y98141D01*
X-53701Y98171D01*
X-53673Y98194D01*
X-53652Y98241D01*
X-53622Y98283D01*
X-53614Y98325D01*
X-53602Y98353D01*
X-53603Y98383D01*
X-53595Y98425D01*
X-53595Y107950D01*
X-53606Y108000D01*
X-53608Y108051D01*
X-53626Y108083D01*
X-53634Y108119D01*
X-53667Y108158D01*
X-53691Y108203D01*
X-53721Y108224D01*
X-53744Y108252D01*
X-53791Y108273D01*
X-53833Y108303D01*
X-53875Y108311D01*
X-53903Y108323D01*
X-53933Y108322D01*
X-53975Y108330D01*
X-90869Y108330D01*
X-90918Y108319D01*
X-90969Y108317D01*
X-91001Y108299D01*
X-91037Y108291D01*
X-91077Y108258D01*
X-91121Y108234D01*
X-91143Y108204D01*
X-91171Y108181D01*
X-91192Y108134D01*
X-91221Y108092D01*
X-91229Y108050D01*
X-91242Y108022D01*
X-91241Y108005D01*
X-91242Y108004D01*
X-91241Y107989D01*
X-91249Y107950D01*
X-91249Y99194D01*
X-91237Y99145D01*
X-91235Y99094D01*
X-91218Y99062D01*
X-91209Y99026D01*
X-91177Y98986D01*
X-91152Y98942D01*
X-91122Y98920D01*
X-91099Y98892D01*
X-91052Y98871D01*
X-91011Y98842D01*
X-90969Y98834D01*
X-90941Y98821D01*
X-90910Y98822D01*
X-90869Y98814D01*
X-84106Y98814D01*
X-84032Y98832D01*
X-83957Y98845D01*
X-83947Y98851D01*
X-83937Y98854D01*
X-83908Y98877D01*
X-83837Y98926D01*
X-83713Y99050D01*
X-73450Y99050D01*
X-72556Y98156D01*
X-72491Y98116D01*
X-72429Y98072D01*
X-72417Y98070D01*
X-72409Y98065D01*
X-72372Y98061D01*
X-72287Y98045D01*
X-53975Y98045D01*
X-53925Y98056D01*
G37*
G36*
X-116296Y130791D02*
X-116296Y130791D01*
X-116290Y130791D01*
X-116189Y130823D01*
X-116088Y130854D01*
X-116083Y130857D01*
X-116076Y130859D01*
X-115926Y130971D01*
X-107918Y138979D01*
X-107894Y139013D01*
X-107862Y139042D01*
X-107830Y139105D01*
X-107790Y139163D01*
X-107779Y139204D01*
X-107760Y139242D01*
X-107747Y139331D01*
X-107734Y139380D01*
X-107736Y139401D01*
X-107732Y139427D01*
X-107732Y144498D01*
X-106058Y146172D01*
X-105275Y146955D01*
X-105224Y147029D01*
X-105168Y147098D01*
X-105161Y147120D01*
X-105147Y147140D01*
X-105125Y147226D01*
X-105096Y147310D01*
X-105097Y147334D01*
X-105091Y147357D01*
X-105100Y147445D01*
X-105103Y147534D01*
X-105112Y147556D01*
X-105114Y147580D01*
X-105154Y147660D01*
X-105187Y147742D01*
X-105203Y147760D01*
X-105214Y147781D01*
X-105279Y147842D01*
X-105339Y147908D01*
X-105360Y147919D01*
X-105377Y147935D01*
X-105459Y147970D01*
X-105538Y148011D01*
X-105564Y148014D01*
X-105584Y148023D01*
X-105634Y148025D01*
X-105724Y148038D01*
X-122081Y148038D01*
X-122123Y148031D01*
X-122166Y148033D01*
X-122233Y148011D01*
X-122302Y147999D01*
X-122339Y147977D01*
X-122379Y147964D01*
X-122452Y147910D01*
X-122495Y147884D01*
X-122509Y147868D01*
X-122530Y147852D01*
X-124102Y146280D01*
X-127663Y146280D01*
X-130181Y148798D01*
X-130181Y150478D01*
X-130191Y150531D01*
X-130191Y150585D01*
X-130211Y150641D01*
X-130221Y150699D01*
X-130249Y150746D01*
X-130267Y150796D01*
X-130305Y150841D01*
X-130335Y150892D01*
X-130377Y150926D01*
X-130412Y150968D01*
X-130464Y150997D01*
X-130509Y151034D01*
X-130561Y151051D01*
X-130608Y151077D01*
X-130666Y151087D01*
X-130722Y151106D01*
X-130776Y151104D01*
X-130829Y151112D01*
X-130887Y151101D01*
X-130946Y151099D01*
X-130996Y151079D01*
X-131049Y151068D01*
X-131111Y151032D01*
X-131154Y151015D01*
X-131177Y150994D01*
X-131211Y150974D01*
X-132825Y149687D01*
X-132896Y149606D01*
X-132967Y149527D01*
X-132969Y149521D01*
X-132973Y149518D01*
X-132984Y149488D01*
X-133025Y149394D01*
X-133586Y149070D01*
X-133616Y149044D01*
X-133664Y149017D01*
X-134173Y148611D01*
X-134235Y148607D01*
X-134342Y148601D01*
X-134347Y148599D01*
X-134352Y148599D01*
X-134381Y148586D01*
X-134516Y148533D01*
X-135398Y148023D01*
X-135435Y147992D01*
X-135477Y147969D01*
X-135520Y147920D01*
X-135569Y147878D01*
X-135593Y147837D01*
X-135624Y147800D01*
X-135648Y147740D01*
X-135680Y147683D01*
X-135687Y147635D01*
X-135704Y147591D01*
X-135705Y147526D01*
X-135715Y147461D01*
X-135705Y147414D01*
X-135706Y147366D01*
X-135684Y147305D01*
X-135671Y147241D01*
X-135646Y147200D01*
X-135629Y147155D01*
X-135587Y147106D01*
X-135553Y147050D01*
X-135515Y147021D01*
X-135484Y146984D01*
X-135415Y146943D01*
X-135376Y146912D01*
X-135352Y146905D01*
X-135323Y146888D01*
X-132915Y145890D01*
X-130335Y143310D01*
X-128938Y139937D01*
X-128938Y136288D01*
X-130192Y133260D01*
X-130198Y133230D01*
X-130212Y133203D01*
X-130230Y133085D01*
X-130240Y133041D01*
X-130238Y133030D01*
X-130240Y133017D01*
X-130240Y132743D01*
X-130230Y132685D01*
X-130229Y132625D01*
X-130210Y132575D01*
X-130200Y132522D01*
X-130170Y132471D01*
X-130149Y132415D01*
X-130114Y132375D01*
X-130086Y132329D01*
X-130040Y132292D01*
X-130001Y132247D01*
X-129954Y132222D01*
X-129912Y132188D01*
X-129856Y132169D01*
X-129803Y132141D01*
X-129750Y132133D01*
X-129700Y132116D01*
X-129640Y132118D01*
X-129581Y132110D01*
X-129529Y132121D01*
X-129475Y132123D01*
X-129420Y132145D01*
X-129362Y132158D01*
X-129317Y132187D01*
X-129267Y132207D01*
X-129223Y132247D01*
X-129173Y132279D01*
X-129134Y132329D01*
X-129102Y132358D01*
X-129086Y132389D01*
X-129057Y132426D01*
X-127052Y135899D01*
X-125945Y136195D01*
X-125880Y136226D01*
X-125812Y136248D01*
X-125774Y136276D01*
X-125742Y136291D01*
X-125712Y136322D01*
X-125661Y136359D01*
X-124122Y137899D01*
X-120353Y137899D01*
X-117689Y135234D01*
X-117689Y131890D01*
X-117687Y131878D01*
X-117688Y131866D01*
X-117667Y131768D01*
X-117649Y131670D01*
X-117643Y131659D01*
X-117640Y131646D01*
X-117586Y131563D01*
X-117535Y131476D01*
X-117525Y131468D01*
X-117518Y131458D01*
X-117372Y131341D01*
X-116899Y131068D01*
X-116891Y131052D01*
X-116887Y131048D01*
X-116884Y131042D01*
X-116806Y130969D01*
X-116731Y130895D01*
X-116725Y130893D01*
X-116721Y130888D01*
X-116623Y130847D01*
X-116526Y130804D01*
X-116520Y130803D01*
X-116514Y130801D01*
X-116408Y130796D01*
X-116302Y130789D01*
X-116296Y130791D01*
G37*
%LPC*%
G36*
X46836Y147319D02*
X46836Y147319D01*
X45719Y148436D01*
X45719Y157952D01*
X46836Y159068D01*
X69052Y159068D01*
X70168Y157952D01*
X70168Y148436D01*
X69052Y147319D01*
X46836Y147319D01*
G37*
%LPD*%
%LPC*%
G36*
X64425Y248919D02*
X64425Y248919D01*
X63309Y250036D01*
X63309Y261139D01*
X64425Y262256D01*
X83530Y262256D01*
X84646Y261139D01*
X84646Y250036D01*
X83530Y248919D01*
X64425Y248919D01*
G37*
%LPD*%
%LPC*%
G36*
X-139937Y224188D02*
X-139937Y224188D01*
X-143310Y225585D01*
X-145890Y228165D01*
X-147287Y231538D01*
X-147287Y235187D01*
X-145890Y238560D01*
X-143310Y241140D01*
X-139937Y242537D01*
X-136288Y242537D01*
X-132915Y241140D01*
X-130335Y238560D01*
X-128938Y235187D01*
X-128938Y231538D01*
X-130335Y228165D01*
X-132915Y225585D01*
X-136288Y224188D01*
X-139937Y224188D01*
G37*
%LPD*%
%LPC*%
G36*
X-1819Y24193D02*
X-1819Y24193D01*
X-5180Y25585D01*
X-7753Y28157D01*
X-9145Y31518D01*
X-9145Y35157D01*
X-7753Y38518D01*
X-5180Y41090D01*
X-1819Y42482D01*
X1819Y42482D01*
X5180Y41090D01*
X7753Y38518D01*
X9145Y35157D01*
X9145Y31518D01*
X7753Y28157D01*
X5180Y25585D01*
X1819Y24193D01*
X-1819Y24193D01*
G37*
%LPD*%
%LPC*%
G36*
X66711Y198119D02*
X66711Y198119D01*
X65595Y199236D01*
X65595Y210339D01*
X66711Y211456D01*
X83530Y211456D01*
X84646Y210339D01*
X84646Y199236D01*
X83530Y198119D01*
X66711Y198119D01*
G37*
%LPD*%
%LPC*%
G36*
X69251Y223519D02*
X69251Y223519D01*
X68135Y224636D01*
X68135Y235739D01*
X69251Y236856D01*
X83530Y236856D01*
X84646Y235739D01*
X84646Y224636D01*
X83530Y223519D01*
X69251Y223519D01*
G37*
%LPD*%
G36*
X-60593Y123456D02*
X-60593Y123456D01*
X-60542Y123458D01*
X-60510Y123476D01*
X-60474Y123484D01*
X-60434Y123517D01*
X-60390Y123541D01*
X-60369Y123571D01*
X-60340Y123594D01*
X-60319Y123641D01*
X-60290Y123683D01*
X-60282Y123725D01*
X-60269Y123753D01*
X-60270Y123783D01*
X-60262Y123825D01*
X-60262Y132017D01*
X-60274Y132066D01*
X-60276Y132117D01*
X-60293Y132149D01*
X-60302Y132185D01*
X-60334Y132225D01*
X-60359Y132269D01*
X-60389Y132291D01*
X-60412Y132319D01*
X-60459Y132340D01*
X-60500Y132369D01*
X-60542Y132377D01*
X-60570Y132390D01*
X-60601Y132389D01*
X-60643Y132397D01*
X-82511Y132397D01*
X-82584Y132380D01*
X-82659Y132366D01*
X-82670Y132360D01*
X-82679Y132357D01*
X-82708Y132334D01*
X-82779Y132285D01*
X-83009Y132056D01*
X-83018Y132042D01*
X-83019Y132041D01*
X-83021Y132036D01*
X-83049Y131991D01*
X-83093Y131929D01*
X-83095Y131917D01*
X-83101Y131908D01*
X-83104Y131871D01*
X-83121Y131787D01*
X-83121Y123825D01*
X-83109Y123775D01*
X-83107Y123724D01*
X-83090Y123692D01*
X-83081Y123656D01*
X-83049Y123617D01*
X-83024Y123572D01*
X-82994Y123551D01*
X-82971Y123523D01*
X-82924Y123502D01*
X-82883Y123472D01*
X-82841Y123464D01*
X-82813Y123452D01*
X-82782Y123453D01*
X-82741Y123445D01*
X-60643Y123445D01*
X-60593Y123456D01*
G37*
G36*
X82790Y250456D02*
X82790Y250456D01*
X82841Y250458D01*
X82873Y250476D01*
X82909Y250484D01*
X82949Y250517D01*
X82993Y250541D01*
X83015Y250571D01*
X83043Y250594D01*
X83064Y250641D01*
X83093Y250683D01*
X83101Y250725D01*
X83114Y250753D01*
X83113Y250783D01*
X83121Y250825D01*
X83121Y260350D01*
X83109Y260400D01*
X83107Y260451D01*
X83090Y260483D01*
X83081Y260519D01*
X83049Y260558D01*
X83024Y260603D01*
X82994Y260624D01*
X82971Y260652D01*
X82924Y260673D01*
X82883Y260703D01*
X82841Y260711D01*
X82813Y260723D01*
X82782Y260722D01*
X82741Y260730D01*
X65215Y260730D01*
X65165Y260719D01*
X65114Y260717D01*
X65082Y260699D01*
X65046Y260691D01*
X65006Y260658D01*
X64962Y260634D01*
X64941Y260604D01*
X64912Y260581D01*
X64891Y260534D01*
X64862Y260492D01*
X64854Y260450D01*
X64841Y260422D01*
X64842Y260405D01*
X64841Y260404D01*
X64842Y260389D01*
X64834Y260350D01*
X64834Y250825D01*
X64846Y250775D01*
X64848Y250724D01*
X64865Y250692D01*
X64874Y250656D01*
X64906Y250617D01*
X64931Y250572D01*
X64961Y250551D01*
X64984Y250523D01*
X65031Y250502D01*
X65072Y250472D01*
X65114Y250464D01*
X65142Y250452D01*
X65173Y250453D01*
X65215Y250445D01*
X82741Y250445D01*
X82790Y250456D01*
G37*
G36*
X68312Y148856D02*
X68312Y148856D01*
X68363Y148858D01*
X68395Y148876D01*
X68431Y148884D01*
X68471Y148917D01*
X68515Y148941D01*
X68537Y148971D01*
X68565Y148994D01*
X68586Y149041D01*
X68615Y149083D01*
X68623Y149125D01*
X68636Y149153D01*
X68635Y149183D01*
X68643Y149225D01*
X68643Y157163D01*
X68631Y157212D01*
X68629Y157263D01*
X68612Y157295D01*
X68603Y157331D01*
X68571Y157371D01*
X68546Y157415D01*
X68516Y157437D01*
X68493Y157465D01*
X68446Y157486D01*
X68405Y157515D01*
X68363Y157523D01*
X68335Y157536D01*
X68304Y157535D01*
X68263Y157543D01*
X47625Y157543D01*
X47575Y157531D01*
X47524Y157529D01*
X47492Y157512D01*
X47456Y157503D01*
X47417Y157471D01*
X47372Y157446D01*
X47351Y157416D01*
X47323Y157393D01*
X47302Y157346D01*
X47272Y157305D01*
X47264Y157263D01*
X47252Y157235D01*
X47253Y157204D01*
X47245Y157163D01*
X47245Y149225D01*
X47256Y149175D01*
X47258Y149124D01*
X47276Y149092D01*
X47284Y149056D01*
X47317Y149017D01*
X47341Y148972D01*
X47371Y148951D01*
X47394Y148923D01*
X47441Y148902D01*
X47483Y148872D01*
X47525Y148864D01*
X47553Y148852D01*
X47583Y148853D01*
X47625Y148845D01*
X68263Y148845D01*
X68312Y148856D01*
G37*
%LPC*%
G36*
X118465Y88388D02*
X118465Y88388D01*
X115375Y91478D01*
X115375Y95847D01*
X118465Y98937D01*
X122679Y98937D01*
X122743Y98949D01*
X122809Y98951D01*
X122853Y98969D01*
X122899Y98977D01*
X122956Y99010D01*
X123017Y99035D01*
X123052Y99067D01*
X123093Y99091D01*
X123134Y99142D01*
X123183Y99187D01*
X123204Y99229D01*
X123234Y99265D01*
X123255Y99327D01*
X123285Y99386D01*
X123293Y99441D01*
X123306Y99478D01*
X123305Y99517D01*
X123313Y99571D01*
X123313Y102197D01*
X126403Y105287D01*
X130772Y105287D01*
X133862Y102197D01*
X133862Y97828D01*
X130772Y94738D01*
X126559Y94738D01*
X126494Y94726D01*
X126428Y94724D01*
X126385Y94706D01*
X126338Y94698D01*
X126281Y94665D01*
X126221Y94640D01*
X126186Y94608D01*
X126145Y94584D01*
X126103Y94533D01*
X126055Y94488D01*
X126033Y94446D01*
X126004Y94410D01*
X125983Y94348D01*
X125952Y94289D01*
X125944Y94234D01*
X125932Y94197D01*
X125933Y94158D01*
X125925Y94104D01*
X125925Y91478D01*
X122835Y88388D01*
X118465Y88388D01*
G37*
%LPD*%
%LPC*%
G36*
X101407Y105239D02*
X101407Y105239D01*
X98889Y107757D01*
X98889Y111318D01*
X101136Y113566D01*
X101174Y113620D01*
X101219Y113668D01*
X101238Y113711D01*
X101265Y113750D01*
X101281Y113814D01*
X101307Y113874D01*
X101309Y113922D01*
X101320Y113967D01*
X101314Y114033D01*
X101317Y114098D01*
X101302Y114143D01*
X101297Y114190D01*
X101268Y114249D01*
X101248Y114312D01*
X101215Y114356D01*
X101198Y114392D01*
X101169Y114419D01*
X101136Y114463D01*
X99143Y116456D01*
X99143Y120018D01*
X100914Y121789D01*
X100952Y121843D01*
X100997Y121891D01*
X101015Y121934D01*
X101042Y121973D01*
X101059Y122037D01*
X101084Y122098D01*
X101086Y122145D01*
X101098Y122190D01*
X101091Y122256D01*
X101094Y122322D01*
X101080Y122367D01*
X101075Y122414D01*
X101046Y122473D01*
X101026Y122535D01*
X100993Y122579D01*
X100976Y122615D01*
X100947Y122642D01*
X100914Y122686D01*
X99841Y123759D01*
X99841Y127320D01*
X102359Y129838D01*
X105921Y129838D01*
X108439Y127320D01*
X108439Y123759D01*
X106667Y121987D01*
X106630Y121933D01*
X106585Y121886D01*
X106566Y121842D01*
X106539Y121803D01*
X106523Y121740D01*
X106497Y121679D01*
X106495Y121632D01*
X106483Y121586D01*
X106490Y121521D01*
X106487Y121455D01*
X106502Y121410D01*
X106507Y121363D01*
X106536Y121304D01*
X106556Y121241D01*
X106588Y121197D01*
X106606Y121162D01*
X106635Y121135D01*
X106667Y121090D01*
X107740Y120018D01*
X107740Y116456D01*
X105493Y114209D01*
X105455Y114155D01*
X105410Y114107D01*
X105391Y114063D01*
X105364Y114025D01*
X105348Y113961D01*
X105322Y113900D01*
X105320Y113853D01*
X105309Y113807D01*
X105315Y113742D01*
X105312Y113676D01*
X105327Y113631D01*
X105332Y113584D01*
X105361Y113525D01*
X105381Y113462D01*
X105414Y113418D01*
X105431Y113383D01*
X105460Y113356D01*
X105493Y113312D01*
X107486Y111318D01*
X107486Y107757D01*
X104968Y105239D01*
X101407Y105239D01*
G37*
%LPD*%
G36*
X83044Y123456D02*
X83044Y123456D01*
X83095Y123458D01*
X83127Y123476D01*
X83163Y123484D01*
X83203Y123517D01*
X83247Y123541D01*
X83269Y123571D01*
X83297Y123594D01*
X83318Y123641D01*
X83347Y123683D01*
X83355Y123725D01*
X83368Y123753D01*
X83367Y123783D01*
X83375Y123825D01*
X83375Y131763D01*
X83363Y131812D01*
X83361Y131863D01*
X83344Y131895D01*
X83335Y131931D01*
X83303Y131971D01*
X83278Y132015D01*
X83248Y132037D01*
X83225Y132065D01*
X83178Y132086D01*
X83137Y132115D01*
X83095Y132123D01*
X83067Y132136D01*
X83036Y132135D01*
X82995Y132143D01*
X61913Y132143D01*
X61863Y132131D01*
X61812Y132129D01*
X61780Y132112D01*
X61744Y132103D01*
X61704Y132071D01*
X61660Y132046D01*
X61639Y132016D01*
X61610Y131993D01*
X61589Y131946D01*
X61560Y131905D01*
X61552Y131863D01*
X61539Y131835D01*
X61540Y131804D01*
X61532Y131763D01*
X61532Y130530D01*
X61550Y130456D01*
X61563Y130381D01*
X61569Y130371D01*
X61572Y130361D01*
X61596Y130332D01*
X61644Y130261D01*
X64659Y127245D01*
X64659Y123825D01*
X64671Y123775D01*
X64673Y123724D01*
X64690Y123692D01*
X64699Y123656D01*
X64731Y123617D01*
X64756Y123572D01*
X64786Y123551D01*
X64809Y123523D01*
X64856Y123502D01*
X64897Y123472D01*
X64939Y123464D01*
X64967Y123452D01*
X64998Y123453D01*
X65040Y123445D01*
X82995Y123445D01*
X83044Y123456D01*
G37*
G36*
X-52338Y72656D02*
X-52338Y72656D01*
X-52287Y72658D01*
X-52255Y72676D01*
X-52219Y72684D01*
X-52179Y72717D01*
X-52135Y72741D01*
X-52114Y72771D01*
X-52085Y72794D01*
X-52064Y72841D01*
X-52035Y72883D01*
X-52027Y72925D01*
X-52014Y72953D01*
X-52015Y72983D01*
X-52007Y73025D01*
X-52007Y82550D01*
X-52019Y82600D01*
X-52021Y82651D01*
X-52038Y82683D01*
X-52047Y82719D01*
X-52079Y82758D01*
X-52104Y82803D01*
X-52134Y82824D01*
X-52157Y82852D01*
X-52204Y82873D01*
X-52245Y82903D01*
X-52287Y82911D01*
X-52315Y82923D01*
X-52346Y82922D01*
X-52388Y82930D01*
X-68263Y82930D01*
X-68312Y82919D01*
X-68363Y82917D01*
X-68395Y82899D01*
X-68431Y82891D01*
X-68471Y82858D01*
X-68515Y82834D01*
X-68537Y82804D01*
X-68565Y82781D01*
X-68586Y82734D01*
X-68615Y82692D01*
X-68623Y82650D01*
X-68636Y82622D01*
X-68635Y82605D01*
X-68636Y82604D01*
X-68635Y82589D01*
X-68643Y82550D01*
X-68643Y73025D01*
X-68631Y72975D01*
X-68629Y72924D01*
X-68612Y72892D01*
X-68603Y72856D01*
X-68571Y72817D01*
X-68546Y72772D01*
X-68516Y72751D01*
X-68493Y72723D01*
X-68446Y72702D01*
X-68405Y72672D01*
X-68363Y72664D01*
X-68335Y72652D01*
X-68304Y72653D01*
X-68263Y72645D01*
X-52388Y72645D01*
X-52338Y72656D01*
G37*
G36*
X82790Y199656D02*
X82790Y199656D01*
X82841Y199658D01*
X82873Y199676D01*
X82909Y199684D01*
X82949Y199717D01*
X82993Y199741D01*
X83015Y199771D01*
X83043Y199794D01*
X83064Y199841D01*
X83093Y199883D01*
X83101Y199925D01*
X83114Y199953D01*
X83113Y199983D01*
X83121Y200025D01*
X83121Y209550D01*
X83109Y209600D01*
X83107Y209651D01*
X83090Y209683D01*
X83081Y209719D01*
X83049Y209758D01*
X83024Y209803D01*
X82994Y209824D01*
X82971Y209852D01*
X82924Y209873D01*
X82883Y209903D01*
X82841Y209911D01*
X82813Y209923D01*
X82782Y209922D01*
X82741Y209930D01*
X67501Y209930D01*
X67451Y209919D01*
X67400Y209917D01*
X67368Y209899D01*
X67332Y209891D01*
X67292Y209858D01*
X67248Y209834D01*
X67227Y209804D01*
X67198Y209781D01*
X67177Y209734D01*
X67148Y209692D01*
X67140Y209650D01*
X67127Y209622D01*
X67128Y209605D01*
X67127Y209604D01*
X67128Y209589D01*
X67120Y209550D01*
X67120Y200025D01*
X67132Y199975D01*
X67134Y199924D01*
X67151Y199892D01*
X67160Y199856D01*
X67192Y199817D01*
X67217Y199772D01*
X67247Y199751D01*
X67270Y199723D01*
X67317Y199702D01*
X67358Y199672D01*
X67400Y199664D01*
X67428Y199652D01*
X67459Y199653D01*
X67501Y199645D01*
X82741Y199645D01*
X82790Y199656D01*
G37*
G36*
X82790Y72593D02*
X82790Y72593D01*
X82841Y72595D01*
X82873Y72612D01*
X82909Y72621D01*
X82949Y72653D01*
X82993Y72678D01*
X83015Y72708D01*
X83043Y72731D01*
X83064Y72778D01*
X83093Y72819D01*
X83101Y72861D01*
X83114Y72889D01*
X83113Y72920D01*
X83121Y72962D01*
X83121Y80963D01*
X83109Y81012D01*
X83107Y81063D01*
X83090Y81095D01*
X83081Y81131D01*
X83049Y81171D01*
X83024Y81215D01*
X82994Y81237D01*
X82971Y81265D01*
X82924Y81286D01*
X82883Y81315D01*
X82841Y81323D01*
X82813Y81336D01*
X82782Y81335D01*
X82741Y81343D01*
X65215Y81343D01*
X65165Y81331D01*
X65114Y81329D01*
X65082Y81312D01*
X65046Y81303D01*
X65006Y81271D01*
X64962Y81246D01*
X64941Y81216D01*
X64912Y81193D01*
X64891Y81146D01*
X64862Y81105D01*
X64854Y81063D01*
X64841Y81035D01*
X64842Y81020D01*
X64841Y81019D01*
X64842Y81002D01*
X64834Y80963D01*
X64834Y72962D01*
X64846Y72912D01*
X64848Y72861D01*
X64865Y72829D01*
X64874Y72793D01*
X64906Y72753D01*
X64931Y72709D01*
X64961Y72688D01*
X64984Y72659D01*
X65031Y72638D01*
X65072Y72609D01*
X65114Y72601D01*
X65142Y72588D01*
X65173Y72589D01*
X65215Y72581D01*
X82741Y72581D01*
X82790Y72593D01*
G37*
G36*
X75689Y98062D02*
X75689Y98062D01*
X75764Y98075D01*
X75774Y98082D01*
X75784Y98084D01*
X75789Y98088D01*
X79414Y98088D01*
X79436Y98072D01*
X79448Y98070D01*
X79457Y98065D01*
X79494Y98061D01*
X79579Y98045D01*
X82233Y98045D01*
X82282Y98056D01*
X82333Y98058D01*
X82365Y98076D01*
X82401Y98084D01*
X82441Y98117D01*
X82485Y98141D01*
X82507Y98171D01*
X82535Y98194D01*
X82556Y98241D01*
X82585Y98283D01*
X82593Y98325D01*
X82606Y98353D01*
X82605Y98383D01*
X82613Y98425D01*
X82613Y106363D01*
X82601Y106412D01*
X82599Y106463D01*
X82582Y106495D01*
X82573Y106531D01*
X82541Y106571D01*
X82516Y106615D01*
X82486Y106637D01*
X82463Y106665D01*
X82416Y106686D01*
X82375Y106715D01*
X82333Y106723D01*
X82305Y106736D01*
X82274Y106735D01*
X82233Y106743D01*
X65040Y106743D01*
X64990Y106731D01*
X64939Y106729D01*
X64907Y106712D01*
X64871Y106703D01*
X64831Y106671D01*
X64787Y106646D01*
X64766Y106616D01*
X64737Y106593D01*
X64716Y106546D01*
X64687Y106505D01*
X64679Y106463D01*
X64666Y106435D01*
X64667Y106404D01*
X64659Y106363D01*
X64659Y98425D01*
X64671Y98375D01*
X64673Y98324D01*
X64690Y98292D01*
X64699Y98256D01*
X64731Y98217D01*
X64756Y98172D01*
X64786Y98151D01*
X64809Y98123D01*
X64856Y98102D01*
X64897Y98072D01*
X64939Y98064D01*
X64967Y98052D01*
X64998Y98053D01*
X65040Y98045D01*
X75615Y98045D01*
X75689Y98062D01*
G37*
G36*
X75689Y225062D02*
X75689Y225062D01*
X75764Y225075D01*
X75774Y225082D01*
X75784Y225084D01*
X75789Y225088D01*
X79414Y225088D01*
X79436Y225072D01*
X79448Y225070D01*
X79457Y225065D01*
X79494Y225061D01*
X79579Y225045D01*
X82741Y225045D01*
X82790Y225056D01*
X82841Y225058D01*
X82873Y225076D01*
X82909Y225084D01*
X82949Y225117D01*
X82993Y225141D01*
X83015Y225171D01*
X83043Y225194D01*
X83064Y225241D01*
X83093Y225283D01*
X83101Y225325D01*
X83114Y225353D01*
X83113Y225383D01*
X83121Y225425D01*
X83121Y234950D01*
X83109Y235000D01*
X83107Y235051D01*
X83090Y235083D01*
X83081Y235119D01*
X83049Y235158D01*
X83024Y235203D01*
X82994Y235224D01*
X82971Y235252D01*
X82924Y235273D01*
X82883Y235303D01*
X82841Y235311D01*
X82813Y235323D01*
X82782Y235322D01*
X82741Y235330D01*
X70041Y235330D01*
X69991Y235319D01*
X69940Y235317D01*
X69908Y235299D01*
X69872Y235291D01*
X69832Y235258D01*
X69788Y235234D01*
X69767Y235204D01*
X69738Y235181D01*
X69717Y235134D01*
X69688Y235092D01*
X69680Y235050D01*
X69667Y235022D01*
X69668Y235005D01*
X69667Y235004D01*
X69668Y234989D01*
X69660Y234950D01*
X69660Y225425D01*
X69672Y225375D01*
X69674Y225324D01*
X69691Y225292D01*
X69700Y225256D01*
X69732Y225217D01*
X69757Y225172D01*
X69787Y225151D01*
X69810Y225123D01*
X69857Y225102D01*
X69898Y225072D01*
X69940Y225064D01*
X69968Y225052D01*
X69999Y225053D01*
X70041Y225045D01*
X75615Y225045D01*
X75689Y225062D01*
G37*
G36*
X82790Y175844D02*
X82790Y175844D01*
X82841Y175846D01*
X82873Y175863D01*
X82909Y175872D01*
X82949Y175904D01*
X82993Y175929D01*
X83015Y175959D01*
X83043Y175982D01*
X83064Y176029D01*
X83093Y176070D01*
X83101Y176112D01*
X83114Y176140D01*
X83113Y176171D01*
X83121Y176213D01*
X83121Y184150D01*
X83109Y184200D01*
X83107Y184251D01*
X83090Y184283D01*
X83081Y184319D01*
X83049Y184358D01*
X83024Y184403D01*
X82994Y184424D01*
X82971Y184452D01*
X82924Y184473D01*
X82883Y184503D01*
X82841Y184511D01*
X82813Y184523D01*
X82782Y184522D01*
X82741Y184530D01*
X67691Y184530D01*
X67641Y184519D01*
X67590Y184517D01*
X67558Y184499D01*
X67522Y184491D01*
X67483Y184458D01*
X67438Y184434D01*
X67417Y184404D01*
X67389Y184381D01*
X67368Y184334D01*
X67338Y184292D01*
X67330Y184250D01*
X67318Y184222D01*
X67319Y184192D01*
X67311Y184150D01*
X67311Y176213D01*
X67322Y176163D01*
X67324Y176112D01*
X67342Y176080D01*
X67350Y176044D01*
X67383Y176004D01*
X67407Y175960D01*
X67437Y175939D01*
X67460Y175910D01*
X67507Y175889D01*
X67549Y175860D01*
X67591Y175852D01*
X67619Y175839D01*
X67649Y175840D01*
X67691Y175832D01*
X82741Y175832D01*
X82790Y175844D01*
G37*
G36*
X23862Y250456D02*
X23862Y250456D01*
X23913Y250458D01*
X23945Y250476D01*
X23981Y250484D01*
X24021Y250517D01*
X24065Y250541D01*
X24087Y250571D01*
X24115Y250594D01*
X24136Y250641D01*
X24165Y250683D01*
X24173Y250725D01*
X24186Y250753D01*
X24185Y250783D01*
X24193Y250825D01*
X24193Y258763D01*
X24181Y258812D01*
X24179Y258863D01*
X24162Y258895D01*
X24153Y258931D01*
X24121Y258971D01*
X24096Y259015D01*
X24066Y259037D01*
X24043Y259065D01*
X23996Y259086D01*
X23955Y259115D01*
X23913Y259123D01*
X23885Y259136D01*
X23854Y259135D01*
X23813Y259143D01*
X10287Y259143D01*
X10237Y259131D01*
X10186Y259129D01*
X10154Y259112D01*
X10118Y259103D01*
X10079Y259071D01*
X10034Y259046D01*
X10013Y259016D01*
X9985Y258993D01*
X9964Y258946D01*
X9934Y258905D01*
X9926Y258863D01*
X9914Y258835D01*
X9915Y258804D01*
X9907Y258763D01*
X9907Y250825D01*
X9918Y250775D01*
X9920Y250724D01*
X9938Y250692D01*
X9946Y250656D01*
X9979Y250617D01*
X10003Y250572D01*
X10033Y250551D01*
X10056Y250523D01*
X10103Y250502D01*
X10145Y250472D01*
X10187Y250464D01*
X10215Y250452D01*
X10245Y250453D01*
X10287Y250445D01*
X23813Y250445D01*
X23862Y250456D01*
G37*
%LPC*%
G36*
X101407Y79839D02*
X101407Y79839D01*
X98889Y82357D01*
X98889Y85918D01*
X99835Y86864D01*
X99872Y86918D01*
X99917Y86966D01*
X99936Y87009D01*
X99963Y87048D01*
X99979Y87112D01*
X100005Y87173D01*
X100007Y87220D01*
X100019Y87266D01*
X100012Y87331D01*
X100015Y87397D01*
X100000Y87442D01*
X99995Y87489D01*
X99966Y87548D01*
X99946Y87610D01*
X99914Y87654D01*
X99896Y87690D01*
X99867Y87717D01*
X99835Y87761D01*
X97301Y90294D01*
X97301Y93856D01*
X99819Y96374D01*
X103381Y96374D01*
X105899Y93856D01*
X105899Y90294D01*
X104953Y89349D01*
X104915Y89294D01*
X104870Y89247D01*
X104852Y89203D01*
X104825Y89164D01*
X104808Y89101D01*
X104783Y89040D01*
X104781Y88993D01*
X104769Y88947D01*
X104776Y88882D01*
X104773Y88816D01*
X104787Y88771D01*
X104792Y88724D01*
X104821Y88665D01*
X104841Y88602D01*
X104874Y88558D01*
X104891Y88523D01*
X104920Y88496D01*
X104953Y88452D01*
X107486Y85918D01*
X107486Y82357D01*
X104968Y79839D01*
X101407Y79839D01*
G37*
%LPD*%
%LPC*%
G36*
X-82919Y199613D02*
X-82919Y199613D01*
X-83812Y200506D01*
X-83812Y208769D01*
X-82919Y209662D01*
X-72656Y209662D01*
X-71763Y208769D01*
X-71763Y200506D01*
X-72656Y199613D01*
X-82919Y199613D01*
G37*
%LPD*%
%LPC*%
G36*
X20268Y71025D02*
X20268Y71025D01*
X19375Y71918D01*
X19375Y80182D01*
X20268Y81075D01*
X30532Y81075D01*
X31425Y80182D01*
X31425Y71918D01*
X30532Y71025D01*
X20268Y71025D01*
G37*
%LPD*%
%LPC*%
G36*
X-82919Y225013D02*
X-82919Y225013D01*
X-83812Y225906D01*
X-83812Y234169D01*
X-82919Y235062D01*
X-72656Y235062D01*
X-71763Y234169D01*
X-71763Y225906D01*
X-72656Y225013D01*
X-82919Y225013D01*
G37*
%LPD*%
%LPC*%
G36*
X-105222Y229064D02*
X-105222Y229064D01*
X-107740Y231582D01*
X-107740Y235143D01*
X-106413Y236470D01*
X-106376Y236524D01*
X-106331Y236572D01*
X-106312Y236615D01*
X-106285Y236654D01*
X-106269Y236718D01*
X-106243Y236779D01*
X-106241Y236826D01*
X-106229Y236871D01*
X-106236Y236937D01*
X-106233Y237003D01*
X-106248Y237048D01*
X-106253Y237095D01*
X-106282Y237154D01*
X-106302Y237216D01*
X-106335Y237260D01*
X-106352Y237296D01*
X-106381Y237323D01*
X-106413Y237367D01*
X-107994Y238948D01*
X-107994Y242509D01*
X-105476Y245027D01*
X-101915Y245027D01*
X-99397Y242509D01*
X-99397Y238948D01*
X-100724Y237621D01*
X-100761Y237567D01*
X-100806Y237519D01*
X-100825Y237476D01*
X-100852Y237437D01*
X-100868Y237373D01*
X-100894Y237312D01*
X-100896Y237265D01*
X-100908Y237219D01*
X-100901Y237154D01*
X-100904Y237088D01*
X-100889Y237043D01*
X-100884Y236996D01*
X-100855Y236937D01*
X-100835Y236875D01*
X-100803Y236831D01*
X-100785Y236795D01*
X-100756Y236768D01*
X-100724Y236724D01*
X-99143Y235143D01*
X-99143Y231582D01*
X-101661Y229064D01*
X-105222Y229064D01*
G37*
%LPD*%
%LPC*%
G36*
X99819Y267164D02*
X99819Y267164D01*
X97301Y269682D01*
X97301Y273243D01*
X99819Y275761D01*
X103381Y275761D01*
X105899Y273243D01*
X105899Y269682D01*
X103381Y267164D01*
X99819Y267164D01*
G37*
%LPD*%
%LPC*%
G36*
X-105476Y199409D02*
X-105476Y199409D01*
X-107994Y201927D01*
X-107994Y205489D01*
X-105476Y208007D01*
X-101915Y208007D01*
X-99397Y205489D01*
X-99397Y201927D01*
X-101915Y199409D01*
X-105476Y199409D01*
G37*
%LPD*%
%LPC*%
G36*
X-104968Y211601D02*
X-104968Y211601D01*
X-107486Y214119D01*
X-107486Y217681D01*
X-104968Y220199D01*
X-101407Y220199D01*
X-98889Y217681D01*
X-98889Y214119D01*
X-101407Y211601D01*
X-104968Y211601D01*
G37*
%LPD*%
%LPC*%
G36*
X14475Y98317D02*
X14475Y98317D01*
X11957Y100835D01*
X11957Y104397D01*
X14475Y106915D01*
X18037Y106915D01*
X20555Y104397D01*
X20555Y100835D01*
X18037Y98317D01*
X14475Y98317D01*
G37*
%LPD*%
%LPC*%
G36*
X16761Y225571D02*
X16761Y225571D01*
X14243Y228089D01*
X14243Y231651D01*
X16761Y234169D01*
X20323Y234169D01*
X22841Y231651D01*
X22841Y228089D01*
X20323Y225571D01*
X16761Y225571D01*
G37*
%LPD*%
D10*
X-28725Y220663D03*
X-15725Y220663D03*
X-6500Y106363D03*
X6500Y106363D03*
X-6500Y96838D03*
X6500Y96838D03*
X-28725Y211138D03*
X-15725Y211138D03*
X-28725Y203200D03*
X-15725Y203200D03*
X-28725Y230188D03*
X-15725Y230188D03*
X27138Y239713D03*
X14138Y239713D03*
D11*
X-26988Y243913D03*
X-26988Y260913D03*
D12*
X15875Y295275D03*
D13*
X-25400Y33338D03*
X0Y33338D03*
X25400Y33338D03*
D10*
X-31900Y284163D03*
X-18900Y284163D03*
D14*
X-1588Y244625D03*
X-1588Y231625D03*
D10*
X-7788Y53975D03*
X-20788Y53975D03*
D15*
X-27507Y186200D03*
X-22506Y186200D03*
X-17504Y186200D03*
X-12503Y186200D03*
X-7502Y186200D03*
X-2501Y186200D03*
X2501Y186200D03*
X7502Y186200D03*
X12503Y186200D03*
X17504Y186200D03*
X22506Y186200D03*
X27507Y186200D03*
D16*
X33800Y179907D03*
X33800Y174906D03*
X33800Y169904D03*
X33800Y164903D03*
X33800Y159902D03*
X33800Y154901D03*
X33800Y149899D03*
X33800Y144898D03*
X33800Y139897D03*
X33800Y134896D03*
X33800Y129894D03*
X33800Y124893D03*
D15*
X27507Y118600D03*
X22506Y118600D03*
X17504Y118600D03*
X12503Y118600D03*
X7502Y118600D03*
X2501Y118600D03*
X-2501Y118600D03*
X-7502Y118600D03*
X-12503Y118600D03*
X-17504Y118600D03*
X-22506Y118600D03*
X-27507Y118600D03*
D16*
X-33800Y124893D03*
X-33800Y129894D03*
X-33800Y134896D03*
X-33800Y139897D03*
X-33800Y144898D03*
X-33800Y149899D03*
X-33800Y154901D03*
X-33800Y159902D03*
X-33800Y164903D03*
X-33800Y169904D03*
X-33800Y174906D03*
X-33800Y179907D03*
D17*
X0Y152400D03*
D18*
X21525Y207963D03*
X9525Y207963D03*
X-2475Y207963D03*
D19*
X-16Y338266D03*
X143067Y255638D03*
X143084Y90409D03*
X16Y7809D03*
X-143067Y90438D03*
X-143084Y255666D03*
X71551Y296908D03*
X143051Y173067D03*
X71550Y49109D03*
X-71551Y49167D03*
X-143051Y173008D03*
X-71550Y296966D03*
D20*
X138113Y138113D03*
X138113Y112713D03*
X-138113Y233363D03*
X-138113Y207963D03*
X-138113Y138113D03*
X-138113Y112713D03*
X138113Y233363D03*
X138113Y207963D03*
D14*
X-77788Y230038D03*
X-77788Y243038D03*
X52388Y153838D03*
X52388Y166838D03*
X19050Y255438D03*
X19050Y268438D03*
X77788Y257025D03*
X77788Y270025D03*
D21*
X-121138Y118050D03*
D22*
X-117638Y118300D03*
X-114138Y118300D03*
X-110638Y118300D03*
X-110638Y110300D03*
X-114138Y110300D03*
X-117638Y110300D03*
X-121138Y110300D03*
D10*
G36*
X-118253Y130089D02*
X-121753Y124027D01*
X-129547Y128527D01*
X-126047Y134589D01*
X-118253Y130089D01*
G37*
G36*
X-111753Y141348D02*
X-115253Y135286D01*
X-123047Y139786D01*
X-119547Y145848D01*
X-111753Y141348D01*
G37*
D14*
X-125413Y100163D03*
X-125413Y87163D03*
X-78581Y94025D03*
X-78581Y81025D03*
D10*
X-112069Y87100D03*
X-99069Y87100D03*
D14*
X77788Y204638D03*
X77788Y217638D03*
X-77788Y257025D03*
X-77788Y270025D03*
X77788Y103038D03*
X77788Y116038D03*
X77788Y128438D03*
X77788Y141438D03*
X77788Y230038D03*
X77788Y243038D03*
X-77788Y204638D03*
X-77788Y217638D03*
X-65088Y128438D03*
X-65088Y141438D03*
X25400Y76050D03*
X25400Y89050D03*
X-77788Y180825D03*
X-77788Y193825D03*
X-77788Y155425D03*
X-77788Y168425D03*
X-77788Y128438D03*
X-77788Y141438D03*
X-77788Y104625D03*
X-77788Y117625D03*
X-57150Y77638D03*
X-57150Y90638D03*
X-58738Y103038D03*
X-58738Y116038D03*
X77788Y77638D03*
X77788Y90638D03*
X77788Y179238D03*
X77788Y192238D03*
D23*
X11000Y84138D03*
X-11000Y84138D03*
D24*
X-2501Y110362D02*
X-2501Y118600D01*
X-2501Y110362D02*
X-6500Y106363D01*
D25*
X128588Y100013D03*
X120650Y93663D03*
X29782Y48006D03*
X-34798Y50292D03*
X-144463Y125413D03*
X-109284Y69533D03*
X120650Y153988D03*
X111125Y153988D03*
X129921Y244475D03*
X122238Y244475D03*
X19050Y328613D03*
X12700Y322263D03*
X-6350Y280988D03*
D26*
X-26425Y260913D01*
X-26988Y260913D01*
D25*
X21825Y48050D03*
D26*
X-5644Y91823D02*
X-6500Y92679D01*
X-5644Y91823D02*
X-5644Y84138D01*
X-5644Y75519D01*
X21825Y48050D01*
D27*
X-122238Y133350D03*
D28*
X-122238Y130971D01*
X-123900Y129308D01*
X-110638Y110300D02*
X-110638Y107125D01*
X-107188Y107125D02*
X-106363Y107950D01*
X-107188Y107125D02*
X-110638Y107125D01*
D29*
X-106363Y107950D03*
D26*
X-6500Y106363D02*
X-6500Y96838D01*
X-6500Y92679D01*
X-5644Y84138D02*
X-11000Y84138D01*
D28*
X-122154Y124908D02*
X-122154Y126546D01*
X-121138Y123892D02*
X-121138Y118050D01*
X-121138Y123892D02*
X-122154Y124908D01*
X-122154Y126546D02*
X-123900Y128292D01*
X-123900Y129308D01*
D24*
X2460Y118559D02*
X2501Y118600D01*
X2460Y118559D02*
X2460Y113064D01*
X6500Y109024D02*
X6500Y106363D01*
X6500Y109024D02*
X2460Y113064D01*
D25*
X-117475Y257175D03*
D30*
X-90742Y274384D03*
D27*
X-125413Y141288D03*
D26*
X6500Y88638D02*
X11000Y84138D01*
X6500Y88638D02*
X6500Y96838D01*
D29*
X-38481Y273876D03*
X-90170Y248158D03*
X-1524Y248666D03*
X38735Y273622D03*
X91567Y274384D03*
D31*
X-1588Y248603D02*
X-1588Y244625D01*
X-1588Y248603D02*
X-1524Y248666D01*
D29*
X127Y170752D03*
X-77851Y171006D03*
X52197Y171006D03*
D25*
X-127Y47117D03*
D29*
X25527Y145860D03*
X-51689Y145098D03*
X77851Y145352D03*
X77597Y220790D03*
X127Y220790D03*
X-77597Y220790D03*
X-51689Y119952D03*
X-77597Y195390D03*
X51943Y195390D03*
X-51689Y93790D03*
X26035Y93536D03*
X77597Y93790D03*
X51689Y119190D03*
D25*
X381Y296037D03*
X3937Y284861D03*
D29*
X-51259Y66252D03*
D28*
X-37601Y144898D02*
X-33800Y144898D01*
X-43322Y139177D02*
X-43322Y74190D01*
X-51259Y66252D01*
X-43322Y139177D02*
X-37601Y144898D01*
X-37205Y139897D02*
X-33800Y139897D01*
X-37205Y139897D02*
X-39370Y137732D01*
X-39370Y63885D01*
X-54088Y49167D01*
X-71551Y49167D01*
X33800Y134896D02*
X34230Y134466D01*
X53845Y134466D01*
D29*
X59896Y71396D03*
D28*
X59896Y74444D02*
X62119Y76666D01*
X59896Y74444D02*
X59896Y71396D01*
X62119Y76666D02*
X62119Y126193D01*
X53845Y134466D01*
D29*
X-125883Y150579D03*
D28*
X-53332Y164903D02*
X-33800Y164903D01*
X-53332Y164903D02*
X-56262Y161973D01*
X-92264Y161973D02*
X-103658Y150579D01*
X-125883Y150579D01*
X-92264Y161973D02*
X-56262Y161973D01*
X71550Y49276D02*
X71550Y49109D01*
X71550Y49276D02*
X71550Y51141D01*
X53029Y129894D02*
X33800Y129894D01*
X53029Y129894D02*
X58309Y124615D01*
X58309Y78244D01*
X54328Y69089D02*
X54356Y69061D01*
X54328Y74264D02*
X58309Y78244D01*
X54328Y74264D02*
X54328Y69089D01*
X54356Y66470D02*
X71550Y49276D01*
X54356Y66470D02*
X54356Y69061D01*
X-33800Y169904D02*
X-46079Y169904D01*
X-63493Y187318D01*
X-128741Y187318D02*
X-143051Y173008D01*
X-128741Y187318D02*
X-63493Y187318D01*
D24*
X-30725Y240175D02*
X-26988Y243913D01*
X-30725Y240175D02*
X-30725Y230188D01*
X2287Y186414D02*
X2501Y186200D01*
X2287Y186414D02*
X2287Y194831D01*
X-543Y197661D02*
X-5843Y197661D01*
X-11382Y203200D02*
X-15725Y203200D01*
X-11382Y203200D02*
X-5843Y197661D01*
X-543Y197661D02*
X2287Y194831D01*
D29*
X117945Y182796D03*
D28*
X117945Y178986D01*
X106046Y167087D01*
X69989Y167087D01*
X55644Y181431D02*
X35324Y181431D01*
X33800Y179907D01*
X55644Y181431D02*
X69989Y167087D01*
X-33800Y174906D02*
X-44767Y174906D01*
X-44845Y174828D01*
X-59500Y189482D01*
D29*
X-100013Y280988D03*
D28*
X-59500Y256858D02*
X-59500Y189482D01*
X-59500Y256858D02*
X-65961Y263319D01*
X-94420Y263319D01*
X-96782Y265680D01*
X-96782Y277757D02*
X-100013Y280988D01*
X-96782Y277757D02*
X-96782Y265680D01*
X45484Y176684D02*
X54801Y176684D01*
X45484Y176684D02*
X43706Y174906D01*
X33800Y174906D01*
X133035Y173067D02*
X143051Y173067D01*
X133035Y173067D02*
X123219Y163251D01*
X68234Y163251D02*
X54801Y176684D01*
X68234Y163251D02*
X123219Y163251D01*
X-55690Y281105D02*
X-71550Y296966D01*
X-42758Y179907D02*
X-33800Y179907D01*
X-42758Y179907D02*
X-55690Y192838D01*
X-55690Y281105D01*
D29*
X51106Y281411D03*
D28*
X47931Y278236D02*
X47931Y215573D01*
X47931Y278236D02*
X51106Y281411D01*
X47931Y215573D02*
X22427Y190069D01*
X22427Y186279D02*
X22506Y186200D01*
X22427Y186279D02*
X22427Y190069D01*
X27507Y189375D02*
X51802Y213670D01*
X27507Y189375D02*
X27507Y186200D01*
X71551Y291701D02*
X71551Y296908D01*
X71551Y291701D02*
X51802Y271953D01*
X51802Y213670D01*
D32*
X-18900Y284163D02*
X-28456Y293719D01*
X-31496Y293719D01*
D27*
X-31496Y293719D03*
D28*
X21525Y207963D02*
X21525Y204429D01*
X12503Y195408D01*
X12503Y186200D01*
X7502Y195723D02*
X-2475Y205699D01*
X-2475Y207963D01*
X7502Y195723D02*
X7502Y186200D01*
X-27507Y118600D02*
X-27507Y58738D01*
X-27507Y35445D01*
X-25400Y33338D01*
X-22745Y53975D02*
X-20788Y53975D01*
X-22745Y53975D02*
X-27507Y58738D01*
X-22506Y81244D02*
X-22506Y118600D01*
X-22506Y81244D02*
X25400Y33338D01*
X17504Y186200D02*
X17504Y190963D01*
X26988Y200446D01*
X26838Y286645D02*
X18208Y295275D01*
X15875Y295275D01*
X26988Y240702D02*
X27138Y239713D01*
X26988Y240702D02*
X26988Y200446D01*
X27138Y239713D02*
X26838Y242236D01*
X26838Y286645D01*
D29*
X-110510Y96652D03*
D28*
X-110572Y96652D01*
X-108732Y96652D02*
X-106528Y94449D01*
X-108732Y96652D02*
X-110510Y96652D01*
X-106528Y94449D02*
X-97432Y94449D01*
X-95607Y96274D01*
X-80830Y96274D01*
X-78581Y94025D01*
X-114138Y100217D02*
X-114138Y110300D01*
X-114138Y100217D02*
X-110572Y96652D01*
D29*
X-112925Y88256D03*
D28*
X-112925Y87956D02*
X-112069Y87100D01*
X-112925Y87956D02*
X-112925Y88256D01*
X-117638Y92969D02*
X-117638Y110300D01*
X-117638Y92969D02*
X-112925Y88256D01*
D29*
X103188Y84138D03*
X-104966Y115253D03*
X101600Y92075D03*
X-97600Y116142D03*
X103188Y109538D03*
X-100838Y134620D03*
X-98425Y141796D03*
X103442Y118237D03*
X-103188Y160338D03*
X104140Y125540D03*
X-103188Y168275D03*
X101600Y142875D03*
X-103188Y176213D03*
X103442Y150559D03*
X-103188Y193675D03*
X101029Y172911D03*
X-103696Y203708D03*
X105156Y193294D03*
X-103188Y215900D03*
X104140Y201803D03*
X-103442Y233363D03*
X103188Y209741D03*
X103188Y219075D03*
X-103696Y240729D03*
X104775Y228600D03*
X-102997Y259334D03*
X-102997Y266827D03*
X106299Y236855D03*
X105537Y244602D03*
D28*
X118301Y233363D02*
X138113Y233363D01*
X118301Y233363D02*
X107061Y244602D01*
X105537Y244602D01*
D29*
X101600Y271463D03*
D28*
X-121138Y110300D02*
X-121138Y104438D01*
X-125413Y100163D01*
X-125413Y117296D01*
X-132781Y132781D02*
X-138113Y138113D01*
X-132781Y132781D02*
X-132781Y124664D01*
X-125413Y117296D01*
D29*
X15748Y255016D03*
X68326Y255016D03*
X-77978Y256032D03*
X-77978Y229870D03*
X73406Y229870D03*
X18542Y229870D03*
X-77978Y179832D03*
X70358Y179070D03*
X70866Y204470D03*
X-78232Y204724D03*
X69088Y128524D03*
X68326Y102616D03*
X68326Y76962D03*
X-60960Y77724D03*
X-87630Y102870D03*
X-62992Y102616D03*
X51308Y153416D03*
X25146Y76454D03*
X-77978Y154686D03*
X-77470Y127762D03*
X-36830Y204724D03*
X16256Y102616D03*
D28*
X25146Y76304D02*
X25400Y76050D01*
X25146Y76304D02*
X25146Y76454D01*
X-77788Y256223D02*
X-77788Y257025D01*
X-77788Y256223D02*
X-77978Y256032D01*
X-77788Y204638D02*
X-78146Y204638D01*
X-78232Y204724D01*
X-77788Y230038D02*
X-77811Y230038D01*
X-77978Y229870D01*
X-77788Y180825D02*
X-77978Y180635D01*
X-77978Y179832D01*
X-77788Y155425D02*
X-77978Y155235D01*
X-77978Y154686D01*
D27*
X-103442Y88075D03*
D28*
X-103442Y86673D01*
X-99069Y87100D01*
D27*
X-92202Y70612D03*
D28*
X-91948Y70358D02*
X-79931Y82375D01*
X-91948Y70358D02*
X-92202Y70612D01*
X-79931Y82375D02*
X-78581Y81025D01*
X-45754Y159902D02*
X-33800Y159902D01*
X-45754Y159902D02*
X-56692Y148964D01*
X-99674Y148964D01*
X-105192Y143446D01*
X-105192Y138112D01*
X-117638Y125666D02*
X-117638Y118300D01*
X-117638Y125666D02*
X-105192Y138112D01*
X-38242Y149899D02*
X-33800Y149899D01*
X-38242Y149899D02*
X-53204Y134938D01*
X-83721Y134938D01*
X-89690Y128968D02*
X-108296Y128968D01*
X-114138Y123126D01*
X-114138Y118300D01*
X-89690Y128968D02*
X-83721Y134938D01*
X-35086Y186200D02*
X-27507Y186200D01*
X-35086Y186200D02*
X-35493Y185794D01*
X-40707Y185794D01*
X-51880Y196966D01*
X-51880Y268986D01*
X-36703Y284163D02*
X-31900Y284163D01*
X-36703Y284163D02*
X-51880Y268986D01*
M02*
