G04 EAGLE Gerber RS-274X export*
G75*
%MOMM*%
%FSLAX34Y34*%
%LPD*%
%INCopper Layer 2*%
%IPPOS*%
%AMOC8*
5,1,8,0,0,1.08239X$1,22.5*%
G01*
%ADD10C,1.524000*%
%ADD11C,1.530000*%
%ADD12C,0.654800*%
%ADD13C,0.604800*%
%ADD14C,0.554800*%
%ADD15C,0.304800*%
%ADD16C,0.508000*%

G36*
X65917Y65403D02*
X65917Y65403D01*
X66059Y65408D01*
X79328Y67936D01*
X79390Y67959D01*
X79455Y67974D01*
X79501Y68002D01*
X79538Y68016D01*
X79567Y68042D01*
X79615Y68071D01*
X98660Y83908D01*
X98706Y83963D01*
X98759Y84011D01*
X98778Y84048D01*
X98804Y84080D01*
X98828Y84147D01*
X98861Y84210D01*
X98868Y84258D01*
X98880Y84291D01*
X98880Y84324D01*
X98882Y84331D01*
X98881Y84346D01*
X98889Y84396D01*
X98889Y85918D01*
X99835Y86864D01*
X99872Y86918D01*
X99917Y86966D01*
X99936Y87009D01*
X99963Y87048D01*
X99979Y87112D01*
X100005Y87173D01*
X100007Y87220D01*
X100019Y87265D01*
X100012Y87331D01*
X100015Y87397D01*
X100000Y87442D01*
X99995Y87489D01*
X99966Y87548D01*
X99946Y87610D01*
X99913Y87654D01*
X99896Y87690D01*
X99867Y87717D01*
X99835Y87761D01*
X97301Y90294D01*
X97301Y93856D01*
X99819Y96374D01*
X103381Y96374D01*
X105899Y93856D01*
X105899Y91280D01*
X105909Y91220D01*
X105910Y91160D01*
X105929Y91111D01*
X105938Y91059D01*
X105969Y91007D01*
X105991Y90951D01*
X106026Y90911D01*
X106053Y90865D01*
X106099Y90827D01*
X106139Y90782D01*
X106186Y90757D01*
X106227Y90724D01*
X106284Y90705D01*
X106337Y90676D01*
X106389Y90669D01*
X106439Y90652D01*
X106499Y90654D01*
X106559Y90646D01*
X106611Y90657D01*
X106664Y90659D01*
X106719Y90681D01*
X106778Y90695D01*
X106832Y90727D01*
X106871Y90743D01*
X106898Y90767D01*
X106939Y90792D01*
X114773Y97307D01*
X114776Y97310D01*
X114781Y97313D01*
X115462Y97897D01*
X115463Y97898D01*
X116202Y98532D01*
X116203Y98532D01*
X117682Y99800D01*
X118422Y100434D01*
X118422Y100435D01*
X119902Y101703D01*
X120642Y102337D01*
X122122Y103606D01*
X122862Y104240D01*
X124342Y105508D01*
X124342Y105509D01*
X125082Y106143D01*
X126562Y107411D01*
X127279Y108026D01*
X127291Y108041D01*
X127299Y108046D01*
X127302Y108050D01*
X127314Y108059D01*
X127934Y108678D01*
X127992Y108689D01*
X128008Y108698D01*
X128026Y108702D01*
X128050Y108718D01*
X128865Y108655D01*
X128966Y108665D01*
X129068Y108672D01*
X129078Y108676D01*
X129089Y108678D01*
X129179Y108722D01*
X129272Y108764D01*
X129280Y108772D01*
X129290Y108777D01*
X129360Y108850D01*
X129432Y108921D01*
X129437Y108931D01*
X129444Y108939D01*
X129484Y109033D01*
X129527Y109125D01*
X129528Y109136D01*
X129532Y109146D01*
X129537Y109247D01*
X129545Y109348D01*
X129542Y109360D01*
X129543Y109370D01*
X129529Y109413D01*
X129500Y109530D01*
X128938Y110888D01*
X128938Y114537D01*
X130335Y117910D01*
X132915Y120490D01*
X136288Y121887D01*
X139937Y121887D01*
X143310Y120490D01*
X145890Y117910D01*
X146752Y115829D01*
X146807Y115744D01*
X146858Y115657D01*
X146867Y115650D01*
X146874Y115640D01*
X146954Y115579D01*
X147032Y115516D01*
X147043Y115512D01*
X147053Y115505D01*
X147150Y115476D01*
X147245Y115444D01*
X147257Y115444D01*
X147268Y115441D01*
X147369Y115448D01*
X147469Y115451D01*
X147480Y115455D01*
X147492Y115456D01*
X147584Y115497D01*
X147677Y115535D01*
X147686Y115543D01*
X147697Y115548D01*
X147768Y115618D01*
X147842Y115686D01*
X147848Y115697D01*
X147856Y115705D01*
X147899Y115796D01*
X147945Y115886D01*
X147947Y115899D01*
X147951Y115908D01*
X147955Y115954D01*
X147973Y116071D01*
X147972Y147970D01*
X147957Y148057D01*
X147947Y148146D01*
X147937Y148167D01*
X147933Y148190D01*
X147887Y148267D01*
X147848Y148347D01*
X147831Y148363D01*
X147818Y148384D01*
X147749Y148440D01*
X147685Y148501D01*
X147663Y148510D01*
X147644Y148525D01*
X147560Y148554D01*
X147478Y148588D01*
X147454Y148589D01*
X147432Y148597D01*
X147343Y148594D01*
X147254Y148598D01*
X147231Y148591D01*
X147207Y148590D01*
X147125Y148557D01*
X147040Y148530D01*
X147019Y148514D01*
X147000Y148506D01*
X146962Y148472D01*
X146890Y148418D01*
X146271Y147800D01*
X146245Y147762D01*
X146196Y147710D01*
X145815Y147152D01*
X145772Y147144D01*
X145682Y147110D01*
X145591Y147081D01*
X145576Y147070D01*
X145562Y147064D01*
X145525Y147032D01*
X145440Y146969D01*
X145410Y146938D01*
X144734Y146938D01*
X144688Y146930D01*
X144617Y146927D01*
X143953Y146803D01*
X143917Y146827D01*
X143830Y146867D01*
X143744Y146911D01*
X143726Y146913D01*
X143712Y146919D01*
X143663Y146923D01*
X143559Y146938D01*
X106163Y146938D01*
X106122Y146931D01*
X106079Y146933D01*
X106012Y146911D01*
X105942Y146899D01*
X105906Y146877D01*
X105866Y146864D01*
X105793Y146810D01*
X105749Y146784D01*
X105736Y146768D01*
X105715Y146752D01*
X105207Y146244D01*
X105169Y146190D01*
X105124Y146143D01*
X105106Y146099D01*
X105079Y146060D01*
X105062Y145997D01*
X105037Y145936D01*
X105035Y145889D01*
X105023Y145843D01*
X105030Y145778D01*
X105027Y145712D01*
X105041Y145667D01*
X105046Y145620D01*
X105075Y145561D01*
X105095Y145498D01*
X105128Y145454D01*
X105145Y145419D01*
X105174Y145392D01*
X105207Y145347D01*
X105899Y144656D01*
X105899Y141094D01*
X103381Y138576D01*
X99819Y138576D01*
X97301Y141094D01*
X97301Y144656D01*
X99835Y147189D01*
X99872Y147243D01*
X99917Y147291D01*
X99936Y147334D01*
X99963Y147373D01*
X99979Y147437D01*
X100005Y147498D01*
X100007Y147545D01*
X100019Y147590D01*
X100012Y147656D01*
X100015Y147722D01*
X100000Y147767D01*
X99995Y147814D01*
X99966Y147873D01*
X99946Y147935D01*
X99913Y147979D01*
X99896Y148015D01*
X99867Y148042D01*
X99835Y148086D01*
X99143Y148778D01*
X99143Y152339D01*
X101661Y154857D01*
X103541Y154857D01*
X103596Y154867D01*
X103651Y154867D01*
X103705Y154887D01*
X103762Y154897D01*
X103810Y154925D01*
X103862Y154944D01*
X103906Y154982D01*
X103955Y155011D01*
X103990Y155054D01*
X104032Y155090D01*
X104060Y155141D01*
X104097Y155185D01*
X104114Y155238D01*
X104141Y155286D01*
X104154Y155354D01*
X104169Y155398D01*
X104168Y155429D01*
X104175Y155471D01*
X104614Y168865D01*
X104600Y168964D01*
X104590Y169062D01*
X104584Y169074D01*
X104582Y169087D01*
X104534Y169175D01*
X104490Y169263D01*
X104481Y169273D01*
X104474Y169284D01*
X104399Y169350D01*
X104327Y169417D01*
X104315Y169423D01*
X104305Y169431D01*
X104212Y169466D01*
X104120Y169505D01*
X104107Y169505D01*
X104095Y169510D01*
X103995Y169510D01*
X103896Y169515D01*
X103884Y169511D01*
X103870Y169511D01*
X103777Y169476D01*
X103683Y169446D01*
X103671Y169438D01*
X103660Y169433D01*
X103624Y169403D01*
X103532Y169335D01*
X102809Y168612D01*
X99248Y168612D01*
X96730Y171130D01*
X96730Y174691D01*
X99248Y177209D01*
X102809Y177209D01*
X103787Y176231D01*
X103852Y176186D01*
X103912Y176134D01*
X103944Y176122D01*
X103972Y176103D01*
X104048Y176083D01*
X104122Y176055D01*
X104156Y176055D01*
X104189Y176047D01*
X104267Y176055D01*
X104346Y176055D01*
X104378Y176066D01*
X104412Y176070D01*
X104483Y176105D01*
X104557Y176132D01*
X104583Y176154D01*
X104613Y176169D01*
X104667Y176227D01*
X104727Y176278D01*
X104744Y176308D01*
X104767Y176333D01*
X104798Y176405D01*
X104836Y176474D01*
X104843Y176512D01*
X104855Y176539D01*
X104857Y176587D01*
X104870Y176659D01*
X105253Y188340D01*
X105242Y188416D01*
X105240Y188492D01*
X105226Y188526D01*
X105220Y188562D01*
X105184Y188629D01*
X105155Y188699D01*
X105131Y188727D01*
X105113Y188759D01*
X105055Y188809D01*
X105004Y188865D01*
X104971Y188882D01*
X104943Y188906D01*
X104872Y188933D01*
X104804Y188968D01*
X104763Y188974D01*
X104733Y188985D01*
X104687Y188985D01*
X104619Y188995D01*
X103375Y188995D01*
X100857Y191513D01*
X100857Y195075D01*
X102375Y196592D01*
X102412Y196646D01*
X102457Y196694D01*
X102476Y196737D01*
X102503Y196776D01*
X102519Y196840D01*
X102545Y196901D01*
X102547Y196948D01*
X102559Y196993D01*
X102552Y197059D01*
X102555Y197125D01*
X102540Y197170D01*
X102535Y197217D01*
X102506Y197276D01*
X102486Y197338D01*
X102453Y197382D01*
X102436Y197418D01*
X102407Y197445D01*
X102375Y197489D01*
X99841Y200022D01*
X99841Y203584D01*
X101105Y204847D01*
X101142Y204901D01*
X101187Y204949D01*
X101206Y204992D01*
X101233Y205031D01*
X101249Y205095D01*
X101275Y205156D01*
X101277Y205203D01*
X101289Y205248D01*
X101282Y205314D01*
X101285Y205380D01*
X101270Y205425D01*
X101265Y205472D01*
X101236Y205531D01*
X101216Y205593D01*
X101183Y205637D01*
X101166Y205673D01*
X101137Y205700D01*
X101105Y205744D01*
X98889Y207960D01*
X98889Y211521D01*
X101327Y213959D01*
X101365Y214013D01*
X101410Y214061D01*
X101428Y214105D01*
X101455Y214143D01*
X101471Y214207D01*
X101497Y214268D01*
X101499Y214315D01*
X101511Y214361D01*
X101504Y214426D01*
X101507Y214492D01*
X101493Y214537D01*
X101488Y214584D01*
X101459Y214643D01*
X101438Y214706D01*
X101406Y214750D01*
X101388Y214785D01*
X101360Y214812D01*
X101327Y214856D01*
X98889Y217294D01*
X98889Y220856D01*
X101407Y223374D01*
X102391Y223374D01*
X102478Y223390D01*
X102567Y223399D01*
X102588Y223409D01*
X102612Y223413D01*
X102688Y223459D01*
X102768Y223498D01*
X102784Y223515D01*
X102805Y223528D01*
X102861Y223597D01*
X102922Y223661D01*
X102931Y223683D01*
X102946Y223702D01*
X102975Y223786D01*
X103009Y223868D01*
X103010Y223892D01*
X103018Y223914D01*
X103015Y224003D01*
X103019Y224092D01*
X103012Y224115D01*
X103011Y224139D01*
X102978Y224221D01*
X102951Y224306D01*
X102935Y224327D01*
X102927Y224346D01*
X102893Y224384D01*
X102839Y224456D01*
X100476Y226819D01*
X100476Y230381D01*
X103137Y233041D01*
X103174Y233095D01*
X103219Y233143D01*
X103238Y233186D01*
X103265Y233225D01*
X103281Y233289D01*
X103307Y233350D01*
X103309Y233397D01*
X103321Y233442D01*
X103314Y233508D01*
X103317Y233574D01*
X103302Y233619D01*
X103297Y233666D01*
X103268Y233725D01*
X103248Y233787D01*
X103215Y233831D01*
X103198Y233867D01*
X103169Y233894D01*
X103137Y233938D01*
X102000Y235074D01*
X102000Y238636D01*
X103264Y239899D01*
X103301Y239953D01*
X103346Y240001D01*
X103365Y240044D01*
X103392Y240083D01*
X103408Y240147D01*
X103434Y240208D01*
X103436Y240255D01*
X103448Y240300D01*
X103441Y240366D01*
X103444Y240432D01*
X103429Y240477D01*
X103424Y240524D01*
X103395Y240583D01*
X103375Y240645D01*
X103342Y240689D01*
X103325Y240725D01*
X103296Y240752D01*
X103264Y240796D01*
X101238Y242821D01*
X101238Y244161D01*
X101235Y244176D01*
X101237Y244192D01*
X101216Y244287D01*
X101199Y244382D01*
X101190Y244395D01*
X101187Y244411D01*
X101088Y244570D01*
X90572Y256999D01*
X90535Y257029D01*
X90452Y257108D01*
X56404Y281068D01*
X56372Y281083D01*
X56345Y281105D01*
X56271Y281130D01*
X56200Y281163D01*
X56166Y281166D01*
X56133Y281177D01*
X56055Y281175D01*
X55977Y281181D01*
X55943Y281171D01*
X55908Y281170D01*
X55836Y281141D01*
X55761Y281120D01*
X55733Y281099D01*
X55700Y281086D01*
X55643Y281033D01*
X55580Y280987D01*
X55561Y280958D01*
X55535Y280935D01*
X55499Y280865D01*
X55456Y280800D01*
X55448Y280766D01*
X55432Y280735D01*
X55416Y280629D01*
X55405Y280581D01*
X55407Y280567D01*
X55405Y280550D01*
X55405Y279630D01*
X52886Y277112D01*
X49325Y277112D01*
X46807Y279630D01*
X46807Y283191D01*
X48992Y285376D01*
X48996Y285382D01*
X49002Y285386D01*
X49060Y285474D01*
X49120Y285560D01*
X49122Y285567D01*
X49126Y285574D01*
X49150Y285676D01*
X49176Y285777D01*
X49175Y285785D01*
X49177Y285792D01*
X49163Y285897D01*
X49153Y286000D01*
X49149Y286007D01*
X49148Y286015D01*
X49099Y286108D01*
X49053Y286201D01*
X49048Y286207D01*
X49044Y286213D01*
X48987Y286268D01*
X48986Y286269D01*
X48908Y286343D01*
X48881Y286362D01*
X48856Y286374D01*
X47893Y287057D01*
X47892Y287058D01*
X47891Y287059D01*
X46952Y287720D01*
X46944Y287729D01*
X46926Y287739D01*
X46908Y287756D01*
X-353Y321296D01*
X-388Y321313D01*
X-418Y321337D01*
X-444Y321346D01*
X-1332Y321991D01*
X-1335Y321992D01*
X-1338Y321995D01*
X-2244Y322639D01*
X-2276Y322676D01*
X-2292Y322685D01*
X-2307Y322701D01*
X-17206Y333536D01*
X-17247Y333556D01*
X-17284Y333584D01*
X-17348Y333605D01*
X-17408Y333634D01*
X-17454Y333638D01*
X-17498Y333652D01*
X-17565Y333649D01*
X-17631Y333655D01*
X-17676Y333643D01*
X-17722Y333641D01*
X-17800Y333610D01*
X-17848Y333597D01*
X-17868Y333583D01*
X-17896Y333572D01*
X-99480Y286470D01*
X-99526Y286431D01*
X-99577Y286401D01*
X-99611Y286359D01*
X-99651Y286325D01*
X-99681Y286273D01*
X-99718Y286227D01*
X-99735Y286176D01*
X-99762Y286130D01*
X-99771Y286071D01*
X-99790Y286014D01*
X-99789Y285961D01*
X-99797Y285908D01*
X-99785Y285850D01*
X-99784Y285790D01*
X-99764Y285740D01*
X-99753Y285688D01*
X-99722Y285637D01*
X-99699Y285582D01*
X-99663Y285543D01*
X-99635Y285497D01*
X-99588Y285460D01*
X-99548Y285416D01*
X-99500Y285392D01*
X-99458Y285359D01*
X-99401Y285341D01*
X-99348Y285314D01*
X-99286Y285305D01*
X-99244Y285291D01*
X-99210Y285293D01*
X-99163Y285286D01*
X-98232Y285286D01*
X-95714Y282768D01*
X-95714Y279207D01*
X-98232Y276689D01*
X-101793Y276689D01*
X-104311Y279207D01*
X-104311Y282582D01*
X-104312Y282588D01*
X-104311Y282594D01*
X-104332Y282698D01*
X-104351Y282803D01*
X-104354Y282808D01*
X-104355Y282814D01*
X-104411Y282904D01*
X-104465Y282996D01*
X-104470Y283000D01*
X-104473Y283005D01*
X-104557Y283070D01*
X-104639Y283137D01*
X-104645Y283139D01*
X-104650Y283143D01*
X-104751Y283175D01*
X-104852Y283209D01*
X-104858Y283209D01*
X-104864Y283211D01*
X-104970Y283206D01*
X-105076Y283203D01*
X-105082Y283200D01*
X-105088Y283200D01*
X-105263Y283131D01*
X-147656Y258655D01*
X-147666Y258647D01*
X-147677Y258643D01*
X-147751Y258575D01*
X-147827Y258511D01*
X-147834Y258500D01*
X-147843Y258491D01*
X-147889Y258402D01*
X-147938Y258315D01*
X-147940Y258303D01*
X-147945Y258292D01*
X-147973Y258106D01*
X-147973Y236721D01*
X-147955Y236622D01*
X-147941Y236522D01*
X-147935Y236512D01*
X-147933Y236500D01*
X-147882Y236414D01*
X-147834Y236325D01*
X-147825Y236317D01*
X-147819Y236307D01*
X-147741Y236244D01*
X-147665Y236177D01*
X-147654Y236173D01*
X-147645Y236166D01*
X-147550Y236133D01*
X-147455Y236098D01*
X-147444Y236098D01*
X-147432Y236094D01*
X-147332Y236097D01*
X-147231Y236096D01*
X-147220Y236100D01*
X-147208Y236100D01*
X-147115Y236138D01*
X-147020Y236172D01*
X-147011Y236180D01*
X-147000Y236185D01*
X-146926Y236253D01*
X-146849Y236318D01*
X-146842Y236329D01*
X-146834Y236336D01*
X-146813Y236377D01*
X-146753Y236478D01*
X-145890Y238560D01*
X-143310Y241140D01*
X-139937Y242537D01*
X-136288Y242537D01*
X-132915Y241140D01*
X-130335Y238560D01*
X-128938Y235187D01*
X-128938Y231538D01*
X-130335Y228165D01*
X-132915Y225585D01*
X-136288Y224188D01*
X-139937Y224188D01*
X-143310Y225585D01*
X-145890Y228165D01*
X-146752Y230246D01*
X-146807Y230331D01*
X-146858Y230418D01*
X-146867Y230425D01*
X-146874Y230435D01*
X-146954Y230496D01*
X-147032Y230559D01*
X-147043Y230563D01*
X-147053Y230570D01*
X-147150Y230599D01*
X-147245Y230631D01*
X-147257Y230631D01*
X-147268Y230634D01*
X-147369Y230627D01*
X-147469Y230624D01*
X-147480Y230620D01*
X-147492Y230619D01*
X-147584Y230578D01*
X-147677Y230540D01*
X-147686Y230532D01*
X-147697Y230527D01*
X-147768Y230457D01*
X-147842Y230389D01*
X-147848Y230378D01*
X-147856Y230370D01*
X-147899Y230279D01*
X-147945Y230189D01*
X-147947Y230176D01*
X-147951Y230167D01*
X-147955Y230121D01*
X-147973Y230004D01*
X-147972Y211322D01*
X-147955Y211223D01*
X-147941Y211123D01*
X-147935Y211113D01*
X-147933Y211101D01*
X-147882Y211015D01*
X-147834Y210926D01*
X-147825Y210918D01*
X-147819Y210908D01*
X-147741Y210845D01*
X-147665Y210778D01*
X-147654Y210774D01*
X-147644Y210766D01*
X-147549Y210734D01*
X-147455Y210698D01*
X-147443Y210698D01*
X-147432Y210695D01*
X-147332Y210697D01*
X-147231Y210697D01*
X-147220Y210701D01*
X-147208Y210701D01*
X-147115Y210739D01*
X-147020Y210773D01*
X-147011Y210781D01*
X-147000Y210785D01*
X-146926Y210853D01*
X-146849Y210918D01*
X-146842Y210930D01*
X-146834Y210937D01*
X-146813Y210978D01*
X-146752Y211079D01*
X-145890Y213160D01*
X-143310Y215740D01*
X-139937Y217137D01*
X-136288Y217137D01*
X-132915Y215740D01*
X-130335Y213160D01*
X-128938Y209787D01*
X-128938Y206138D01*
X-130335Y202765D01*
X-132915Y200185D01*
X-136288Y198788D01*
X-139937Y198788D01*
X-143310Y200185D01*
X-145890Y202765D01*
X-146752Y204846D01*
X-146806Y204930D01*
X-146858Y205017D01*
X-146867Y205025D01*
X-146873Y205035D01*
X-146954Y205095D01*
X-147032Y205158D01*
X-147043Y205162D01*
X-147053Y205169D01*
X-147149Y205198D01*
X-147244Y205230D01*
X-147256Y205230D01*
X-147268Y205233D01*
X-147369Y205227D01*
X-147469Y205224D01*
X-147480Y205219D01*
X-147492Y205218D01*
X-147584Y205177D01*
X-147677Y205139D01*
X-147685Y205131D01*
X-147696Y205126D01*
X-147768Y205056D01*
X-147842Y204988D01*
X-147848Y204977D01*
X-147856Y204969D01*
X-147899Y204878D01*
X-147945Y204788D01*
X-147947Y204775D01*
X-147951Y204766D01*
X-147955Y204720D01*
X-147972Y204603D01*
X-147971Y129459D01*
X-147956Y129371D01*
X-147946Y129283D01*
X-147936Y129262D01*
X-147932Y129238D01*
X-147886Y129162D01*
X-147847Y129082D01*
X-147830Y129066D01*
X-147818Y129045D01*
X-147748Y128989D01*
X-147684Y128928D01*
X-147662Y128919D01*
X-147643Y128904D01*
X-147559Y128875D01*
X-147477Y128841D01*
X-147453Y128840D01*
X-147431Y128832D01*
X-147342Y128835D01*
X-147253Y128831D01*
X-147230Y128838D01*
X-147207Y128839D01*
X-147124Y128872D01*
X-147039Y128899D01*
X-147018Y128915D01*
X-146999Y128923D01*
X-146961Y128957D01*
X-146889Y129011D01*
X-145688Y130211D01*
X-141713Y130211D01*
X-138902Y127400D01*
X-138902Y123425D01*
X-139357Y122970D01*
X-139407Y122897D01*
X-139464Y122828D01*
X-139471Y122805D01*
X-139485Y122786D01*
X-139507Y122700D01*
X-139535Y122615D01*
X-139535Y122591D01*
X-139541Y122568D01*
X-139531Y122480D01*
X-139529Y122391D01*
X-139520Y122369D01*
X-139517Y122345D01*
X-139478Y122265D01*
X-139445Y122183D01*
X-139429Y122166D01*
X-139418Y122144D01*
X-139353Y122083D01*
X-139293Y122017D01*
X-139272Y122007D01*
X-139255Y121990D01*
X-139173Y121956D01*
X-139094Y121915D01*
X-139067Y121911D01*
X-139048Y121903D01*
X-138998Y121901D01*
X-138908Y121887D01*
X-136288Y121887D01*
X-132915Y120490D01*
X-130335Y117910D01*
X-128938Y114537D01*
X-128938Y110888D01*
X-130335Y107515D01*
X-132113Y105737D01*
X-132162Y105667D01*
X-132217Y105601D01*
X-132226Y105575D01*
X-132241Y105552D01*
X-132263Y105470D01*
X-132291Y105390D01*
X-132291Y105362D01*
X-132297Y105335D01*
X-132289Y105250D01*
X-132287Y105165D01*
X-132277Y105139D01*
X-132274Y105112D01*
X-132236Y105036D01*
X-132205Y104956D01*
X-132187Y104936D01*
X-132175Y104911D01*
X-132113Y104852D01*
X-132056Y104789D01*
X-132029Y104773D01*
X-132011Y104757D01*
X-131966Y104738D01*
X-131893Y104696D01*
X-115425Y98349D01*
X-115379Y98340D01*
X-115337Y98322D01*
X-115270Y98319D01*
X-115205Y98307D01*
X-115159Y98314D01*
X-115113Y98312D01*
X-115049Y98333D01*
X-114983Y98344D01*
X-114943Y98367D01*
X-114899Y98381D01*
X-114832Y98431D01*
X-114789Y98456D01*
X-114773Y98474D01*
X-114748Y98493D01*
X-112290Y100951D01*
X-108729Y100951D01*
X-106211Y98433D01*
X-106211Y95233D01*
X-106200Y95172D01*
X-106199Y95110D01*
X-106180Y95063D01*
X-106171Y95012D01*
X-106140Y94959D01*
X-106117Y94901D01*
X-106083Y94863D01*
X-106057Y94819D01*
X-106009Y94780D01*
X-105968Y94734D01*
X-105915Y94704D01*
X-105883Y94678D01*
X-105848Y94666D01*
X-105805Y94641D01*
X-59236Y76693D01*
X-59203Y76687D01*
X-59065Y76653D01*
X57469Y66157D01*
X57474Y66158D01*
X57479Y66157D01*
X57586Y66168D01*
X57693Y66177D01*
X57697Y66179D01*
X57702Y66180D01*
X57799Y66228D01*
X57895Y66273D01*
X57899Y66277D01*
X57903Y66279D01*
X57977Y66357D01*
X58052Y66434D01*
X58054Y66439D01*
X58057Y66443D01*
X58099Y66542D01*
X58142Y66639D01*
X58143Y66644D01*
X58145Y66649D01*
X58150Y66756D01*
X58156Y66863D01*
X58155Y66868D01*
X58155Y66873D01*
X58122Y66975D01*
X58091Y67078D01*
X58088Y67082D01*
X58086Y67087D01*
X57975Y67238D01*
X55597Y69615D01*
X55597Y73176D01*
X58115Y75694D01*
X61677Y75694D01*
X64195Y73176D01*
X64195Y69615D01*
X61677Y67097D01*
X61152Y67097D01*
X61069Y67082D01*
X60986Y67074D01*
X60960Y67062D01*
X60931Y67057D01*
X60859Y67014D01*
X60783Y66978D01*
X60763Y66958D01*
X60738Y66943D01*
X60685Y66878D01*
X60626Y66817D01*
X60615Y66791D01*
X60597Y66769D01*
X60570Y66689D01*
X60536Y66612D01*
X60534Y66583D01*
X60525Y66556D01*
X60527Y66472D01*
X60522Y66388D01*
X60531Y66361D01*
X60531Y66332D01*
X60563Y66254D01*
X60588Y66174D01*
X60605Y66151D01*
X60616Y66124D01*
X60672Y66062D01*
X60723Y65995D01*
X60748Y65980D01*
X60767Y65958D01*
X60842Y65920D01*
X60913Y65875D01*
X60944Y65867D01*
X60967Y65856D01*
X61032Y65846D01*
X61095Y65831D01*
X65884Y65400D01*
X65917Y65403D01*
G37*
G36*
X41Y2297D02*
X41Y2297D01*
X97Y2295D01*
X162Y2315D01*
X229Y2324D01*
X302Y2356D01*
X333Y2365D01*
X350Y2377D01*
X383Y2391D01*
X147592Y87383D01*
X147645Y87426D01*
X147703Y87460D01*
X147739Y87503D01*
X147783Y87539D01*
X147819Y87596D01*
X147863Y87647D01*
X147884Y87699D01*
X147913Y87747D01*
X147929Y87813D01*
X147955Y87875D01*
X147963Y87954D01*
X147971Y87986D01*
X147969Y88007D01*
X147973Y88042D01*
X147973Y106363D01*
X147970Y106382D01*
X147972Y106402D01*
X147950Y106503D01*
X147933Y106605D01*
X147924Y106623D01*
X147920Y106642D01*
X147866Y106731D01*
X147818Y106823D01*
X147804Y106836D01*
X147793Y106853D01*
X147715Y106921D01*
X147640Y106992D01*
X147622Y107000D01*
X147606Y107013D01*
X147510Y107052D01*
X147417Y107096D01*
X147397Y107098D01*
X147378Y107105D01*
X147212Y107124D01*
X145814Y107124D01*
X145724Y107109D01*
X145633Y107102D01*
X145603Y107089D01*
X145571Y107084D01*
X145491Y107041D01*
X145407Y107006D01*
X145375Y106980D01*
X145354Y106969D01*
X145332Y106946D01*
X145276Y106901D01*
X143310Y104935D01*
X139937Y103538D01*
X136288Y103538D01*
X132915Y104935D01*
X130949Y106901D01*
X130875Y106954D01*
X130806Y107013D01*
X130776Y107025D01*
X130749Y107044D01*
X130662Y107071D01*
X130578Y107105D01*
X130537Y107110D01*
X130514Y107117D01*
X130482Y107116D01*
X130411Y107124D01*
X128852Y107124D01*
X128791Y107114D01*
X128728Y107114D01*
X128670Y107094D01*
X128609Y107084D01*
X128554Y107055D01*
X128495Y107035D01*
X128421Y106984D01*
X128392Y106969D01*
X128380Y106956D01*
X128357Y106940D01*
X115761Y96144D01*
X106301Y88278D01*
X106265Y88237D01*
X106223Y88202D01*
X106185Y88144D01*
X106140Y88092D01*
X106119Y88042D01*
X106090Y87996D01*
X106073Y87929D01*
X106047Y87865D01*
X106043Y87810D01*
X106030Y87757D01*
X106035Y87688D01*
X106030Y87619D01*
X106044Y87566D01*
X106049Y87512D01*
X106076Y87448D01*
X106093Y87382D01*
X106124Y87336D01*
X106145Y87285D01*
X106212Y87201D01*
X106229Y87176D01*
X106238Y87169D01*
X106250Y87154D01*
X107486Y85918D01*
X107486Y82357D01*
X104968Y79839D01*
X101407Y79839D01*
X99512Y81733D01*
X99425Y81796D01*
X99340Y81863D01*
X99325Y81868D01*
X99313Y81877D01*
X99210Y81908D01*
X99108Y81944D01*
X99092Y81945D01*
X99078Y81949D01*
X98969Y81946D01*
X98862Y81948D01*
X98847Y81943D01*
X98832Y81943D01*
X98730Y81906D01*
X98627Y81873D01*
X98612Y81862D01*
X98601Y81858D01*
X98577Y81840D01*
X98487Y81780D01*
X80161Y66541D01*
X66048Y63853D01*
X-57259Y74959D01*
X-57261Y74959D01*
X-57263Y74959D01*
X-57382Y74950D01*
X-57504Y74941D01*
X-57506Y74940D01*
X-57508Y74940D01*
X-57618Y74893D01*
X-57731Y74846D01*
X-57733Y74845D01*
X-57735Y74844D01*
X-57866Y74739D01*
X-59179Y73425D01*
X-62741Y73425D01*
X-65259Y75943D01*
X-65259Y76857D01*
X-65259Y76860D01*
X-65259Y76864D01*
X-65279Y76981D01*
X-65298Y77100D01*
X-65300Y77103D01*
X-65301Y77106D01*
X-65358Y77211D01*
X-65414Y77317D01*
X-65416Y77319D01*
X-65417Y77322D01*
X-65505Y77404D01*
X-65592Y77487D01*
X-65595Y77488D01*
X-65597Y77490D01*
X-65746Y77567D01*
X-97858Y89944D01*
X-97893Y89951D01*
X-97927Y89966D01*
X-98013Y89976D01*
X-98099Y89994D01*
X-98135Y89990D01*
X-98171Y89994D01*
X-98256Y89975D01*
X-98343Y89965D01*
X-98376Y89949D01*
X-98411Y89941D01*
X-98486Y89897D01*
X-98565Y89859D01*
X-98591Y89834D01*
X-98622Y89815D01*
X-98679Y89749D01*
X-98742Y89688D01*
X-98759Y89656D01*
X-98782Y89628D01*
X-98815Y89547D01*
X-98855Y89470D01*
X-98861Y89434D01*
X-98874Y89400D01*
X-98893Y89233D01*
X-98893Y86190D01*
X-101557Y83526D01*
X-105326Y83526D01*
X-107913Y86113D01*
X-107929Y86124D01*
X-107941Y86140D01*
X-108029Y86196D01*
X-108112Y86256D01*
X-108131Y86262D01*
X-108148Y86273D01*
X-108249Y86298D01*
X-108348Y86329D01*
X-108367Y86328D01*
X-108387Y86333D01*
X-108490Y86325D01*
X-108593Y86322D01*
X-108612Y86315D01*
X-108632Y86314D01*
X-108727Y86274D01*
X-108824Y86238D01*
X-108840Y86225D01*
X-108858Y86218D01*
X-108989Y86113D01*
X-111145Y83958D01*
X-114706Y83958D01*
X-117224Y86476D01*
X-117224Y90037D01*
X-114706Y92555D01*
X-114330Y92555D01*
X-114259Y92567D01*
X-114187Y92568D01*
X-114138Y92586D01*
X-114087Y92595D01*
X-114024Y92628D01*
X-113956Y92653D01*
X-113916Y92685D01*
X-113869Y92710D01*
X-113820Y92762D01*
X-113764Y92807D01*
X-113736Y92850D01*
X-113700Y92888D01*
X-113670Y92953D01*
X-113631Y93013D01*
X-113618Y93064D01*
X-113596Y93111D01*
X-113589Y93182D01*
X-113571Y93252D01*
X-113575Y93304D01*
X-113569Y93356D01*
X-113585Y93426D01*
X-113590Y93497D01*
X-113611Y93545D01*
X-113622Y93596D01*
X-113658Y93658D01*
X-113687Y93724D01*
X-113731Y93780D01*
X-113748Y93807D01*
X-113766Y93822D01*
X-113791Y93855D01*
X-114808Y94871D01*
X-114808Y95954D01*
X-114809Y95957D01*
X-114808Y95961D01*
X-114828Y96078D01*
X-114848Y96197D01*
X-114850Y96200D01*
X-114850Y96203D01*
X-114907Y96309D01*
X-114963Y96414D01*
X-114965Y96417D01*
X-114967Y96420D01*
X-115055Y96502D01*
X-115141Y96584D01*
X-115144Y96585D01*
X-115147Y96587D01*
X-115296Y96665D01*
X-134481Y104059D01*
X-134561Y104076D01*
X-134639Y104101D01*
X-134681Y104101D01*
X-134722Y104109D01*
X-134803Y104099D01*
X-134885Y104099D01*
X-134938Y104083D01*
X-134966Y104080D01*
X-134992Y104068D01*
X-135046Y104052D01*
X-136288Y103538D01*
X-139937Y103538D01*
X-143310Y104935D01*
X-145890Y107515D01*
X-146229Y108333D01*
X-146282Y108419D01*
X-146330Y108507D01*
X-146347Y108523D01*
X-146359Y108542D01*
X-146436Y108607D01*
X-146510Y108675D01*
X-146535Y108688D01*
X-146548Y108699D01*
X-146579Y108711D01*
X-146659Y108752D01*
X-146936Y108859D01*
X-146972Y108867D01*
X-147005Y108882D01*
X-147092Y108892D01*
X-147177Y108910D01*
X-147213Y108905D01*
X-147249Y108909D01*
X-147334Y108891D01*
X-147421Y108880D01*
X-147454Y108865D01*
X-147490Y108857D01*
X-147565Y108812D01*
X-147643Y108775D01*
X-147670Y108750D01*
X-147701Y108731D01*
X-147758Y108665D01*
X-147820Y108604D01*
X-147837Y108572D01*
X-147861Y108544D01*
X-147893Y108463D01*
X-147933Y108386D01*
X-147939Y108350D01*
X-147953Y108316D01*
X-147971Y108149D01*
X-147971Y88046D01*
X-147960Y87979D01*
X-147959Y87912D01*
X-147940Y87859D01*
X-147931Y87803D01*
X-147900Y87744D01*
X-147877Y87680D01*
X-147842Y87636D01*
X-147816Y87586D01*
X-147767Y87539D01*
X-147725Y87486D01*
X-147662Y87439D01*
X-147638Y87416D01*
X-147619Y87408D01*
X-147590Y87387D01*
X-378Y2391D01*
X-315Y2368D01*
X-256Y2335D01*
X-201Y2324D01*
X-148Y2304D01*
X-81Y2302D01*
X-14Y2290D01*
X41Y2297D01*
G37*
G36*
X144551Y148478D02*
X144551Y148478D01*
X144641Y148485D01*
X144672Y148498D01*
X144705Y148504D01*
X144785Y148546D01*
X144868Y148581D01*
X144893Y148603D01*
X144923Y148619D01*
X144985Y148684D01*
X145052Y148744D01*
X145069Y148773D01*
X145092Y148797D01*
X145130Y148879D01*
X145175Y148957D01*
X145182Y148990D01*
X145196Y149020D01*
X145206Y149109D01*
X145223Y149198D01*
X145220Y149241D01*
X145223Y149264D01*
X145216Y149296D01*
X145211Y149365D01*
X135991Y198537D01*
X135975Y198581D01*
X135968Y198627D01*
X135933Y198696D01*
X135907Y198768D01*
X135878Y198805D01*
X135857Y198847D01*
X135802Y198901D01*
X135754Y198961D01*
X135715Y198986D01*
X135681Y199019D01*
X135565Y199083D01*
X135548Y199094D01*
X135542Y199096D01*
X135534Y199100D01*
X132915Y200185D01*
X130335Y202765D01*
X128938Y206138D01*
X128938Y209787D01*
X130335Y213160D01*
X132915Y215740D01*
X133078Y215808D01*
X133115Y215831D01*
X133156Y215845D01*
X133219Y215895D01*
X133287Y215938D01*
X133315Y215971D01*
X133349Y215998D01*
X133393Y216065D01*
X133444Y216127D01*
X133460Y216168D01*
X133484Y216204D01*
X133504Y216282D01*
X133532Y216357D01*
X133534Y216400D01*
X133545Y216442D01*
X133542Y216590D01*
X133543Y216602D01*
X133542Y216605D01*
X133542Y216610D01*
X132323Y225954D01*
X132311Y225994D01*
X132308Y226036D01*
X132276Y226111D01*
X132252Y226189D01*
X132228Y226224D01*
X132211Y226262D01*
X132116Y226382D01*
X132110Y226390D01*
X132108Y226391D01*
X132107Y226393D01*
X130335Y228165D01*
X128938Y231538D01*
X128938Y235187D01*
X130034Y237834D01*
X130335Y238560D01*
X132915Y241140D01*
X136288Y242537D01*
X139937Y242537D01*
X143310Y241140D01*
X145890Y238560D01*
X146191Y237834D01*
X146253Y237734D01*
X146313Y237634D01*
X146317Y237630D01*
X146321Y237625D01*
X146411Y237550D01*
X146500Y237474D01*
X146505Y237472D01*
X146510Y237468D01*
X146619Y237426D01*
X146728Y237382D01*
X146735Y237381D01*
X146740Y237380D01*
X146758Y237379D01*
X146894Y237364D01*
X147210Y237364D01*
X147230Y237367D01*
X147249Y237365D01*
X147351Y237387D01*
X147453Y237404D01*
X147470Y237413D01*
X147490Y237417D01*
X147579Y237470D01*
X147670Y237519D01*
X147684Y237533D01*
X147701Y237543D01*
X147768Y237622D01*
X147839Y237697D01*
X147848Y237715D01*
X147861Y237730D01*
X147899Y237826D01*
X147943Y237920D01*
X147945Y237940D01*
X147953Y237958D01*
X147971Y238125D01*
X147971Y258029D01*
X147960Y258096D01*
X147959Y258163D01*
X147940Y258216D01*
X147931Y258272D01*
X147900Y258331D01*
X147877Y258395D01*
X147842Y258439D01*
X147816Y258489D01*
X147767Y258536D01*
X147725Y258589D01*
X147662Y258636D01*
X147638Y258659D01*
X147619Y258667D01*
X147590Y258688D01*
X378Y343684D01*
X315Y343707D01*
X256Y343740D01*
X201Y343751D01*
X148Y343771D01*
X81Y343773D01*
X14Y343785D01*
X-41Y343778D01*
X-97Y343780D01*
X-162Y343760D01*
X-229Y343751D01*
X-302Y343719D01*
X-333Y343710D01*
X-350Y343698D01*
X-383Y343684D01*
X-15079Y335199D01*
X-15122Y335164D01*
X-15170Y335137D01*
X-15216Y335086D01*
X-15269Y335043D01*
X-15299Y334996D01*
X-15336Y334955D01*
X-15364Y334892D01*
X-15400Y334835D01*
X-15413Y334781D01*
X-15435Y334730D01*
X-15441Y334662D01*
X-15457Y334596D01*
X-15452Y334540D01*
X-15457Y334485D01*
X-15442Y334418D01*
X-15436Y334351D01*
X-15413Y334300D01*
X-15400Y334245D01*
X-15364Y334188D01*
X-15337Y334125D01*
X-15299Y334084D01*
X-15270Y334037D01*
X-15192Y333966D01*
X-15171Y333943D01*
X-15161Y333937D01*
X-15146Y333924D01*
X-448Y323234D01*
X-445Y323233D01*
X-441Y323229D01*
X48772Y288304D01*
X48773Y288304D01*
X48774Y288302D01*
X52262Y285848D01*
X52286Y285837D01*
X52306Y285820D01*
X52396Y285783D01*
X52484Y285741D01*
X52510Y285737D01*
X52534Y285728D01*
X52701Y285709D01*
X52886Y285709D01*
X53854Y284742D01*
X53880Y284723D01*
X53954Y284657D01*
X90735Y258775D01*
X90758Y258764D01*
X90778Y258747D01*
X90868Y258710D01*
X90956Y258668D01*
X90982Y258664D01*
X91006Y258655D01*
X91173Y258636D01*
X91750Y258636D01*
X93536Y256850D01*
X93536Y256136D01*
X93546Y256077D01*
X93546Y256017D01*
X93566Y255956D01*
X93576Y255893D01*
X93604Y255840D01*
X93623Y255783D01*
X93676Y255704D01*
X93691Y255676D01*
X93702Y255665D01*
X93716Y255644D01*
X100874Y247185D01*
X100914Y247151D01*
X100946Y247111D01*
X101007Y247072D01*
X101062Y247025D01*
X101109Y247006D01*
X101153Y246978D01*
X101223Y246960D01*
X101290Y246933D01*
X101341Y246930D01*
X101391Y246918D01*
X101463Y246923D01*
X101535Y246919D01*
X101585Y246933D01*
X101637Y246937D01*
X101703Y246965D01*
X101773Y246984D01*
X101815Y247013D01*
X101863Y247033D01*
X101954Y247106D01*
X101977Y247122D01*
X101982Y247129D01*
X101994Y247138D01*
X103756Y248901D01*
X107318Y248901D01*
X108952Y247266D01*
X109836Y246383D01*
X109836Y242821D01*
X108735Y241721D01*
X108662Y241648D01*
X108650Y241632D01*
X108635Y241619D01*
X108579Y241532D01*
X108519Y241448D01*
X108513Y241429D01*
X108502Y241412D01*
X108477Y241312D01*
X108446Y241213D01*
X108447Y241193D01*
X108442Y241174D01*
X108450Y241071D01*
X108453Y240967D01*
X108459Y240948D01*
X108461Y240928D01*
X108501Y240834D01*
X108537Y240736D01*
X108550Y240720D01*
X108557Y240702D01*
X108662Y240571D01*
X110598Y238636D01*
X110598Y235074D01*
X108447Y232923D01*
X108401Y232859D01*
X108347Y232801D01*
X108329Y232760D01*
X108303Y232724D01*
X108280Y232648D01*
X108248Y232576D01*
X108240Y232517D01*
X108231Y232489D01*
X108231Y232461D01*
X108224Y232410D01*
X108197Y231597D01*
X108211Y231495D01*
X108219Y231392D01*
X108227Y231373D01*
X108229Y231354D01*
X108275Y231261D01*
X108315Y231165D01*
X108330Y231146D01*
X108337Y231133D01*
X108360Y231110D01*
X108420Y231034D01*
X109074Y230381D01*
X109074Y226819D01*
X108219Y225964D01*
X108172Y225900D01*
X108119Y225842D01*
X108101Y225801D01*
X108075Y225764D01*
X108052Y225689D01*
X108020Y225617D01*
X108011Y225558D01*
X108003Y225529D01*
X108003Y225502D01*
X107996Y225451D01*
X107487Y209917D01*
X107488Y209907D01*
X107486Y209892D01*
X107486Y207896D01*
X107466Y207832D01*
X107434Y207759D01*
X107426Y207700D01*
X107417Y207672D01*
X107418Y207645D01*
X107410Y207593D01*
X107327Y205036D01*
X107340Y204933D01*
X107348Y204830D01*
X107356Y204812D01*
X107358Y204792D01*
X107404Y204699D01*
X107444Y204604D01*
X107460Y204585D01*
X107466Y204571D01*
X107489Y204548D01*
X107549Y204473D01*
X108439Y203584D01*
X108439Y200022D01*
X107332Y198915D01*
X107286Y198851D01*
X107232Y198793D01*
X107214Y198752D01*
X107188Y198716D01*
X107165Y198640D01*
X107133Y198568D01*
X107125Y198509D01*
X107116Y198481D01*
X107116Y198453D01*
X107109Y198402D01*
X107089Y197781D01*
X107102Y197678D01*
X107110Y197575D01*
X107118Y197557D01*
X107120Y197537D01*
X107166Y197444D01*
X107206Y197349D01*
X107222Y197330D01*
X107228Y197316D01*
X107251Y197293D01*
X107311Y197218D01*
X109455Y195075D01*
X109455Y191513D01*
X107009Y189067D01*
X106963Y189003D01*
X106910Y188945D01*
X106891Y188904D01*
X106865Y188868D01*
X106842Y188792D01*
X106810Y188720D01*
X106802Y188661D01*
X106793Y188633D01*
X106794Y188605D01*
X106786Y188554D01*
X105678Y154742D01*
X105691Y154639D01*
X105699Y154536D01*
X105707Y154518D01*
X105709Y154498D01*
X105755Y154405D01*
X105795Y154310D01*
X105811Y154291D01*
X105817Y154277D01*
X105840Y154255D01*
X105900Y154179D01*
X107740Y152339D01*
X107740Y149225D01*
X107743Y149205D01*
X107741Y149186D01*
X107763Y149084D01*
X107780Y148982D01*
X107789Y148965D01*
X107794Y148945D01*
X107847Y148856D01*
X107895Y148765D01*
X107909Y148751D01*
X107920Y148734D01*
X107998Y148667D01*
X108073Y148596D01*
X108091Y148587D01*
X108107Y148574D01*
X108203Y148535D01*
X108296Y148492D01*
X108316Y148490D01*
X108335Y148482D01*
X108501Y148464D01*
X144463Y148464D01*
X144551Y148478D01*
G37*
%LPC*%
G36*
X-1819Y24193D02*
X-1819Y24193D01*
X-5180Y25585D01*
X-7753Y28157D01*
X-9145Y31519D01*
X-9145Y35156D01*
X-7753Y38518D01*
X-5180Y41090D01*
X-3197Y41912D01*
X-3158Y41936D01*
X-3114Y41952D01*
X-3054Y42000D01*
X-2988Y42041D01*
X-2958Y42077D01*
X-2922Y42105D01*
X-2880Y42171D01*
X-2831Y42231D01*
X-2814Y42274D01*
X-2789Y42312D01*
X-2770Y42388D01*
X-2743Y42460D01*
X-2741Y42506D01*
X-2729Y42551D01*
X-2735Y42628D01*
X-2732Y42706D01*
X-2745Y42750D01*
X-2748Y42796D01*
X-2779Y42867D01*
X-2801Y42942D01*
X-2827Y42980D01*
X-2845Y43022D01*
X-2923Y43120D01*
X-2927Y43127D01*
X-2931Y43130D01*
X-2941Y43144D01*
X-2945Y43147D01*
X-2950Y43153D01*
X-4926Y45129D01*
X-4926Y49105D01*
X-2115Y51916D01*
X1861Y51916D01*
X4672Y49105D01*
X4672Y45129D01*
X2770Y43228D01*
X2743Y43190D01*
X2709Y43159D01*
X2672Y43091D01*
X2626Y43028D01*
X2613Y42984D01*
X2591Y42944D01*
X2577Y42867D01*
X2554Y42793D01*
X2555Y42747D01*
X2547Y42702D01*
X2558Y42625D01*
X2560Y42547D01*
X2576Y42504D01*
X2583Y42458D01*
X2618Y42389D01*
X2645Y42316D01*
X2674Y42280D01*
X2694Y42239D01*
X2750Y42185D01*
X2799Y42124D01*
X2837Y42099D01*
X2870Y42067D01*
X2990Y42001D01*
X3006Y41991D01*
X3010Y41990D01*
X3017Y41986D01*
X5180Y41090D01*
X7753Y38518D01*
X9145Y35156D01*
X9145Y31519D01*
X7753Y28157D01*
X5180Y25585D01*
X1819Y24193D01*
X-1819Y24193D01*
G37*
%LPD*%
%LPC*%
G36*
X14056Y286130D02*
X14056Y286130D01*
X10695Y287522D01*
X8122Y290095D01*
X6730Y293456D01*
X6730Y297094D01*
X8122Y300455D01*
X10695Y303028D01*
X14056Y304420D01*
X17694Y304420D01*
X21055Y303028D01*
X23628Y300455D01*
X25020Y297094D01*
X25020Y293456D01*
X23628Y290095D01*
X21055Y287522D01*
X17694Y286130D01*
X14056Y286130D01*
G37*
%LPD*%
%LPC*%
G36*
X-27219Y24193D02*
X-27219Y24193D01*
X-30580Y25585D01*
X-33153Y28157D01*
X-34545Y31519D01*
X-34545Y35156D01*
X-33153Y38518D01*
X-30580Y41090D01*
X-27219Y42482D01*
X-23581Y42482D01*
X-20220Y41090D01*
X-17647Y38518D01*
X-16255Y35156D01*
X-16255Y31519D01*
X-17647Y28157D01*
X-20220Y25585D01*
X-23581Y24193D01*
X-27219Y24193D01*
G37*
%LPD*%
%LPC*%
G36*
X23581Y24193D02*
X23581Y24193D01*
X20220Y25585D01*
X17647Y28157D01*
X16255Y31519D01*
X16255Y35156D01*
X17647Y38518D01*
X20220Y41090D01*
X23581Y42482D01*
X27219Y42482D01*
X30580Y41090D01*
X33153Y38518D01*
X34545Y35156D01*
X34545Y31519D01*
X33153Y28157D01*
X30580Y25585D01*
X27219Y24193D01*
X23581Y24193D01*
G37*
%LPD*%
%LPC*%
G36*
X-124122Y128801D02*
X-124122Y128801D01*
X-126786Y131466D01*
X-126786Y135234D01*
X-126364Y135656D01*
X-126313Y135729D01*
X-126257Y135798D01*
X-126250Y135821D01*
X-126236Y135840D01*
X-126214Y135926D01*
X-126186Y136011D01*
X-126186Y136035D01*
X-126180Y136058D01*
X-126190Y136146D01*
X-126192Y136235D01*
X-126201Y136257D01*
X-126204Y136281D01*
X-126243Y136361D01*
X-126276Y136443D01*
X-126292Y136460D01*
X-126303Y136482D01*
X-126368Y136543D01*
X-126428Y136609D01*
X-126449Y136619D01*
X-126466Y136636D01*
X-126548Y136670D01*
X-126627Y136711D01*
X-126654Y136715D01*
X-126673Y136723D01*
X-126723Y136725D01*
X-126813Y136739D01*
X-127297Y136739D01*
X-129961Y139403D01*
X-129961Y143172D01*
X-127706Y145426D01*
X-127669Y145480D01*
X-127624Y145528D01*
X-127605Y145572D01*
X-127578Y145611D01*
X-127562Y145674D01*
X-127536Y145735D01*
X-127534Y145782D01*
X-127522Y145828D01*
X-127529Y145893D01*
X-127526Y145959D01*
X-127541Y146004D01*
X-127546Y146051D01*
X-127575Y146110D01*
X-127595Y146173D01*
X-127628Y146217D01*
X-127645Y146252D01*
X-127674Y146279D01*
X-127706Y146323D01*
X-130181Y148798D01*
X-130181Y152360D01*
X-127663Y154878D01*
X-124102Y154878D01*
X-121584Y152360D01*
X-121584Y148798D01*
X-123589Y146794D01*
X-123626Y146740D01*
X-123671Y146692D01*
X-123690Y146648D01*
X-123717Y146609D01*
X-123733Y146546D01*
X-123759Y146485D01*
X-123761Y146438D01*
X-123773Y146392D01*
X-123766Y146327D01*
X-123769Y146261D01*
X-123754Y146216D01*
X-123750Y146169D01*
X-123720Y146110D01*
X-123700Y146047D01*
X-123668Y146003D01*
X-123650Y145968D01*
X-123621Y145941D01*
X-123589Y145897D01*
X-120864Y143172D01*
X-120864Y139403D01*
X-121286Y138981D01*
X-121337Y138908D01*
X-121393Y138839D01*
X-121400Y138817D01*
X-121414Y138797D01*
X-121436Y138711D01*
X-121464Y138627D01*
X-121464Y138603D01*
X-121470Y138580D01*
X-121460Y138491D01*
X-121458Y138402D01*
X-121449Y138380D01*
X-121446Y138357D01*
X-121407Y138277D01*
X-121374Y138195D01*
X-121358Y138177D01*
X-121347Y138156D01*
X-121282Y138095D01*
X-121222Y138029D01*
X-121201Y138018D01*
X-121184Y138002D01*
X-121102Y137967D01*
X-121023Y137926D01*
X-120996Y137923D01*
X-120977Y137914D01*
X-120927Y137912D01*
X-120837Y137899D01*
X-120353Y137899D01*
X-117689Y135234D01*
X-117689Y131466D01*
X-120353Y128801D01*
X-124122Y128801D01*
G37*
%LPD*%
%LPC*%
G36*
X101407Y105239D02*
X101407Y105239D01*
X98889Y107757D01*
X98889Y111318D01*
X101136Y113566D01*
X101174Y113620D01*
X101219Y113668D01*
X101238Y113711D01*
X101265Y113750D01*
X101281Y113814D01*
X101307Y113874D01*
X101309Y113922D01*
X101320Y113967D01*
X101314Y114033D01*
X101317Y114098D01*
X101302Y114143D01*
X101297Y114190D01*
X101268Y114249D01*
X101248Y114312D01*
X101215Y114356D01*
X101198Y114392D01*
X101169Y114419D01*
X101136Y114463D01*
X99143Y116456D01*
X99143Y120018D01*
X100914Y121789D01*
X100952Y121843D01*
X100997Y121891D01*
X101015Y121934D01*
X101042Y121973D01*
X101059Y122037D01*
X101084Y122098D01*
X101086Y122145D01*
X101098Y122190D01*
X101091Y122256D01*
X101094Y122322D01*
X101080Y122367D01*
X101075Y122414D01*
X101046Y122473D01*
X101026Y122535D01*
X100993Y122579D01*
X100976Y122615D01*
X100947Y122642D01*
X100914Y122686D01*
X99841Y123759D01*
X99841Y127320D01*
X102359Y129838D01*
X105921Y129838D01*
X108439Y127320D01*
X108439Y123759D01*
X106667Y121987D01*
X106630Y121933D01*
X106585Y121886D01*
X106566Y121842D01*
X106539Y121803D01*
X106523Y121740D01*
X106497Y121679D01*
X106495Y121632D01*
X106483Y121586D01*
X106490Y121521D01*
X106487Y121455D01*
X106502Y121410D01*
X106507Y121363D01*
X106536Y121304D01*
X106556Y121241D01*
X106588Y121197D01*
X106606Y121162D01*
X106635Y121135D01*
X106667Y121090D01*
X107740Y120018D01*
X107740Y116456D01*
X105493Y114209D01*
X105455Y114155D01*
X105410Y114107D01*
X105391Y114063D01*
X105364Y114025D01*
X105348Y113961D01*
X105322Y113900D01*
X105320Y113853D01*
X105309Y113807D01*
X105315Y113742D01*
X105312Y113676D01*
X105327Y113631D01*
X105332Y113584D01*
X105361Y113525D01*
X105381Y113462D01*
X105414Y113418D01*
X105431Y113383D01*
X105460Y113356D01*
X105493Y113312D01*
X107486Y111318D01*
X107486Y107757D01*
X104968Y105239D01*
X101407Y105239D01*
G37*
%LPD*%
%LPC*%
G36*
X-104968Y156039D02*
X-104968Y156039D01*
X-107486Y158557D01*
X-107486Y162118D01*
X-105747Y163858D01*
X-105709Y163912D01*
X-105664Y163960D01*
X-105645Y164003D01*
X-105618Y164042D01*
X-105602Y164106D01*
X-105576Y164166D01*
X-105574Y164214D01*
X-105563Y164259D01*
X-105569Y164325D01*
X-105566Y164390D01*
X-105581Y164435D01*
X-105586Y164482D01*
X-105615Y164541D01*
X-105635Y164604D01*
X-105668Y164648D01*
X-105685Y164684D01*
X-105714Y164711D01*
X-105747Y164755D01*
X-107486Y166494D01*
X-107486Y170056D01*
X-105747Y171795D01*
X-105709Y171849D01*
X-105664Y171897D01*
X-105645Y171941D01*
X-105618Y171979D01*
X-105602Y172043D01*
X-105576Y172104D01*
X-105574Y172151D01*
X-105563Y172197D01*
X-105569Y172262D01*
X-105566Y172328D01*
X-105581Y172373D01*
X-105586Y172420D01*
X-105615Y172479D01*
X-105635Y172542D01*
X-105668Y172586D01*
X-105685Y172621D01*
X-105714Y172648D01*
X-105747Y172692D01*
X-107486Y174432D01*
X-107486Y177993D01*
X-104968Y180511D01*
X-101407Y180511D01*
X-98889Y177993D01*
X-98889Y174432D01*
X-100628Y172692D01*
X-100666Y172638D01*
X-100711Y172590D01*
X-100730Y172547D01*
X-100757Y172508D01*
X-100773Y172444D01*
X-100799Y172384D01*
X-100801Y172336D01*
X-100812Y172291D01*
X-100806Y172225D01*
X-100809Y172160D01*
X-100794Y172115D01*
X-100789Y172068D01*
X-100760Y172009D01*
X-100740Y171946D01*
X-100707Y171902D01*
X-100690Y171866D01*
X-100661Y171839D01*
X-100628Y171795D01*
X-98889Y170056D01*
X-98889Y166494D01*
X-100628Y164755D01*
X-100666Y164701D01*
X-100711Y164653D01*
X-100730Y164609D01*
X-100757Y164571D01*
X-100773Y164507D01*
X-100799Y164446D01*
X-100801Y164399D01*
X-100812Y164353D01*
X-100806Y164288D01*
X-100809Y164222D01*
X-100794Y164177D01*
X-100789Y164130D01*
X-100760Y164071D01*
X-100740Y164008D01*
X-100707Y163964D01*
X-100690Y163929D01*
X-100661Y163902D01*
X-100628Y163858D01*
X-98889Y162118D01*
X-98889Y158557D01*
X-101407Y156039D01*
X-104968Y156039D01*
G37*
%LPD*%
%LPC*%
G36*
X-108143Y103651D02*
X-108143Y103651D01*
X-110661Y106169D01*
X-110661Y109731D01*
X-108541Y111851D01*
X-108503Y111905D01*
X-108458Y111953D01*
X-108439Y111997D01*
X-108412Y112035D01*
X-108396Y112099D01*
X-108370Y112160D01*
X-108368Y112207D01*
X-108357Y112253D01*
X-108363Y112318D01*
X-108360Y112384D01*
X-108375Y112429D01*
X-108380Y112476D01*
X-108409Y112535D01*
X-108429Y112598D01*
X-108462Y112642D01*
X-108479Y112677D01*
X-108508Y112704D01*
X-108541Y112748D01*
X-109264Y113472D01*
X-109264Y117033D01*
X-106746Y119551D01*
X-103185Y119551D01*
X-102176Y118542D01*
X-102121Y118504D01*
X-102074Y118459D01*
X-102030Y118441D01*
X-101991Y118414D01*
X-101928Y118397D01*
X-101867Y118372D01*
X-101820Y118370D01*
X-101774Y118358D01*
X-101709Y118365D01*
X-101643Y118362D01*
X-101598Y118376D01*
X-101551Y118381D01*
X-101492Y118410D01*
X-101429Y118430D01*
X-101385Y118463D01*
X-101350Y118480D01*
X-101323Y118509D01*
X-101279Y118542D01*
X-99380Y120440D01*
X-95819Y120440D01*
X-93301Y117922D01*
X-93301Y114361D01*
X-95819Y111843D01*
X-99380Y111843D01*
X-100390Y112852D01*
X-100444Y112890D01*
X-100491Y112935D01*
X-100535Y112953D01*
X-100574Y112980D01*
X-100637Y112997D01*
X-100698Y113022D01*
X-100745Y113024D01*
X-100791Y113036D01*
X-100856Y113029D01*
X-100922Y113032D01*
X-100967Y113018D01*
X-101014Y113013D01*
X-101073Y112984D01*
X-101136Y112964D01*
X-101180Y112931D01*
X-101215Y112914D01*
X-101242Y112885D01*
X-101287Y112852D01*
X-102787Y111351D01*
X-102825Y111297D01*
X-102870Y111249D01*
X-102889Y111206D01*
X-102916Y111167D01*
X-102932Y111103D01*
X-102958Y111043D01*
X-102960Y110995D01*
X-102971Y110950D01*
X-102965Y110884D01*
X-102968Y110819D01*
X-102953Y110774D01*
X-102948Y110727D01*
X-102919Y110668D01*
X-102899Y110605D01*
X-102866Y110561D01*
X-102849Y110525D01*
X-102820Y110498D01*
X-102787Y110454D01*
X-102064Y109731D01*
X-102064Y106169D01*
X-104582Y103651D01*
X-108143Y103651D01*
G37*
%LPD*%
%LPC*%
G36*
X-8338Y276189D02*
X-8338Y276189D01*
X-11149Y279000D01*
X-11149Y282975D01*
X-8338Y285786D01*
X-4362Y285786D01*
X-1944Y283368D01*
X-1871Y283318D01*
X-1802Y283261D01*
X-1780Y283254D01*
X-1760Y283240D01*
X-1674Y283218D01*
X-1590Y283190D01*
X-1566Y283190D01*
X-1543Y283184D01*
X-1454Y283194D01*
X-1365Y283196D01*
X-1343Y283205D01*
X-1320Y283208D01*
X-1240Y283247D01*
X-1158Y283280D01*
X-1140Y283296D01*
X-1119Y283307D01*
X-1058Y283372D01*
X-992Y283432D01*
X-981Y283453D01*
X-965Y283470D01*
X-930Y283552D01*
X-889Y283631D01*
X-886Y283658D01*
X-877Y283677D01*
X-875Y283727D01*
X-862Y283817D01*
X-862Y286849D01*
X1949Y289660D01*
X5925Y289660D01*
X8736Y286849D01*
X8736Y282873D01*
X5925Y280062D01*
X1949Y280062D01*
X-469Y282480D01*
X-542Y282531D01*
X-611Y282587D01*
X-633Y282595D01*
X-653Y282608D01*
X-739Y282630D01*
X-823Y282659D01*
X-847Y282658D01*
X-870Y282664D01*
X-959Y282655D01*
X-1048Y282652D01*
X-1070Y282643D01*
X-1093Y282641D01*
X-1173Y282601D01*
X-1255Y282568D01*
X-1273Y282552D01*
X-1294Y282541D01*
X-1355Y282477D01*
X-1421Y282417D01*
X-1432Y282395D01*
X-1448Y282378D01*
X-1483Y282296D01*
X-1524Y282217D01*
X-1527Y282191D01*
X-1536Y282172D01*
X-1538Y282121D01*
X-1551Y282032D01*
X-1551Y279000D01*
X-4362Y276189D01*
X-8338Y276189D01*
G37*
%LPD*%
%LPC*%
G36*
X-102619Y130321D02*
X-102619Y130321D01*
X-105137Y132839D01*
X-105137Y136401D01*
X-102572Y138966D01*
X-102534Y139020D01*
X-102489Y139068D01*
X-102470Y139111D01*
X-102443Y139150D01*
X-102427Y139214D01*
X-102401Y139274D01*
X-102399Y139322D01*
X-102388Y139367D01*
X-102394Y139433D01*
X-102391Y139498D01*
X-102406Y139543D01*
X-102411Y139590D01*
X-102440Y139649D01*
X-102460Y139712D01*
X-102493Y139756D01*
X-102510Y139792D01*
X-102539Y139819D01*
X-102572Y139863D01*
X-102724Y140015D01*
X-102724Y143576D01*
X-100206Y146094D01*
X-96644Y146094D01*
X-94126Y143576D01*
X-94126Y140015D01*
X-96691Y137450D01*
X-96729Y137396D01*
X-96774Y137348D01*
X-96793Y137304D01*
X-96820Y137266D01*
X-96836Y137202D01*
X-96862Y137141D01*
X-96864Y137094D01*
X-96875Y137048D01*
X-96869Y136983D01*
X-96872Y136917D01*
X-96857Y136872D01*
X-96852Y136825D01*
X-96823Y136766D01*
X-96803Y136703D01*
X-96770Y136659D01*
X-96753Y136624D01*
X-96724Y136597D01*
X-96691Y136553D01*
X-96539Y136401D01*
X-96539Y132839D01*
X-99057Y130321D01*
X-102619Y130321D01*
G37*
%LPD*%
%LPC*%
G36*
X-104778Y255035D02*
X-104778Y255035D01*
X-107296Y257553D01*
X-107296Y261115D01*
X-105778Y262632D01*
X-105741Y262686D01*
X-105696Y262734D01*
X-105677Y262777D01*
X-105650Y262816D01*
X-105634Y262880D01*
X-105608Y262941D01*
X-105606Y262988D01*
X-105594Y263033D01*
X-105601Y263099D01*
X-105598Y263165D01*
X-105613Y263210D01*
X-105618Y263257D01*
X-105647Y263316D01*
X-105667Y263378D01*
X-105700Y263422D01*
X-105717Y263458D01*
X-105746Y263485D01*
X-105778Y263529D01*
X-107296Y265046D01*
X-107296Y268608D01*
X-104778Y271126D01*
X-101216Y271126D01*
X-98698Y268608D01*
X-98698Y265046D01*
X-100216Y263529D01*
X-100253Y263475D01*
X-100298Y263427D01*
X-100317Y263384D01*
X-100344Y263345D01*
X-100360Y263281D01*
X-100386Y263220D01*
X-100388Y263173D01*
X-100400Y263127D01*
X-100393Y263062D01*
X-100396Y262996D01*
X-100381Y262951D01*
X-100376Y262904D01*
X-100347Y262845D01*
X-100327Y262783D01*
X-100295Y262739D01*
X-100277Y262703D01*
X-100248Y262676D01*
X-100216Y262632D01*
X-98698Y261115D01*
X-98698Y257553D01*
X-101216Y255035D01*
X-104778Y255035D01*
G37*
%LPD*%
%LPC*%
G36*
X-105222Y229064D02*
X-105222Y229064D01*
X-107740Y231582D01*
X-107740Y235143D01*
X-106413Y236470D01*
X-106376Y236524D01*
X-106331Y236572D01*
X-106312Y236615D01*
X-106285Y236654D01*
X-106269Y236718D01*
X-106243Y236779D01*
X-106241Y236826D01*
X-106229Y236871D01*
X-106236Y236937D01*
X-106233Y237003D01*
X-106248Y237048D01*
X-106253Y237095D01*
X-106282Y237154D01*
X-106302Y237216D01*
X-106335Y237260D01*
X-106352Y237296D01*
X-106381Y237323D01*
X-106413Y237367D01*
X-107994Y238948D01*
X-107994Y242509D01*
X-105476Y245027D01*
X-101915Y245027D01*
X-99397Y242509D01*
X-99397Y238948D01*
X-100724Y237621D01*
X-100761Y237567D01*
X-100806Y237519D01*
X-100825Y237476D01*
X-100852Y237437D01*
X-100868Y237373D01*
X-100894Y237312D01*
X-100896Y237265D01*
X-100908Y237219D01*
X-100901Y237154D01*
X-100904Y237088D01*
X-100889Y237043D01*
X-100884Y236996D01*
X-100855Y236937D01*
X-100835Y236875D01*
X-100803Y236831D01*
X-100785Y236795D01*
X-100756Y236768D01*
X-100724Y236724D01*
X-99143Y235143D01*
X-99143Y231582D01*
X-101661Y229064D01*
X-105222Y229064D01*
G37*
%LPD*%
%LPC*%
G36*
X-119463Y252376D02*
X-119463Y252376D01*
X-122274Y255187D01*
X-122274Y259163D01*
X-119463Y261974D01*
X-115487Y261974D01*
X-112676Y259163D01*
X-112676Y255187D01*
X-115487Y252376D01*
X-119463Y252376D01*
G37*
%LPD*%
%LPC*%
G36*
X-1607Y291238D02*
X-1607Y291238D01*
X-4418Y294049D01*
X-4418Y298025D01*
X-1607Y300836D01*
X2369Y300836D01*
X5180Y298025D01*
X5180Y294049D01*
X2369Y291238D01*
X-1607Y291238D01*
G37*
%LPD*%
%LPC*%
G36*
X-33380Y289170D02*
X-33380Y289170D01*
X-36045Y291834D01*
X-36045Y295603D01*
X-33380Y298267D01*
X-29612Y298267D01*
X-26947Y295603D01*
X-26947Y291834D01*
X-29612Y289170D01*
X-33380Y289170D01*
G37*
%LPD*%
%LPC*%
G36*
X-94086Y66063D02*
X-94086Y66063D01*
X-96751Y68728D01*
X-96751Y72496D01*
X-94086Y75161D01*
X-90318Y75161D01*
X-87653Y72496D01*
X-87653Y68728D01*
X-90318Y66063D01*
X-94086Y66063D01*
G37*
%LPD*%
%LPC*%
G36*
X89786Y270085D02*
X89786Y270085D01*
X87268Y272603D01*
X87268Y276164D01*
X89786Y278682D01*
X93348Y278682D01*
X95866Y276164D01*
X95866Y273645D01*
X95877Y273575D01*
X95879Y273503D01*
X95897Y273454D01*
X95905Y273403D01*
X95939Y273339D01*
X95964Y273272D01*
X95996Y273231D01*
X96021Y273185D01*
X96073Y273136D01*
X96117Y273080D01*
X96161Y273052D01*
X96199Y273016D01*
X96264Y272986D01*
X96324Y272947D01*
X96356Y272939D01*
X96311Y272920D01*
X96260Y272909D01*
X96199Y272872D01*
X96133Y272844D01*
X96077Y272799D01*
X96049Y272782D01*
X96034Y272765D01*
X96002Y272739D01*
X93348Y270085D01*
X89786Y270085D01*
G37*
%LPD*%
%LPC*%
G36*
X99819Y267164D02*
X99819Y267164D01*
X97301Y269682D01*
X97301Y272201D01*
X97290Y272271D01*
X97288Y272343D01*
X97270Y272392D01*
X97262Y272443D01*
X97228Y272507D01*
X97203Y272574D01*
X97171Y272615D01*
X97146Y272661D01*
X97094Y272710D01*
X97050Y272766D01*
X97006Y272794D01*
X96968Y272830D01*
X96903Y272860D01*
X96843Y272899D01*
X96811Y272907D01*
X96856Y272926D01*
X96907Y272937D01*
X96968Y272974D01*
X97034Y273002D01*
X97090Y273047D01*
X97118Y273064D01*
X97133Y273081D01*
X97165Y273107D01*
X99819Y275761D01*
X103381Y275761D01*
X105899Y273243D01*
X105899Y269682D01*
X103381Y267164D01*
X99819Y267164D01*
G37*
%LPD*%
%LPC*%
G36*
X50162Y191091D02*
X50162Y191091D01*
X47644Y193609D01*
X47644Y197170D01*
X50162Y199688D01*
X53724Y199688D01*
X56242Y197170D01*
X56242Y193609D01*
X53724Y191091D01*
X50162Y191091D01*
G37*
%LPD*%
%LPC*%
G36*
X-79378Y191091D02*
X-79378Y191091D01*
X-81896Y193609D01*
X-81896Y197170D01*
X-79378Y199688D01*
X-75816Y199688D01*
X-73298Y197170D01*
X-73298Y193609D01*
X-75816Y191091D01*
X-79378Y191091D01*
G37*
%LPD*%
%LPC*%
G36*
X-104968Y189376D02*
X-104968Y189376D01*
X-107486Y191894D01*
X-107486Y195456D01*
X-104968Y197974D01*
X-101407Y197974D01*
X-98889Y195456D01*
X-98889Y191894D01*
X-101407Y189376D01*
X-104968Y189376D01*
G37*
%LPD*%
%LPC*%
G36*
X50416Y166707D02*
X50416Y166707D01*
X47898Y169225D01*
X47898Y172786D01*
X50416Y175304D01*
X53978Y175304D01*
X56496Y172786D01*
X56496Y169225D01*
X53978Y166707D01*
X50416Y166707D01*
G37*
%LPD*%
%LPC*%
G36*
X-79632Y166707D02*
X-79632Y166707D01*
X-82150Y169225D01*
X-82150Y172786D01*
X-79632Y175304D01*
X-76070Y175304D01*
X-73552Y172786D01*
X-73552Y169225D01*
X-76070Y166707D01*
X-79632Y166707D01*
G37*
%LPD*%
%LPC*%
G36*
X23746Y141561D02*
X23746Y141561D01*
X21228Y144079D01*
X21228Y147640D01*
X23746Y150158D01*
X27308Y150158D01*
X29826Y147640D01*
X29826Y144079D01*
X27308Y141561D01*
X23746Y141561D01*
G37*
%LPD*%
%LPC*%
G36*
X76070Y141053D02*
X76070Y141053D01*
X73552Y143571D01*
X73552Y147132D01*
X76070Y149650D01*
X79632Y149650D01*
X82150Y147132D01*
X82150Y143571D01*
X79632Y141053D01*
X76070Y141053D01*
G37*
%LPD*%
%LPC*%
G36*
X-53470Y140799D02*
X-53470Y140799D01*
X-55988Y143317D01*
X-55988Y146878D01*
X-53470Y149396D01*
X-49908Y149396D01*
X-47390Y146878D01*
X-47390Y143317D01*
X-49908Y140799D01*
X-53470Y140799D01*
G37*
%LPD*%
%LPC*%
G36*
X-92522Y270085D02*
X-92522Y270085D01*
X-95040Y272603D01*
X-95040Y276164D01*
X-92522Y278682D01*
X-88961Y278682D01*
X-86443Y276164D01*
X-86443Y272603D01*
X-88961Y270085D01*
X-92522Y270085D01*
G37*
%LPD*%
%LPC*%
G36*
X-40262Y269577D02*
X-40262Y269577D01*
X-42780Y272095D01*
X-42780Y275656D01*
X-40262Y278174D01*
X-36700Y278174D01*
X-34182Y275656D01*
X-34182Y272095D01*
X-36700Y269577D01*
X-40262Y269577D01*
G37*
%LPD*%
%LPC*%
G36*
X-53470Y115653D02*
X-53470Y115653D01*
X-55988Y118171D01*
X-55988Y121732D01*
X-53470Y124250D01*
X-49908Y124250D01*
X-47390Y121732D01*
X-47390Y118171D01*
X-49908Y115653D01*
X-53470Y115653D01*
G37*
%LPD*%
%LPC*%
G36*
X36954Y269323D02*
X36954Y269323D01*
X34436Y271841D01*
X34436Y275402D01*
X36954Y277920D01*
X40516Y277920D01*
X43034Y275402D01*
X43034Y271841D01*
X40516Y269323D01*
X36954Y269323D01*
G37*
%LPD*%
%LPC*%
G36*
X-91951Y243859D02*
X-91951Y243859D01*
X-94469Y246377D01*
X-94469Y249939D01*
X-91951Y252457D01*
X-88389Y252457D01*
X-85871Y249939D01*
X-85871Y246377D01*
X-88389Y243859D01*
X-91951Y243859D01*
G37*
%LPD*%
%LPC*%
G36*
X75816Y216491D02*
X75816Y216491D01*
X73298Y219009D01*
X73298Y222570D01*
X75816Y225088D01*
X79378Y225088D01*
X81896Y222570D01*
X81896Y219009D01*
X79378Y216491D01*
X75816Y216491D01*
G37*
%LPD*%
%LPC*%
G36*
X-53470Y89491D02*
X-53470Y89491D01*
X-55988Y92009D01*
X-55988Y95570D01*
X-53470Y98088D01*
X-49908Y98088D01*
X-47390Y95570D01*
X-47390Y92009D01*
X-49908Y89491D01*
X-53470Y89491D01*
G37*
%LPD*%
%LPC*%
G36*
X75816Y89491D02*
X75816Y89491D01*
X73298Y92009D01*
X73298Y95570D01*
X75816Y98088D01*
X79378Y98088D01*
X81896Y95570D01*
X81896Y92009D01*
X79378Y89491D01*
X75816Y89491D01*
G37*
%LPD*%
%LPC*%
G36*
X49908Y114891D02*
X49908Y114891D01*
X47390Y117409D01*
X47390Y120970D01*
X49908Y123488D01*
X53470Y123488D01*
X55988Y120970D01*
X55988Y117409D01*
X53470Y114891D01*
X49908Y114891D01*
G37*
%LPD*%
%LPC*%
G36*
X-79378Y216491D02*
X-79378Y216491D01*
X-81896Y219009D01*
X-81896Y222570D01*
X-79378Y225088D01*
X-75816Y225088D01*
X-73298Y222570D01*
X-73298Y219009D01*
X-75816Y216491D01*
X-79378Y216491D01*
G37*
%LPD*%
%LPC*%
G36*
X-104968Y211601D02*
X-104968Y211601D01*
X-107486Y214119D01*
X-107486Y217681D01*
X-104968Y220199D01*
X-101407Y220199D01*
X-98889Y217681D01*
X-98889Y214119D01*
X-101407Y211601D01*
X-104968Y211601D01*
G37*
%LPD*%
%LPC*%
G36*
X-105476Y199409D02*
X-105476Y199409D01*
X-107994Y201927D01*
X-107994Y205489D01*
X-105476Y208007D01*
X-101915Y208007D01*
X-99397Y205489D01*
X-99397Y201927D01*
X-101915Y199409D01*
X-105476Y199409D01*
G37*
%LPD*%
%LPC*%
G36*
X24254Y89237D02*
X24254Y89237D01*
X21736Y91755D01*
X21736Y95316D01*
X24254Y97834D01*
X27816Y97834D01*
X30334Y95316D01*
X30334Y91755D01*
X27816Y89237D01*
X24254Y89237D01*
G37*
%LPD*%
%LPC*%
G36*
X-1654Y216491D02*
X-1654Y216491D01*
X-4172Y219009D01*
X-4172Y222570D01*
X-1654Y225088D01*
X1908Y225088D01*
X4426Y222570D01*
X4426Y219009D01*
X1908Y216491D01*
X-1654Y216491D01*
G37*
%LPD*%
%LPC*%
G36*
X-1654Y166453D02*
X-1654Y166453D01*
X-4172Y168971D01*
X-4172Y172532D01*
X-1654Y175050D01*
X1908Y175050D01*
X4426Y172532D01*
X4426Y168971D01*
X1908Y166453D01*
X-1654Y166453D01*
G37*
%LPD*%
%LPC*%
G36*
X-3305Y244367D02*
X-3305Y244367D01*
X-5823Y246885D01*
X-5823Y250447D01*
X-3305Y252965D01*
X257Y252965D01*
X2775Y250447D01*
X2775Y246885D01*
X257Y244367D01*
X-3305Y244367D01*
G37*
%LPD*%
%LPC*%
G36*
X116165Y178497D02*
X116165Y178497D01*
X113646Y181015D01*
X113646Y184577D01*
X116165Y187095D01*
X119726Y187095D01*
X122244Y184577D01*
X122244Y181015D01*
X119726Y178497D01*
X116165Y178497D01*
G37*
%LPD*%
%LPC*%
G36*
X-53040Y61953D02*
X-53040Y61953D01*
X-55558Y64471D01*
X-55558Y68033D01*
X-53040Y70551D01*
X-49478Y70551D01*
X-46960Y68033D01*
X-46960Y64471D01*
X-49478Y61953D01*
X-53040Y61953D01*
G37*
%LPD*%
D10*
X15875Y295275D03*
X-25400Y33338D03*
X0Y33338D03*
X25400Y33338D03*
D11*
X138113Y138113D03*
X138113Y112713D03*
X-138113Y233363D03*
X-138113Y207963D03*
X-138113Y138113D03*
X-138113Y112713D03*
X138113Y233363D03*
X138113Y207963D03*
D12*
X128588Y100013D03*
X120650Y93663D03*
X29782Y48006D03*
X-34798Y50292D03*
X-143701Y125413D03*
X-109284Y70295D03*
X120650Y153988D03*
X111125Y153988D03*
X129921Y244475D03*
X122238Y244475D03*
X18796Y328359D03*
X12700Y322263D03*
X-6350Y280988D03*
X21825Y48050D03*
D13*
X-122238Y133350D03*
D14*
X-106363Y107950D03*
D12*
X-117475Y257175D03*
D14*
X-90742Y274384D03*
D13*
X-125413Y141288D03*
D14*
X-38481Y273876D03*
X-90170Y248158D03*
X-1524Y248666D03*
X38735Y273622D03*
X91567Y274384D03*
X127Y170752D03*
X-77851Y171006D03*
X52197Y171006D03*
D12*
X-127Y47117D03*
D14*
X25527Y145860D03*
X-51689Y145098D03*
X77851Y145352D03*
X77597Y220790D03*
X127Y220790D03*
X-77597Y220790D03*
X-51689Y119952D03*
X-77597Y195390D03*
X51943Y195390D03*
X-51689Y93790D03*
X26035Y93536D03*
X77597Y93790D03*
X51689Y119190D03*
D12*
X381Y296037D03*
X3937Y284861D03*
D14*
X-51259Y66252D03*
X59896Y71396D03*
X-125883Y150579D03*
X117945Y182796D03*
X-100013Y280988D03*
X51106Y281411D03*
D13*
X-31496Y293719D03*
D14*
X-110510Y96652D03*
X-112925Y88256D03*
X103188Y84138D03*
X-104966Y115253D03*
X101600Y92075D03*
X-97600Y116142D03*
X103188Y109538D03*
X-100838Y134620D03*
X-98425Y141796D03*
X103442Y118237D03*
X-103188Y160338D03*
X104140Y125540D03*
X-103188Y168275D03*
X101600Y142875D03*
X-103188Y176213D03*
X103442Y150559D03*
X-103188Y193675D03*
X101029Y172911D03*
X-103696Y203708D03*
X105156Y193294D03*
X-103188Y215900D03*
X104140Y201803D03*
X-103442Y233363D03*
X103188Y209741D03*
X103188Y219075D03*
X-103696Y240729D03*
X104775Y228600D03*
X-102997Y259334D03*
X-102997Y266827D03*
X106299Y236855D03*
X105537Y244602D03*
X101600Y271463D03*
D15*
X90488Y255588D02*
X65088Y255588D01*
D14*
X15748Y255016D03*
X68326Y255016D03*
X-77978Y256032D03*
X-77978Y229870D03*
X73406Y229870D03*
X18542Y229870D03*
X-77978Y179832D03*
X70358Y179070D03*
X70866Y204470D03*
X-78232Y204724D03*
X69088Y128524D03*
X68326Y102616D03*
X68326Y76962D03*
X-60960Y77724D03*
X-87630Y102870D03*
X-62992Y102616D03*
X51308Y153416D03*
X25146Y76454D03*
X-77978Y154686D03*
X-77470Y127762D03*
D16*
X-55118Y83566D02*
X-60960Y77724D01*
X-55118Y83566D02*
X-42672Y83566D01*
X-33528Y92710D01*
D14*
X-36830Y204724D03*
X16256Y102616D03*
D13*
X-103442Y88075D03*
X-92202Y70612D03*
M02*
