G04 EAGLE Gerber RS-274X export*
G75*
%MOMM*%
%FSLAX34Y34*%
%LPD*%
%INCopper Layer 15*%
%IPPOS*%
%AMOC8*
5,1,8,0,0,1.08239X$1,22.5*%
G01*
%ADD10C,1.524000*%
%ADD11C,1.530000*%
%ADD12C,0.654800*%
%ADD13C,0.604800*%
%ADD14C,0.554800*%
%ADD15C,0.203200*%

G36*
X41Y2297D02*
X41Y2297D01*
X97Y2295D01*
X162Y2315D01*
X229Y2324D01*
X302Y2356D01*
X333Y2365D01*
X350Y2377D01*
X383Y2391D01*
X147592Y87383D01*
X147645Y87426D01*
X147703Y87460D01*
X147739Y87503D01*
X147783Y87539D01*
X147819Y87596D01*
X147863Y87647D01*
X147884Y87699D01*
X147913Y87747D01*
X147929Y87813D01*
X147955Y87875D01*
X147963Y87954D01*
X147971Y87986D01*
X147969Y88007D01*
X147973Y88042D01*
X147972Y134115D01*
X147957Y134211D01*
X147948Y134308D01*
X147937Y134332D01*
X147933Y134358D01*
X147887Y134443D01*
X147848Y134533D01*
X147830Y134552D01*
X147818Y134575D01*
X147747Y134642D01*
X147681Y134714D01*
X147658Y134726D01*
X147639Y134744D01*
X147551Y134785D01*
X147466Y134832D01*
X147440Y134837D01*
X147416Y134848D01*
X147320Y134859D01*
X147224Y134876D01*
X147198Y134872D01*
X147172Y134875D01*
X147077Y134854D01*
X146980Y134840D01*
X146957Y134828D01*
X146931Y134823D01*
X146848Y134773D01*
X146761Y134729D01*
X146743Y134710D01*
X146720Y134697D01*
X146657Y134623D01*
X146589Y134553D01*
X146573Y134524D01*
X146560Y134510D01*
X146548Y134479D01*
X146508Y134406D01*
X145890Y132915D01*
X143310Y130335D01*
X139937Y128938D01*
X136288Y128938D01*
X132915Y130335D01*
X130335Y132915D01*
X128938Y136288D01*
X128938Y139937D01*
X130335Y143310D01*
X132915Y145890D01*
X136288Y147287D01*
X139937Y147287D01*
X143310Y145890D01*
X145890Y143310D01*
X146508Y141819D01*
X146559Y141736D01*
X146605Y141650D01*
X146624Y141632D01*
X146637Y141610D01*
X146713Y141548D01*
X146783Y141481D01*
X146807Y141470D01*
X146827Y141453D01*
X146918Y141418D01*
X147006Y141377D01*
X147032Y141374D01*
X147057Y141365D01*
X147154Y141361D01*
X147251Y141350D01*
X147276Y141356D01*
X147302Y141355D01*
X147396Y141382D01*
X147491Y141403D01*
X147513Y141416D01*
X147538Y141423D01*
X147618Y141479D01*
X147702Y141529D01*
X147719Y141549D01*
X147741Y141563D01*
X147799Y141642D01*
X147862Y141716D01*
X147872Y141740D01*
X147887Y141761D01*
X147917Y141853D01*
X147954Y141944D01*
X147957Y141976D01*
X147964Y141995D01*
X147963Y142028D01*
X147972Y142110D01*
X147972Y203963D01*
X147956Y204059D01*
X147947Y204156D01*
X147936Y204180D01*
X147932Y204205D01*
X147886Y204291D01*
X147847Y204380D01*
X147829Y204400D01*
X147817Y204423D01*
X147746Y204490D01*
X147680Y204562D01*
X147657Y204574D01*
X147638Y204592D01*
X147550Y204633D01*
X147465Y204680D01*
X147439Y204685D01*
X147415Y204696D01*
X147319Y204706D01*
X147223Y204724D01*
X147197Y204720D01*
X147171Y204723D01*
X147076Y204702D01*
X146979Y204688D01*
X146956Y204676D01*
X146931Y204671D01*
X146847Y204621D01*
X146760Y204577D01*
X146742Y204558D01*
X146719Y204544D01*
X146656Y204470D01*
X146588Y204401D01*
X146572Y204372D01*
X146559Y204357D01*
X146547Y204327D01*
X146507Y204254D01*
X145890Y202765D01*
X143310Y200185D01*
X139937Y198788D01*
X136288Y198788D01*
X132915Y200185D01*
X130335Y202765D01*
X128938Y206138D01*
X128938Y209787D01*
X130335Y213160D01*
X132915Y215740D01*
X136288Y217137D01*
X139937Y217137D01*
X143310Y215740D01*
X145890Y213160D01*
X146507Y211671D01*
X146558Y211588D01*
X146604Y211502D01*
X146623Y211485D01*
X146637Y211462D01*
X146712Y211400D01*
X146782Y211333D01*
X146806Y211322D01*
X146826Y211305D01*
X146917Y211270D01*
X147005Y211229D01*
X147031Y211227D01*
X147056Y211217D01*
X147153Y211213D01*
X147250Y211202D01*
X147275Y211208D01*
X147301Y211207D01*
X147395Y211234D01*
X147490Y211255D01*
X147513Y211268D01*
X147538Y211275D01*
X147617Y211331D01*
X147701Y211381D01*
X147718Y211401D01*
X147740Y211416D01*
X147798Y211494D01*
X147861Y211568D01*
X147871Y211592D01*
X147886Y211613D01*
X147917Y211706D01*
X147953Y211796D01*
X147957Y211828D01*
X147963Y211847D01*
X147962Y211880D01*
X147971Y211963D01*
X147971Y229362D01*
X147956Y229458D01*
X147946Y229555D01*
X147936Y229579D01*
X147932Y229605D01*
X147886Y229691D01*
X147846Y229780D01*
X147829Y229799D01*
X147816Y229822D01*
X147746Y229889D01*
X147680Y229961D01*
X147657Y229973D01*
X147638Y229991D01*
X147550Y230032D01*
X147464Y230079D01*
X147439Y230084D01*
X147415Y230095D01*
X147318Y230106D01*
X147222Y230123D01*
X147196Y230119D01*
X147171Y230122D01*
X147075Y230101D01*
X146979Y230087D01*
X146956Y230075D01*
X146930Y230070D01*
X146847Y230020D01*
X146760Y229976D01*
X146742Y229957D01*
X146719Y229944D01*
X146656Y229870D01*
X146588Y229800D01*
X146572Y229772D01*
X146559Y229757D01*
X146547Y229726D01*
X146507Y229653D01*
X145890Y228165D01*
X143310Y225585D01*
X139937Y224188D01*
X136288Y224188D01*
X132915Y225585D01*
X130335Y228165D01*
X128938Y231538D01*
X128938Y235187D01*
X130361Y238624D01*
X130372Y238668D01*
X130391Y238710D01*
X130399Y238787D01*
X130417Y238863D01*
X130413Y238909D01*
X130418Y238954D01*
X130401Y239031D01*
X130394Y239108D01*
X130376Y239150D01*
X130366Y239195D01*
X130326Y239262D01*
X130294Y239333D01*
X130263Y239367D01*
X130240Y239406D01*
X130180Y239457D01*
X130128Y239514D01*
X130088Y239536D01*
X130053Y239566D01*
X129980Y239595D01*
X129912Y239632D01*
X129867Y239641D01*
X129825Y239658D01*
X129689Y239673D01*
X129670Y239676D01*
X129665Y239675D01*
X129658Y239676D01*
X127933Y239676D01*
X126618Y240992D01*
X126601Y241004D01*
X126589Y241019D01*
X126502Y241075D01*
X126418Y241136D01*
X126399Y241141D01*
X126382Y241152D01*
X126282Y241178D01*
X126183Y241208D01*
X126163Y241207D01*
X126143Y241212D01*
X126041Y241204D01*
X125937Y241202D01*
X125918Y241195D01*
X125898Y241193D01*
X125803Y241153D01*
X125706Y241117D01*
X125690Y241105D01*
X125672Y241097D01*
X125541Y240992D01*
X124225Y239676D01*
X120250Y239676D01*
X117439Y242487D01*
X117439Y246463D01*
X120250Y249274D01*
X124225Y249274D01*
X125541Y247958D01*
X125557Y247946D01*
X125570Y247931D01*
X125657Y247875D01*
X125741Y247814D01*
X125760Y247809D01*
X125777Y247798D01*
X125877Y247772D01*
X125976Y247742D01*
X125996Y247743D01*
X126015Y247738D01*
X126118Y247746D01*
X126222Y247748D01*
X126240Y247755D01*
X126260Y247757D01*
X126355Y247797D01*
X126453Y247833D01*
X126468Y247845D01*
X126487Y247853D01*
X126618Y247958D01*
X127933Y249274D01*
X131909Y249274D01*
X134720Y246463D01*
X134720Y243027D01*
X134727Y242982D01*
X134725Y242936D01*
X134747Y242861D01*
X134759Y242784D01*
X134781Y242744D01*
X134794Y242700D01*
X134838Y242636D01*
X134875Y242567D01*
X134908Y242535D01*
X134934Y242498D01*
X134996Y242451D01*
X135053Y242398D01*
X135095Y242378D01*
X135131Y242351D01*
X135205Y242327D01*
X135276Y242294D01*
X135322Y242289D01*
X135365Y242275D01*
X135443Y242275D01*
X135520Y242267D01*
X135565Y242277D01*
X135611Y242277D01*
X135743Y242315D01*
X135761Y242319D01*
X135765Y242322D01*
X135772Y242324D01*
X136288Y242537D01*
X139937Y242537D01*
X143310Y241140D01*
X145890Y238560D01*
X146507Y237072D01*
X146558Y236989D01*
X146603Y236903D01*
X146622Y236885D01*
X146636Y236863D01*
X146711Y236801D01*
X146782Y236734D01*
X146806Y236723D01*
X146826Y236706D01*
X146917Y236671D01*
X147005Y236630D01*
X147031Y236627D01*
X147055Y236618D01*
X147153Y236614D01*
X147249Y236603D01*
X147275Y236609D01*
X147301Y236608D01*
X147395Y236635D01*
X147490Y236655D01*
X147512Y236669D01*
X147537Y236676D01*
X147617Y236732D01*
X147701Y236782D01*
X147718Y236801D01*
X147739Y236816D01*
X147798Y236895D01*
X147861Y236969D01*
X147871Y236993D01*
X147886Y237014D01*
X147916Y237106D01*
X147953Y237197D01*
X147956Y237229D01*
X147962Y237248D01*
X147962Y237281D01*
X147971Y237363D01*
X147971Y258029D01*
X147960Y258096D01*
X147959Y258163D01*
X147940Y258216D01*
X147931Y258272D01*
X147900Y258331D01*
X147877Y258395D01*
X147842Y258439D01*
X147816Y258489D01*
X147767Y258536D01*
X147725Y258589D01*
X147662Y258636D01*
X147638Y258659D01*
X147619Y258667D01*
X147590Y258688D01*
X24737Y329620D01*
X24647Y329654D01*
X24561Y329694D01*
X24533Y329697D01*
X24507Y329707D01*
X24411Y329710D01*
X24317Y329721D01*
X24289Y329715D01*
X24261Y329716D01*
X24169Y329689D01*
X24076Y329669D01*
X24052Y329654D01*
X24025Y329646D01*
X23947Y329591D01*
X23865Y329542D01*
X23847Y329521D01*
X23824Y329505D01*
X23767Y329428D01*
X23705Y329356D01*
X23695Y329329D01*
X23678Y329307D01*
X23649Y329216D01*
X23613Y329127D01*
X23609Y329092D01*
X23603Y329072D01*
X23603Y329039D01*
X23595Y328961D01*
X23595Y326371D01*
X20784Y323560D01*
X18260Y323560D01*
X18240Y323557D01*
X18221Y323559D01*
X18119Y323537D01*
X18017Y323520D01*
X18000Y323511D01*
X17980Y323506D01*
X17891Y323453D01*
X17800Y323405D01*
X17786Y323391D01*
X17769Y323380D01*
X17702Y323302D01*
X17630Y323227D01*
X17622Y323209D01*
X17609Y323193D01*
X17570Y323097D01*
X17527Y323004D01*
X17525Y322984D01*
X17517Y322965D01*
X17499Y322799D01*
X17499Y320275D01*
X14688Y317464D01*
X10712Y317464D01*
X7901Y320275D01*
X7901Y324250D01*
X10712Y327061D01*
X13236Y327061D01*
X13256Y327064D01*
X13275Y327062D01*
X13377Y327084D01*
X13479Y327101D01*
X13496Y327110D01*
X13516Y327115D01*
X13605Y327168D01*
X13696Y327216D01*
X13710Y327230D01*
X13727Y327241D01*
X13794Y327319D01*
X13866Y327394D01*
X13874Y327412D01*
X13887Y327428D01*
X13926Y327524D01*
X13969Y327617D01*
X13971Y327637D01*
X13979Y327656D01*
X13997Y327822D01*
X13997Y330346D01*
X16766Y333115D01*
X16835Y333211D01*
X16906Y333308D01*
X16907Y333312D01*
X16910Y333315D01*
X16945Y333428D01*
X16981Y333542D01*
X16981Y333546D01*
X16982Y333550D01*
X16979Y333668D01*
X16977Y333788D01*
X16976Y333792D01*
X16976Y333796D01*
X16935Y333909D01*
X16895Y334020D01*
X16893Y334023D01*
X16891Y334027D01*
X16816Y334121D01*
X16744Y334213D01*
X16740Y334216D01*
X16738Y334219D01*
X16726Y334227D01*
X16609Y334313D01*
X378Y343684D01*
X315Y343707D01*
X256Y343740D01*
X201Y343751D01*
X148Y343771D01*
X81Y343773D01*
X14Y343785D01*
X-41Y343778D01*
X-97Y343780D01*
X-162Y343760D01*
X-229Y343751D01*
X-302Y343719D01*
X-333Y343710D01*
X-350Y343698D01*
X-383Y343684D01*
X-99070Y286707D01*
X-99107Y286676D01*
X-99149Y286654D01*
X-99201Y286599D01*
X-99260Y286551D01*
X-99285Y286510D01*
X-99318Y286476D01*
X-99350Y286407D01*
X-99391Y286343D01*
X-99402Y286296D01*
X-99422Y286252D01*
X-99430Y286177D01*
X-99448Y286103D01*
X-99444Y286056D01*
X-99449Y286008D01*
X-99433Y285934D01*
X-99426Y285858D01*
X-99407Y285815D01*
X-99397Y285768D01*
X-99358Y285703D01*
X-99328Y285633D01*
X-99295Y285598D01*
X-99271Y285557D01*
X-99213Y285507D01*
X-99162Y285451D01*
X-99120Y285428D01*
X-99084Y285397D01*
X-99013Y285368D01*
X-98947Y285331D01*
X-98900Y285323D01*
X-98856Y285305D01*
X-98727Y285290D01*
X-98705Y285286D01*
X-98699Y285287D01*
X-98689Y285286D01*
X-98232Y285286D01*
X-95714Y282768D01*
X-95714Y279207D01*
X-98232Y276689D01*
X-101793Y276689D01*
X-104311Y279207D01*
X-104311Y282362D01*
X-104327Y282456D01*
X-104335Y282551D01*
X-104346Y282577D01*
X-104351Y282605D01*
X-104395Y282689D01*
X-104434Y282776D01*
X-104453Y282797D01*
X-104466Y282822D01*
X-104535Y282888D01*
X-104599Y282958D01*
X-104624Y282972D01*
X-104644Y282991D01*
X-104731Y283032D01*
X-104814Y283078D01*
X-104842Y283083D01*
X-104867Y283095D01*
X-104962Y283106D01*
X-105056Y283123D01*
X-105084Y283119D01*
X-105112Y283122D01*
X-105205Y283102D01*
X-105299Y283089D01*
X-105332Y283074D01*
X-105352Y283070D01*
X-105381Y283053D01*
X-105453Y283021D01*
X-147592Y258692D01*
X-147645Y258649D01*
X-147703Y258615D01*
X-147739Y258572D01*
X-147783Y258536D01*
X-147819Y258479D01*
X-147863Y258428D01*
X-147884Y258376D01*
X-147913Y258328D01*
X-147929Y258262D01*
X-147955Y258200D01*
X-147963Y258121D01*
X-147971Y258089D01*
X-147969Y258068D01*
X-147973Y258033D01*
X-147973Y237359D01*
X-147957Y237263D01*
X-147948Y237166D01*
X-147937Y237143D01*
X-147933Y237117D01*
X-147888Y237031D01*
X-147848Y236942D01*
X-147830Y236922D01*
X-147818Y236899D01*
X-147747Y236832D01*
X-147681Y236761D01*
X-147659Y236748D01*
X-147640Y236730D01*
X-147551Y236689D01*
X-147466Y236642D01*
X-147440Y236637D01*
X-147417Y236626D01*
X-147320Y236616D01*
X-147224Y236598D01*
X-147198Y236602D01*
X-147172Y236599D01*
X-147077Y236620D01*
X-146981Y236634D01*
X-146957Y236646D01*
X-146932Y236652D01*
X-146848Y236702D01*
X-146761Y236746D01*
X-146743Y236764D01*
X-146721Y236778D01*
X-146657Y236852D01*
X-146589Y236921D01*
X-146573Y236950D01*
X-146561Y236965D01*
X-146548Y236995D01*
X-146508Y237068D01*
X-145890Y238560D01*
X-143310Y241140D01*
X-139937Y242537D01*
X-136288Y242537D01*
X-132915Y241140D01*
X-130335Y238560D01*
X-128938Y235187D01*
X-128938Y231538D01*
X-129546Y230070D01*
X-129573Y229956D01*
X-129601Y229842D01*
X-129601Y229836D01*
X-129602Y229830D01*
X-129591Y229714D01*
X-129582Y229597D01*
X-129580Y229592D01*
X-129579Y229585D01*
X-129531Y229478D01*
X-129486Y229371D01*
X-129481Y229365D01*
X-129479Y229360D01*
X-129466Y229347D01*
X-129381Y229240D01*
X-109556Y209415D01*
X-109556Y118579D01*
X-109545Y118508D01*
X-109543Y118436D01*
X-109525Y118387D01*
X-109517Y118336D01*
X-109483Y118273D01*
X-109458Y118205D01*
X-109426Y118165D01*
X-109401Y118119D01*
X-109349Y118069D01*
X-109305Y118013D01*
X-109261Y117985D01*
X-109223Y117949D01*
X-109158Y117919D01*
X-109098Y117880D01*
X-109047Y117868D01*
X-109000Y117846D01*
X-108929Y117838D01*
X-108859Y117820D01*
X-108807Y117824D01*
X-108756Y117819D01*
X-108685Y117834D01*
X-108614Y117839D01*
X-108566Y117860D01*
X-108515Y117871D01*
X-108454Y117908D01*
X-108388Y117936D01*
X-108332Y117981D01*
X-108304Y117997D01*
X-108289Y118015D01*
X-108257Y118041D01*
X-106746Y119551D01*
X-103185Y119551D01*
X-102265Y118632D01*
X-102249Y118620D01*
X-102237Y118604D01*
X-102149Y118548D01*
X-102066Y118488D01*
X-102047Y118482D01*
X-102030Y118471D01*
X-101929Y118446D01*
X-101830Y118416D01*
X-101811Y118416D01*
X-101791Y118411D01*
X-101688Y118419D01*
X-101585Y118422D01*
X-101566Y118429D01*
X-101546Y118430D01*
X-101451Y118471D01*
X-101354Y118507D01*
X-101338Y118519D01*
X-101320Y118527D01*
X-101189Y118632D01*
X-99380Y120440D01*
X-95819Y120440D01*
X-93301Y117922D01*
X-93301Y114361D01*
X-93820Y113842D01*
X-93873Y113768D01*
X-93932Y113698D01*
X-93945Y113668D01*
X-93963Y113642D01*
X-93990Y113555D01*
X-94024Y113470D01*
X-94029Y113429D01*
X-94036Y113407D01*
X-94035Y113375D01*
X-94043Y113304D01*
X-94043Y103476D01*
X-94028Y103386D01*
X-94021Y103295D01*
X-94008Y103265D01*
X-94003Y103233D01*
X-93960Y103153D01*
X-93925Y103068D01*
X-93899Y103036D01*
X-93888Y103016D01*
X-93865Y102994D01*
X-93820Y102937D01*
X-93228Y102346D01*
X-93170Y102304D01*
X-93118Y102255D01*
X-93071Y102233D01*
X-93029Y102202D01*
X-92960Y102181D01*
X-92895Y102151D01*
X-92843Y102145D01*
X-92793Y102130D01*
X-92722Y102132D01*
X-92651Y102124D01*
X-92600Y102135D01*
X-92548Y102136D01*
X-92480Y102161D01*
X-92410Y102176D01*
X-92365Y102203D01*
X-92317Y102221D01*
X-92261Y102266D01*
X-92199Y102302D01*
X-92165Y102342D01*
X-92125Y102375D01*
X-92086Y102435D01*
X-92039Y102489D01*
X-92020Y102538D01*
X-91992Y102581D01*
X-91974Y102651D01*
X-91947Y102717D01*
X-91939Y102789D01*
X-91931Y102820D01*
X-91933Y102843D01*
X-91929Y102884D01*
X-91929Y104651D01*
X-89411Y107169D01*
X-85849Y107169D01*
X-83331Y104651D01*
X-83331Y101089D01*
X-85849Y98571D01*
X-87616Y98571D01*
X-87687Y98560D01*
X-87758Y98558D01*
X-87807Y98540D01*
X-87859Y98532D01*
X-87922Y98498D01*
X-87989Y98473D01*
X-88030Y98441D01*
X-88076Y98416D01*
X-88125Y98364D01*
X-88181Y98320D01*
X-88209Y98276D01*
X-88245Y98238D01*
X-88276Y98173D01*
X-88314Y98113D01*
X-88327Y98062D01*
X-88349Y98015D01*
X-88357Y97944D01*
X-88374Y97874D01*
X-88370Y97822D01*
X-88376Y97771D01*
X-88361Y97700D01*
X-88355Y97629D01*
X-88335Y97581D01*
X-88324Y97530D01*
X-88287Y97469D01*
X-88259Y97403D01*
X-88214Y97347D01*
X-88198Y97319D01*
X-88180Y97304D01*
X-88154Y97272D01*
X-81530Y90648D01*
X-81456Y90595D01*
X-81387Y90535D01*
X-81356Y90523D01*
X-81330Y90504D01*
X-81243Y90477D01*
X-81158Y90443D01*
X-81118Y90439D01*
X-81095Y90432D01*
X-81063Y90433D01*
X-80992Y90425D01*
X96041Y90425D01*
X96131Y90439D01*
X96222Y90447D01*
X96252Y90459D01*
X96284Y90464D01*
X96365Y90507D01*
X96449Y90543D01*
X96481Y90569D01*
X96501Y90580D01*
X96524Y90603D01*
X96580Y90648D01*
X97078Y91146D01*
X97131Y91220D01*
X97191Y91290D01*
X97203Y91320D01*
X97222Y91346D01*
X97249Y91433D01*
X97283Y91518D01*
X97287Y91559D01*
X97294Y91581D01*
X97293Y91613D01*
X97301Y91685D01*
X97301Y93856D01*
X99819Y96374D01*
X103381Y96374D01*
X105899Y93856D01*
X105899Y90294D01*
X105043Y89438D01*
X105031Y89422D01*
X105015Y89410D01*
X104959Y89322D01*
X104899Y89239D01*
X104893Y89220D01*
X104882Y89203D01*
X104857Y89102D01*
X104827Y89003D01*
X104827Y88984D01*
X104822Y88964D01*
X104830Y88861D01*
X104833Y88758D01*
X104840Y88739D01*
X104841Y88719D01*
X104882Y88624D01*
X104918Y88527D01*
X104930Y88511D01*
X104938Y88493D01*
X105043Y88362D01*
X107486Y85918D01*
X107486Y82357D01*
X104968Y79839D01*
X101386Y79839D01*
X101385Y79840D01*
X101316Y79899D01*
X101286Y79911D01*
X101260Y79930D01*
X101173Y79957D01*
X101088Y79991D01*
X101047Y79995D01*
X101025Y80002D01*
X100992Y80001D01*
X100921Y80009D01*
X83085Y80009D01*
X82229Y80866D01*
X82155Y80919D01*
X82085Y80978D01*
X82055Y80991D01*
X82029Y81009D01*
X81942Y81036D01*
X81857Y81070D01*
X81816Y81075D01*
X81794Y81082D01*
X81762Y81081D01*
X81690Y81089D01*
X72116Y81089D01*
X72046Y81077D01*
X71974Y81075D01*
X71925Y81057D01*
X71874Y81049D01*
X71810Y81015D01*
X71743Y80991D01*
X71702Y80958D01*
X71656Y80934D01*
X71607Y80882D01*
X71551Y80837D01*
X71523Y80793D01*
X71487Y80756D01*
X71457Y80691D01*
X71418Y80630D01*
X71405Y80580D01*
X71383Y80533D01*
X71375Y80461D01*
X71358Y80392D01*
X71362Y80340D01*
X71356Y80288D01*
X71371Y80218D01*
X71377Y80147D01*
X71397Y80099D01*
X71408Y80048D01*
X71445Y79986D01*
X71473Y79920D01*
X71518Y79864D01*
X71535Y79837D01*
X71552Y79821D01*
X71578Y79789D01*
X72625Y78743D01*
X72625Y75181D01*
X70107Y72663D01*
X66545Y72663D01*
X65494Y73714D01*
X65436Y73756D01*
X65384Y73806D01*
X65337Y73828D01*
X65295Y73858D01*
X65226Y73879D01*
X65161Y73909D01*
X65109Y73915D01*
X65059Y73930D01*
X64988Y73928D01*
X64917Y73936D01*
X64866Y73925D01*
X64814Y73924D01*
X64746Y73899D01*
X64676Y73884D01*
X64632Y73857D01*
X64583Y73839D01*
X64527Y73795D01*
X64465Y73758D01*
X64431Y73718D01*
X64391Y73686D01*
X64352Y73625D01*
X64305Y73571D01*
X64286Y73523D01*
X64258Y73479D01*
X64240Y73409D01*
X64213Y73343D01*
X64205Y73272D01*
X64197Y73240D01*
X64199Y73217D01*
X64195Y73176D01*
X64195Y69615D01*
X61677Y67097D01*
X58115Y67097D01*
X55597Y69615D01*
X55597Y73176D01*
X58115Y75694D01*
X61677Y75694D01*
X62728Y74643D01*
X62786Y74601D01*
X62838Y74552D01*
X62885Y74530D01*
X62927Y74500D01*
X62996Y74478D01*
X63061Y74448D01*
X63113Y74443D01*
X63163Y74427D01*
X63234Y74429D01*
X63305Y74421D01*
X63356Y74432D01*
X63408Y74434D01*
X63476Y74458D01*
X63546Y74473D01*
X63591Y74500D01*
X63639Y74518D01*
X63695Y74563D01*
X63757Y74600D01*
X63791Y74639D01*
X63831Y74672D01*
X63870Y74732D01*
X63917Y74787D01*
X63936Y74835D01*
X63964Y74879D01*
X63982Y74948D01*
X64009Y75015D01*
X64017Y75086D01*
X64025Y75117D01*
X64023Y75140D01*
X64027Y75181D01*
X64027Y78743D01*
X65074Y79789D01*
X65116Y79847D01*
X65165Y79899D01*
X65187Y79947D01*
X65217Y79989D01*
X65239Y80057D01*
X65269Y80123D01*
X65274Y80174D01*
X65290Y80224D01*
X65288Y80296D01*
X65296Y80367D01*
X65285Y80418D01*
X65283Y80470D01*
X65259Y80537D01*
X65244Y80607D01*
X65217Y80652D01*
X65199Y80701D01*
X65154Y80757D01*
X65117Y80818D01*
X65078Y80852D01*
X65045Y80893D01*
X64985Y80932D01*
X64931Y80978D01*
X64882Y80998D01*
X64838Y81026D01*
X64769Y81043D01*
X64702Y81070D01*
X64631Y81078D01*
X64600Y81086D01*
X64577Y81084D01*
X64536Y81089D01*
X28428Y81089D01*
X28358Y81077D01*
X28286Y81075D01*
X28237Y81057D01*
X28186Y81049D01*
X28122Y81015D01*
X28055Y80991D01*
X28014Y80958D01*
X27968Y80934D01*
X27919Y80882D01*
X27863Y80837D01*
X27835Y80793D01*
X27799Y80756D01*
X27769Y80691D01*
X27730Y80630D01*
X27717Y80580D01*
X27695Y80533D01*
X27687Y80461D01*
X27670Y80392D01*
X27674Y80340D01*
X27668Y80288D01*
X27683Y80218D01*
X27689Y80147D01*
X27709Y80099D01*
X27720Y80048D01*
X27757Y79986D01*
X27785Y79920D01*
X27830Y79864D01*
X27847Y79837D01*
X27864Y79821D01*
X27890Y79789D01*
X29445Y78235D01*
X29445Y74673D01*
X26927Y72155D01*
X23365Y72155D01*
X20847Y74673D01*
X20847Y78235D01*
X22402Y79789D01*
X22444Y79847D01*
X22493Y79899D01*
X22515Y79947D01*
X22545Y79989D01*
X22567Y80057D01*
X22597Y80123D01*
X22602Y80174D01*
X22618Y80224D01*
X22616Y80296D01*
X22624Y80367D01*
X22613Y80418D01*
X22611Y80470D01*
X22587Y80537D01*
X22572Y80607D01*
X22545Y80652D01*
X22527Y80701D01*
X22482Y80757D01*
X22445Y80818D01*
X22406Y80852D01*
X22373Y80893D01*
X22313Y80932D01*
X22259Y80978D01*
X22210Y80998D01*
X22166Y81026D01*
X22097Y81043D01*
X22030Y81070D01*
X21959Y81078D01*
X21928Y81086D01*
X21905Y81084D01*
X21864Y81089D01*
X-56408Y81089D01*
X-56478Y81077D01*
X-56550Y81075D01*
X-56599Y81057D01*
X-56650Y81049D01*
X-56714Y81016D01*
X-56781Y80991D01*
X-56822Y80958D01*
X-56868Y80934D01*
X-56917Y80882D01*
X-56973Y80837D01*
X-57001Y80793D01*
X-57037Y80756D01*
X-57067Y80690D01*
X-57106Y80630D01*
X-57119Y80580D01*
X-57141Y80533D01*
X-57149Y80461D01*
X-57166Y80392D01*
X-57162Y80340D01*
X-57168Y80288D01*
X-57153Y80218D01*
X-57147Y80146D01*
X-57127Y80099D01*
X-57116Y80048D01*
X-57079Y79986D01*
X-57051Y79920D01*
X-57006Y79864D01*
X-56989Y79837D01*
X-56972Y79821D01*
X-56946Y79789D01*
X-56661Y79505D01*
X-56661Y75943D01*
X-59179Y73425D01*
X-62741Y73425D01*
X-65259Y75943D01*
X-65259Y79505D01*
X-64974Y79789D01*
X-64932Y79848D01*
X-64883Y79899D01*
X-64861Y79947D01*
X-64831Y79989D01*
X-64809Y80057D01*
X-64779Y80123D01*
X-64774Y80174D01*
X-64758Y80224D01*
X-64760Y80296D01*
X-64752Y80367D01*
X-64763Y80418D01*
X-64765Y80470D01*
X-64789Y80537D01*
X-64804Y80607D01*
X-64831Y80652D01*
X-64849Y80701D01*
X-64894Y80757D01*
X-64931Y80818D01*
X-64970Y80852D01*
X-65003Y80893D01*
X-65063Y80932D01*
X-65117Y80978D01*
X-65166Y80998D01*
X-65210Y81026D01*
X-65279Y81043D01*
X-65346Y81070D01*
X-65417Y81078D01*
X-65448Y81086D01*
X-65471Y81084D01*
X-65512Y81089D01*
X-87603Y81089D01*
X-103188Y96674D01*
X-103188Y103207D01*
X-103200Y103278D01*
X-103202Y103350D01*
X-103220Y103399D01*
X-103228Y103450D01*
X-103261Y103513D01*
X-103286Y103581D01*
X-103319Y103621D01*
X-103343Y103667D01*
X-103395Y103717D01*
X-103440Y103773D01*
X-103484Y103801D01*
X-103521Y103837D01*
X-103586Y103867D01*
X-103647Y103906D01*
X-103697Y103918D01*
X-103744Y103940D01*
X-103816Y103948D01*
X-103885Y103966D01*
X-103937Y103962D01*
X-103989Y103967D01*
X-104059Y103952D01*
X-104131Y103947D01*
X-104178Y103926D01*
X-104229Y103915D01*
X-104291Y103878D01*
X-104357Y103850D01*
X-104413Y103805D01*
X-104440Y103789D01*
X-104456Y103771D01*
X-104488Y103745D01*
X-104582Y103651D01*
X-108143Y103651D01*
X-108257Y103765D01*
X-108315Y103807D01*
X-108367Y103856D01*
X-108414Y103878D01*
X-108456Y103908D01*
X-108525Y103930D01*
X-108590Y103960D01*
X-108642Y103965D01*
X-108692Y103981D01*
X-108763Y103979D01*
X-108834Y103987D01*
X-108885Y103976D01*
X-108937Y103974D01*
X-109005Y103950D01*
X-109075Y103935D01*
X-109120Y103908D01*
X-109168Y103890D01*
X-109224Y103845D01*
X-109286Y103808D01*
X-109320Y103769D01*
X-109360Y103736D01*
X-109399Y103676D01*
X-109446Y103622D01*
X-109465Y103573D01*
X-109493Y103529D01*
X-109511Y103460D01*
X-109538Y103393D01*
X-109546Y103322D01*
X-109554Y103291D01*
X-109552Y103268D01*
X-109556Y103227D01*
X-109556Y101712D01*
X-109553Y101692D01*
X-109555Y101673D01*
X-109533Y101571D01*
X-109517Y101469D01*
X-109507Y101452D01*
X-109503Y101432D01*
X-109450Y101343D01*
X-109401Y101252D01*
X-109387Y101238D01*
X-109377Y101221D01*
X-109298Y101154D01*
X-109223Y101082D01*
X-109205Y101074D01*
X-109190Y101061D01*
X-109094Y101022D01*
X-109000Y100979D01*
X-108980Y100977D01*
X-108962Y100969D01*
X-108795Y100951D01*
X-108729Y100951D01*
X-106211Y98433D01*
X-106211Y94871D01*
X-108729Y92353D01*
X-109105Y92353D01*
X-109176Y92342D01*
X-109247Y92340D01*
X-109296Y92322D01*
X-109348Y92314D01*
X-109411Y92280D01*
X-109478Y92255D01*
X-109519Y92223D01*
X-109565Y92198D01*
X-109614Y92147D01*
X-109671Y92102D01*
X-109699Y92058D01*
X-109735Y92020D01*
X-109765Y91955D01*
X-109804Y91895D01*
X-109816Y91844D01*
X-109838Y91797D01*
X-109846Y91726D01*
X-109864Y91656D01*
X-109860Y91604D01*
X-109865Y91553D01*
X-109850Y91482D01*
X-109844Y91411D01*
X-109824Y91363D01*
X-109813Y91312D01*
X-109776Y91251D01*
X-109748Y91185D01*
X-109703Y91129D01*
X-109687Y91101D01*
X-109669Y91086D01*
X-109643Y91054D01*
X-108808Y90218D01*
X-108791Y90206D01*
X-108779Y90191D01*
X-108692Y90135D01*
X-108608Y90074D01*
X-108589Y90069D01*
X-108572Y90058D01*
X-108471Y90032D01*
X-108373Y90002D01*
X-108353Y90003D01*
X-108333Y89998D01*
X-108230Y90006D01*
X-108127Y90008D01*
X-108108Y90015D01*
X-108088Y90017D01*
X-107993Y90057D01*
X-107896Y90093D01*
X-107880Y90105D01*
X-107862Y90113D01*
X-107731Y90218D01*
X-105326Y92623D01*
X-101557Y92623D01*
X-98893Y89959D01*
X-98893Y86190D01*
X-101557Y83526D01*
X-105326Y83526D01*
X-107913Y86113D01*
X-107929Y86124D01*
X-107941Y86140D01*
X-108029Y86196D01*
X-108112Y86256D01*
X-108131Y86262D01*
X-108148Y86273D01*
X-108249Y86298D01*
X-108348Y86329D01*
X-108367Y86328D01*
X-108387Y86333D01*
X-108490Y86325D01*
X-108593Y86322D01*
X-108612Y86315D01*
X-108632Y86314D01*
X-108727Y86274D01*
X-108824Y86238D01*
X-108840Y86225D01*
X-108858Y86218D01*
X-108989Y86113D01*
X-111145Y83958D01*
X-114706Y83958D01*
X-117224Y86476D01*
X-117224Y90352D01*
X-117233Y90408D01*
X-117234Y90489D01*
X-117242Y90511D01*
X-117244Y90535D01*
X-117260Y90571D01*
X-117264Y90595D01*
X-117289Y90643D01*
X-117316Y90720D01*
X-117331Y90739D01*
X-117340Y90761D01*
X-117373Y90802D01*
X-117379Y90812D01*
X-117390Y90823D01*
X-117445Y90892D01*
X-118618Y92065D01*
X-118618Y128699D01*
X-118630Y128769D01*
X-118632Y128841D01*
X-118650Y128890D01*
X-118658Y128941D01*
X-118691Y129005D01*
X-118716Y129072D01*
X-118749Y129113D01*
X-118773Y129159D01*
X-118825Y129208D01*
X-118870Y129264D01*
X-118914Y129292D01*
X-118951Y129328D01*
X-119016Y129358D01*
X-119077Y129397D01*
X-119127Y129410D01*
X-119174Y129432D01*
X-119246Y129440D01*
X-119315Y129457D01*
X-119367Y129453D01*
X-119419Y129459D01*
X-119489Y129444D01*
X-119561Y129438D01*
X-119608Y129418D01*
X-119659Y129407D01*
X-119721Y129370D01*
X-119787Y129342D01*
X-119843Y129297D01*
X-119870Y129280D01*
X-119886Y129263D01*
X-119918Y129237D01*
X-120353Y128801D01*
X-124122Y128801D01*
X-126786Y131466D01*
X-126786Y135234D01*
X-124122Y137899D01*
X-120353Y137899D01*
X-119918Y137463D01*
X-119859Y137421D01*
X-119808Y137372D01*
X-119760Y137350D01*
X-119718Y137320D01*
X-119650Y137299D01*
X-119584Y137268D01*
X-119533Y137263D01*
X-119483Y137247D01*
X-119411Y137249D01*
X-119340Y137241D01*
X-119289Y137252D01*
X-119237Y137254D01*
X-119170Y137278D01*
X-119100Y137293D01*
X-119055Y137320D01*
X-119006Y137338D01*
X-118950Y137383D01*
X-118889Y137420D01*
X-118855Y137459D01*
X-118814Y137492D01*
X-118775Y137552D01*
X-118729Y137607D01*
X-118709Y137655D01*
X-118681Y137699D01*
X-118664Y137768D01*
X-118637Y137835D01*
X-118629Y137906D01*
X-118621Y137937D01*
X-118623Y137960D01*
X-118618Y138001D01*
X-118618Y193005D01*
X-118633Y193095D01*
X-118640Y193186D01*
X-118653Y193216D01*
X-118658Y193248D01*
X-118701Y193329D01*
X-118736Y193413D01*
X-118762Y193445D01*
X-118773Y193465D01*
X-118796Y193488D01*
X-118841Y193544D01*
X-128864Y203566D01*
X-128901Y203593D01*
X-128932Y203627D01*
X-129000Y203664D01*
X-129063Y203710D01*
X-129107Y203723D01*
X-129147Y203745D01*
X-129224Y203759D01*
X-129298Y203782D01*
X-129344Y203781D01*
X-129390Y203789D01*
X-129467Y203778D01*
X-129544Y203776D01*
X-129587Y203760D01*
X-129633Y203753D01*
X-129702Y203718D01*
X-129775Y203691D01*
X-129811Y203662D01*
X-129852Y203642D01*
X-129906Y203586D01*
X-129967Y203537D01*
X-129992Y203499D01*
X-130024Y203466D01*
X-130090Y203346D01*
X-130100Y203330D01*
X-130102Y203326D01*
X-130105Y203319D01*
X-130335Y202765D01*
X-132915Y200185D01*
X-136288Y198788D01*
X-139937Y198788D01*
X-143310Y200185D01*
X-145890Y202765D01*
X-146508Y204256D01*
X-146559Y204339D01*
X-146605Y204425D01*
X-146624Y204443D01*
X-146637Y204465D01*
X-146713Y204527D01*
X-146783Y204594D01*
X-146807Y204605D01*
X-146827Y204622D01*
X-146918Y204657D01*
X-147006Y204698D01*
X-147032Y204701D01*
X-147057Y204710D01*
X-147154Y204714D01*
X-147251Y204725D01*
X-147276Y204719D01*
X-147302Y204720D01*
X-147396Y204693D01*
X-147491Y204672D01*
X-147513Y204659D01*
X-147538Y204652D01*
X-147618Y204596D01*
X-147702Y204546D01*
X-147719Y204526D01*
X-147741Y204512D01*
X-147799Y204433D01*
X-147862Y204359D01*
X-147872Y204335D01*
X-147887Y204314D01*
X-147917Y204222D01*
X-147954Y204131D01*
X-147957Y204099D01*
X-147964Y204080D01*
X-147963Y204047D01*
X-147972Y203965D01*
X-147972Y142112D01*
X-147956Y142016D01*
X-147947Y141919D01*
X-147936Y141895D01*
X-147932Y141870D01*
X-147886Y141784D01*
X-147847Y141695D01*
X-147829Y141675D01*
X-147817Y141652D01*
X-147746Y141585D01*
X-147680Y141513D01*
X-147657Y141501D01*
X-147638Y141483D01*
X-147550Y141442D01*
X-147465Y141395D01*
X-147439Y141390D01*
X-147415Y141379D01*
X-147319Y141369D01*
X-147223Y141351D01*
X-147197Y141355D01*
X-147171Y141352D01*
X-147076Y141373D01*
X-146979Y141387D01*
X-146956Y141399D01*
X-146931Y141404D01*
X-146847Y141454D01*
X-146760Y141498D01*
X-146742Y141517D01*
X-146719Y141531D01*
X-146656Y141605D01*
X-146588Y141674D01*
X-146572Y141703D01*
X-146559Y141718D01*
X-146547Y141748D01*
X-146507Y141821D01*
X-145890Y143310D01*
X-143310Y145890D01*
X-139937Y147287D01*
X-136288Y147287D01*
X-132915Y145890D01*
X-130335Y143310D01*
X-128938Y139937D01*
X-128938Y136288D01*
X-130335Y132915D01*
X-132915Y130335D01*
X-136288Y128938D01*
X-138602Y128938D01*
X-138672Y128926D01*
X-138744Y128924D01*
X-138793Y128906D01*
X-138844Y128898D01*
X-138908Y128865D01*
X-138975Y128840D01*
X-139016Y128807D01*
X-139062Y128783D01*
X-139111Y128731D01*
X-139167Y128686D01*
X-139195Y128642D01*
X-139231Y128605D01*
X-139261Y128539D01*
X-139300Y128479D01*
X-139313Y128429D01*
X-139335Y128382D01*
X-139343Y128310D01*
X-139360Y128241D01*
X-139356Y128189D01*
X-139362Y128137D01*
X-139347Y128067D01*
X-139341Y127995D01*
X-139321Y127948D01*
X-139310Y127897D01*
X-139273Y127835D01*
X-139245Y127769D01*
X-139200Y127713D01*
X-139183Y127686D01*
X-139166Y127670D01*
X-139140Y127638D01*
X-138902Y127400D01*
X-138902Y123425D01*
X-141713Y120614D01*
X-145688Y120614D01*
X-146672Y121597D01*
X-146730Y121639D01*
X-146782Y121689D01*
X-146829Y121711D01*
X-146872Y121741D01*
X-146940Y121762D01*
X-147005Y121792D01*
X-147057Y121798D01*
X-147107Y121813D01*
X-147178Y121811D01*
X-147250Y121819D01*
X-147300Y121808D01*
X-147353Y121807D01*
X-147420Y121782D01*
X-147490Y121767D01*
X-147535Y121740D01*
X-147584Y121722D01*
X-147639Y121678D01*
X-147701Y121641D01*
X-147735Y121601D01*
X-147776Y121569D01*
X-147814Y121508D01*
X-147861Y121454D01*
X-147880Y121406D01*
X-147909Y121362D01*
X-147926Y121292D01*
X-147953Y121226D01*
X-147961Y121154D01*
X-147969Y121123D01*
X-147967Y121100D01*
X-147971Y121059D01*
X-147971Y88046D01*
X-147960Y87979D01*
X-147959Y87912D01*
X-147940Y87859D01*
X-147931Y87803D01*
X-147900Y87744D01*
X-147877Y87680D01*
X-147842Y87636D01*
X-147816Y87586D01*
X-147767Y87539D01*
X-147725Y87486D01*
X-147662Y87439D01*
X-147638Y87416D01*
X-147619Y87408D01*
X-147590Y87387D01*
X-115224Y68700D01*
X-115135Y68666D01*
X-115048Y68626D01*
X-115020Y68623D01*
X-114994Y68613D01*
X-114899Y68609D01*
X-114804Y68599D01*
X-114777Y68605D01*
X-114748Y68604D01*
X-114657Y68631D01*
X-114564Y68651D01*
X-114539Y68665D01*
X-114512Y68673D01*
X-114434Y68728D01*
X-114353Y68777D01*
X-114334Y68798D01*
X-114311Y68815D01*
X-114255Y68892D01*
X-114193Y68964D01*
X-114182Y68990D01*
X-114165Y69013D01*
X-114136Y69104D01*
X-114101Y69192D01*
X-114097Y69227D01*
X-114090Y69247D01*
X-114091Y69280D01*
X-114082Y69359D01*
X-114082Y72282D01*
X-111271Y75093D01*
X-107296Y75093D01*
X-104485Y72282D01*
X-104485Y68307D01*
X-107465Y65326D01*
X-107534Y65230D01*
X-107605Y65134D01*
X-107606Y65130D01*
X-107609Y65127D01*
X-107644Y65013D01*
X-107680Y64900D01*
X-107680Y64895D01*
X-107681Y64892D01*
X-107678Y64773D01*
X-107676Y64654D01*
X-107675Y64650D01*
X-107675Y64646D01*
X-107634Y64533D01*
X-107594Y64422D01*
X-107592Y64419D01*
X-107590Y64415D01*
X-107515Y64321D01*
X-107443Y64228D01*
X-107439Y64225D01*
X-107437Y64223D01*
X-107425Y64215D01*
X-107308Y64129D01*
X-378Y2391D01*
X-315Y2368D01*
X-256Y2335D01*
X-201Y2324D01*
X-148Y2304D01*
X-81Y2302D01*
X-14Y2290D01*
X41Y2297D01*
G37*
%LPC*%
G36*
X99248Y168612D02*
X99248Y168612D01*
X96730Y171130D01*
X96730Y171323D01*
X96727Y171343D01*
X96729Y171362D01*
X96707Y171464D01*
X96690Y171566D01*
X96681Y171583D01*
X96676Y171603D01*
X96623Y171692D01*
X96575Y171783D01*
X96561Y171797D01*
X96550Y171814D01*
X96472Y171881D01*
X96397Y171953D01*
X96379Y171961D01*
X96363Y171974D01*
X96267Y172013D01*
X96174Y172056D01*
X96154Y172058D01*
X96135Y172066D01*
X95969Y172084D01*
X84673Y172084D01*
X75956Y180801D01*
X75898Y180842D01*
X75846Y180892D01*
X75799Y180914D01*
X75757Y180944D01*
X75688Y180965D01*
X75623Y180995D01*
X75571Y181001D01*
X75521Y181017D01*
X75450Y181015D01*
X75379Y181023D01*
X75328Y181011D01*
X75276Y181010D01*
X75208Y180986D01*
X75138Y180970D01*
X75093Y180944D01*
X75045Y180926D01*
X74989Y180881D01*
X74927Y180844D01*
X74893Y180805D01*
X74853Y180772D01*
X74814Y180712D01*
X74767Y180657D01*
X74748Y180609D01*
X74720Y180565D01*
X74702Y180496D01*
X74675Y180429D01*
X74667Y180358D01*
X74659Y180327D01*
X74661Y180303D01*
X74657Y180262D01*
X74657Y177289D01*
X72139Y174771D01*
X68577Y174771D01*
X66059Y177289D01*
X66059Y180851D01*
X67106Y181897D01*
X67148Y181955D01*
X67197Y182007D01*
X67219Y182055D01*
X67249Y182097D01*
X67271Y182165D01*
X67301Y182231D01*
X67306Y182282D01*
X67322Y182332D01*
X67320Y182404D01*
X67328Y182475D01*
X67317Y182526D01*
X67315Y182578D01*
X67291Y182645D01*
X67276Y182715D01*
X67249Y182760D01*
X67231Y182809D01*
X67186Y182865D01*
X67149Y182926D01*
X67110Y182960D01*
X67077Y183001D01*
X67017Y183040D01*
X66963Y183086D01*
X66914Y183106D01*
X66870Y183134D01*
X66801Y183151D01*
X66734Y183178D01*
X66663Y183186D01*
X66632Y183194D01*
X66609Y183192D01*
X66568Y183197D01*
X-73426Y183197D01*
X-73496Y183185D01*
X-73568Y183183D01*
X-73617Y183165D01*
X-73668Y183157D01*
X-73732Y183124D01*
X-73799Y183099D01*
X-73840Y183066D01*
X-73886Y183042D01*
X-73935Y182990D01*
X-73991Y182945D01*
X-74019Y182901D01*
X-74055Y182864D01*
X-74085Y182798D01*
X-74124Y182738D01*
X-74137Y182688D01*
X-74159Y182641D01*
X-74167Y182569D01*
X-74184Y182500D01*
X-74180Y182448D01*
X-74186Y182396D01*
X-74171Y182326D01*
X-74165Y182254D01*
X-74145Y182207D01*
X-74134Y182156D01*
X-74097Y182094D01*
X-74069Y182028D01*
X-74024Y181972D01*
X-74007Y181945D01*
X-73990Y181929D01*
X-73964Y181897D01*
X-73679Y181613D01*
X-73679Y178051D01*
X-76197Y175533D01*
X-79759Y175533D01*
X-82277Y178051D01*
X-82277Y181613D01*
X-81992Y181897D01*
X-81950Y181956D01*
X-81901Y182007D01*
X-81879Y182055D01*
X-81849Y182097D01*
X-81827Y182165D01*
X-81797Y182231D01*
X-81792Y182282D01*
X-81776Y182332D01*
X-81778Y182404D01*
X-81770Y182475D01*
X-81781Y182526D01*
X-81783Y182578D01*
X-81807Y182645D01*
X-81822Y182715D01*
X-81849Y182760D01*
X-81867Y182809D01*
X-81912Y182865D01*
X-81949Y182926D01*
X-81988Y182960D01*
X-82021Y183001D01*
X-82081Y183040D01*
X-82135Y183086D01*
X-82184Y183106D01*
X-82228Y183134D01*
X-82297Y183151D01*
X-82364Y183178D01*
X-82435Y183186D01*
X-82466Y183194D01*
X-82489Y183192D01*
X-82530Y183197D01*
X-96302Y183197D01*
X-102259Y189153D01*
X-102333Y189206D01*
X-102402Y189266D01*
X-102433Y189278D01*
X-102459Y189297D01*
X-102546Y189324D01*
X-102631Y189358D01*
X-102671Y189362D01*
X-102694Y189369D01*
X-102726Y189368D01*
X-102797Y189376D01*
X-104968Y189376D01*
X-107486Y191894D01*
X-107486Y195456D01*
X-104832Y198110D01*
X-104790Y198168D01*
X-104741Y198220D01*
X-104719Y198267D01*
X-104689Y198309D01*
X-104667Y198378D01*
X-104637Y198443D01*
X-104632Y198495D01*
X-104616Y198545D01*
X-104618Y198616D01*
X-104610Y198687D01*
X-104621Y198738D01*
X-104623Y198790D01*
X-104647Y198858D01*
X-104662Y198928D01*
X-104689Y198973D01*
X-104707Y199021D01*
X-104752Y199077D01*
X-104789Y199139D01*
X-104828Y199173D01*
X-104861Y199213D01*
X-104921Y199252D01*
X-104975Y199299D01*
X-105024Y199318D01*
X-105068Y199346D01*
X-105137Y199364D01*
X-105204Y199391D01*
X-105275Y199399D01*
X-105306Y199407D01*
X-105329Y199405D01*
X-105370Y199409D01*
X-105476Y199409D01*
X-107994Y201927D01*
X-107994Y205489D01*
X-105476Y208007D01*
X-101654Y208007D01*
X-101564Y208021D01*
X-101473Y208029D01*
X-101443Y208041D01*
X-101411Y208046D01*
X-101331Y208089D01*
X-101247Y208125D01*
X-101215Y208151D01*
X-101194Y208162D01*
X-101172Y208185D01*
X-101116Y208230D01*
X-97984Y211361D01*
X-97943Y211419D01*
X-97893Y211471D01*
X-97871Y211519D01*
X-97841Y211561D01*
X-97820Y211629D01*
X-97790Y211695D01*
X-97784Y211746D01*
X-97768Y211796D01*
X-97770Y211868D01*
X-97762Y211939D01*
X-97774Y211990D01*
X-97775Y212042D01*
X-97799Y212109D01*
X-97815Y212179D01*
X-97841Y212224D01*
X-97859Y212273D01*
X-97904Y212329D01*
X-97941Y212390D01*
X-97980Y212424D01*
X-98013Y212465D01*
X-98073Y212504D01*
X-98128Y212550D01*
X-98176Y212570D01*
X-98220Y212598D01*
X-98289Y212615D01*
X-98356Y212642D01*
X-98427Y212650D01*
X-98458Y212658D01*
X-98482Y212656D01*
X-98523Y212661D01*
X-100032Y212661D01*
X-100122Y212646D01*
X-100213Y212639D01*
X-100243Y212626D01*
X-100275Y212621D01*
X-100356Y212578D01*
X-100439Y212543D01*
X-100472Y212517D01*
X-100492Y212506D01*
X-100514Y212483D01*
X-100570Y212438D01*
X-101407Y211601D01*
X-104968Y211601D01*
X-107486Y214119D01*
X-107486Y217681D01*
X-104968Y220199D01*
X-101407Y220199D01*
X-99173Y217965D01*
X-99099Y217912D01*
X-99030Y217853D01*
X-99000Y217840D01*
X-98974Y217822D01*
X-98887Y217795D01*
X-98802Y217761D01*
X-98761Y217756D01*
X-98739Y217749D01*
X-98706Y217750D01*
X-98635Y217742D01*
X90611Y217742D01*
X92323Y216031D01*
X97589Y210764D01*
X97647Y210723D01*
X97699Y210673D01*
X97747Y210651D01*
X97789Y210621D01*
X97857Y210600D01*
X97923Y210570D01*
X97974Y210564D01*
X98024Y210548D01*
X98096Y210550D01*
X98167Y210542D01*
X98218Y210554D01*
X98270Y210555D01*
X98337Y210579D01*
X98407Y210595D01*
X98452Y210621D01*
X98501Y210639D01*
X98557Y210684D01*
X98618Y210721D01*
X98652Y210760D01*
X98693Y210793D01*
X98732Y210853D01*
X98778Y210908D01*
X98798Y210956D01*
X98826Y211000D01*
X98843Y211069D01*
X98870Y211136D01*
X98878Y211207D01*
X98886Y211238D01*
X98884Y211262D01*
X98889Y211303D01*
X98889Y211528D01*
X98874Y211618D01*
X98867Y211709D01*
X98854Y211739D01*
X98849Y211771D01*
X98806Y211851D01*
X98771Y211935D01*
X98745Y211967D01*
X98734Y211988D01*
X98711Y212010D01*
X98666Y212066D01*
X79004Y231728D01*
X78946Y231769D01*
X78894Y231819D01*
X78847Y231841D01*
X78805Y231871D01*
X78736Y231892D01*
X78671Y231922D01*
X78619Y231928D01*
X78569Y231944D01*
X78498Y231942D01*
X78427Y231950D01*
X78376Y231938D01*
X78324Y231937D01*
X78256Y231913D01*
X78186Y231897D01*
X78141Y231871D01*
X78093Y231853D01*
X78037Y231808D01*
X77975Y231771D01*
X77941Y231732D01*
X77901Y231699D01*
X77862Y231639D01*
X77815Y231584D01*
X77796Y231536D01*
X77768Y231492D01*
X77750Y231423D01*
X77723Y231356D01*
X77715Y231285D01*
X77707Y231254D01*
X77709Y231230D01*
X77705Y231189D01*
X77705Y228089D01*
X75187Y225571D01*
X71625Y225571D01*
X69107Y228089D01*
X69107Y231651D01*
X70408Y232951D01*
X70450Y233009D01*
X70499Y233061D01*
X70521Y233109D01*
X70551Y233151D01*
X70573Y233219D01*
X70603Y233285D01*
X70608Y233336D01*
X70624Y233386D01*
X70622Y233458D01*
X70630Y233529D01*
X70619Y233580D01*
X70617Y233632D01*
X70593Y233699D01*
X70578Y233769D01*
X70551Y233814D01*
X70533Y233863D01*
X70488Y233919D01*
X70451Y233980D01*
X70412Y234014D01*
X70379Y234055D01*
X70319Y234094D01*
X70265Y234140D01*
X70216Y234160D01*
X70172Y234188D01*
X70103Y234205D01*
X70036Y234232D01*
X69965Y234240D01*
X69934Y234248D01*
X69911Y234246D01*
X69870Y234251D01*
X22078Y234251D01*
X22008Y234239D01*
X21936Y234237D01*
X21887Y234219D01*
X21836Y234211D01*
X21772Y234177D01*
X21705Y234153D01*
X21664Y234120D01*
X21618Y234096D01*
X21569Y234044D01*
X21513Y233999D01*
X21485Y233955D01*
X21449Y233918D01*
X21419Y233853D01*
X21380Y233792D01*
X21367Y233742D01*
X21345Y233695D01*
X21337Y233623D01*
X21320Y233554D01*
X21324Y233502D01*
X21318Y233450D01*
X21333Y233380D01*
X21339Y233309D01*
X21359Y233261D01*
X21370Y233210D01*
X21407Y233148D01*
X21435Y233082D01*
X21480Y233026D01*
X21497Y232999D01*
X21514Y232983D01*
X21540Y232951D01*
X22841Y231651D01*
X22841Y228089D01*
X20323Y225571D01*
X16761Y225571D01*
X14243Y228089D01*
X14243Y231651D01*
X15544Y232951D01*
X15586Y233009D01*
X15635Y233061D01*
X15657Y233109D01*
X15687Y233151D01*
X15709Y233219D01*
X15739Y233285D01*
X15744Y233336D01*
X15760Y233386D01*
X15758Y233458D01*
X15766Y233529D01*
X15755Y233580D01*
X15753Y233632D01*
X15729Y233699D01*
X15714Y233769D01*
X15687Y233814D01*
X15669Y233863D01*
X15624Y233919D01*
X15587Y233980D01*
X15548Y234014D01*
X15515Y234055D01*
X15455Y234094D01*
X15401Y234140D01*
X15352Y234160D01*
X15308Y234188D01*
X15239Y234205D01*
X15172Y234232D01*
X15101Y234240D01*
X15070Y234248D01*
X15047Y234246D01*
X15006Y234251D01*
X-74442Y234251D01*
X-74512Y234239D01*
X-74584Y234237D01*
X-74633Y234219D01*
X-74684Y234211D01*
X-74748Y234177D01*
X-74815Y234153D01*
X-74856Y234120D01*
X-74902Y234096D01*
X-74951Y234044D01*
X-75007Y233999D01*
X-75035Y233955D01*
X-75071Y233918D01*
X-75101Y233853D01*
X-75140Y233792D01*
X-75153Y233742D01*
X-75175Y233695D01*
X-75183Y233623D01*
X-75200Y233554D01*
X-75196Y233502D01*
X-75202Y233450D01*
X-75187Y233380D01*
X-75181Y233309D01*
X-75161Y233261D01*
X-75150Y233210D01*
X-75113Y233148D01*
X-75085Y233082D01*
X-75040Y233026D01*
X-75023Y232999D01*
X-75006Y232983D01*
X-74980Y232951D01*
X-73679Y231651D01*
X-73679Y228089D01*
X-76197Y225571D01*
X-79759Y225571D01*
X-82277Y228089D01*
X-82277Y231651D01*
X-80976Y232951D01*
X-80934Y233009D01*
X-80885Y233061D01*
X-80863Y233109D01*
X-80833Y233151D01*
X-80811Y233219D01*
X-80781Y233285D01*
X-80776Y233336D01*
X-80760Y233386D01*
X-80762Y233458D01*
X-80754Y233529D01*
X-80765Y233580D01*
X-80767Y233632D01*
X-80791Y233699D01*
X-80806Y233769D01*
X-80833Y233814D01*
X-80851Y233863D01*
X-80896Y233919D01*
X-80933Y233980D01*
X-80972Y234014D01*
X-81005Y234055D01*
X-81065Y234094D01*
X-81119Y234140D01*
X-81168Y234160D01*
X-81212Y234188D01*
X-81281Y234205D01*
X-81348Y234232D01*
X-81419Y234240D01*
X-81450Y234248D01*
X-81473Y234246D01*
X-81514Y234251D01*
X-95597Y234251D01*
X-95687Y234236D01*
X-95778Y234229D01*
X-95808Y234216D01*
X-95840Y234211D01*
X-95920Y234168D01*
X-96004Y234133D01*
X-96036Y234107D01*
X-96057Y234096D01*
X-96079Y234073D01*
X-96135Y234028D01*
X-99341Y230822D01*
X-99588Y230822D01*
X-99678Y230807D01*
X-99769Y230800D01*
X-99798Y230787D01*
X-99830Y230782D01*
X-99911Y230739D01*
X-99995Y230704D01*
X-100027Y230678D01*
X-100048Y230667D01*
X-100070Y230644D01*
X-100126Y230599D01*
X-101661Y229064D01*
X-105222Y229064D01*
X-107740Y231582D01*
X-107740Y235143D01*
X-106503Y236380D01*
X-106491Y236396D01*
X-106476Y236409D01*
X-106420Y236496D01*
X-106360Y236580D01*
X-106354Y236599D01*
X-106343Y236616D01*
X-106318Y236716D01*
X-106287Y236815D01*
X-106288Y236835D01*
X-106283Y236854D01*
X-106291Y236957D01*
X-106294Y237061D01*
X-106300Y237080D01*
X-106302Y237099D01*
X-106342Y237194D01*
X-106378Y237292D01*
X-106391Y237308D01*
X-106398Y237326D01*
X-106503Y237457D01*
X-107994Y238948D01*
X-107994Y242509D01*
X-105476Y245027D01*
X-101915Y245027D01*
X-100380Y243492D01*
X-100306Y243439D01*
X-100236Y243380D01*
X-100206Y243367D01*
X-100180Y243349D01*
X-100093Y243322D01*
X-100008Y243288D01*
X-99967Y243283D01*
X-99945Y243276D01*
X-99913Y243277D01*
X-99842Y243269D01*
X80364Y243269D01*
X100295Y223338D01*
X100311Y223327D01*
X100324Y223311D01*
X100411Y223255D01*
X100495Y223195D01*
X100514Y223189D01*
X100530Y223178D01*
X100631Y223153D01*
X100730Y223122D01*
X100750Y223123D01*
X100769Y223118D01*
X100872Y223126D01*
X100976Y223129D01*
X100994Y223136D01*
X101014Y223137D01*
X101109Y223178D01*
X101207Y223213D01*
X101222Y223226D01*
X101241Y223233D01*
X101371Y223338D01*
X101407Y223374D01*
X102084Y223374D01*
X102155Y223385D01*
X102227Y223387D01*
X102276Y223405D01*
X102327Y223413D01*
X102390Y223447D01*
X102458Y223472D01*
X102498Y223504D01*
X102544Y223529D01*
X102594Y223581D01*
X102650Y223625D01*
X102678Y223669D01*
X102714Y223707D01*
X102744Y223772D01*
X102783Y223832D01*
X102795Y223883D01*
X102817Y223930D01*
X102825Y224001D01*
X102843Y224071D01*
X102839Y224123D01*
X102844Y224174D01*
X102829Y224245D01*
X102824Y224316D01*
X102803Y224364D01*
X102792Y224415D01*
X102755Y224476D01*
X102727Y224542D01*
X102682Y224598D01*
X102666Y224626D01*
X102648Y224641D01*
X102622Y224673D01*
X100476Y226819D01*
X100476Y226958D01*
X100462Y227048D01*
X100454Y227139D01*
X100442Y227169D01*
X100437Y227201D01*
X100394Y227282D01*
X100358Y227366D01*
X100332Y227398D01*
X100321Y227418D01*
X100298Y227441D01*
X100253Y227497D01*
X73924Y253826D01*
X73866Y253867D01*
X73814Y253917D01*
X73767Y253939D01*
X73725Y253969D01*
X73656Y253990D01*
X73591Y254020D01*
X73539Y254026D01*
X73489Y254042D01*
X73418Y254040D01*
X73347Y254048D01*
X73296Y254036D01*
X73244Y254035D01*
X73176Y254011D01*
X73106Y253995D01*
X73062Y253969D01*
X73013Y253951D01*
X72957Y253906D01*
X72895Y253869D01*
X72861Y253830D01*
X72821Y253797D01*
X72782Y253737D01*
X72735Y253682D01*
X72716Y253634D01*
X72688Y253590D01*
X72670Y253521D01*
X72643Y253454D01*
X72635Y253383D01*
X72627Y253352D01*
X72629Y253328D01*
X72625Y253287D01*
X72625Y253235D01*
X70107Y250717D01*
X66545Y250717D01*
X64027Y253235D01*
X64027Y256797D01*
X65010Y257780D01*
X65052Y257838D01*
X65102Y257890D01*
X65124Y257937D01*
X65154Y257979D01*
X65175Y258048D01*
X65205Y258113D01*
X65211Y258165D01*
X65226Y258215D01*
X65224Y258286D01*
X65232Y258357D01*
X65221Y258408D01*
X65220Y258460D01*
X65195Y258528D01*
X65180Y258598D01*
X65153Y258643D01*
X65136Y258691D01*
X65091Y258747D01*
X65054Y258809D01*
X65014Y258843D01*
X64982Y258883D01*
X64922Y258922D01*
X64867Y258969D01*
X64819Y258988D01*
X64775Y259016D01*
X64705Y259034D01*
X64639Y259061D01*
X64568Y259069D01*
X64536Y259077D01*
X64513Y259075D01*
X64472Y259079D01*
X19602Y259079D01*
X19531Y259068D01*
X19459Y259066D01*
X19410Y259048D01*
X19359Y259040D01*
X19296Y259006D01*
X19228Y258981D01*
X19188Y258949D01*
X19142Y258924D01*
X19092Y258872D01*
X19036Y258828D01*
X19008Y258784D01*
X18972Y258746D01*
X18942Y258681D01*
X18903Y258621D01*
X18891Y258570D01*
X18869Y258523D01*
X18861Y258452D01*
X18843Y258382D01*
X18847Y258330D01*
X18842Y258279D01*
X18857Y258208D01*
X18862Y258137D01*
X18883Y258089D01*
X18894Y258038D01*
X18931Y257977D01*
X18959Y257911D01*
X19004Y257855D01*
X19020Y257827D01*
X19038Y257812D01*
X19064Y257780D01*
X20047Y256797D01*
X20047Y253235D01*
X17529Y250717D01*
X13967Y250717D01*
X11449Y253235D01*
X11449Y256797D01*
X12432Y257780D01*
X12474Y257838D01*
X12524Y257890D01*
X12546Y257937D01*
X12576Y257979D01*
X12597Y258048D01*
X12627Y258113D01*
X12633Y258165D01*
X12648Y258215D01*
X12646Y258286D01*
X12654Y258357D01*
X12643Y258408D01*
X12642Y258460D01*
X12617Y258528D01*
X12602Y258598D01*
X12575Y258643D01*
X12558Y258691D01*
X12513Y258747D01*
X12476Y258809D01*
X12436Y258843D01*
X12404Y258883D01*
X12344Y258922D01*
X12289Y258969D01*
X12241Y258988D01*
X12197Y259016D01*
X12127Y259034D01*
X12061Y259061D01*
X11990Y259069D01*
X11958Y259077D01*
X11935Y259075D01*
X11894Y259079D01*
X-73108Y259079D01*
X-73179Y259068D01*
X-73251Y259066D01*
X-73299Y259048D01*
X-73351Y259040D01*
X-73414Y259006D01*
X-73482Y258981D01*
X-73522Y258949D01*
X-73568Y258924D01*
X-73618Y258872D01*
X-73674Y258828D01*
X-73702Y258784D01*
X-73738Y258746D01*
X-73768Y258681D01*
X-73807Y258621D01*
X-73819Y258570D01*
X-73841Y258523D01*
X-73849Y258452D01*
X-73867Y258382D01*
X-73863Y258330D01*
X-73868Y258279D01*
X-73853Y258208D01*
X-73848Y258137D01*
X-73827Y258089D01*
X-73816Y258038D01*
X-73779Y257977D01*
X-73751Y257911D01*
X-73706Y257855D01*
X-73690Y257827D01*
X-73679Y257818D01*
X-73679Y254251D01*
X-76197Y251733D01*
X-79759Y251733D01*
X-82277Y254251D01*
X-82277Y257825D01*
X-82268Y257838D01*
X-82218Y257890D01*
X-82196Y257937D01*
X-82166Y257979D01*
X-82145Y258048D01*
X-82115Y258113D01*
X-82109Y258165D01*
X-82094Y258214D01*
X-82096Y258286D01*
X-82088Y258357D01*
X-82099Y258408D01*
X-82100Y258460D01*
X-82125Y258528D01*
X-82140Y258598D01*
X-82167Y258643D01*
X-82184Y258691D01*
X-82229Y258747D01*
X-82266Y258809D01*
X-82306Y258843D01*
X-82338Y258883D01*
X-82398Y258922D01*
X-82453Y258969D01*
X-82501Y258988D01*
X-82545Y259016D01*
X-82615Y259034D01*
X-82681Y259061D01*
X-82752Y259069D01*
X-82784Y259077D01*
X-82807Y259075D01*
X-82848Y259079D01*
X-93755Y259079D01*
X-93845Y259065D01*
X-93936Y259057D01*
X-93966Y259045D01*
X-93998Y259040D01*
X-94079Y258997D01*
X-94163Y258961D01*
X-94195Y258935D01*
X-94215Y258924D01*
X-94238Y258901D01*
X-94294Y258856D01*
X-96357Y256793D01*
X-99143Y256793D01*
X-99233Y256779D01*
X-99324Y256771D01*
X-99354Y256759D01*
X-99386Y256754D01*
X-99466Y256711D01*
X-99550Y256675D01*
X-99583Y256649D01*
X-99603Y256638D01*
X-99625Y256615D01*
X-99681Y256570D01*
X-101216Y255035D01*
X-104778Y255035D01*
X-107296Y257553D01*
X-107296Y261115D01*
X-105868Y262542D01*
X-105856Y262558D01*
X-105841Y262571D01*
X-105785Y262658D01*
X-105725Y262742D01*
X-105719Y262761D01*
X-105708Y262778D01*
X-105683Y262878D01*
X-105652Y262977D01*
X-105653Y262997D01*
X-105648Y263016D01*
X-105656Y263119D01*
X-105659Y263223D01*
X-105665Y263242D01*
X-105667Y263261D01*
X-105707Y263356D01*
X-105743Y263454D01*
X-105756Y263470D01*
X-105763Y263488D01*
X-105868Y263619D01*
X-107296Y265046D01*
X-107296Y268608D01*
X-104778Y271126D01*
X-101216Y271126D01*
X-98661Y268571D01*
X-98659Y268553D01*
X-98649Y268535D01*
X-98645Y268516D01*
X-98592Y268427D01*
X-98543Y268335D01*
X-98529Y268322D01*
X-98519Y268305D01*
X-98440Y268237D01*
X-98365Y268166D01*
X-98347Y268158D01*
X-98332Y268145D01*
X-98236Y268106D01*
X-98142Y268062D01*
X-98122Y268060D01*
X-98104Y268053D01*
X-97937Y268034D01*
X72363Y268034D01*
X73915Y266482D01*
X74074Y266323D01*
X100778Y239619D01*
X100852Y239566D01*
X100922Y239506D01*
X100952Y239494D01*
X100978Y239475D01*
X101065Y239448D01*
X101150Y239414D01*
X101191Y239410D01*
X101213Y239403D01*
X101245Y239404D01*
X101317Y239396D01*
X102445Y239396D01*
X102535Y239410D01*
X102626Y239418D01*
X102656Y239430D01*
X102688Y239435D01*
X102768Y239478D01*
X102852Y239514D01*
X102885Y239540D01*
X102905Y239551D01*
X102927Y239574D01*
X102983Y239619D01*
X103174Y239809D01*
X103186Y239825D01*
X103201Y239838D01*
X103257Y239925D01*
X103317Y240009D01*
X103323Y240028D01*
X103334Y240045D01*
X103359Y240145D01*
X103390Y240244D01*
X103389Y240264D01*
X103394Y240283D01*
X103386Y240386D01*
X103383Y240490D01*
X103377Y240509D01*
X103375Y240528D01*
X103335Y240624D01*
X103299Y240721D01*
X103287Y240736D01*
X103279Y240755D01*
X103174Y240886D01*
X101238Y242821D01*
X101238Y246383D01*
X103756Y248901D01*
X107318Y248901D01*
X109836Y246383D01*
X109836Y242821D01*
X108662Y241648D01*
X108650Y241632D01*
X108635Y241619D01*
X108579Y241532D01*
X108519Y241448D01*
X108513Y241429D01*
X108502Y241412D01*
X108477Y241312D01*
X108446Y241213D01*
X108447Y241193D01*
X108442Y241174D01*
X108450Y241071D01*
X108453Y240967D01*
X108459Y240948D01*
X108461Y240928D01*
X108501Y240834D01*
X108537Y240736D01*
X108550Y240720D01*
X108557Y240702D01*
X108662Y240571D01*
X110598Y238636D01*
X110598Y235074D01*
X108027Y232504D01*
X108015Y232488D01*
X108000Y232475D01*
X107944Y232388D01*
X107884Y232304D01*
X107878Y232285D01*
X107867Y232268D01*
X107842Y232168D01*
X107811Y232069D01*
X107812Y232049D01*
X107807Y232030D01*
X107815Y231927D01*
X107818Y231823D01*
X107824Y231804D01*
X107826Y231785D01*
X107866Y231690D01*
X107902Y231592D01*
X107915Y231576D01*
X107922Y231558D01*
X108027Y231427D01*
X109074Y230381D01*
X109074Y226819D01*
X106556Y224301D01*
X105878Y224301D01*
X105808Y224290D01*
X105736Y224288D01*
X105687Y224270D01*
X105636Y224262D01*
X105572Y224228D01*
X105505Y224203D01*
X105464Y224171D01*
X105418Y224146D01*
X105369Y224094D01*
X105313Y224050D01*
X105285Y224006D01*
X105249Y223968D01*
X105219Y223903D01*
X105180Y223843D01*
X105167Y223792D01*
X105145Y223745D01*
X105137Y223674D01*
X105120Y223604D01*
X105124Y223552D01*
X105118Y223501D01*
X105133Y223430D01*
X105139Y223359D01*
X105159Y223311D01*
X105170Y223260D01*
X105207Y223199D01*
X105235Y223133D01*
X105280Y223077D01*
X105297Y223049D01*
X105314Y223034D01*
X105340Y223002D01*
X107486Y220856D01*
X107486Y217294D01*
X105138Y214946D01*
X105126Y214930D01*
X105111Y214917D01*
X105055Y214830D01*
X104994Y214746D01*
X104988Y214727D01*
X104978Y214710D01*
X104952Y214610D01*
X104922Y214511D01*
X104922Y214491D01*
X104918Y214472D01*
X104926Y214369D01*
X104928Y214265D01*
X104935Y214247D01*
X104937Y214227D01*
X104977Y214132D01*
X105013Y214034D01*
X105025Y214019D01*
X105033Y214000D01*
X105138Y213869D01*
X107486Y211521D01*
X107486Y207960D01*
X106313Y206786D01*
X106301Y206770D01*
X106285Y206758D01*
X106229Y206670D01*
X106169Y206587D01*
X106163Y206568D01*
X106152Y206551D01*
X106127Y206450D01*
X106097Y206351D01*
X106097Y206332D01*
X106092Y206312D01*
X106100Y206209D01*
X106103Y206106D01*
X106110Y206087D01*
X106111Y206067D01*
X106152Y205972D01*
X106188Y205875D01*
X106200Y205859D01*
X106208Y205841D01*
X106313Y205710D01*
X108439Y203584D01*
X108439Y200022D01*
X107011Y198595D01*
X106999Y198579D01*
X106984Y198566D01*
X106928Y198479D01*
X106868Y198395D01*
X106862Y198376D01*
X106851Y198359D01*
X106826Y198259D01*
X106795Y198160D01*
X106796Y198140D01*
X106791Y198121D01*
X106799Y198018D01*
X106802Y197914D01*
X106808Y197895D01*
X106810Y197875D01*
X106850Y197781D01*
X106886Y197683D01*
X106899Y197667D01*
X106906Y197649D01*
X107011Y197518D01*
X109455Y195075D01*
X109455Y191513D01*
X106937Y188995D01*
X103375Y188995D01*
X100857Y191513D01*
X100857Y192097D01*
X100843Y192187D01*
X100835Y192278D01*
X100823Y192308D01*
X100818Y192340D01*
X100775Y192420D01*
X100739Y192504D01*
X100713Y192536D01*
X100702Y192557D01*
X100679Y192579D01*
X100634Y192635D01*
X84896Y208374D01*
X84822Y208427D01*
X84752Y208486D01*
X84722Y208499D01*
X84696Y208517D01*
X84609Y208544D01*
X84524Y208578D01*
X84483Y208583D01*
X84461Y208590D01*
X84429Y208589D01*
X84357Y208597D01*
X74656Y208597D01*
X74586Y208585D01*
X74514Y208583D01*
X74465Y208565D01*
X74414Y208557D01*
X74350Y208523D01*
X74283Y208499D01*
X74242Y208466D01*
X74196Y208442D01*
X74147Y208390D01*
X74091Y208345D01*
X74063Y208301D01*
X74027Y208264D01*
X73997Y208199D01*
X73958Y208138D01*
X73945Y208088D01*
X73923Y208041D01*
X73915Y207969D01*
X73898Y207900D01*
X73902Y207848D01*
X73896Y207796D01*
X73911Y207726D01*
X73917Y207655D01*
X73937Y207607D01*
X73948Y207556D01*
X73985Y207494D01*
X74013Y207428D01*
X74058Y207372D01*
X74075Y207345D01*
X74082Y207338D01*
X74083Y207336D01*
X74095Y207326D01*
X74118Y207297D01*
X75165Y206251D01*
X75165Y202689D01*
X72647Y200171D01*
X69085Y200171D01*
X66567Y202689D01*
X66567Y206251D01*
X67614Y207297D01*
X67656Y207355D01*
X67705Y207407D01*
X67727Y207455D01*
X67757Y207497D01*
X67779Y207565D01*
X67809Y207631D01*
X67814Y207682D01*
X67830Y207732D01*
X67828Y207804D01*
X67836Y207875D01*
X67825Y207926D01*
X67823Y207978D01*
X67799Y208045D01*
X67784Y208115D01*
X67757Y208160D01*
X67739Y208209D01*
X67694Y208265D01*
X67657Y208326D01*
X67618Y208360D01*
X67585Y208401D01*
X67525Y208440D01*
X67471Y208486D01*
X67422Y208506D01*
X67378Y208534D01*
X67309Y208551D01*
X67242Y208578D01*
X67171Y208586D01*
X67140Y208594D01*
X67117Y208592D01*
X67076Y208597D01*
X-32786Y208597D01*
X-32856Y208585D01*
X-32928Y208583D01*
X-32977Y208565D01*
X-33028Y208557D01*
X-33092Y208523D01*
X-33159Y208499D01*
X-33200Y208466D01*
X-33246Y208442D01*
X-33295Y208390D01*
X-33351Y208345D01*
X-33379Y208301D01*
X-33415Y208264D01*
X-33445Y208199D01*
X-33484Y208138D01*
X-33497Y208088D01*
X-33519Y208041D01*
X-33527Y207969D01*
X-33544Y207900D01*
X-33540Y207848D01*
X-33546Y207796D01*
X-33531Y207726D01*
X-33525Y207655D01*
X-33505Y207607D01*
X-33494Y207556D01*
X-33457Y207494D01*
X-33429Y207428D01*
X-33384Y207372D01*
X-33367Y207345D01*
X-33360Y207338D01*
X-33359Y207336D01*
X-33347Y207326D01*
X-33324Y207297D01*
X-32531Y206505D01*
X-32531Y202943D01*
X-35049Y200425D01*
X-38611Y200425D01*
X-41129Y202943D01*
X-41129Y206505D01*
X-40336Y207297D01*
X-40294Y207355D01*
X-40245Y207407D01*
X-40223Y207455D01*
X-40193Y207497D01*
X-40171Y207565D01*
X-40141Y207631D01*
X-40136Y207682D01*
X-40120Y207732D01*
X-40122Y207804D01*
X-40114Y207875D01*
X-40125Y207926D01*
X-40127Y207978D01*
X-40151Y208045D01*
X-40166Y208115D01*
X-40193Y208160D01*
X-40211Y208209D01*
X-40256Y208265D01*
X-40293Y208326D01*
X-40332Y208360D01*
X-40365Y208401D01*
X-40425Y208440D01*
X-40479Y208486D01*
X-40528Y208506D01*
X-40572Y208534D01*
X-40641Y208551D01*
X-40708Y208578D01*
X-40779Y208586D01*
X-40810Y208594D01*
X-40833Y208592D01*
X-40874Y208597D01*
X-74188Y208597D01*
X-74258Y208585D01*
X-74330Y208583D01*
X-74379Y208565D01*
X-74430Y208557D01*
X-74494Y208523D01*
X-74561Y208499D01*
X-74602Y208466D01*
X-74648Y208442D01*
X-74697Y208390D01*
X-74753Y208345D01*
X-74781Y208301D01*
X-74817Y208264D01*
X-74847Y208199D01*
X-74886Y208138D01*
X-74899Y208088D01*
X-74921Y208041D01*
X-74929Y207969D01*
X-74946Y207900D01*
X-74942Y207848D01*
X-74948Y207796D01*
X-74933Y207726D01*
X-74927Y207655D01*
X-74907Y207607D01*
X-74896Y207556D01*
X-74859Y207494D01*
X-74831Y207428D01*
X-74786Y207372D01*
X-74769Y207345D01*
X-74762Y207338D01*
X-74761Y207336D01*
X-74749Y207326D01*
X-74726Y207297D01*
X-73933Y206505D01*
X-73933Y202943D01*
X-76451Y200425D01*
X-80013Y200425D01*
X-82531Y202943D01*
X-82531Y206505D01*
X-81738Y207297D01*
X-81696Y207355D01*
X-81647Y207407D01*
X-81625Y207455D01*
X-81595Y207497D01*
X-81573Y207565D01*
X-81543Y207631D01*
X-81538Y207682D01*
X-81522Y207732D01*
X-81524Y207804D01*
X-81516Y207875D01*
X-81527Y207926D01*
X-81529Y207978D01*
X-81553Y208045D01*
X-81568Y208115D01*
X-81595Y208160D01*
X-81613Y208209D01*
X-81658Y208265D01*
X-81695Y208326D01*
X-81734Y208360D01*
X-81767Y208401D01*
X-81827Y208440D01*
X-81881Y208486D01*
X-81930Y208506D01*
X-81974Y208534D01*
X-82043Y208551D01*
X-82110Y208578D01*
X-82181Y208586D01*
X-82212Y208594D01*
X-82235Y208592D01*
X-82276Y208597D01*
X-93247Y208597D01*
X-93337Y208582D01*
X-93428Y208575D01*
X-93458Y208562D01*
X-93490Y208557D01*
X-93571Y208514D01*
X-93655Y208479D01*
X-93687Y208453D01*
X-93707Y208442D01*
X-93715Y208434D01*
X-93716Y208433D01*
X-93731Y208417D01*
X-93786Y208374D01*
X-99174Y202986D01*
X-99227Y202912D01*
X-99286Y202842D01*
X-99299Y202812D01*
X-99317Y202786D01*
X-99344Y202699D01*
X-99378Y202614D01*
X-99383Y202573D01*
X-99390Y202551D01*
X-99389Y202519D01*
X-99397Y202447D01*
X-99397Y201927D01*
X-102051Y199273D01*
X-102093Y199215D01*
X-102142Y199163D01*
X-102164Y199116D01*
X-102194Y199074D01*
X-102216Y199005D01*
X-102246Y198940D01*
X-102251Y198888D01*
X-102267Y198838D01*
X-102265Y198767D01*
X-102273Y198696D01*
X-102262Y198645D01*
X-102260Y198593D01*
X-102236Y198525D01*
X-102221Y198455D01*
X-102194Y198410D01*
X-102176Y198362D01*
X-102131Y198306D01*
X-102094Y198244D01*
X-102055Y198210D01*
X-102022Y198170D01*
X-101962Y198131D01*
X-101908Y198084D01*
X-101859Y198065D01*
X-101815Y198037D01*
X-101746Y198019D01*
X-101679Y197992D01*
X-101608Y197984D01*
X-101577Y197976D01*
X-101554Y197978D01*
X-101513Y197974D01*
X-101407Y197974D01*
X-98889Y195456D01*
X-98889Y193285D01*
X-98874Y193195D01*
X-98867Y193104D01*
X-98854Y193074D01*
X-98849Y193042D01*
X-98806Y192961D01*
X-98771Y192877D01*
X-98745Y192845D01*
X-98734Y192825D01*
X-98711Y192802D01*
X-98666Y192746D01*
X-94421Y188501D01*
X-94347Y188448D01*
X-94277Y188389D01*
X-94247Y188376D01*
X-94221Y188358D01*
X-94134Y188331D01*
X-94049Y188297D01*
X-94008Y188292D01*
X-93986Y188285D01*
X-93954Y188286D01*
X-93882Y188278D01*
X75665Y188278D01*
X86554Y177389D01*
X86628Y177336D01*
X86698Y177276D01*
X86728Y177264D01*
X86754Y177245D01*
X86841Y177218D01*
X86926Y177184D01*
X86967Y177180D01*
X86989Y177173D01*
X87021Y177174D01*
X87093Y177166D01*
X98889Y177166D01*
X98979Y177181D01*
X99070Y177188D01*
X99100Y177200D01*
X99132Y177205D01*
X99139Y177209D01*
X102809Y177209D01*
X105327Y174691D01*
X105327Y171130D01*
X102809Y168612D01*
X99248Y168612D01*
G37*
%LPD*%
%LPC*%
G36*
X101407Y105239D02*
X101407Y105239D01*
X98889Y107757D01*
X98889Y109928D01*
X98874Y110018D01*
X98867Y110109D01*
X98854Y110139D01*
X98849Y110171D01*
X98806Y110251D01*
X98771Y110335D01*
X98745Y110367D01*
X98734Y110388D01*
X98711Y110410D01*
X98666Y110466D01*
X93722Y115410D01*
X93648Y115463D01*
X93579Y115522D01*
X93549Y115535D01*
X93522Y115553D01*
X93435Y115580D01*
X93351Y115614D01*
X93310Y115619D01*
X93287Y115626D01*
X93255Y115625D01*
X93184Y115633D01*
X69052Y115633D01*
X60418Y124266D01*
X60343Y124320D01*
X60273Y124380D01*
X60244Y124392D01*
X60218Y124410D01*
X60130Y124437D01*
X60044Y124471D01*
X60005Y124475D01*
X59983Y124482D01*
X59951Y124481D01*
X59877Y124489D01*
X-30492Y124207D01*
X-30520Y124202D01*
X-30547Y124205D01*
X-30712Y124174D01*
X-31252Y124009D01*
X-31449Y124114D01*
X-31547Y124147D01*
X-31642Y124185D01*
X-31667Y124187D01*
X-31682Y124192D01*
X-31715Y124193D01*
X-31809Y124203D01*
X-32032Y124202D01*
X-32069Y124238D01*
X-32142Y124290D01*
X-32210Y124349D01*
X-32242Y124361D01*
X-32269Y124381D01*
X-32355Y124407D01*
X-32439Y124441D01*
X-32481Y124446D01*
X-32504Y124453D01*
X-32536Y124452D01*
X-32605Y124459D01*
X-56170Y124459D01*
X-68139Y136428D01*
X-68213Y136481D01*
X-68283Y136541D01*
X-68313Y136553D01*
X-68339Y136572D01*
X-68426Y136599D01*
X-68511Y136633D01*
X-68552Y136637D01*
X-68574Y136644D01*
X-68606Y136643D01*
X-68678Y136651D01*
X-89310Y136651D01*
X-89400Y136637D01*
X-89491Y136629D01*
X-89521Y136617D01*
X-89553Y136612D01*
X-89634Y136569D01*
X-89718Y136533D01*
X-89750Y136507D01*
X-89770Y136496D01*
X-89793Y136473D01*
X-89849Y136428D01*
X-94198Y132079D01*
X-96984Y132079D01*
X-97074Y132065D01*
X-97165Y132057D01*
X-97195Y132045D01*
X-97227Y132040D01*
X-97308Y131997D01*
X-97391Y131961D01*
X-97424Y131935D01*
X-97444Y131924D01*
X-97466Y131901D01*
X-97522Y131856D01*
X-99057Y130321D01*
X-102619Y130321D01*
X-105137Y132839D01*
X-105137Y136401D01*
X-102661Y138876D01*
X-102650Y138892D01*
X-102634Y138905D01*
X-102578Y138992D01*
X-102518Y139076D01*
X-102512Y139095D01*
X-102501Y139112D01*
X-102476Y139212D01*
X-102445Y139311D01*
X-102446Y139331D01*
X-102441Y139350D01*
X-102449Y139453D01*
X-102452Y139557D01*
X-102459Y139575D01*
X-102460Y139595D01*
X-102501Y139690D01*
X-102536Y139788D01*
X-102549Y139803D01*
X-102557Y139822D01*
X-102661Y139953D01*
X-102724Y140015D01*
X-102724Y143576D01*
X-100206Y146094D01*
X-98035Y146094D01*
X-97945Y146109D01*
X-97854Y146116D01*
X-97824Y146129D01*
X-97792Y146134D01*
X-97711Y146177D01*
X-97627Y146212D01*
X-97595Y146238D01*
X-97575Y146249D01*
X-97552Y146272D01*
X-97496Y146317D01*
X-97445Y146368D01*
X-94649Y146368D01*
X-94578Y146380D01*
X-94507Y146382D01*
X-94458Y146400D01*
X-94406Y146408D01*
X-94343Y146442D01*
X-94276Y146466D01*
X-94235Y146499D01*
X-94189Y146523D01*
X-94140Y146575D01*
X-94084Y146620D01*
X-94056Y146664D01*
X-94020Y146701D01*
X-93989Y146766D01*
X-93951Y146827D01*
X-93938Y146877D01*
X-93916Y146924D01*
X-93908Y146996D01*
X-93891Y147065D01*
X-93895Y147117D01*
X-93889Y147169D01*
X-93904Y147239D01*
X-93910Y147310D01*
X-93930Y147358D01*
X-93941Y147409D01*
X-93978Y147471D01*
X-94006Y147537D01*
X-94051Y147593D01*
X-94067Y147620D01*
X-94085Y147636D01*
X-94111Y147668D01*
X-102259Y155816D01*
X-102333Y155869D01*
X-102402Y155928D01*
X-102433Y155941D01*
X-102459Y155959D01*
X-102546Y155986D01*
X-102631Y156020D01*
X-102671Y156025D01*
X-102694Y156032D01*
X-102726Y156031D01*
X-102797Y156039D01*
X-104968Y156039D01*
X-107486Y158557D01*
X-107486Y162118D01*
X-105836Y163768D01*
X-105825Y163784D01*
X-105809Y163797D01*
X-105753Y163884D01*
X-105693Y163968D01*
X-105687Y163987D01*
X-105676Y164003D01*
X-105651Y164104D01*
X-105620Y164203D01*
X-105621Y164223D01*
X-105616Y164242D01*
X-105624Y164345D01*
X-105627Y164449D01*
X-105634Y164467D01*
X-105635Y164487D01*
X-105676Y164582D01*
X-105711Y164680D01*
X-105724Y164695D01*
X-105732Y164714D01*
X-105836Y164845D01*
X-107486Y166494D01*
X-107486Y170056D01*
X-105836Y171705D01*
X-105825Y171722D01*
X-105809Y171734D01*
X-105753Y171821D01*
X-105693Y171905D01*
X-105687Y171924D01*
X-105676Y171941D01*
X-105651Y172041D01*
X-105620Y172140D01*
X-105621Y172160D01*
X-105616Y172180D01*
X-105624Y172282D01*
X-105627Y172386D01*
X-105634Y172405D01*
X-105635Y172425D01*
X-105676Y172520D01*
X-105711Y172617D01*
X-105724Y172633D01*
X-105732Y172651D01*
X-105836Y172782D01*
X-107486Y174432D01*
X-107486Y177993D01*
X-104968Y180511D01*
X-101407Y180511D01*
X-99872Y178976D01*
X-99798Y178923D01*
X-99728Y178864D01*
X-99698Y178851D01*
X-99672Y178833D01*
X-99585Y178806D01*
X-99500Y178772D01*
X-99459Y178767D01*
X-99437Y178760D01*
X-99405Y178761D01*
X-99334Y178753D01*
X-95785Y178753D01*
X-84451Y167419D01*
X-84377Y167366D01*
X-84308Y167307D01*
X-84277Y167294D01*
X-84251Y167276D01*
X-84164Y167249D01*
X-84079Y167215D01*
X-84039Y167210D01*
X-84016Y167203D01*
X-83984Y167204D01*
X-83913Y167196D01*
X78655Y167196D01*
X80366Y165485D01*
X90243Y155608D01*
X90317Y155555D01*
X90386Y155496D01*
X90416Y155483D01*
X90443Y155465D01*
X90529Y155438D01*
X90614Y155404D01*
X90655Y155399D01*
X90678Y155392D01*
X90710Y155393D01*
X90781Y155385D01*
X102208Y155385D01*
X102513Y155080D01*
X102587Y155027D01*
X102656Y154968D01*
X102687Y154955D01*
X102713Y154937D01*
X102800Y154910D01*
X102885Y154876D01*
X102925Y154871D01*
X102948Y154864D01*
X102980Y154865D01*
X103051Y154857D01*
X105365Y154857D01*
X105412Y154852D01*
X105461Y154837D01*
X105533Y154839D01*
X105604Y154831D01*
X105655Y154842D01*
X105707Y154843D01*
X105774Y154868D01*
X105845Y154883D01*
X105889Y154910D01*
X105938Y154927D01*
X105994Y154972D01*
X106056Y155009D01*
X106090Y155048D01*
X106130Y155081D01*
X106169Y155141D01*
X106216Y155196D01*
X106235Y155244D01*
X106263Y155288D01*
X106281Y155357D01*
X106308Y155424D01*
X106316Y155495D01*
X106324Y155526D01*
X106322Y155550D01*
X106326Y155591D01*
X106326Y155975D01*
X109137Y158786D01*
X113113Y158786D01*
X115349Y156550D01*
X115365Y156538D01*
X115378Y156523D01*
X115465Y156466D01*
X115549Y156406D01*
X115568Y156400D01*
X115585Y156390D01*
X115685Y156364D01*
X115784Y156334D01*
X115804Y156334D01*
X115823Y156329D01*
X115926Y156337D01*
X116030Y156340D01*
X116049Y156347D01*
X116069Y156349D01*
X116163Y156389D01*
X116261Y156425D01*
X116277Y156437D01*
X116295Y156445D01*
X116426Y156550D01*
X118662Y158786D01*
X122638Y158786D01*
X125449Y155975D01*
X125449Y152000D01*
X122638Y149189D01*
X118662Y149189D01*
X116426Y151425D01*
X116410Y151437D01*
X116397Y151452D01*
X116310Y151509D01*
X116226Y151569D01*
X116207Y151575D01*
X116190Y151585D01*
X116090Y151611D01*
X115991Y151641D01*
X115971Y151641D01*
X115952Y151646D01*
X115849Y151638D01*
X115745Y151635D01*
X115726Y151628D01*
X115707Y151626D01*
X115612Y151586D01*
X115514Y151550D01*
X115498Y151538D01*
X115480Y151530D01*
X115349Y151425D01*
X113113Y149189D01*
X109137Y149189D01*
X109040Y149286D01*
X108982Y149328D01*
X108930Y149378D01*
X108882Y149399D01*
X108840Y149430D01*
X108771Y149451D01*
X108706Y149481D01*
X108655Y149487D01*
X108605Y149502D01*
X108533Y149500D01*
X108462Y149508D01*
X108411Y149497D01*
X108359Y149496D01*
X108292Y149471D01*
X108222Y149456D01*
X108177Y149429D01*
X108128Y149411D01*
X108072Y149367D01*
X108011Y149330D01*
X107977Y149290D01*
X107936Y149258D01*
X107897Y149197D01*
X107851Y149143D01*
X107831Y149095D01*
X107803Y149051D01*
X107786Y148981D01*
X107759Y148915D01*
X107751Y148843D01*
X107743Y148812D01*
X107745Y148789D01*
X107744Y148782D01*
X105297Y146334D01*
X105285Y146318D01*
X105269Y146306D01*
X105213Y146218D01*
X105153Y146135D01*
X105147Y146116D01*
X105136Y146099D01*
X105111Y145998D01*
X105081Y145899D01*
X105081Y145880D01*
X105076Y145860D01*
X105084Y145757D01*
X105087Y145654D01*
X105094Y145635D01*
X105095Y145615D01*
X105136Y145520D01*
X105172Y145423D01*
X105184Y145407D01*
X105192Y145389D01*
X105297Y145258D01*
X105899Y144656D01*
X105899Y141094D01*
X103381Y138576D01*
X99819Y138576D01*
X97301Y141094D01*
X97301Y143265D01*
X97287Y143355D01*
X97279Y143446D01*
X97267Y143476D01*
X97262Y143508D01*
X97219Y143589D01*
X97183Y143673D01*
X97157Y143705D01*
X97146Y143725D01*
X97123Y143748D01*
X97078Y143804D01*
X95222Y145660D01*
X95148Y145713D01*
X95079Y145772D01*
X95048Y145785D01*
X95022Y145803D01*
X94935Y145830D01*
X94850Y145864D01*
X94810Y145869D01*
X94787Y145876D01*
X94755Y145875D01*
X94684Y145883D01*
X87130Y145883D01*
X75439Y157574D01*
X75365Y157627D01*
X75296Y157686D01*
X75266Y157699D01*
X75240Y157717D01*
X75153Y157744D01*
X75068Y157778D01*
X75027Y157783D01*
X75005Y157790D01*
X74972Y157789D01*
X74901Y157797D01*
X54844Y157797D01*
X54774Y157785D01*
X54702Y157783D01*
X54653Y157765D01*
X54602Y157757D01*
X54538Y157723D01*
X54471Y157699D01*
X54430Y157666D01*
X54384Y157642D01*
X54335Y157590D01*
X54279Y157545D01*
X54251Y157501D01*
X54215Y157464D01*
X54185Y157399D01*
X54146Y157338D01*
X54133Y157288D01*
X54111Y157241D01*
X54103Y157169D01*
X54086Y157100D01*
X54090Y157048D01*
X54084Y156996D01*
X54099Y156926D01*
X54105Y156855D01*
X54125Y156807D01*
X54136Y156756D01*
X54173Y156694D01*
X54201Y156628D01*
X54246Y156572D01*
X54263Y156545D01*
X54280Y156529D01*
X54306Y156497D01*
X55607Y155197D01*
X55607Y151635D01*
X53089Y149117D01*
X49527Y149117D01*
X47009Y151635D01*
X47009Y155197D01*
X48310Y156497D01*
X48352Y156555D01*
X48401Y156607D01*
X48423Y156655D01*
X48453Y156697D01*
X48475Y156765D01*
X48505Y156831D01*
X48510Y156882D01*
X48526Y156932D01*
X48524Y157004D01*
X48532Y157075D01*
X48521Y157126D01*
X48519Y157178D01*
X48495Y157245D01*
X48480Y157315D01*
X48453Y157360D01*
X48435Y157409D01*
X48390Y157465D01*
X48353Y157526D01*
X48314Y157560D01*
X48281Y157601D01*
X48221Y157640D01*
X48167Y157686D01*
X48118Y157706D01*
X48074Y157734D01*
X48005Y157751D01*
X47938Y157778D01*
X47867Y157786D01*
X47836Y157794D01*
X47813Y157792D01*
X47772Y157797D01*
X-73172Y157797D01*
X-73242Y157785D01*
X-73314Y157783D01*
X-73363Y157765D01*
X-73414Y157757D01*
X-73478Y157724D01*
X-73545Y157699D01*
X-73586Y157666D01*
X-73632Y157642D01*
X-73681Y157590D01*
X-73737Y157545D01*
X-73765Y157501D01*
X-73801Y157464D01*
X-73831Y157398D01*
X-73870Y157338D01*
X-73883Y157288D01*
X-73905Y157241D01*
X-73913Y157169D01*
X-73930Y157100D01*
X-73926Y157048D01*
X-73932Y156996D01*
X-73917Y156926D01*
X-73911Y156854D01*
X-73891Y156807D01*
X-73880Y156756D01*
X-73843Y156694D01*
X-73815Y156628D01*
X-73770Y156572D01*
X-73753Y156545D01*
X-73736Y156529D01*
X-73710Y156497D01*
X-73679Y156467D01*
X-73679Y152905D01*
X-74853Y151732D01*
X-74895Y151674D01*
X-74944Y151622D01*
X-74966Y151574D01*
X-74996Y151532D01*
X-75018Y151464D01*
X-75048Y151398D01*
X-75053Y151347D01*
X-75069Y151297D01*
X-75067Y151225D01*
X-75075Y151154D01*
X-75064Y151103D01*
X-75062Y151051D01*
X-75038Y150984D01*
X-75023Y150914D01*
X-74996Y150869D01*
X-74978Y150820D01*
X-74933Y150764D01*
X-74896Y150703D01*
X-74857Y150669D01*
X-74824Y150628D01*
X-74764Y150589D01*
X-74710Y150543D01*
X-74661Y150523D01*
X-74617Y150495D01*
X-74548Y150478D01*
X-74481Y150451D01*
X-74410Y150443D01*
X-74379Y150435D01*
X-74356Y150437D01*
X-74315Y150432D01*
X-61495Y150432D01*
X-52320Y141257D01*
X-52246Y141204D01*
X-52177Y141145D01*
X-52146Y141132D01*
X-52120Y141114D01*
X-52033Y141087D01*
X-51948Y141053D01*
X-51908Y141048D01*
X-51885Y141041D01*
X-51853Y141042D01*
X-51782Y141034D01*
X73950Y141034D01*
X84903Y130081D01*
X84977Y130028D01*
X85047Y129969D01*
X85077Y129956D01*
X85103Y129938D01*
X85190Y129911D01*
X85275Y129877D01*
X85316Y129872D01*
X85338Y129865D01*
X85370Y129866D01*
X85442Y129858D01*
X103579Y129858D01*
X103583Y129857D01*
X103624Y129852D01*
X103646Y129845D01*
X103678Y129846D01*
X103750Y129838D01*
X105921Y129838D01*
X108439Y127320D01*
X108439Y123759D01*
X106757Y122077D01*
X106745Y122061D01*
X106730Y122049D01*
X106674Y121961D01*
X106614Y121878D01*
X106608Y121859D01*
X106597Y121842D01*
X106572Y121741D01*
X106541Y121642D01*
X106542Y121623D01*
X106537Y121603D01*
X106545Y121500D01*
X106548Y121397D01*
X106554Y121378D01*
X106556Y121358D01*
X106596Y121263D01*
X106632Y121166D01*
X106645Y121150D01*
X106652Y121132D01*
X106757Y121001D01*
X107740Y120018D01*
X107740Y116456D01*
X105582Y114299D01*
X105571Y114282D01*
X105555Y114270D01*
X105499Y114183D01*
X105439Y114099D01*
X105433Y114080D01*
X105422Y114063D01*
X105397Y113963D01*
X105366Y113864D01*
X105367Y113844D01*
X105362Y113824D01*
X105370Y113722D01*
X105373Y113618D01*
X105380Y113599D01*
X105381Y113579D01*
X105422Y113484D01*
X105457Y113387D01*
X105470Y113371D01*
X105478Y113353D01*
X105582Y113222D01*
X107486Y111318D01*
X107486Y107757D01*
X104968Y105239D01*
X101407Y105239D01*
G37*
%LPD*%
%LPC*%
G36*
X-27219Y24193D02*
X-27219Y24193D01*
X-30580Y25585D01*
X-33153Y28157D01*
X-34545Y31519D01*
X-34545Y35156D01*
X-33153Y38518D01*
X-30580Y41090D01*
X-27219Y42482D01*
X-23581Y42482D01*
X-20220Y41090D01*
X-17647Y38518D01*
X-16749Y36348D01*
X-16687Y36249D01*
X-16627Y36149D01*
X-16623Y36144D01*
X-16619Y36139D01*
X-16529Y36064D01*
X-16440Y35989D01*
X-16435Y35986D01*
X-16430Y35982D01*
X-16321Y35941D01*
X-16212Y35897D01*
X-16205Y35896D01*
X-16200Y35894D01*
X-16182Y35893D01*
X-16046Y35878D01*
X-9354Y35878D01*
X-9240Y35897D01*
X-9123Y35914D01*
X-9118Y35917D01*
X-9112Y35918D01*
X-9009Y35972D01*
X-8904Y36026D01*
X-8900Y36030D01*
X-8894Y36033D01*
X-8814Y36117D01*
X-8732Y36201D01*
X-8728Y36208D01*
X-8725Y36211D01*
X-8717Y36228D01*
X-8651Y36348D01*
X-7753Y38518D01*
X-5180Y41090D01*
X-1819Y42482D01*
X1819Y42482D01*
X5180Y41090D01*
X7753Y38518D01*
X9145Y35156D01*
X9145Y31519D01*
X7753Y28157D01*
X5180Y25585D01*
X1819Y24193D01*
X-1819Y24193D01*
X-5180Y25585D01*
X-7753Y28157D01*
X-8651Y30327D01*
X-8713Y30426D01*
X-8773Y30526D01*
X-8777Y30531D01*
X-8781Y30536D01*
X-8871Y30610D01*
X-8960Y30686D01*
X-8965Y30689D01*
X-8970Y30693D01*
X-9079Y30734D01*
X-9188Y30778D01*
X-9195Y30779D01*
X-9200Y30781D01*
X-9218Y30782D01*
X-9354Y30797D01*
X-16046Y30797D01*
X-16160Y30778D01*
X-16277Y30761D01*
X-16282Y30758D01*
X-16288Y30757D01*
X-16391Y30703D01*
X-16496Y30649D01*
X-16500Y30645D01*
X-16506Y30642D01*
X-16586Y30558D01*
X-16668Y30474D01*
X-16672Y30467D01*
X-16675Y30464D01*
X-16683Y30447D01*
X-16749Y30327D01*
X-17647Y28157D01*
X-20220Y25585D01*
X-23581Y24193D01*
X-27219Y24193D01*
G37*
%LPD*%
%LPC*%
G36*
X23581Y24193D02*
X23581Y24193D01*
X20220Y25585D01*
X17647Y28157D01*
X16255Y31519D01*
X16255Y35156D01*
X17647Y38518D01*
X20220Y41090D01*
X21903Y41787D01*
X21986Y41839D01*
X22072Y41884D01*
X22090Y41903D01*
X22112Y41917D01*
X22174Y41992D01*
X22241Y42062D01*
X22252Y42086D01*
X22269Y42106D01*
X22304Y42197D01*
X22345Y42285D01*
X22348Y42311D01*
X22357Y42336D01*
X22361Y42433D01*
X22372Y42530D01*
X22366Y42555D01*
X22367Y42582D01*
X22340Y42675D01*
X22320Y42770D01*
X22306Y42793D01*
X22299Y42818D01*
X22243Y42898D01*
X22193Y42981D01*
X22174Y42998D01*
X22159Y43020D01*
X22081Y43078D01*
X22007Y43141D01*
X21982Y43151D01*
X21961Y43167D01*
X21869Y43197D01*
X21778Y43233D01*
X21746Y43237D01*
X21727Y43243D01*
X21694Y43243D01*
X21612Y43252D01*
X19837Y43252D01*
X17026Y46063D01*
X17026Y50038D01*
X19837Y52849D01*
X23813Y52849D01*
X25287Y51375D01*
X25303Y51363D01*
X25316Y51347D01*
X25403Y51291D01*
X25487Y51231D01*
X25506Y51225D01*
X25523Y51214D01*
X25623Y51189D01*
X25722Y51159D01*
X25742Y51159D01*
X25761Y51154D01*
X25864Y51162D01*
X25968Y51165D01*
X25987Y51172D01*
X26006Y51174D01*
X26101Y51214D01*
X26199Y51250D01*
X26215Y51262D01*
X26233Y51270D01*
X26364Y51375D01*
X27794Y52805D01*
X31769Y52805D01*
X34580Y49994D01*
X34580Y46018D01*
X31769Y43207D01*
X29296Y43207D01*
X29200Y43192D01*
X29103Y43182D01*
X29079Y43172D01*
X29053Y43168D01*
X28967Y43122D01*
X28878Y43082D01*
X28859Y43065D01*
X28835Y43052D01*
X28769Y42982D01*
X28697Y42916D01*
X28684Y42893D01*
X28666Y42874D01*
X28625Y42786D01*
X28578Y42700D01*
X28573Y42675D01*
X28562Y42651D01*
X28552Y42554D01*
X28534Y42458D01*
X28538Y42432D01*
X28535Y42407D01*
X28556Y42311D01*
X28570Y42215D01*
X28582Y42192D01*
X28588Y42166D01*
X28638Y42083D01*
X28682Y41996D01*
X28700Y41977D01*
X28714Y41955D01*
X28788Y41892D01*
X28857Y41824D01*
X28886Y41808D01*
X28901Y41795D01*
X28931Y41783D01*
X29004Y41743D01*
X30580Y41090D01*
X33153Y38518D01*
X34545Y35156D01*
X34545Y31519D01*
X33153Y28157D01*
X30580Y25585D01*
X27219Y24193D01*
X23581Y24193D01*
G37*
%LPD*%
%LPC*%
G36*
X14056Y286130D02*
X14056Y286130D01*
X10695Y287522D01*
X8122Y290095D01*
X6730Y293456D01*
X6730Y297094D01*
X8122Y300455D01*
X10695Y303028D01*
X14056Y304420D01*
X17694Y304420D01*
X21055Y303028D01*
X23628Y300455D01*
X25020Y297094D01*
X25020Y293456D01*
X23628Y290095D01*
X21055Y287522D01*
X17694Y286130D01*
X14056Y286130D01*
G37*
%LPD*%
%LPC*%
G36*
X118662Y88864D02*
X118662Y88864D01*
X115851Y91675D01*
X115851Y95650D01*
X118662Y98461D01*
X122705Y98461D01*
X122757Y98445D01*
X122823Y98415D01*
X122874Y98409D01*
X122924Y98394D01*
X122996Y98396D01*
X123067Y98388D01*
X123118Y98399D01*
X123170Y98400D01*
X123237Y98425D01*
X123307Y98440D01*
X123352Y98467D01*
X123401Y98485D01*
X123457Y98529D01*
X123518Y98566D01*
X123552Y98606D01*
X123593Y98638D01*
X123632Y98699D01*
X123678Y98753D01*
X123698Y98801D01*
X123726Y98845D01*
X123743Y98915D01*
X123770Y98981D01*
X123778Y99052D01*
X123786Y99084D01*
X123784Y99107D01*
X123789Y99148D01*
X123789Y102000D01*
X126600Y104811D01*
X130575Y104811D01*
X133386Y102000D01*
X133386Y98025D01*
X130575Y95214D01*
X126533Y95214D01*
X126480Y95230D01*
X126415Y95260D01*
X126363Y95266D01*
X126314Y95281D01*
X126242Y95279D01*
X126171Y95287D01*
X126120Y95276D01*
X126068Y95275D01*
X126000Y95250D01*
X125930Y95235D01*
X125886Y95208D01*
X125837Y95190D01*
X125781Y95146D01*
X125719Y95109D01*
X125685Y95069D01*
X125645Y95037D01*
X125606Y94976D01*
X125559Y94922D01*
X125540Y94874D01*
X125512Y94830D01*
X125494Y94760D01*
X125467Y94694D01*
X125459Y94623D01*
X125451Y94591D01*
X125453Y94568D01*
X125449Y94527D01*
X125449Y91675D01*
X122638Y88864D01*
X118662Y88864D01*
G37*
%LPD*%
%LPC*%
G36*
X-8338Y276189D02*
X-8338Y276189D01*
X-11149Y279000D01*
X-11149Y282975D01*
X-8338Y285786D01*
X-4362Y285786D01*
X-1551Y282975D01*
X-1551Y279000D01*
X-4362Y276189D01*
X-8338Y276189D01*
G37*
%LPD*%
%LPC*%
G36*
X-36786Y45493D02*
X-36786Y45493D01*
X-39597Y48304D01*
X-39597Y52280D01*
X-36786Y55091D01*
X-32810Y55091D01*
X-29999Y52280D01*
X-29999Y48304D01*
X-32810Y45493D01*
X-36786Y45493D01*
G37*
%LPD*%
%LPC*%
G36*
X-33380Y289170D02*
X-33380Y289170D01*
X-36045Y291834D01*
X-36045Y295603D01*
X-33380Y298267D01*
X-29612Y298267D01*
X-26947Y295603D01*
X-26947Y291834D01*
X-29612Y289170D01*
X-33380Y289170D01*
G37*
%LPD*%
%LPC*%
G36*
X-94086Y66063D02*
X-94086Y66063D01*
X-96751Y68728D01*
X-96751Y72496D01*
X-94086Y75161D01*
X-90318Y75161D01*
X-87653Y72496D01*
X-87653Y68728D01*
X-90318Y66063D01*
X-94086Y66063D01*
G37*
%LPD*%
%LPC*%
G36*
X49325Y277112D02*
X49325Y277112D01*
X46807Y279630D01*
X46807Y283191D01*
X49325Y285709D01*
X52886Y285709D01*
X55405Y283191D01*
X55405Y279630D01*
X52886Y277112D01*
X49325Y277112D01*
G37*
%LPD*%
%LPC*%
G36*
X99819Y267164D02*
X99819Y267164D01*
X97301Y269682D01*
X97301Y273243D01*
X99819Y275761D01*
X103381Y275761D01*
X105899Y273243D01*
X105899Y269682D01*
X103381Y267164D01*
X99819Y267164D01*
G37*
%LPD*%
%LPC*%
G36*
X116165Y178497D02*
X116165Y178497D01*
X113646Y181015D01*
X113646Y184577D01*
X116165Y187095D01*
X119726Y187095D01*
X122244Y184577D01*
X122244Y181015D01*
X119726Y178497D01*
X116165Y178497D01*
G37*
%LPD*%
%LPC*%
G36*
X-127663Y146280D02*
X-127663Y146280D01*
X-130181Y148798D01*
X-130181Y152360D01*
X-127663Y154878D01*
X-124102Y154878D01*
X-121584Y152360D01*
X-121584Y148798D01*
X-124102Y146280D01*
X-127663Y146280D01*
G37*
%LPD*%
%LPC*%
G36*
X-79251Y123463D02*
X-79251Y123463D01*
X-81769Y125981D01*
X-81769Y129543D01*
X-79251Y132061D01*
X-75689Y132061D01*
X-73171Y129543D01*
X-73171Y125981D01*
X-75689Y123463D01*
X-79251Y123463D01*
G37*
%LPD*%
%LPC*%
G36*
X66545Y98317D02*
X66545Y98317D01*
X64027Y100835D01*
X64027Y104397D01*
X66545Y106915D01*
X70107Y106915D01*
X72625Y104397D01*
X72625Y100835D01*
X70107Y98317D01*
X66545Y98317D01*
G37*
%LPD*%
%LPC*%
G36*
X14475Y98317D02*
X14475Y98317D01*
X11957Y100835D01*
X11957Y104397D01*
X14475Y106915D01*
X18037Y106915D01*
X20555Y104397D01*
X20555Y100835D01*
X18037Y98317D01*
X14475Y98317D01*
G37*
%LPD*%
%LPC*%
G36*
X-64773Y98317D02*
X-64773Y98317D01*
X-67291Y100835D01*
X-67291Y104397D01*
X-64773Y106915D01*
X-61211Y106915D01*
X-58693Y104397D01*
X-58693Y100835D01*
X-61211Y98317D01*
X-64773Y98317D01*
G37*
%LPD*%
%LPC*%
G36*
X-53040Y61953D02*
X-53040Y61953D01*
X-55558Y64471D01*
X-55558Y68033D01*
X-53040Y70551D01*
X-49478Y70551D01*
X-46960Y68033D01*
X-46960Y64471D01*
X-49478Y61953D01*
X-53040Y61953D01*
G37*
%LPD*%
D10*
X15875Y295275D03*
X-25400Y33338D03*
X0Y33338D03*
X25400Y33338D03*
D11*
X138113Y138113D03*
X138113Y112713D03*
X-138113Y233363D03*
X-138113Y207963D03*
X-138113Y138113D03*
X-138113Y112713D03*
X138113Y233363D03*
X138113Y207963D03*
D12*
X128588Y100013D03*
X120650Y93663D03*
X29782Y48006D03*
X-34798Y50292D03*
X-143701Y125413D03*
X-109284Y70295D03*
X120650Y153988D03*
X111125Y153988D03*
X129921Y244475D03*
X122238Y244475D03*
X18796Y328359D03*
X12700Y322263D03*
X-6350Y280988D03*
X21825Y48050D03*
D13*
X-122238Y133350D03*
D14*
X-106363Y107950D03*
D12*
X-117475Y257175D03*
D14*
X-90742Y274384D03*
D13*
X-125413Y141288D03*
D14*
X-38481Y273876D03*
X-90170Y248158D03*
X-1524Y248666D03*
X38735Y273622D03*
X91567Y274384D03*
X127Y170752D03*
X-77851Y171006D03*
X52197Y171006D03*
D12*
X-127Y47117D03*
D14*
X25527Y145860D03*
X-51689Y145098D03*
X77851Y145352D03*
X77597Y220790D03*
X127Y220790D03*
X-77597Y220790D03*
X-51689Y119952D03*
X-77597Y195390D03*
X51943Y195390D03*
X-51689Y93790D03*
X26035Y93536D03*
X77597Y93790D03*
X51689Y119190D03*
D12*
X381Y296037D03*
X3937Y284861D03*
D14*
X-51259Y66252D03*
X59896Y71396D03*
X-125883Y150579D03*
X117945Y182796D03*
X-100013Y280988D03*
X51106Y281411D03*
D13*
X-31496Y293719D03*
D15*
X-25400Y33338D02*
X0Y33338D01*
D14*
X-110510Y96652D03*
D15*
X-112097Y98240D02*
X-112097Y208363D01*
X-112097Y98240D02*
X-110510Y96652D01*
X-112097Y208363D02*
X-137097Y233363D01*
X-138113Y233363D01*
D14*
X-112925Y88256D03*
D15*
X-112925Y89965D01*
X-116078Y93117D01*
X-116078Y194373D01*
X-129667Y207963D01*
X-138113Y207963D01*
D14*
X103188Y84138D03*
X-104966Y115253D03*
D15*
X-100648Y110935D01*
X-100648Y97727D01*
X-86551Y83630D01*
X83058Y83630D02*
X84138Y82550D01*
X101600Y82550D02*
X103188Y84138D01*
X101600Y82550D02*
X84138Y82550D01*
X83058Y83630D02*
X-86551Y83630D01*
D14*
X101600Y92075D03*
X-97600Y116142D03*
D15*
X-96584Y102108D02*
X-82360Y87884D01*
X-96584Y115126D02*
X-97600Y116142D01*
X-96584Y115126D02*
X-96584Y102108D01*
X97409Y87884D02*
X101600Y92075D01*
X97409Y87884D02*
X-82360Y87884D01*
D14*
X103188Y109538D03*
X-100838Y134620D03*
D15*
X-67310Y139192D02*
X-55118Y127000D01*
X-67310Y139192D02*
X-90678Y139192D01*
X-95250Y134620D01*
X-100838Y134620D01*
X94552Y118174D02*
X103188Y109538D01*
X94552Y118174D02*
X70104Y118174D01*
X61243Y127034D01*
X-30988Y126746D01*
X-31466Y127000D01*
X-55118Y127000D01*
D14*
X-98425Y141796D03*
X103442Y118237D03*
D15*
X-55055Y134684D02*
X-64199Y143828D01*
X-96393Y143828D01*
X-98425Y141796D01*
X98616Y123063D02*
X103442Y118237D01*
X98616Y123063D02*
X82614Y123063D01*
X70993Y134684D01*
X-55055Y134684D01*
D14*
X-103188Y160338D03*
X104140Y125540D03*
D15*
X-53150Y138494D02*
X-62548Y147892D01*
X-90742Y147892D02*
X-103188Y160338D01*
X-90742Y147892D02*
X-62548Y147892D01*
X102362Y127318D02*
X104140Y125540D01*
X102362Y127318D02*
X84074Y127318D01*
X72898Y138494D01*
X-53150Y138494D01*
D14*
X-103188Y168275D03*
X101600Y142875D03*
D15*
X-95250Y160338D02*
X-103188Y168275D01*
X96052Y148424D02*
X101600Y142875D01*
X96052Y148424D02*
X88183Y148424D01*
X76269Y160338D01*
X-95250Y160338D01*
D14*
X-103188Y176213D03*
X103442Y150559D03*
D15*
X-85281Y164656D02*
X-96838Y176213D01*
X-103188Y176213D01*
X101156Y152845D02*
X103442Y150559D01*
X101156Y152845D02*
X89413Y152845D01*
X77602Y164656D01*
X-85281Y164656D01*
D14*
X-103188Y193675D03*
X101029Y172911D03*
D15*
X-95250Y185738D02*
X-103188Y193675D01*
X-95250Y185738D02*
X74613Y185738D01*
X99314Y174625D02*
X101029Y172911D01*
X99314Y174625D02*
X85725Y174625D01*
X74613Y185738D01*
D14*
X-103696Y203708D03*
X105156Y193294D03*
D15*
X103569Y193294D02*
X85725Y211138D01*
X-94615Y211138D01*
X-102045Y203708D01*
X-103696Y203708D01*
X103569Y193294D02*
X105156Y193294D01*
D14*
X-103188Y215900D03*
X104140Y201803D03*
D15*
X102958Y201803D01*
X89559Y215202D01*
X-102489Y215202D01*
X-103188Y215900D01*
D14*
X-103442Y233363D03*
X103188Y209741D03*
D15*
X103188Y211138D01*
X77534Y236792D01*
X-96965Y236792D01*
X-100394Y233363D01*
X-103442Y233363D01*
D14*
X103188Y219075D03*
X-103696Y240729D03*
D15*
X79312Y240729D01*
X100965Y219075D02*
X103188Y219075D01*
X100965Y219075D02*
X79312Y240729D01*
D14*
X104775Y228600D03*
X-102997Y259334D03*
D15*
X102743Y228600D02*
X104775Y228600D01*
X102743Y228600D02*
X69723Y261620D01*
X-95123Y261620D01*
X-97409Y259334D01*
X-102997Y259334D01*
D14*
X-102997Y266827D03*
D15*
X-101664Y265494D02*
X71311Y265494D01*
X-101664Y265494D02*
X-102997Y266827D01*
D14*
X106299Y236855D03*
D15*
X99949Y236855D01*
X71311Y265494D01*
D14*
X105537Y244602D03*
X101600Y271463D03*
X15748Y255016D03*
X68326Y255016D03*
X-77978Y256032D03*
X-77978Y229870D03*
X73406Y229870D03*
X18542Y229870D03*
X-77978Y179832D03*
X70358Y179070D03*
X70866Y204470D03*
X-78232Y204724D03*
X69088Y128524D03*
X68326Y102616D03*
X68326Y76962D03*
X-60960Y77724D03*
X-87630Y102870D03*
X-62992Y102616D03*
X51308Y153416D03*
X25146Y76454D03*
X-77978Y154686D03*
X-77470Y127762D03*
X-36830Y204724D03*
X16256Y102616D03*
D13*
X-103442Y88075D03*
X-92202Y70612D03*
M02*
