G04 EAGLE Gerber RS-274X export*
G75*
%MOMM*%
%FSLAX34Y34*%
%LPD*%
%INCopper Layer 2*%
%IPPOS*%
%AMOC8*
5,1,8,0,0,1.08239X$1,22.5*%
G01*
%ADD10C,1.524000*%
%ADD11C,1.530000*%
%ADD12C,0.654800*%
%ADD13C,0.604800*%
%ADD14C,0.554800*%
%ADD15C,0.304800*%

G36*
X1900Y53199D02*
X1900Y53199D01*
X1979Y53202D01*
X51650Y62664D01*
X51678Y62674D01*
X51707Y62677D01*
X51782Y62714D01*
X51859Y62744D01*
X51882Y62764D01*
X51908Y62777D01*
X51965Y62837D01*
X52028Y62892D01*
X52042Y62918D01*
X52062Y62940D01*
X52095Y63016D01*
X52134Y63090D01*
X52138Y63119D01*
X52150Y63147D01*
X52153Y63230D01*
X52165Y63312D01*
X52158Y63341D01*
X52160Y63371D01*
X52134Y63450D01*
X52116Y63531D01*
X52100Y63556D01*
X52091Y63584D01*
X52019Y63682D01*
X51995Y63719D01*
X51987Y63725D01*
X51980Y63735D01*
X49759Y65955D01*
X49759Y69724D01*
X52424Y72388D01*
X56192Y72388D01*
X58857Y69724D01*
X58857Y65955D01*
X57943Y65042D01*
X57922Y65012D01*
X57895Y64988D01*
X57865Y64931D01*
X57851Y64914D01*
X57847Y64904D01*
X57815Y64858D01*
X57806Y64822D01*
X57789Y64790D01*
X57778Y64714D01*
X57759Y64640D01*
X57763Y64604D01*
X57758Y64568D01*
X57775Y64493D01*
X57782Y64417D01*
X57799Y64385D01*
X57806Y64349D01*
X57848Y64285D01*
X57882Y64216D01*
X57908Y64191D01*
X57928Y64160D01*
X57989Y64115D01*
X58045Y64062D01*
X58079Y64048D01*
X58108Y64026D01*
X58181Y64005D01*
X58252Y63975D01*
X58288Y63973D01*
X58323Y63963D01*
X58426Y63967D01*
X58476Y63965D01*
X58491Y63970D01*
X58510Y63970D01*
X98319Y71553D01*
X98381Y71577D01*
X98445Y71591D01*
X98492Y71619D01*
X98528Y71633D01*
X98558Y71659D01*
X98606Y71688D01*
X98657Y71731D01*
X98661Y71735D01*
X98666Y71738D01*
X98722Y71807D01*
X98783Y71872D01*
X98790Y71889D01*
X98801Y71903D01*
X98803Y71908D01*
X98807Y71912D01*
X98835Y71996D01*
X98870Y72079D01*
X98871Y72097D01*
X98877Y72114D01*
X98877Y72120D01*
X98879Y72125D01*
X98876Y72213D01*
X98880Y72303D01*
X98875Y72320D01*
X98874Y72338D01*
X98872Y72344D01*
X98872Y72349D01*
X98839Y72431D01*
X98812Y72516D01*
X98800Y72533D01*
X98794Y72548D01*
X98790Y72552D01*
X98788Y72557D01*
X98754Y72594D01*
X98700Y72667D01*
X97051Y74316D01*
X97051Y78084D01*
X99716Y80749D01*
X103484Y80749D01*
X105807Y78426D01*
X105837Y78405D01*
X105862Y78377D01*
X105929Y78341D01*
X105991Y78298D01*
X106027Y78289D01*
X106060Y78271D01*
X106135Y78261D01*
X106209Y78242D01*
X106245Y78246D01*
X106282Y78241D01*
X106356Y78257D01*
X106432Y78265D01*
X106465Y78281D01*
X106501Y78289D01*
X106588Y78342D01*
X106633Y78364D01*
X106644Y78376D01*
X106661Y78387D01*
X116136Y86266D01*
X116167Y86302D01*
X116204Y86331D01*
X116238Y86387D01*
X116281Y86437D01*
X116297Y86482D01*
X116321Y86522D01*
X116334Y86587D01*
X116356Y86649D01*
X116356Y86696D01*
X116365Y86742D01*
X116354Y86824D01*
X116354Y86873D01*
X116345Y86896D01*
X116341Y86928D01*
X114228Y94320D01*
X114210Y94359D01*
X114200Y94400D01*
X114152Y94476D01*
X114130Y94522D01*
X114114Y94536D01*
X114100Y94559D01*
X113899Y94793D01*
X113932Y95215D01*
X113930Y95234D01*
X113933Y95252D01*
X113909Y95438D01*
X113793Y95845D01*
X113943Y96115D01*
X113957Y96155D01*
X113979Y96191D01*
X113999Y96279D01*
X114015Y96327D01*
X114015Y96348D01*
X114021Y96374D01*
X114044Y96682D01*
X114366Y96957D01*
X114378Y96972D01*
X114393Y96982D01*
X114507Y97131D01*
X114508Y97131D01*
X114591Y97282D01*
X114592Y97282D01*
X114713Y97501D01*
X115010Y97586D01*
X115048Y97604D01*
X115090Y97614D01*
X115166Y97662D01*
X115211Y97684D01*
X115226Y97700D01*
X115248Y97714D01*
X116021Y98377D01*
X116022Y98377D01*
X116761Y99011D01*
X116762Y99011D01*
X118241Y100279D01*
X118981Y100914D01*
X120461Y102182D01*
X121201Y102816D01*
X122681Y104085D01*
X123421Y104719D01*
X124901Y105988D01*
X125641Y106622D01*
X127121Y107890D01*
X127279Y108026D01*
X127292Y108042D01*
X127314Y108059D01*
X127934Y108678D01*
X127992Y108689D01*
X128008Y108698D01*
X128026Y108702D01*
X128050Y108718D01*
X128865Y108655D01*
X128966Y108665D01*
X129068Y108672D01*
X129078Y108676D01*
X129089Y108678D01*
X129179Y108722D01*
X129272Y108764D01*
X129280Y108772D01*
X129290Y108777D01*
X129360Y108850D01*
X129432Y108921D01*
X129437Y108931D01*
X129444Y108939D01*
X129484Y109033D01*
X129527Y109125D01*
X129528Y109136D01*
X129532Y109146D01*
X129537Y109247D01*
X129545Y109348D01*
X129542Y109360D01*
X129543Y109370D01*
X129529Y109413D01*
X129500Y109530D01*
X128938Y110888D01*
X128938Y114537D01*
X130335Y117910D01*
X132915Y120490D01*
X136288Y121887D01*
X139937Y121887D01*
X143310Y120490D01*
X145890Y117910D01*
X147287Y114537D01*
X147287Y110888D01*
X146723Y109526D01*
X146707Y109451D01*
X146682Y109377D01*
X146683Y109342D01*
X146675Y109307D01*
X146686Y109230D01*
X146689Y109153D01*
X146702Y109120D01*
X146707Y109085D01*
X146744Y109017D01*
X146773Y108945D01*
X146797Y108919D01*
X146814Y108888D01*
X146872Y108837D01*
X146924Y108779D01*
X146956Y108763D01*
X146983Y108740D01*
X147055Y108712D01*
X147124Y108677D01*
X147164Y108671D01*
X147192Y108660D01*
X147239Y108660D01*
X147309Y108649D01*
X150255Y108649D01*
X150320Y108661D01*
X150387Y108663D01*
X150430Y108681D01*
X150476Y108689D01*
X150533Y108723D01*
X150595Y108748D01*
X150629Y108779D01*
X150669Y108803D01*
X150711Y108855D01*
X150760Y108900D01*
X150781Y108941D01*
X150810Y108977D01*
X150832Y109040D01*
X150862Y109099D01*
X150870Y109153D01*
X150882Y109190D01*
X150881Y109230D01*
X150889Y109285D01*
X150617Y235205D01*
X150605Y235270D01*
X150603Y235335D01*
X150585Y235379D01*
X150576Y235426D01*
X150543Y235482D01*
X150519Y235542D01*
X150486Y235578D01*
X150462Y235619D01*
X150411Y235660D01*
X150367Y235708D01*
X150325Y235730D01*
X150287Y235760D01*
X150226Y235781D01*
X150168Y235811D01*
X150113Y235819D01*
X150075Y235832D01*
X150036Y235830D01*
X149982Y235838D01*
X147921Y235838D01*
X147857Y235827D01*
X147791Y235825D01*
X147747Y235807D01*
X147701Y235799D01*
X147644Y235765D01*
X147583Y235740D01*
X147548Y235709D01*
X147507Y235684D01*
X147466Y235633D01*
X147417Y235589D01*
X147396Y235547D01*
X147366Y235510D01*
X147345Y235448D01*
X147315Y235389D01*
X147307Y235335D01*
X147294Y235298D01*
X147295Y235258D01*
X147287Y235204D01*
X147287Y231538D01*
X145890Y228165D01*
X143310Y225585D01*
X139937Y224188D01*
X136288Y224188D01*
X134980Y224729D01*
X134974Y224731D01*
X134969Y224734D01*
X134865Y224754D01*
X134761Y224777D01*
X134755Y224776D01*
X134749Y224777D01*
X134645Y224761D01*
X134539Y224746D01*
X134533Y224743D01*
X134528Y224742D01*
X134436Y224690D01*
X134341Y224639D01*
X134337Y224634D01*
X134332Y224631D01*
X134264Y224550D01*
X134194Y224470D01*
X134192Y224464D01*
X134188Y224460D01*
X134152Y224359D01*
X134114Y224260D01*
X134114Y224254D01*
X134112Y224249D01*
X134108Y224061D01*
X134970Y217456D01*
X134981Y217422D01*
X134983Y217385D01*
X135015Y217315D01*
X135038Y217243D01*
X135060Y217214D01*
X135075Y217180D01*
X135129Y217126D01*
X135176Y217066D01*
X135207Y217047D01*
X135233Y217021D01*
X135302Y216988D01*
X135367Y216948D01*
X135403Y216941D01*
X135436Y216925D01*
X135512Y216919D01*
X135587Y216904D01*
X135623Y216910D01*
X135660Y216907D01*
X135759Y216932D01*
X135809Y216940D01*
X135822Y216948D01*
X135842Y216953D01*
X136288Y217137D01*
X139937Y217137D01*
X143310Y215740D01*
X145890Y213160D01*
X147287Y209787D01*
X147287Y206138D01*
X145890Y202765D01*
X143310Y200185D01*
X139937Y198788D01*
X138260Y198788D01*
X138249Y198786D01*
X138237Y198787D01*
X138139Y198766D01*
X138039Y198748D01*
X138029Y198742D01*
X138018Y198739D01*
X137933Y198685D01*
X137846Y198634D01*
X137839Y198625D01*
X137829Y198618D01*
X137768Y198538D01*
X137705Y198460D01*
X137701Y198449D01*
X137694Y198439D01*
X137665Y198342D01*
X137633Y198247D01*
X137633Y198235D01*
X137630Y198224D01*
X137637Y198037D01*
X146544Y150535D01*
X146578Y150445D01*
X146607Y150354D01*
X146618Y150339D01*
X146623Y150325D01*
X146656Y150288D01*
X146718Y150203D01*
X146749Y150172D01*
X146749Y149496D01*
X146757Y149451D01*
X146760Y149380D01*
X146885Y148715D01*
X146860Y148680D01*
X146849Y148654D01*
X146833Y148635D01*
X146814Y148580D01*
X146777Y148507D01*
X146774Y148488D01*
X146768Y148475D01*
X146765Y148435D01*
X146761Y148422D01*
X146762Y148405D01*
X146749Y148321D01*
X146749Y148278D01*
X146271Y147800D01*
X146245Y147762D01*
X146196Y147710D01*
X145815Y147152D01*
X145772Y147144D01*
X145683Y147110D01*
X145591Y147081D01*
X145576Y147070D01*
X145562Y147064D01*
X145525Y147032D01*
X145441Y146969D01*
X145410Y146938D01*
X144734Y146938D01*
X144688Y146930D01*
X144617Y146927D01*
X143953Y146803D01*
X143917Y146827D01*
X143830Y146867D01*
X143744Y146911D01*
X143726Y146913D01*
X143712Y146919D01*
X143663Y146923D01*
X143559Y146938D01*
X105501Y146938D01*
X105413Y146923D01*
X105325Y146913D01*
X105303Y146903D01*
X105280Y146899D01*
X105203Y146853D01*
X105124Y146814D01*
X105107Y146797D01*
X105087Y146784D01*
X105031Y146715D01*
X104970Y146651D01*
X104960Y146629D01*
X104945Y146610D01*
X104917Y146526D01*
X104882Y146444D01*
X104881Y146420D01*
X104874Y146398D01*
X104876Y146309D01*
X104872Y146220D01*
X104879Y146197D01*
X104880Y146173D01*
X104914Y146091D01*
X104941Y146006D01*
X104957Y145985D01*
X104964Y145966D01*
X104998Y145928D01*
X105052Y145856D01*
X106149Y144759D01*
X106149Y140991D01*
X103484Y138326D01*
X99716Y138326D01*
X97051Y140991D01*
X97051Y144759D01*
X99481Y147189D01*
X99519Y147243D01*
X99564Y147291D01*
X99582Y147334D01*
X99609Y147373D01*
X99626Y147437D01*
X99651Y147498D01*
X99653Y147545D01*
X99665Y147590D01*
X99658Y147656D01*
X99661Y147722D01*
X99647Y147767D01*
X99642Y147814D01*
X99613Y147873D01*
X99593Y147935D01*
X99560Y147979D01*
X99543Y148015D01*
X99514Y148042D01*
X99481Y148086D01*
X97051Y150516D01*
X97051Y154284D01*
X99716Y156949D01*
X103610Y156949D01*
X103664Y156959D01*
X103720Y156958D01*
X103774Y156978D01*
X103831Y156988D01*
X103878Y157017D01*
X103931Y157036D01*
X103974Y157073D01*
X104024Y157103D01*
X104059Y157146D01*
X104101Y157182D01*
X104129Y157232D01*
X104165Y157277D01*
X104183Y157329D01*
X104210Y157378D01*
X104222Y157446D01*
X104237Y157489D01*
X104236Y157521D01*
X104244Y157562D01*
X104480Y164758D01*
X104465Y164856D01*
X104455Y164955D01*
X104449Y164967D01*
X104447Y164980D01*
X104400Y165067D01*
X104356Y165156D01*
X104346Y165165D01*
X104340Y165177D01*
X104265Y165242D01*
X104192Y165310D01*
X104180Y165315D01*
X104170Y165324D01*
X104077Y165358D01*
X103986Y165397D01*
X103972Y165398D01*
X103960Y165402D01*
X103861Y165403D01*
X103762Y165407D01*
X103749Y165403D01*
X103736Y165403D01*
X103642Y165369D01*
X103548Y165338D01*
X103536Y165330D01*
X103525Y165326D01*
X103489Y165295D01*
X103397Y165227D01*
X101897Y163726D01*
X98128Y163726D01*
X95698Y166156D01*
X95644Y166194D01*
X95597Y166239D01*
X95553Y166257D01*
X95514Y166284D01*
X95451Y166301D01*
X95390Y166326D01*
X95343Y166328D01*
X95297Y166340D01*
X95232Y166333D01*
X95166Y166336D01*
X95121Y166322D01*
X95074Y166317D01*
X95015Y166288D01*
X94952Y166268D01*
X94908Y166235D01*
X94873Y166218D01*
X94846Y166189D01*
X94801Y166156D01*
X92372Y163726D01*
X88603Y163726D01*
X85939Y166391D01*
X85939Y170159D01*
X88603Y172824D01*
X92372Y172824D01*
X94801Y170394D01*
X94856Y170356D01*
X94903Y170311D01*
X94947Y170293D01*
X94986Y170266D01*
X95049Y170249D01*
X95110Y170224D01*
X95157Y170222D01*
X95203Y170210D01*
X95268Y170217D01*
X95334Y170214D01*
X95379Y170228D01*
X95426Y170233D01*
X95485Y170262D01*
X95548Y170282D01*
X95592Y170315D01*
X95627Y170332D01*
X95654Y170361D01*
X95698Y170394D01*
X98128Y172824D01*
X98612Y172824D01*
X98700Y172840D01*
X98788Y172849D01*
X98810Y172859D01*
X98833Y172863D01*
X98910Y172909D01*
X98989Y172948D01*
X99006Y172965D01*
X99026Y172978D01*
X99082Y173047D01*
X99143Y173111D01*
X99153Y173133D01*
X99168Y173152D01*
X99196Y173236D01*
X99231Y173318D01*
X99232Y173342D01*
X99239Y173364D01*
X99237Y173453D01*
X99241Y173542D01*
X99234Y173565D01*
X99233Y173589D01*
X99199Y173671D01*
X99172Y173756D01*
X99156Y173777D01*
X99149Y173796D01*
X99115Y173834D01*
X99061Y173906D01*
X97051Y175916D01*
X97051Y179684D01*
X99716Y182349D01*
X103484Y182349D01*
X103972Y181861D01*
X104037Y181816D01*
X104096Y181764D01*
X104128Y181752D01*
X104156Y181733D01*
X104233Y181713D01*
X104306Y181685D01*
X104341Y181685D01*
X104374Y181677D01*
X104452Y181685D01*
X104531Y181685D01*
X104563Y181696D01*
X104597Y181700D01*
X104667Y181735D01*
X104741Y181762D01*
X104767Y181784D01*
X104798Y181799D01*
X104852Y181857D01*
X104912Y181908D01*
X104928Y181938D01*
X104952Y181963D01*
X104982Y182035D01*
X105021Y182104D01*
X105028Y182142D01*
X105039Y182169D01*
X105041Y182217D01*
X105054Y182288D01*
X105287Y189377D01*
X105273Y189476D01*
X105262Y189574D01*
X105256Y189586D01*
X105254Y189599D01*
X105207Y189687D01*
X105163Y189775D01*
X105153Y189785D01*
X105147Y189796D01*
X105072Y189861D01*
X105000Y189929D01*
X104987Y189935D01*
X104977Y189943D01*
X104884Y189978D01*
X104793Y190017D01*
X104780Y190017D01*
X104767Y190022D01*
X104668Y190022D01*
X104569Y190027D01*
X104556Y190023D01*
X104543Y190023D01*
X104449Y189988D01*
X104355Y189958D01*
X104343Y189949D01*
X104332Y189945D01*
X104296Y189915D01*
X104204Y189847D01*
X103484Y189126D01*
X99716Y189126D01*
X97051Y191791D01*
X97051Y195559D01*
X99481Y197989D01*
X99519Y198043D01*
X99564Y198091D01*
X99574Y198114D01*
X99585Y198128D01*
X99592Y198148D01*
X99609Y198173D01*
X99626Y198237D01*
X99651Y198298D01*
X99653Y198328D01*
X99657Y198341D01*
X99656Y198356D01*
X99665Y198390D01*
X99658Y198456D01*
X99661Y198522D01*
X99650Y198555D01*
X99650Y198565D01*
X99646Y198575D01*
X99642Y198614D01*
X99613Y198673D01*
X99593Y198735D01*
X99567Y198770D01*
X99566Y198773D01*
X99560Y198779D01*
X99543Y198815D01*
X99514Y198842D01*
X99481Y198886D01*
X98639Y199728D01*
X98639Y203497D01*
X101303Y206161D01*
X105223Y206161D01*
X105278Y206171D01*
X105334Y206171D01*
X105388Y206191D01*
X105444Y206201D01*
X105492Y206229D01*
X105544Y206248D01*
X105588Y206286D01*
X105637Y206315D01*
X105672Y206358D01*
X105715Y206394D01*
X105743Y206445D01*
X105779Y206489D01*
X105797Y206542D01*
X105824Y206590D01*
X105836Y206658D01*
X105851Y206702D01*
X105850Y206733D01*
X105857Y206775D01*
X106094Y213997D01*
X106080Y214095D01*
X106069Y214194D01*
X106064Y214206D01*
X106062Y214219D01*
X106014Y214306D01*
X105970Y214395D01*
X105960Y214404D01*
X105954Y214416D01*
X105879Y214481D01*
X105807Y214549D01*
X105795Y214554D01*
X105785Y214563D01*
X105691Y214598D01*
X105600Y214637D01*
X105587Y214637D01*
X105574Y214642D01*
X105475Y214642D01*
X105376Y214647D01*
X105363Y214642D01*
X105350Y214643D01*
X105257Y214608D01*
X105162Y214578D01*
X105151Y214569D01*
X105139Y214565D01*
X105104Y214534D01*
X105093Y214526D01*
X101303Y214526D01*
X98639Y217191D01*
X98639Y220959D01*
X101069Y223389D01*
X101106Y223443D01*
X101151Y223491D01*
X101170Y223534D01*
X101197Y223573D01*
X101213Y223637D01*
X101239Y223698D01*
X101241Y223745D01*
X101253Y223790D01*
X101246Y223856D01*
X101249Y223922D01*
X101234Y223967D01*
X101229Y224014D01*
X101200Y224073D01*
X101180Y224135D01*
X101147Y224179D01*
X101130Y224215D01*
X101101Y224242D01*
X101069Y224286D01*
X98639Y226716D01*
X98639Y230484D01*
X101303Y233149D01*
X105072Y233149D01*
X105635Y232585D01*
X105700Y232540D01*
X105759Y232489D01*
X105791Y232477D01*
X105819Y232457D01*
X105896Y232437D01*
X105969Y232410D01*
X106004Y232410D01*
X106037Y232401D01*
X106115Y232409D01*
X106194Y232409D01*
X106226Y232421D01*
X106260Y232424D01*
X106330Y232459D01*
X106404Y232486D01*
X106430Y232509D01*
X106461Y232524D01*
X106515Y232581D01*
X106575Y232632D01*
X106591Y232662D01*
X106615Y232687D01*
X106646Y232760D01*
X106684Y232828D01*
X106691Y232866D01*
X106702Y232894D01*
X106704Y232941D01*
X106718Y233013D01*
X106864Y237490D01*
X106861Y237517D01*
X106864Y237543D01*
X106844Y237627D01*
X106832Y237712D01*
X106819Y237736D01*
X106813Y237762D01*
X106743Y237876D01*
X106724Y237909D01*
X106719Y237914D01*
X106715Y237921D01*
X105208Y239702D01*
X105155Y239745D01*
X105109Y239796D01*
X105069Y239816D01*
X105035Y239845D01*
X104970Y239867D01*
X104909Y239899D01*
X104858Y239906D01*
X104823Y239918D01*
X104782Y239918D01*
X104724Y239926D01*
X102891Y239926D01*
X100226Y242591D01*
X100226Y245357D01*
X100223Y245372D01*
X100225Y245388D01*
X100204Y245483D01*
X100203Y245488D01*
X100202Y245499D01*
X100199Y245507D01*
X100187Y245578D01*
X100178Y245591D01*
X100175Y245607D01*
X100128Y245682D01*
X100118Y245707D01*
X100102Y245725D01*
X100076Y245766D01*
X90572Y256999D01*
X90535Y257029D01*
X90452Y257108D01*
X70297Y271292D01*
X70244Y271316D01*
X70196Y271350D01*
X70143Y271363D01*
X70093Y271386D01*
X70035Y271391D01*
X69979Y271406D01*
X69924Y271400D01*
X69870Y271404D01*
X69813Y271388D01*
X69756Y271382D01*
X69707Y271358D01*
X69654Y271343D01*
X69607Y271309D01*
X69554Y271283D01*
X69517Y271243D01*
X69473Y271211D01*
X69441Y271162D01*
X69401Y271120D01*
X69379Y271069D01*
X69349Y271023D01*
X69336Y270967D01*
X69313Y270913D01*
X69311Y270858D01*
X69298Y270805D01*
X69306Y270747D01*
X69303Y270689D01*
X69320Y270637D01*
X69327Y270582D01*
X69354Y270531D01*
X69372Y270475D01*
X69411Y270423D01*
X69431Y270384D01*
X69460Y270356D01*
X69483Y270325D01*
X69636Y270172D01*
X69636Y266403D01*
X66972Y263739D01*
X63203Y263739D01*
X60539Y266403D01*
X60539Y270172D01*
X63203Y272836D01*
X66099Y272836D01*
X66129Y272842D01*
X66161Y272839D01*
X66239Y272862D01*
X66319Y272876D01*
X66346Y272892D01*
X66377Y272900D01*
X66442Y272949D01*
X66513Y272990D01*
X66532Y273014D01*
X66558Y273033D01*
X66603Y273101D01*
X66654Y273164D01*
X66664Y273194D01*
X66681Y273220D01*
X66700Y273300D01*
X66726Y273377D01*
X66725Y273408D01*
X66732Y273439D01*
X66722Y273520D01*
X66719Y273601D01*
X66707Y273630D01*
X66703Y273661D01*
X66666Y273733D01*
X66635Y273809D01*
X66614Y273832D01*
X66599Y273860D01*
X66515Y273940D01*
X66484Y273975D01*
X66474Y273980D01*
X66464Y273989D01*
X56654Y280892D01*
X56622Y280907D01*
X56595Y280929D01*
X56521Y280954D01*
X56450Y280987D01*
X56416Y280990D01*
X56383Y281001D01*
X56305Y280999D01*
X56227Y281005D01*
X56193Y280995D01*
X56158Y280994D01*
X56086Y280965D01*
X56011Y280944D01*
X55983Y280923D01*
X55950Y280910D01*
X55893Y280857D01*
X55830Y280811D01*
X55811Y280782D01*
X55785Y280759D01*
X55749Y280689D01*
X55706Y280624D01*
X55698Y280590D01*
X55682Y280559D01*
X55666Y280453D01*
X55655Y280406D01*
X55657Y280391D01*
X55655Y280374D01*
X55655Y279526D01*
X52990Y276862D01*
X49222Y276862D01*
X46557Y279526D01*
X46557Y283295D01*
X48781Y285519D01*
X48785Y285524D01*
X48790Y285528D01*
X48842Y285605D01*
X48882Y285655D01*
X48888Y285671D01*
X48910Y285703D01*
X48911Y285709D01*
X48915Y285715D01*
X48939Y285818D01*
X48946Y285843D01*
X48954Y285867D01*
X48953Y285874D01*
X48965Y285920D01*
X48965Y285927D01*
X48966Y285933D01*
X48953Y286038D01*
X48942Y286144D01*
X48939Y286149D01*
X48939Y286156D01*
X48890Y286250D01*
X48843Y286345D01*
X48838Y286349D01*
X48835Y286355D01*
X48700Y286485D01*
X47893Y287057D01*
X47892Y287058D01*
X47891Y287059D01*
X46952Y287720D01*
X46944Y287729D01*
X46926Y287739D01*
X46908Y287756D01*
X-353Y321296D01*
X-388Y321313D01*
X-418Y321337D01*
X-444Y321346D01*
X-1332Y321991D01*
X-1335Y321992D01*
X-1338Y321995D01*
X-2244Y322639D01*
X-2276Y322676D01*
X-2292Y322685D01*
X-2307Y322701D01*
X-18348Y334367D01*
X-18374Y334379D01*
X-18395Y334397D01*
X-18513Y334447D01*
X-18550Y334465D01*
X-18559Y334465D01*
X-18568Y334469D01*
X-18936Y334561D01*
X-19117Y334864D01*
X-19140Y334889D01*
X-19155Y334919D01*
X-19233Y334996D01*
X-19265Y335033D01*
X-19277Y335039D01*
X-19288Y335050D01*
X-19700Y335350D01*
X-19742Y335370D01*
X-19778Y335398D01*
X-19842Y335419D01*
X-19902Y335448D01*
X-19948Y335452D01*
X-19992Y335466D01*
X-20059Y335463D01*
X-20126Y335469D01*
X-20170Y335457D01*
X-20216Y335455D01*
X-20294Y335424D01*
X-20342Y335411D01*
X-20362Y335398D01*
X-20390Y335386D01*
X-151262Y259828D01*
X-151273Y259818D01*
X-151287Y259812D01*
X-151358Y259746D01*
X-151433Y259683D01*
X-151441Y259670D01*
X-151451Y259660D01*
X-151495Y259573D01*
X-151544Y259487D01*
X-151546Y259473D01*
X-151553Y259460D01*
X-151579Y259274D01*
X-150592Y112454D01*
X-150580Y112391D01*
X-150578Y112328D01*
X-150560Y112282D01*
X-150551Y112234D01*
X-150518Y112179D01*
X-150494Y112120D01*
X-150461Y112084D01*
X-150435Y112041D01*
X-150386Y112001D01*
X-150343Y111954D01*
X-150299Y111932D01*
X-150260Y111901D01*
X-150200Y111881D01*
X-150143Y111852D01*
X-150086Y111843D01*
X-150047Y111831D01*
X-150009Y111832D01*
X-149958Y111824D01*
X-149865Y111824D01*
X-149633Y111592D01*
X-149601Y111570D01*
X-149576Y111541D01*
X-149490Y111493D01*
X-149449Y111464D01*
X-149432Y111460D01*
X-149413Y111449D01*
X-148150Y110962D01*
X-148081Y110949D01*
X-148015Y110926D01*
X-147972Y110928D01*
X-147929Y110919D01*
X-147861Y110931D01*
X-147791Y110933D01*
X-147751Y110949D01*
X-147708Y110956D01*
X-147647Y110991D01*
X-147583Y111017D01*
X-147551Y111046D01*
X-147513Y111068D01*
X-147469Y111122D01*
X-147417Y111169D01*
X-147398Y111207D01*
X-147370Y111241D01*
X-147347Y111306D01*
X-147315Y111368D01*
X-147308Y111418D01*
X-147295Y111452D01*
X-147296Y111494D01*
X-147287Y111554D01*
X-147287Y114537D01*
X-145890Y117910D01*
X-144269Y119531D01*
X-144218Y119604D01*
X-144162Y119673D01*
X-144154Y119696D01*
X-144141Y119715D01*
X-144119Y119801D01*
X-144090Y119886D01*
X-144091Y119910D01*
X-144085Y119933D01*
X-144094Y120021D01*
X-144097Y120110D01*
X-144106Y120132D01*
X-144108Y120156D01*
X-144148Y120236D01*
X-144181Y120318D01*
X-144197Y120335D01*
X-144208Y120357D01*
X-144272Y120418D01*
X-144333Y120484D01*
X-144354Y120494D01*
X-144371Y120511D01*
X-144453Y120545D01*
X-144532Y120586D01*
X-144558Y120590D01*
X-144578Y120598D01*
X-144628Y120600D01*
X-144717Y120614D01*
X-146450Y120614D01*
X-149261Y123425D01*
X-149261Y127400D01*
X-146450Y130211D01*
X-142475Y130211D01*
X-139664Y127400D01*
X-139664Y123425D01*
X-140119Y122970D01*
X-140169Y122897D01*
X-140226Y122828D01*
X-140233Y122805D01*
X-140247Y122786D01*
X-140269Y122700D01*
X-140297Y122615D01*
X-140297Y122591D01*
X-140303Y122568D01*
X-140293Y122480D01*
X-140291Y122391D01*
X-140282Y122369D01*
X-140279Y122345D01*
X-140240Y122265D01*
X-140207Y122183D01*
X-140191Y122166D01*
X-140180Y122144D01*
X-140115Y122083D01*
X-140055Y122017D01*
X-140034Y122007D01*
X-140017Y121990D01*
X-139935Y121956D01*
X-139856Y121915D01*
X-139829Y121911D01*
X-139810Y121903D01*
X-139760Y121901D01*
X-139670Y121887D01*
X-136288Y121887D01*
X-132915Y120490D01*
X-130335Y117910D01*
X-128938Y114537D01*
X-128938Y110888D01*
X-130335Y107515D01*
X-132113Y105737D01*
X-132162Y105667D01*
X-132217Y105601D01*
X-132226Y105575D01*
X-132241Y105552D01*
X-132263Y105470D01*
X-132291Y105390D01*
X-132291Y105362D01*
X-132297Y105335D01*
X-132289Y105250D01*
X-132287Y105165D01*
X-132277Y105139D01*
X-132274Y105112D01*
X-132236Y105036D01*
X-132205Y104956D01*
X-132187Y104936D01*
X-132175Y104911D01*
X-132113Y104852D01*
X-132056Y104789D01*
X-132029Y104773D01*
X-132011Y104757D01*
X-131966Y104738D01*
X-131893Y104696D01*
X-115425Y98349D01*
X-115379Y98340D01*
X-115337Y98322D01*
X-115270Y98319D01*
X-115205Y98307D01*
X-115159Y98314D01*
X-115113Y98312D01*
X-115049Y98333D01*
X-114983Y98344D01*
X-114943Y98367D01*
X-114899Y98381D01*
X-114832Y98431D01*
X-114789Y98456D01*
X-114773Y98474D01*
X-114748Y98493D01*
X-112290Y100951D01*
X-108698Y100951D01*
X-108677Y100934D01*
X-108654Y100926D01*
X-108635Y100913D01*
X-108548Y100890D01*
X-108464Y100862D01*
X-108441Y100863D01*
X-108418Y100857D01*
X-108329Y100866D01*
X-108240Y100869D01*
X-108218Y100878D01*
X-108194Y100880D01*
X-108114Y100920D01*
X-108032Y100953D01*
X-108015Y100969D01*
X-107993Y100979D01*
X-107932Y101044D01*
X-107866Y101104D01*
X-107856Y101125D01*
X-107839Y101143D01*
X-107805Y101224D01*
X-107764Y101304D01*
X-107760Y101330D01*
X-107752Y101349D01*
X-107750Y101400D01*
X-107736Y101489D01*
X-107736Y101897D01*
X-107064Y102569D01*
X-107013Y102642D01*
X-106957Y102711D01*
X-106950Y102733D01*
X-106936Y102753D01*
X-106914Y102839D01*
X-106886Y102923D01*
X-106886Y102947D01*
X-106880Y102970D01*
X-106890Y103059D01*
X-106892Y103148D01*
X-106901Y103170D01*
X-106904Y103193D01*
X-106943Y103273D01*
X-106976Y103355D01*
X-106992Y103373D01*
X-107003Y103394D01*
X-107068Y103455D01*
X-107128Y103521D01*
X-107149Y103532D01*
X-107166Y103548D01*
X-107248Y103583D01*
X-107327Y103624D01*
X-107354Y103627D01*
X-107373Y103636D01*
X-107423Y103638D01*
X-107513Y103651D01*
X-108143Y103651D01*
X-110661Y106169D01*
X-110661Y109731D01*
X-108143Y112249D01*
X-104582Y112249D01*
X-103806Y111473D01*
X-103733Y111422D01*
X-103664Y111366D01*
X-103642Y111359D01*
X-103622Y111345D01*
X-103536Y111323D01*
X-103452Y111294D01*
X-103428Y111295D01*
X-103405Y111289D01*
X-103316Y111298D01*
X-103227Y111301D01*
X-103205Y111310D01*
X-103182Y111312D01*
X-103102Y111352D01*
X-103020Y111385D01*
X-103002Y111401D01*
X-102981Y111412D01*
X-102920Y111477D01*
X-102854Y111537D01*
X-102843Y111558D01*
X-102827Y111575D01*
X-102792Y111657D01*
X-102751Y111736D01*
X-102748Y111763D01*
X-102739Y111782D01*
X-102737Y111832D01*
X-102724Y111922D01*
X-102724Y114493D01*
X-100206Y117011D01*
X-96644Y117011D01*
X-96119Y116486D01*
X-96046Y116435D01*
X-95977Y116379D01*
X-95954Y116371D01*
X-95935Y116358D01*
X-95849Y116336D01*
X-95764Y116307D01*
X-95740Y116308D01*
X-95717Y116302D01*
X-95629Y116311D01*
X-95540Y116314D01*
X-95518Y116323D01*
X-95494Y116325D01*
X-95414Y116364D01*
X-95332Y116398D01*
X-95315Y116414D01*
X-95293Y116424D01*
X-95232Y116489D01*
X-95166Y116549D01*
X-95156Y116570D01*
X-95139Y116588D01*
X-95105Y116670D01*
X-95064Y116749D01*
X-95060Y116775D01*
X-95052Y116794D01*
X-95050Y116845D01*
X-95036Y116934D01*
X-95036Y117772D01*
X-92372Y120436D01*
X-88603Y120436D01*
X-85939Y117772D01*
X-85939Y114003D01*
X-88603Y111339D01*
X-92372Y111339D01*
X-93044Y112011D01*
X-93074Y112032D01*
X-93087Y112046D01*
X-93116Y112061D01*
X-93117Y112062D01*
X-93186Y112118D01*
X-93208Y112125D01*
X-93228Y112139D01*
X-93314Y112161D01*
X-93398Y112189D01*
X-93422Y112189D01*
X-93445Y112195D01*
X-93534Y112185D01*
X-93623Y112183D01*
X-93645Y112174D01*
X-93668Y112171D01*
X-93748Y112132D01*
X-93830Y112099D01*
X-93848Y112083D01*
X-93869Y112072D01*
X-93930Y112007D01*
X-93996Y111947D01*
X-94007Y111926D01*
X-94023Y111909D01*
X-94058Y111827D01*
X-94099Y111748D01*
X-94102Y111721D01*
X-94111Y111702D01*
X-94113Y111655D01*
X-94119Y111636D01*
X-94119Y111613D01*
X-94126Y111562D01*
X-94126Y110932D01*
X-96644Y108414D01*
X-100206Y108414D01*
X-100981Y109189D01*
X-101054Y109240D01*
X-101123Y109296D01*
X-101146Y109304D01*
X-101165Y109317D01*
X-101251Y109339D01*
X-101336Y109368D01*
X-101360Y109367D01*
X-101383Y109373D01*
X-101471Y109364D01*
X-101560Y109361D01*
X-101582Y109352D01*
X-101606Y109350D01*
X-101686Y109311D01*
X-101768Y109277D01*
X-101785Y109261D01*
X-101807Y109251D01*
X-101868Y109186D01*
X-101934Y109126D01*
X-101944Y109105D01*
X-101961Y109087D01*
X-101995Y109005D01*
X-102036Y108926D01*
X-102040Y108900D01*
X-102048Y108881D01*
X-102050Y108830D01*
X-102064Y108741D01*
X-102064Y106169D01*
X-102589Y105644D01*
X-102640Y105571D01*
X-102696Y105502D01*
X-102704Y105479D01*
X-102717Y105460D01*
X-102739Y105374D01*
X-102768Y105289D01*
X-102767Y105265D01*
X-102773Y105242D01*
X-102764Y105154D01*
X-102761Y105065D01*
X-102752Y105043D01*
X-102750Y105019D01*
X-102711Y104939D01*
X-102677Y104857D01*
X-102661Y104840D01*
X-102651Y104818D01*
X-102586Y104757D01*
X-102526Y104691D01*
X-102505Y104681D01*
X-102487Y104664D01*
X-102405Y104630D01*
X-102326Y104589D01*
X-102300Y104585D01*
X-102281Y104577D01*
X-102230Y104575D01*
X-102141Y104561D01*
X-101303Y104561D01*
X-98639Y101897D01*
X-98639Y98128D01*
X-101303Y95464D01*
X-104529Y95464D01*
X-104637Y95444D01*
X-104743Y95427D01*
X-104746Y95425D01*
X-104750Y95424D01*
X-104844Y95368D01*
X-104937Y95315D01*
X-104940Y95312D01*
X-104943Y95310D01*
X-105012Y95226D01*
X-105081Y95143D01*
X-105082Y95139D01*
X-105085Y95136D01*
X-105119Y95034D01*
X-105155Y94931D01*
X-105155Y94927D01*
X-105156Y94923D01*
X-105153Y94816D01*
X-105151Y94707D01*
X-105150Y94703D01*
X-105150Y94699D01*
X-105110Y94600D01*
X-105070Y94498D01*
X-105067Y94495D01*
X-105065Y94491D01*
X-104993Y94412D01*
X-104920Y94330D01*
X-104916Y94328D01*
X-104914Y94325D01*
X-104891Y94313D01*
X-104757Y94238D01*
X-95899Y90823D01*
X-95830Y90810D01*
X-95764Y90788D01*
X-95721Y90789D01*
X-95678Y90781D01*
X-95610Y90793D01*
X-95540Y90795D01*
X-95500Y90811D01*
X-95457Y90818D01*
X-95397Y90853D01*
X-95332Y90879D01*
X-95300Y90908D01*
X-95262Y90930D01*
X-95218Y90983D01*
X-95166Y91030D01*
X-95147Y91069D01*
X-95119Y91102D01*
X-95096Y91168D01*
X-95064Y91230D01*
X-95057Y91279D01*
X-95044Y91314D01*
X-95045Y91356D01*
X-95036Y91415D01*
X-95036Y92372D01*
X-92372Y95036D01*
X-88603Y95036D01*
X-85939Y92372D01*
X-85939Y88603D01*
X-86417Y88125D01*
X-86466Y88055D01*
X-86521Y87989D01*
X-86530Y87963D01*
X-86546Y87940D01*
X-86567Y87858D01*
X-86595Y87778D01*
X-86595Y87750D01*
X-86602Y87723D01*
X-86593Y87639D01*
X-86591Y87553D01*
X-86581Y87527D01*
X-86578Y87500D01*
X-86541Y87424D01*
X-86510Y87344D01*
X-86491Y87324D01*
X-86479Y87299D01*
X-86417Y87240D01*
X-86360Y87177D01*
X-86333Y87162D01*
X-86316Y87145D01*
X-86270Y87126D01*
X-86197Y87084D01*
X1632Y53234D01*
X1712Y53218D01*
X1791Y53195D01*
X1826Y53196D01*
X1852Y53191D01*
X1900Y53199D01*
G37*
G36*
X39Y-753D02*
X39Y-753D01*
X94Y-755D01*
X160Y-736D01*
X228Y-726D01*
X299Y-695D01*
X330Y-686D01*
X348Y-674D01*
X381Y-659D01*
X151194Y86654D01*
X151246Y86696D01*
X151303Y86731D01*
X151340Y86774D01*
X151384Y86810D01*
X151420Y86867D01*
X151463Y86918D01*
X151485Y86970D01*
X151515Y87018D01*
X151530Y87083D01*
X151555Y87146D01*
X151564Y87225D01*
X151572Y87257D01*
X151570Y87278D01*
X151574Y87313D01*
X151574Y106363D01*
X151571Y106382D01*
X151573Y106402D01*
X151551Y106503D01*
X151534Y106605D01*
X151525Y106623D01*
X151520Y106642D01*
X151467Y106731D01*
X151419Y106823D01*
X151405Y106836D01*
X151394Y106853D01*
X151316Y106921D01*
X151241Y106992D01*
X151223Y107000D01*
X151207Y107013D01*
X151111Y107052D01*
X151018Y107096D01*
X150998Y107098D01*
X150979Y107105D01*
X150813Y107124D01*
X145814Y107124D01*
X145724Y107109D01*
X145633Y107102D01*
X145603Y107089D01*
X145571Y107084D01*
X145491Y107041D01*
X145407Y107006D01*
X145375Y106980D01*
X145354Y106969D01*
X145332Y106946D01*
X145276Y106901D01*
X143310Y104935D01*
X139937Y103538D01*
X136288Y103538D01*
X132915Y104935D01*
X130949Y106901D01*
X130875Y106954D01*
X130806Y107013D01*
X130776Y107025D01*
X130749Y107044D01*
X130662Y107071D01*
X130578Y107105D01*
X130537Y107110D01*
X130514Y107117D01*
X130482Y107116D01*
X130411Y107124D01*
X128852Y107124D01*
X128791Y107114D01*
X128728Y107114D01*
X128670Y107094D01*
X128609Y107084D01*
X128554Y107055D01*
X128495Y107035D01*
X128421Y106984D01*
X128392Y106969D01*
X128380Y106956D01*
X128357Y106940D01*
X115756Y96140D01*
X115690Y96062D01*
X115620Y95987D01*
X115611Y95968D01*
X115598Y95952D01*
X115560Y95857D01*
X115518Y95763D01*
X115515Y95743D01*
X115508Y95723D01*
X115503Y95621D01*
X115492Y95519D01*
X115496Y95493D01*
X115495Y95478D01*
X115504Y95447D01*
X115520Y95353D01*
X118194Y85993D01*
X106423Y76205D01*
X106421Y76203D01*
X106419Y76201D01*
X106340Y76110D01*
X106262Y76019D01*
X106261Y76017D01*
X106259Y76014D01*
X106214Y75901D01*
X106168Y75792D01*
X106168Y75789D01*
X106167Y75786D01*
X106149Y75620D01*
X106149Y74316D01*
X103484Y71651D01*
X101222Y71651D01*
X101166Y71642D01*
X101110Y71643D01*
X101046Y71622D01*
X100980Y71612D01*
X100930Y71585D01*
X100876Y71568D01*
X100789Y71511D01*
X100762Y71496D01*
X100753Y71487D01*
X100736Y71475D01*
X99152Y70159D01*
X1659Y51588D01*
X-46765Y70252D01*
X-46852Y70270D01*
X-46936Y70296D01*
X-46971Y70295D01*
X-47006Y70302D01*
X-47094Y70292D01*
X-47182Y70289D01*
X-47215Y70277D01*
X-47250Y70273D01*
X-47330Y70235D01*
X-47413Y70205D01*
X-47440Y70183D01*
X-47473Y70167D01*
X-47536Y70106D01*
X-47605Y70051D01*
X-47624Y70021D01*
X-47650Y69996D01*
X-47690Y69918D01*
X-47738Y69844D01*
X-47746Y69810D01*
X-47763Y69778D01*
X-47776Y69691D01*
X-47798Y69606D01*
X-47795Y69570D01*
X-47800Y69535D01*
X-47785Y69448D01*
X-47779Y69361D01*
X-47765Y69328D01*
X-47759Y69293D01*
X-47717Y69215D01*
X-47682Y69134D01*
X-47654Y69098D01*
X-47642Y69076D01*
X-47619Y69055D01*
X-47577Y69003D01*
X-46710Y68136D01*
X-46710Y64368D01*
X-49375Y61703D01*
X-53143Y61703D01*
X-55808Y64368D01*
X-55808Y68136D01*
X-53143Y70801D01*
X-52281Y70801D01*
X-52176Y70818D01*
X-52070Y70831D01*
X-52055Y70838D01*
X-52039Y70840D01*
X-51945Y70890D01*
X-51848Y70936D01*
X-51836Y70948D01*
X-51821Y70956D01*
X-51748Y71033D01*
X-51671Y71107D01*
X-51663Y71122D01*
X-51652Y71134D01*
X-51607Y71231D01*
X-51558Y71325D01*
X-51555Y71342D01*
X-51548Y71357D01*
X-51537Y71463D01*
X-51520Y71568D01*
X-51523Y71585D01*
X-51521Y71601D01*
X-51544Y71706D01*
X-51562Y71811D01*
X-51570Y71825D01*
X-51573Y71842D01*
X-51628Y71934D01*
X-51679Y72027D01*
X-51691Y72039D01*
X-51700Y72053D01*
X-51781Y72122D01*
X-51859Y72195D01*
X-51877Y72204D01*
X-51887Y72213D01*
X-51915Y72224D01*
X-52008Y72272D01*
X-59504Y75161D01*
X-59539Y75169D01*
X-59573Y75184D01*
X-59659Y75194D01*
X-59745Y75212D01*
X-59781Y75207D01*
X-59817Y75211D01*
X-59902Y75193D01*
X-59989Y75182D01*
X-60022Y75167D01*
X-60057Y75159D01*
X-60132Y75114D01*
X-60211Y75077D01*
X-60237Y75052D01*
X-60268Y75033D01*
X-60325Y74967D01*
X-60388Y74906D01*
X-60405Y74874D01*
X-60428Y74846D01*
X-60461Y74765D01*
X-60501Y74688D01*
X-60507Y74652D01*
X-60520Y74618D01*
X-60539Y74451D01*
X-60539Y74316D01*
X-63203Y71651D01*
X-66972Y71651D01*
X-69636Y74316D01*
X-69636Y78130D01*
X-69611Y78165D01*
X-69595Y78218D01*
X-69569Y78267D01*
X-69559Y78335D01*
X-69539Y78400D01*
X-69540Y78456D01*
X-69532Y78510D01*
X-69543Y78578D01*
X-69545Y78646D01*
X-69564Y78698D01*
X-69574Y78753D01*
X-69606Y78813D01*
X-69630Y78877D01*
X-69664Y78921D01*
X-69690Y78969D01*
X-69740Y79016D01*
X-69783Y79069D01*
X-69830Y79099D01*
X-69870Y79137D01*
X-69965Y79186D01*
X-69990Y79202D01*
X-70002Y79205D01*
X-70019Y79214D01*
X-87825Y86077D01*
X-87930Y86099D01*
X-88035Y86125D01*
X-88050Y86124D01*
X-88066Y86127D01*
X-88173Y86114D01*
X-88280Y86106D01*
X-88295Y86100D01*
X-88310Y86098D01*
X-88407Y86052D01*
X-88506Y86010D01*
X-88521Y85998D01*
X-88532Y85992D01*
X-88554Y85971D01*
X-88595Y85939D01*
X-92372Y85939D01*
X-95151Y88718D01*
X-95191Y88794D01*
X-95193Y88796D01*
X-95195Y88799D01*
X-95284Y88882D01*
X-95369Y88963D01*
X-95372Y88965D01*
X-95375Y88967D01*
X-95524Y89044D01*
X-96016Y89234D01*
X-96052Y89241D01*
X-96085Y89257D01*
X-96172Y89266D01*
X-96257Y89284D01*
X-96293Y89280D01*
X-96329Y89284D01*
X-96415Y89265D01*
X-96501Y89255D01*
X-96534Y89239D01*
X-96570Y89232D01*
X-96645Y89187D01*
X-96723Y89149D01*
X-96750Y89124D01*
X-96781Y89105D01*
X-96838Y89039D01*
X-96900Y88979D01*
X-96917Y88946D01*
X-96941Y88919D01*
X-96973Y88838D01*
X-97014Y88760D01*
X-97019Y88724D01*
X-97033Y88690D01*
X-97051Y88524D01*
X-97051Y85428D01*
X-99716Y82764D01*
X-103484Y82764D01*
X-106149Y85428D01*
X-106149Y89197D01*
X-104131Y91215D01*
X-104098Y91260D01*
X-104059Y91298D01*
X-104027Y91359D01*
X-103987Y91414D01*
X-103971Y91467D01*
X-103945Y91516D01*
X-103935Y91584D01*
X-103915Y91650D01*
X-103916Y91705D01*
X-103908Y91760D01*
X-103919Y91827D01*
X-103921Y91895D01*
X-103940Y91947D01*
X-103950Y92002D01*
X-103982Y92062D01*
X-104006Y92126D01*
X-104040Y92170D01*
X-104066Y92218D01*
X-104116Y92265D01*
X-104159Y92318D01*
X-104206Y92348D01*
X-104246Y92386D01*
X-104341Y92435D01*
X-104366Y92451D01*
X-104378Y92454D01*
X-104395Y92463D01*
X-106982Y93460D01*
X-107087Y93482D01*
X-107191Y93508D01*
X-107207Y93507D01*
X-107223Y93510D01*
X-107330Y93498D01*
X-107437Y93489D01*
X-107451Y93483D01*
X-107467Y93481D01*
X-107564Y93435D01*
X-107663Y93393D01*
X-107678Y93381D01*
X-107689Y93376D01*
X-107711Y93355D01*
X-107794Y93288D01*
X-108729Y92353D01*
X-109105Y92353D01*
X-109176Y92342D01*
X-109247Y92340D01*
X-109296Y92322D01*
X-109348Y92314D01*
X-109411Y92280D01*
X-109478Y92255D01*
X-109519Y92223D01*
X-109565Y92198D01*
X-109615Y92146D01*
X-109671Y92102D01*
X-109699Y92058D01*
X-109735Y92020D01*
X-109765Y91955D01*
X-109804Y91895D01*
X-109816Y91844D01*
X-109838Y91797D01*
X-109846Y91726D01*
X-109864Y91656D01*
X-109860Y91604D01*
X-109865Y91553D01*
X-109850Y91482D01*
X-109844Y91411D01*
X-109824Y91363D01*
X-109813Y91312D01*
X-109776Y91251D01*
X-109748Y91185D01*
X-109703Y91129D01*
X-109687Y91101D01*
X-109669Y91086D01*
X-109643Y91054D01*
X-108626Y90037D01*
X-108626Y86476D01*
X-111145Y83958D01*
X-114706Y83958D01*
X-117224Y86476D01*
X-117224Y90037D01*
X-114706Y92555D01*
X-114330Y92555D01*
X-114259Y92567D01*
X-114187Y92568D01*
X-114138Y92586D01*
X-114087Y92595D01*
X-114024Y92628D01*
X-113956Y92653D01*
X-113916Y92685D01*
X-113869Y92710D01*
X-113820Y92762D01*
X-113764Y92807D01*
X-113736Y92850D01*
X-113700Y92888D01*
X-113670Y92953D01*
X-113631Y93013D01*
X-113618Y93064D01*
X-113596Y93111D01*
X-113589Y93182D01*
X-113571Y93252D01*
X-113575Y93304D01*
X-113569Y93356D01*
X-113585Y93426D01*
X-113590Y93497D01*
X-113611Y93545D01*
X-113622Y93596D01*
X-113658Y93658D01*
X-113687Y93724D01*
X-113731Y93780D01*
X-113748Y93807D01*
X-113766Y93822D01*
X-113791Y93855D01*
X-114808Y94871D01*
X-114808Y95954D01*
X-114809Y95957D01*
X-114808Y95961D01*
X-114829Y96079D01*
X-114848Y96197D01*
X-114850Y96200D01*
X-114850Y96203D01*
X-114907Y96309D01*
X-114963Y96414D01*
X-114965Y96417D01*
X-114967Y96420D01*
X-115055Y96502D01*
X-115141Y96584D01*
X-115144Y96585D01*
X-115147Y96587D01*
X-115296Y96665D01*
X-134481Y104059D01*
X-134561Y104076D01*
X-134639Y104101D01*
X-134681Y104101D01*
X-134722Y104109D01*
X-134803Y104099D01*
X-134885Y104099D01*
X-134938Y104083D01*
X-134966Y104080D01*
X-134992Y104068D01*
X-135046Y104052D01*
X-136288Y103538D01*
X-139937Y103538D01*
X-143310Y104935D01*
X-145890Y107515D01*
X-146229Y108333D01*
X-146282Y108419D01*
X-146330Y108507D01*
X-146347Y108523D01*
X-146359Y108542D01*
X-146436Y108607D01*
X-146510Y108675D01*
X-146535Y108688D01*
X-146548Y108699D01*
X-146579Y108711D01*
X-146659Y108752D01*
X-150539Y110248D01*
X-150574Y110255D01*
X-150608Y110271D01*
X-150694Y110280D01*
X-150780Y110298D01*
X-150816Y110294D01*
X-150852Y110298D01*
X-150937Y110279D01*
X-151024Y110269D01*
X-151057Y110253D01*
X-151092Y110245D01*
X-151167Y110201D01*
X-151246Y110163D01*
X-151272Y110138D01*
X-151303Y110119D01*
X-151360Y110053D01*
X-151423Y109992D01*
X-151440Y109960D01*
X-151463Y109932D01*
X-151496Y109851D01*
X-151536Y109774D01*
X-151542Y109738D01*
X-151555Y109704D01*
X-151574Y109538D01*
X-151574Y87313D01*
X-151563Y87246D01*
X-151562Y87179D01*
X-151543Y87126D01*
X-151534Y87070D01*
X-151503Y87010D01*
X-151480Y86947D01*
X-151445Y86902D01*
X-151419Y86852D01*
X-151370Y86806D01*
X-151329Y86753D01*
X-151264Y86706D01*
X-151241Y86683D01*
X-151222Y86674D01*
X-151194Y86654D01*
X-107291Y61236D01*
X-107202Y61202D01*
X-107115Y61162D01*
X-107087Y61159D01*
X-107061Y61149D01*
X-106966Y61146D01*
X-106871Y61135D01*
X-106843Y61141D01*
X-106816Y61140D01*
X-106724Y61167D01*
X-106630Y61187D01*
X-106606Y61202D01*
X-106580Y61209D01*
X-106501Y61264D01*
X-106419Y61313D01*
X-106401Y61335D01*
X-106378Y61350D01*
X-106321Y61428D01*
X-106259Y61500D01*
X-106249Y61526D01*
X-106232Y61548D01*
X-106203Y61639D01*
X-106167Y61729D01*
X-106163Y61763D01*
X-106157Y61783D01*
X-106158Y61816D01*
X-106149Y61895D01*
X-106149Y65384D01*
X-103484Y68049D01*
X-99716Y68049D01*
X-97051Y65384D01*
X-97051Y61616D01*
X-99716Y58951D01*
X-100510Y58951D01*
X-100557Y58944D01*
X-100604Y58945D01*
X-100678Y58924D01*
X-100753Y58912D01*
X-100795Y58889D01*
X-100840Y58876D01*
X-100903Y58832D01*
X-100970Y58796D01*
X-101003Y58762D01*
X-101042Y58735D01*
X-101087Y58673D01*
X-101140Y58618D01*
X-101160Y58575D01*
X-101188Y58537D01*
X-101211Y58464D01*
X-101243Y58395D01*
X-101248Y58348D01*
X-101263Y58303D01*
X-101262Y58226D01*
X-101270Y58151D01*
X-101260Y58104D01*
X-101260Y58057D01*
X-101234Y57985D01*
X-101218Y57910D01*
X-101194Y57869D01*
X-101178Y57825D01*
X-101131Y57765D01*
X-101092Y57699D01*
X-101056Y57668D01*
X-101026Y57631D01*
X-100921Y57553D01*
X-100905Y57539D01*
X-100899Y57537D01*
X-100891Y57531D01*
X-381Y-659D01*
X-317Y-683D01*
X-258Y-716D01*
X-203Y-726D01*
X-151Y-746D01*
X-83Y-749D01*
X-16Y-761D01*
X39Y-753D01*
G37*
G36*
X144551Y148478D02*
X144551Y148478D01*
X144641Y148485D01*
X144672Y148498D01*
X144705Y148504D01*
X144785Y148546D01*
X144868Y148581D01*
X144893Y148603D01*
X144923Y148619D01*
X144985Y148684D01*
X145052Y148744D01*
X145069Y148773D01*
X145092Y148797D01*
X145130Y148879D01*
X145175Y148957D01*
X145182Y148990D01*
X145196Y149020D01*
X145206Y149109D01*
X145223Y149198D01*
X145220Y149241D01*
X145223Y149264D01*
X145216Y149296D01*
X145211Y149365D01*
X135991Y198537D01*
X135975Y198581D01*
X135968Y198627D01*
X135933Y198696D01*
X135907Y198768D01*
X135878Y198805D01*
X135857Y198847D01*
X135802Y198901D01*
X135754Y198961D01*
X135715Y198986D01*
X135681Y199019D01*
X135565Y199083D01*
X135548Y199094D01*
X135542Y199096D01*
X135534Y199100D01*
X132915Y200185D01*
X130335Y202765D01*
X128938Y206138D01*
X128938Y209787D01*
X130335Y213160D01*
X132915Y215740D01*
X133078Y215808D01*
X133115Y215831D01*
X133156Y215845D01*
X133219Y215895D01*
X133287Y215938D01*
X133315Y215971D01*
X133349Y215998D01*
X133393Y216065D01*
X133444Y216127D01*
X133460Y216168D01*
X133484Y216204D01*
X133504Y216282D01*
X133532Y216357D01*
X133534Y216400D01*
X133545Y216442D01*
X133542Y216589D01*
X133543Y216602D01*
X133542Y216605D01*
X133542Y216610D01*
X132323Y225954D01*
X132311Y225994D01*
X132308Y226036D01*
X132276Y226111D01*
X132252Y226189D01*
X132228Y226224D01*
X132211Y226262D01*
X132116Y226382D01*
X132110Y226390D01*
X132108Y226391D01*
X132107Y226393D01*
X130335Y228165D01*
X128938Y231538D01*
X128938Y235187D01*
X130034Y237834D01*
X130335Y238560D01*
X132915Y241140D01*
X136288Y242537D01*
X139937Y242537D01*
X143310Y241140D01*
X145890Y238560D01*
X146191Y237834D01*
X146253Y237734D01*
X146313Y237634D01*
X146317Y237630D01*
X146321Y237625D01*
X146411Y237550D01*
X146500Y237474D01*
X146505Y237472D01*
X146510Y237468D01*
X146619Y237426D01*
X146728Y237382D01*
X146735Y237381D01*
X146740Y237380D01*
X146758Y237379D01*
X146894Y237364D01*
X150813Y237364D01*
X150832Y237367D01*
X150852Y237365D01*
X150953Y237387D01*
X151055Y237404D01*
X151073Y237413D01*
X151092Y237417D01*
X151181Y237470D01*
X151273Y237519D01*
X151286Y237533D01*
X151303Y237543D01*
X151371Y237622D01*
X151442Y237697D01*
X151450Y237715D01*
X151463Y237730D01*
X151502Y237826D01*
X151546Y237920D01*
X151548Y237940D01*
X151555Y237958D01*
X151574Y238125D01*
X151574Y258763D01*
X151563Y258830D01*
X151561Y258899D01*
X151543Y258951D01*
X151534Y259005D01*
X151502Y259066D01*
X151479Y259131D01*
X151445Y259174D01*
X151419Y259223D01*
X151369Y259270D01*
X151326Y259324D01*
X151264Y259370D01*
X151241Y259392D01*
X151221Y259401D01*
X151191Y259423D01*
X-1209Y346736D01*
X-1277Y346761D01*
X-1341Y346795D01*
X-1392Y346804D01*
X-1439Y346822D01*
X-1512Y346824D01*
X-1584Y346836D01*
X-1634Y346828D01*
X-1685Y346830D01*
X-1755Y346809D01*
X-1827Y346798D01*
X-1890Y346769D01*
X-1921Y346759D01*
X-1940Y346746D01*
X-1979Y346728D01*
X-17854Y337203D01*
X-17892Y337171D01*
X-17935Y337147D01*
X-17985Y337092D01*
X-18042Y337044D01*
X-18067Y337002D01*
X-18101Y336965D01*
X-18131Y336897D01*
X-18169Y336833D01*
X-18180Y336785D01*
X-18200Y336740D01*
X-18206Y336666D01*
X-18223Y336593D01*
X-18217Y336544D01*
X-18222Y336495D01*
X-18204Y336423D01*
X-18197Y336349D01*
X-18176Y336304D01*
X-18165Y336256D01*
X-18125Y336193D01*
X-18094Y336125D01*
X-18060Y336089D01*
X-18034Y336047D01*
X-17942Y335963D01*
X-17926Y335946D01*
X-17919Y335942D01*
X-17910Y335934D01*
X-448Y323234D01*
X-445Y323233D01*
X-441Y323229D01*
X48772Y288304D01*
X48773Y288304D01*
X48774Y288302D01*
X51907Y286098D01*
X51931Y286087D01*
X51950Y286070D01*
X52041Y286033D01*
X52129Y285991D01*
X52154Y285987D01*
X52179Y285978D01*
X52345Y285959D01*
X52990Y285959D01*
X55047Y283902D01*
X55073Y283884D01*
X55147Y283818D01*
X88603Y260275D01*
X88626Y260264D01*
X88646Y260247D01*
X88737Y260210D01*
X88824Y260168D01*
X88850Y260164D01*
X88874Y260155D01*
X89041Y260136D01*
X92372Y260136D01*
X95036Y257472D01*
X95036Y254363D01*
X95046Y254304D01*
X95046Y254244D01*
X95066Y254183D01*
X95076Y254120D01*
X95104Y254068D01*
X95123Y254011D01*
X95176Y253932D01*
X95191Y253903D01*
X95202Y253892D01*
X95216Y253871D01*
X97296Y251413D01*
X97375Y251346D01*
X97449Y251275D01*
X97468Y251267D01*
X97484Y251254D01*
X97579Y251215D01*
X97673Y251172D01*
X97693Y251170D01*
X97712Y251162D01*
X97815Y251156D01*
X97917Y251145D01*
X97937Y251149D01*
X97957Y251148D01*
X98057Y251175D01*
X98157Y251197D01*
X98175Y251207D01*
X98195Y251213D01*
X98280Y251270D01*
X98368Y251323D01*
X98382Y251339D01*
X98399Y251350D01*
X98461Y251432D01*
X98528Y251510D01*
X98536Y251529D01*
X98548Y251545D01*
X98582Y251643D01*
X98620Y251738D01*
X98623Y251763D01*
X98628Y251778D01*
X98628Y251810D01*
X98639Y251905D01*
X98639Y255884D01*
X101303Y258549D01*
X105072Y258549D01*
X107736Y255884D01*
X107736Y252116D01*
X105944Y250323D01*
X105902Y250265D01*
X105852Y250213D01*
X105830Y250166D01*
X105800Y250124D01*
X105779Y250055D01*
X105749Y249990D01*
X105743Y249938D01*
X105728Y249888D01*
X105730Y249817D01*
X105722Y249746D01*
X105733Y249695D01*
X105734Y249643D01*
X105759Y249575D01*
X105774Y249505D01*
X105801Y249460D01*
X105819Y249412D01*
X105863Y249356D01*
X105900Y249294D01*
X105940Y249260D01*
X105972Y249220D01*
X106033Y249181D01*
X106087Y249134D01*
X106135Y249115D01*
X106179Y249087D01*
X106249Y249069D01*
X106315Y249042D01*
X106387Y249034D01*
X106418Y249026D01*
X106441Y249028D01*
X106482Y249024D01*
X106659Y249024D01*
X108935Y246748D01*
X109324Y246359D01*
X109324Y242591D01*
X107348Y240615D01*
X107283Y240525D01*
X107215Y240436D01*
X107211Y240425D01*
X107204Y240415D01*
X107172Y240309D01*
X107136Y240204D01*
X107135Y240192D01*
X107132Y240180D01*
X107135Y240069D01*
X107134Y239958D01*
X107138Y239946D01*
X107138Y239934D01*
X107176Y239830D01*
X107211Y239724D01*
X107220Y239712D01*
X107223Y239703D01*
X107240Y239682D01*
X107305Y239585D01*
X108416Y238272D01*
X107737Y217542D01*
X107738Y217532D01*
X107736Y217517D01*
X107736Y217027D01*
X107730Y216986D01*
X107722Y216958D01*
X107722Y216930D01*
X107715Y216879D01*
X107302Y204272D01*
X107315Y204169D01*
X107323Y204066D01*
X107331Y204048D01*
X107333Y204028D01*
X107379Y203935D01*
X107419Y203840D01*
X107435Y203821D01*
X107441Y203807D01*
X107464Y203784D01*
X107524Y203709D01*
X107736Y203497D01*
X107736Y199728D01*
X107346Y199338D01*
X107299Y199274D01*
X107246Y199215D01*
X107228Y199174D01*
X107202Y199138D01*
X107179Y199063D01*
X107147Y198990D01*
X107138Y198931D01*
X107130Y198903D01*
X107130Y198875D01*
X107123Y198824D01*
X105689Y155085D01*
X105702Y154982D01*
X105710Y154879D01*
X105718Y154861D01*
X105721Y154841D01*
X105766Y154748D01*
X105807Y154652D01*
X105822Y154633D01*
X105829Y154620D01*
X105851Y154597D01*
X105911Y154521D01*
X106149Y154284D01*
X106149Y150516D01*
X105824Y150191D01*
X105771Y150117D01*
X105712Y150048D01*
X105700Y150018D01*
X105681Y149992D01*
X105654Y149905D01*
X105620Y149820D01*
X105615Y149779D01*
X105608Y149757D01*
X105609Y149724D01*
X105601Y149653D01*
X105601Y149225D01*
X105604Y149205D01*
X105602Y149186D01*
X105624Y149084D01*
X105641Y148982D01*
X105650Y148965D01*
X105655Y148945D01*
X105708Y148856D01*
X105756Y148765D01*
X105771Y148751D01*
X105781Y148734D01*
X105859Y148667D01*
X105934Y148596D01*
X105952Y148587D01*
X105968Y148574D01*
X106064Y148535D01*
X106158Y148492D01*
X106177Y148490D01*
X106196Y148482D01*
X106363Y148464D01*
X144463Y148464D01*
X144551Y148478D01*
G37*
%LPC*%
G36*
X-139937Y224188D02*
X-139937Y224188D01*
X-143310Y225585D01*
X-145890Y228165D01*
X-147287Y231538D01*
X-147287Y235187D01*
X-145890Y238560D01*
X-143310Y241140D01*
X-139937Y242537D01*
X-136288Y242537D01*
X-132915Y241140D01*
X-130335Y238560D01*
X-128938Y235187D01*
X-128938Y231538D01*
X-130335Y228165D01*
X-132915Y225585D01*
X-136288Y224188D01*
X-139937Y224188D01*
G37*
%LPD*%
%LPC*%
G36*
X-139937Y198788D02*
X-139937Y198788D01*
X-143310Y200185D01*
X-145890Y202765D01*
X-147287Y206138D01*
X-147287Y209787D01*
X-145890Y213160D01*
X-143310Y215740D01*
X-139937Y217137D01*
X-136288Y217137D01*
X-132915Y215740D01*
X-130335Y213160D01*
X-128938Y209787D01*
X-128938Y206138D01*
X-130335Y202765D01*
X-132915Y200185D01*
X-136288Y198788D01*
X-139937Y198788D01*
G37*
%LPD*%
%LPC*%
G36*
X14056Y286130D02*
X14056Y286130D01*
X10695Y287522D01*
X8122Y290095D01*
X6730Y293456D01*
X6730Y297094D01*
X8122Y300455D01*
X10695Y303028D01*
X14056Y304420D01*
X17694Y304420D01*
X21055Y303028D01*
X23628Y300455D01*
X25020Y297094D01*
X25020Y293456D01*
X23628Y290095D01*
X21055Y287522D01*
X17694Y286130D01*
X14056Y286130D01*
G37*
%LPD*%
%LPC*%
G36*
X-27219Y24193D02*
X-27219Y24193D01*
X-30580Y25585D01*
X-33153Y28157D01*
X-34545Y31519D01*
X-34545Y35156D01*
X-33153Y38518D01*
X-30580Y41090D01*
X-27219Y42482D01*
X-23581Y42482D01*
X-20220Y41090D01*
X-17647Y38518D01*
X-16255Y35156D01*
X-16255Y31519D01*
X-17647Y28157D01*
X-20220Y25585D01*
X-23581Y24193D01*
X-27219Y24193D01*
G37*
%LPD*%
%LPC*%
G36*
X23581Y24193D02*
X23581Y24193D01*
X20220Y25585D01*
X17647Y28157D01*
X16255Y31519D01*
X16255Y35156D01*
X17647Y38518D01*
X20220Y41090D01*
X23581Y42482D01*
X27219Y42482D01*
X30580Y41090D01*
X33153Y38518D01*
X34545Y35156D01*
X34545Y31519D01*
X33153Y28157D01*
X30580Y25585D01*
X27219Y24193D01*
X23581Y24193D01*
G37*
%LPD*%
%LPC*%
G36*
X-1819Y24193D02*
X-1819Y24193D01*
X-5180Y25585D01*
X-7753Y28157D01*
X-9145Y31519D01*
X-9145Y35156D01*
X-7753Y38518D01*
X-5180Y41090D01*
X-1819Y42482D01*
X1819Y42482D01*
X5180Y41090D01*
X7753Y38518D01*
X9145Y35156D01*
X9145Y31519D01*
X7753Y28157D01*
X5180Y25585D01*
X1819Y24193D01*
X-1819Y24193D01*
G37*
%LPD*%
%LPC*%
G36*
X-124122Y128801D02*
X-124122Y128801D01*
X-126786Y131466D01*
X-126786Y135234D01*
X-126364Y135656D01*
X-126313Y135729D01*
X-126257Y135798D01*
X-126250Y135821D01*
X-126236Y135840D01*
X-126214Y135926D01*
X-126186Y136011D01*
X-126186Y136035D01*
X-126180Y136058D01*
X-126190Y136146D01*
X-126192Y136235D01*
X-126201Y136257D01*
X-126204Y136281D01*
X-126243Y136361D01*
X-126276Y136443D01*
X-126292Y136460D01*
X-126303Y136482D01*
X-126368Y136543D01*
X-126428Y136609D01*
X-126449Y136619D01*
X-126466Y136636D01*
X-126548Y136670D01*
X-126627Y136711D01*
X-126654Y136715D01*
X-126673Y136723D01*
X-126723Y136725D01*
X-126813Y136739D01*
X-127297Y136739D01*
X-129961Y139403D01*
X-129961Y143172D01*
X-127883Y145250D01*
X-127846Y145304D01*
X-127801Y145352D01*
X-127782Y145395D01*
X-127755Y145434D01*
X-127739Y145498D01*
X-127713Y145558D01*
X-127711Y145605D01*
X-127699Y145651D01*
X-127706Y145717D01*
X-127703Y145782D01*
X-127718Y145827D01*
X-127722Y145874D01*
X-127752Y145933D01*
X-127772Y145996D01*
X-127804Y146040D01*
X-127822Y146075D01*
X-127851Y146102D01*
X-127883Y146147D01*
X-130431Y148695D01*
X-130431Y152463D01*
X-127767Y155128D01*
X-123999Y155128D01*
X-121334Y152463D01*
X-121334Y148695D01*
X-123412Y146617D01*
X-123450Y146563D01*
X-123495Y146515D01*
X-123513Y146471D01*
X-123540Y146433D01*
X-123556Y146369D01*
X-123582Y146308D01*
X-123584Y146261D01*
X-123596Y146215D01*
X-123589Y146150D01*
X-123592Y146084D01*
X-123578Y146039D01*
X-123573Y145992D01*
X-123544Y145933D01*
X-123523Y145871D01*
X-123491Y145826D01*
X-123473Y145791D01*
X-123445Y145764D01*
X-123412Y145720D01*
X-120864Y143172D01*
X-120864Y139403D01*
X-121286Y138981D01*
X-121337Y138908D01*
X-121393Y138839D01*
X-121400Y138817D01*
X-121414Y138797D01*
X-121436Y138711D01*
X-121464Y138627D01*
X-121464Y138603D01*
X-121470Y138580D01*
X-121460Y138491D01*
X-121458Y138402D01*
X-121449Y138380D01*
X-121446Y138357D01*
X-121407Y138277D01*
X-121374Y138195D01*
X-121358Y138177D01*
X-121347Y138156D01*
X-121282Y138095D01*
X-121222Y138029D01*
X-121201Y138018D01*
X-121184Y138002D01*
X-121102Y137967D01*
X-121023Y137926D01*
X-120996Y137923D01*
X-120977Y137914D01*
X-120927Y137912D01*
X-120837Y137899D01*
X-120353Y137899D01*
X-117689Y135234D01*
X-117689Y131466D01*
X-120353Y128801D01*
X-124122Y128801D01*
G37*
%LPD*%
%LPC*%
G36*
X99716Y87526D02*
X99716Y87526D01*
X97051Y90191D01*
X97051Y93959D01*
X99481Y96389D01*
X99519Y96443D01*
X99564Y96491D01*
X99582Y96534D01*
X99609Y96573D01*
X99626Y96637D01*
X99651Y96698D01*
X99653Y96745D01*
X99665Y96790D01*
X99658Y96856D01*
X99661Y96922D01*
X99647Y96967D01*
X99642Y97014D01*
X99613Y97073D01*
X99593Y97135D01*
X99560Y97179D01*
X99543Y97215D01*
X99514Y97242D01*
X99481Y97286D01*
X97051Y99716D01*
X97051Y103484D01*
X99716Y106149D01*
X103484Y106149D01*
X106149Y103484D01*
X106149Y99716D01*
X103719Y97286D01*
X103681Y97232D01*
X103636Y97184D01*
X103618Y97141D01*
X103591Y97102D01*
X103574Y97038D01*
X103549Y96977D01*
X103547Y96930D01*
X103535Y96884D01*
X103542Y96819D01*
X103539Y96753D01*
X103553Y96708D01*
X103558Y96661D01*
X103587Y96602D01*
X103607Y96540D01*
X103640Y96496D01*
X103657Y96460D01*
X103686Y96433D01*
X103719Y96389D01*
X106149Y93959D01*
X106149Y90191D01*
X103484Y87526D01*
X99716Y87526D01*
G37*
%LPD*%
%LPC*%
G36*
X99716Y112926D02*
X99716Y112926D01*
X97051Y115591D01*
X97051Y119359D01*
X99481Y121789D01*
X99519Y121843D01*
X99564Y121891D01*
X99582Y121934D01*
X99609Y121973D01*
X99626Y122037D01*
X99651Y122098D01*
X99653Y122145D01*
X99665Y122190D01*
X99658Y122256D01*
X99661Y122322D01*
X99647Y122367D01*
X99642Y122414D01*
X99613Y122473D01*
X99593Y122535D01*
X99560Y122579D01*
X99543Y122615D01*
X99514Y122642D01*
X99481Y122686D01*
X97051Y125116D01*
X97051Y128884D01*
X99716Y131549D01*
X103484Y131549D01*
X106149Y128884D01*
X106149Y125116D01*
X103719Y122686D01*
X103681Y122632D01*
X103636Y122584D01*
X103618Y122541D01*
X103591Y122502D01*
X103574Y122438D01*
X103549Y122377D01*
X103547Y122330D01*
X103535Y122284D01*
X103542Y122219D01*
X103539Y122153D01*
X103553Y122108D01*
X103558Y122061D01*
X103587Y122002D01*
X103607Y121940D01*
X103640Y121896D01*
X103657Y121860D01*
X103686Y121833D01*
X103719Y121789D01*
X106149Y119359D01*
X106149Y115591D01*
X103484Y112926D01*
X99716Y112926D01*
G37*
%LPD*%
%LPC*%
G36*
X-92372Y136739D02*
X-92372Y136739D01*
X-94185Y138552D01*
X-94239Y138589D01*
X-94286Y138634D01*
X-94330Y138653D01*
X-94369Y138680D01*
X-94432Y138696D01*
X-94493Y138722D01*
X-94540Y138724D01*
X-94586Y138736D01*
X-94651Y138729D01*
X-94717Y138732D01*
X-94762Y138717D01*
X-94809Y138712D01*
X-94868Y138683D01*
X-94931Y138663D01*
X-94975Y138631D01*
X-95010Y138613D01*
X-95037Y138584D01*
X-95082Y138552D01*
X-96644Y136989D01*
X-100206Y136989D01*
X-102724Y139507D01*
X-102724Y143068D01*
X-100206Y145586D01*
X-96644Y145586D01*
X-95082Y144023D01*
X-95027Y143986D01*
X-94980Y143941D01*
X-94936Y143922D01*
X-94897Y143895D01*
X-94834Y143879D01*
X-94773Y143853D01*
X-94726Y143851D01*
X-94680Y143839D01*
X-94615Y143846D01*
X-94549Y143843D01*
X-94504Y143858D01*
X-94457Y143863D01*
X-94398Y143892D01*
X-94335Y143912D01*
X-94291Y143944D01*
X-94256Y143962D01*
X-94229Y143991D01*
X-94185Y144023D01*
X-92372Y145836D01*
X-88603Y145836D01*
X-85939Y143172D01*
X-85939Y139403D01*
X-88603Y136739D01*
X-92372Y136739D01*
G37*
%LPD*%
%LPC*%
G36*
X-104968Y189376D02*
X-104968Y189376D01*
X-107486Y191894D01*
X-107486Y195456D01*
X-104953Y197989D01*
X-104915Y198043D01*
X-104870Y198091D01*
X-104860Y198114D01*
X-104849Y198128D01*
X-104842Y198148D01*
X-104825Y198173D01*
X-104808Y198237D01*
X-104783Y198298D01*
X-104781Y198328D01*
X-104777Y198341D01*
X-104778Y198356D01*
X-104769Y198390D01*
X-104776Y198456D01*
X-104773Y198522D01*
X-104783Y198555D01*
X-104784Y198565D01*
X-104788Y198575D01*
X-104792Y198614D01*
X-104821Y198673D01*
X-104841Y198735D01*
X-104867Y198770D01*
X-104868Y198773D01*
X-104873Y198779D01*
X-104874Y198779D01*
X-104891Y198815D01*
X-104920Y198842D01*
X-104953Y198886D01*
X-107486Y201419D01*
X-107486Y204981D01*
X-104968Y207499D01*
X-101407Y207499D01*
X-98889Y204981D01*
X-98889Y201419D01*
X-101422Y198886D01*
X-101460Y198832D01*
X-101505Y198784D01*
X-101520Y198748D01*
X-101526Y198741D01*
X-101529Y198733D01*
X-101550Y198702D01*
X-101567Y198638D01*
X-101592Y198577D01*
X-101594Y198539D01*
X-101598Y198528D01*
X-101598Y198518D01*
X-101606Y198484D01*
X-101599Y198419D01*
X-101602Y198353D01*
X-101592Y198320D01*
X-101591Y198304D01*
X-101586Y198291D01*
X-101583Y198261D01*
X-101554Y198202D01*
X-101534Y198140D01*
X-101514Y198113D01*
X-101507Y198096D01*
X-101494Y198082D01*
X-101484Y198060D01*
X-101455Y198033D01*
X-101422Y197989D01*
X-98889Y195456D01*
X-98889Y191894D01*
X-101407Y189376D01*
X-104968Y189376D01*
G37*
%LPD*%
%LPC*%
G36*
X-104968Y241764D02*
X-104968Y241764D01*
X-107486Y244282D01*
X-107486Y247843D01*
X-106540Y248789D01*
X-106503Y248843D01*
X-106458Y248891D01*
X-106439Y248934D01*
X-106412Y248973D01*
X-106396Y249037D01*
X-106370Y249098D01*
X-106368Y249145D01*
X-106356Y249190D01*
X-106363Y249256D01*
X-106360Y249322D01*
X-106375Y249367D01*
X-106380Y249414D01*
X-106409Y249473D01*
X-106429Y249535D01*
X-106462Y249579D01*
X-106479Y249615D01*
X-106508Y249642D01*
X-106540Y249686D01*
X-109074Y252219D01*
X-109074Y255781D01*
X-106556Y258299D01*
X-102994Y258299D01*
X-100476Y255781D01*
X-100476Y252219D01*
X-101422Y251273D01*
X-101460Y251219D01*
X-101505Y251172D01*
X-101523Y251128D01*
X-101550Y251089D01*
X-101567Y251026D01*
X-101592Y250965D01*
X-101594Y250918D01*
X-101606Y250872D01*
X-101599Y250807D01*
X-101602Y250741D01*
X-101588Y250696D01*
X-101583Y250649D01*
X-101554Y250590D01*
X-101534Y250527D01*
X-101501Y250483D01*
X-101484Y250448D01*
X-101455Y250421D01*
X-101422Y250376D01*
X-98889Y247843D01*
X-98889Y244282D01*
X-101407Y241764D01*
X-104968Y241764D01*
G37*
%LPD*%
%LPC*%
G36*
X-104968Y163976D02*
X-104968Y163976D01*
X-107486Y166494D01*
X-107486Y170056D01*
X-105747Y171795D01*
X-105709Y171849D01*
X-105664Y171897D01*
X-105645Y171941D01*
X-105618Y171979D01*
X-105602Y172043D01*
X-105576Y172104D01*
X-105574Y172151D01*
X-105563Y172197D01*
X-105569Y172262D01*
X-105566Y172328D01*
X-105581Y172373D01*
X-105586Y172420D01*
X-105615Y172479D01*
X-105635Y172542D01*
X-105668Y172586D01*
X-105685Y172621D01*
X-105714Y172648D01*
X-105747Y172692D01*
X-107486Y174432D01*
X-107486Y177993D01*
X-104968Y180511D01*
X-101407Y180511D01*
X-98889Y177993D01*
X-98889Y174432D01*
X-100628Y172692D01*
X-100666Y172638D01*
X-100711Y172590D01*
X-100730Y172547D01*
X-100757Y172508D01*
X-100773Y172444D01*
X-100799Y172384D01*
X-100801Y172336D01*
X-100812Y172291D01*
X-100806Y172225D01*
X-100809Y172160D01*
X-100794Y172115D01*
X-100789Y172068D01*
X-100760Y172009D01*
X-100740Y171946D01*
X-100707Y171902D01*
X-100690Y171866D01*
X-100661Y171839D01*
X-100628Y171795D01*
X-98889Y170056D01*
X-98889Y166494D01*
X-101407Y163976D01*
X-104968Y163976D01*
G37*
%LPD*%
%LPC*%
G36*
X-8338Y276189D02*
X-8338Y276189D01*
X-11149Y279000D01*
X-11149Y282975D01*
X-8338Y285786D01*
X-4362Y285786D01*
X-1551Y282975D01*
X-1551Y279000D01*
X-4362Y276189D01*
X-8338Y276189D01*
G37*
%LPD*%
%LPC*%
G36*
X-119463Y252376D02*
X-119463Y252376D01*
X-122274Y255187D01*
X-122274Y259163D01*
X-119463Y261974D01*
X-115487Y261974D01*
X-112676Y259163D01*
X-112676Y255187D01*
X-115487Y252376D01*
X-119463Y252376D01*
G37*
%LPD*%
%LPC*%
G36*
X-14584Y263739D02*
X-14584Y263739D01*
X-17249Y266403D01*
X-17249Y270172D01*
X-14584Y272836D01*
X-10816Y272836D01*
X-8151Y270172D01*
X-8151Y266403D01*
X-10816Y263739D01*
X-14584Y263739D01*
G37*
%LPD*%
%LPC*%
G36*
X-92372Y263739D02*
X-92372Y263739D01*
X-95036Y266403D01*
X-95036Y270172D01*
X-92372Y272836D01*
X-88603Y272836D01*
X-85939Y270172D01*
X-85939Y266403D01*
X-88603Y263739D01*
X-92372Y263739D01*
G37*
%LPD*%
%LPC*%
G36*
X10816Y263739D02*
X10816Y263739D01*
X8151Y266403D01*
X8151Y270172D01*
X10816Y272836D01*
X14584Y272836D01*
X17249Y270172D01*
X17249Y266403D01*
X14584Y263739D01*
X10816Y263739D01*
G37*
%LPD*%
%LPC*%
G36*
X36216Y263739D02*
X36216Y263739D01*
X33551Y266403D01*
X33551Y270172D01*
X36216Y272836D01*
X39984Y272836D01*
X42649Y270172D01*
X42649Y266403D01*
X39984Y263739D01*
X36216Y263739D01*
G37*
%LPD*%
%LPC*%
G36*
X-14584Y238339D02*
X-14584Y238339D01*
X-17249Y241003D01*
X-17249Y244772D01*
X-14584Y247436D01*
X-10816Y247436D01*
X-8151Y244772D01*
X-8151Y241003D01*
X-10816Y238339D01*
X-14584Y238339D01*
G37*
%LPD*%
%LPC*%
G36*
X88603Y238339D02*
X88603Y238339D01*
X85939Y241003D01*
X85939Y244772D01*
X88603Y247436D01*
X92372Y247436D01*
X95036Y244772D01*
X95036Y241003D01*
X92372Y238339D01*
X88603Y238339D01*
G37*
%LPD*%
%LPC*%
G36*
X63203Y238339D02*
X63203Y238339D01*
X60539Y241003D01*
X60539Y244772D01*
X63203Y247436D01*
X66972Y247436D01*
X69636Y244772D01*
X69636Y241003D01*
X66972Y238339D01*
X63203Y238339D01*
G37*
%LPD*%
%LPC*%
G36*
X36216Y238339D02*
X36216Y238339D01*
X33551Y241003D01*
X33551Y244772D01*
X36216Y247436D01*
X39984Y247436D01*
X42649Y244772D01*
X42649Y241003D01*
X39984Y238339D01*
X36216Y238339D01*
G37*
%LPD*%
%LPC*%
G36*
X10816Y238339D02*
X10816Y238339D01*
X8151Y241003D01*
X8151Y244772D01*
X10816Y247436D01*
X14584Y247436D01*
X17249Y244772D01*
X17249Y241003D01*
X14584Y238339D01*
X10816Y238339D01*
G37*
%LPD*%
%LPC*%
G36*
X-39984Y238339D02*
X-39984Y238339D01*
X-42649Y241003D01*
X-42649Y244772D01*
X-39984Y247436D01*
X-36216Y247436D01*
X-33551Y244772D01*
X-33551Y241003D01*
X-36216Y238339D01*
X-39984Y238339D01*
G37*
%LPD*%
%LPC*%
G36*
X-66972Y238339D02*
X-66972Y238339D01*
X-69636Y241003D01*
X-69636Y244772D01*
X-66972Y247436D01*
X-63203Y247436D01*
X-60539Y244772D01*
X-60539Y241003D01*
X-63203Y238339D01*
X-66972Y238339D01*
G37*
%LPD*%
%LPC*%
G36*
X-92372Y238339D02*
X-92372Y238339D01*
X-95036Y241003D01*
X-95036Y244772D01*
X-92372Y247436D01*
X-88603Y247436D01*
X-85939Y244772D01*
X-85939Y241003D01*
X-88603Y238339D01*
X-92372Y238339D01*
G37*
%LPD*%
%LPC*%
G36*
X-66972Y212939D02*
X-66972Y212939D01*
X-69636Y215603D01*
X-69636Y219372D01*
X-66972Y222036D01*
X-63203Y222036D01*
X-60539Y219372D01*
X-60539Y215603D01*
X-63203Y212939D01*
X-66972Y212939D01*
G37*
%LPD*%
%LPC*%
G36*
X10816Y212939D02*
X10816Y212939D01*
X8151Y215603D01*
X8151Y219372D01*
X10816Y222036D01*
X14584Y222036D01*
X17249Y219372D01*
X17249Y215603D01*
X14584Y212939D01*
X10816Y212939D01*
G37*
%LPD*%
%LPC*%
G36*
X-92372Y212939D02*
X-92372Y212939D01*
X-95036Y215603D01*
X-95036Y219372D01*
X-92372Y222036D01*
X-88603Y222036D01*
X-85939Y219372D01*
X-85939Y215603D01*
X-88603Y212939D01*
X-92372Y212939D01*
G37*
%LPD*%
%LPC*%
G36*
X36216Y212939D02*
X36216Y212939D01*
X33551Y215603D01*
X33551Y219372D01*
X36216Y222036D01*
X39984Y222036D01*
X42649Y219372D01*
X42649Y215603D01*
X39984Y212939D01*
X36216Y212939D01*
G37*
%LPD*%
%LPC*%
G36*
X88603Y212939D02*
X88603Y212939D01*
X85939Y215603D01*
X85939Y219372D01*
X88603Y222036D01*
X92372Y222036D01*
X95036Y219372D01*
X95036Y215603D01*
X92372Y212939D01*
X88603Y212939D01*
G37*
%LPD*%
%LPC*%
G36*
X63203Y212939D02*
X63203Y212939D01*
X60539Y215603D01*
X60539Y219372D01*
X63203Y222036D01*
X66972Y222036D01*
X69636Y219372D01*
X69636Y215603D01*
X66972Y212939D01*
X63203Y212939D01*
G37*
%LPD*%
%LPC*%
G36*
X88603Y189126D02*
X88603Y189126D01*
X85939Y191791D01*
X85939Y195559D01*
X88603Y198224D01*
X92372Y198224D01*
X95036Y195559D01*
X95036Y191791D01*
X92372Y189126D01*
X88603Y189126D01*
G37*
%LPD*%
%LPC*%
G36*
X-39984Y263739D02*
X-39984Y263739D01*
X-42649Y266403D01*
X-42649Y270172D01*
X-39984Y272836D01*
X-36216Y272836D01*
X-33551Y270172D01*
X-33551Y266403D01*
X-36216Y263739D01*
X-39984Y263739D01*
G37*
%LPD*%
%LPC*%
G36*
X63203Y187539D02*
X63203Y187539D01*
X60539Y190203D01*
X60539Y193972D01*
X63203Y196636D01*
X66972Y196636D01*
X69636Y193972D01*
X69636Y190203D01*
X66972Y187539D01*
X63203Y187539D01*
G37*
%LPD*%
%LPC*%
G36*
X-39984Y187539D02*
X-39984Y187539D01*
X-42649Y190203D01*
X-42649Y193972D01*
X-39984Y196636D01*
X-36216Y196636D01*
X-33551Y193972D01*
X-33551Y190203D01*
X-36216Y187539D01*
X-39984Y187539D01*
G37*
%LPD*%
%LPC*%
G36*
X-92372Y187539D02*
X-92372Y187539D01*
X-95036Y190203D01*
X-95036Y193972D01*
X-92372Y196636D01*
X-88603Y196636D01*
X-85939Y193972D01*
X-85939Y190203D01*
X-88603Y187539D01*
X-92372Y187539D01*
G37*
%LPD*%
%LPC*%
G36*
X-66972Y187539D02*
X-66972Y187539D01*
X-69636Y190203D01*
X-69636Y193972D01*
X-66972Y196636D01*
X-63203Y196636D01*
X-60539Y193972D01*
X-60539Y190203D01*
X-63203Y187539D01*
X-66972Y187539D01*
G37*
%LPD*%
%LPC*%
G36*
X116061Y178247D02*
X116061Y178247D01*
X113396Y180912D01*
X113396Y184680D01*
X116061Y187345D01*
X119829Y187345D01*
X122494Y184680D01*
X122494Y180912D01*
X119829Y178247D01*
X116061Y178247D01*
G37*
%LPD*%
%LPC*%
G36*
X-92372Y162139D02*
X-92372Y162139D01*
X-95036Y164803D01*
X-95036Y168572D01*
X-92372Y171236D01*
X-88603Y171236D01*
X-85939Y168572D01*
X-85939Y164803D01*
X-88603Y162139D01*
X-92372Y162139D01*
G37*
%LPD*%
%LPC*%
G36*
X63203Y162139D02*
X63203Y162139D01*
X60539Y164803D01*
X60539Y168572D01*
X63203Y171236D01*
X66972Y171236D01*
X69636Y168572D01*
X69636Y164803D01*
X66972Y162139D01*
X63203Y162139D01*
G37*
%LPD*%
%LPC*%
G36*
X10816Y162139D02*
X10816Y162139D01*
X8151Y164803D01*
X8151Y168572D01*
X10816Y171236D01*
X14584Y171236D01*
X17249Y168572D01*
X17249Y164803D01*
X14584Y162139D01*
X10816Y162139D01*
G37*
%LPD*%
%LPC*%
G36*
X-14584Y162139D02*
X-14584Y162139D01*
X-17249Y164803D01*
X-17249Y168572D01*
X-14584Y171236D01*
X-10816Y171236D01*
X-8151Y168572D01*
X-8151Y164803D01*
X-10816Y162139D01*
X-14584Y162139D01*
G37*
%LPD*%
%LPC*%
G36*
X-66972Y162139D02*
X-66972Y162139D01*
X-69636Y164803D01*
X-69636Y168572D01*
X-66972Y171236D01*
X-63203Y171236D01*
X-60539Y168572D01*
X-60539Y164803D01*
X-63203Y162139D01*
X-66972Y162139D01*
G37*
%LPD*%
%LPC*%
G36*
X-66972Y136739D02*
X-66972Y136739D01*
X-69636Y139403D01*
X-69636Y143172D01*
X-66972Y145836D01*
X-63203Y145836D01*
X-60539Y143172D01*
X-60539Y139403D01*
X-63203Y136739D01*
X-66972Y136739D01*
G37*
%LPD*%
%LPC*%
G36*
X-14584Y136739D02*
X-14584Y136739D01*
X-17249Y139403D01*
X-17249Y143172D01*
X-14584Y145836D01*
X-10816Y145836D01*
X-8151Y143172D01*
X-8151Y139403D01*
X-10816Y136739D01*
X-14584Y136739D01*
G37*
%LPD*%
%LPC*%
G36*
X10816Y136739D02*
X10816Y136739D01*
X8151Y139403D01*
X8151Y143172D01*
X10816Y145836D01*
X14584Y145836D01*
X17249Y143172D01*
X17249Y139403D01*
X14584Y136739D01*
X10816Y136739D01*
G37*
%LPD*%
%LPC*%
G36*
X63203Y136739D02*
X63203Y136739D01*
X60539Y139403D01*
X60539Y143172D01*
X63203Y145836D01*
X66972Y145836D01*
X69636Y143172D01*
X69636Y139403D01*
X66972Y136739D01*
X63203Y136739D01*
G37*
%LPD*%
%LPC*%
G36*
X-33634Y288662D02*
X-33634Y288662D01*
X-36299Y291326D01*
X-36299Y295095D01*
X-33634Y297759D01*
X-29866Y297759D01*
X-27201Y295095D01*
X-27201Y291326D01*
X-29866Y288662D01*
X-33634Y288662D01*
G37*
%LPD*%
%LPC*%
G36*
X-101897Y276439D02*
X-101897Y276439D01*
X-104561Y279103D01*
X-104561Y282872D01*
X-101897Y285536D01*
X-98128Y285536D01*
X-95464Y282872D01*
X-95464Y279103D01*
X-98128Y276439D01*
X-101897Y276439D01*
G37*
%LPD*%
%LPC*%
G36*
X88603Y111339D02*
X88603Y111339D01*
X85939Y114003D01*
X85939Y117772D01*
X88603Y120436D01*
X92372Y120436D01*
X95036Y117772D01*
X95036Y114003D01*
X92372Y111339D01*
X88603Y111339D01*
G37*
%LPD*%
%LPC*%
G36*
X36216Y111339D02*
X36216Y111339D01*
X33551Y114003D01*
X33551Y117772D01*
X36216Y120436D01*
X39984Y120436D01*
X42649Y117772D01*
X42649Y114003D01*
X39984Y111339D01*
X36216Y111339D01*
G37*
%LPD*%
%LPC*%
G36*
X-39984Y111339D02*
X-39984Y111339D01*
X-42649Y114003D01*
X-42649Y117772D01*
X-39984Y120436D01*
X-36216Y120436D01*
X-33551Y117772D01*
X-33551Y114003D01*
X-36216Y111339D01*
X-39984Y111339D01*
G37*
%LPD*%
%LPC*%
G36*
X-66972Y111339D02*
X-66972Y111339D01*
X-69636Y114003D01*
X-69636Y117772D01*
X-66972Y120436D01*
X-63203Y120436D01*
X-60539Y117772D01*
X-60539Y114003D01*
X-63203Y111339D01*
X-66972Y111339D01*
G37*
%LPD*%
%LPC*%
G36*
X63203Y111339D02*
X63203Y111339D01*
X60539Y114003D01*
X60539Y117772D01*
X63203Y120436D01*
X66972Y120436D01*
X69636Y117772D01*
X69636Y114003D01*
X66972Y111339D01*
X63203Y111339D01*
G37*
%LPD*%
%LPC*%
G36*
X99716Y266914D02*
X99716Y266914D01*
X97051Y269578D01*
X97051Y273347D01*
X99716Y276011D01*
X103484Y276011D01*
X106149Y273347D01*
X106149Y269578D01*
X103484Y266914D01*
X99716Y266914D01*
G37*
%LPD*%
%LPC*%
G36*
X36216Y187539D02*
X36216Y187539D01*
X33551Y190203D01*
X33551Y193972D01*
X36216Y196636D01*
X39984Y196636D01*
X42649Y193972D01*
X42649Y190203D01*
X39984Y187539D01*
X36216Y187539D01*
G37*
%LPD*%
%LPC*%
G36*
X-66972Y85939D02*
X-66972Y85939D01*
X-69636Y88603D01*
X-69636Y92372D01*
X-66972Y95036D01*
X-63203Y95036D01*
X-60539Y92372D01*
X-60539Y88603D01*
X-63203Y85939D01*
X-66972Y85939D01*
G37*
%LPD*%
%LPC*%
G36*
X-39984Y85939D02*
X-39984Y85939D01*
X-42649Y88603D01*
X-42649Y92372D01*
X-39984Y95036D01*
X-36216Y95036D01*
X-33551Y92372D01*
X-33551Y88603D01*
X-36216Y85939D01*
X-39984Y85939D01*
G37*
%LPD*%
%LPC*%
G36*
X10816Y85939D02*
X10816Y85939D01*
X8151Y88603D01*
X8151Y92372D01*
X10816Y95036D01*
X14584Y95036D01*
X17249Y92372D01*
X17249Y88603D01*
X14584Y85939D01*
X10816Y85939D01*
G37*
%LPD*%
%LPC*%
G36*
X36216Y85939D02*
X36216Y85939D01*
X33551Y88603D01*
X33551Y92372D01*
X36216Y95036D01*
X39984Y95036D01*
X42649Y92372D01*
X42649Y88603D01*
X39984Y85939D01*
X36216Y85939D01*
G37*
%LPD*%
%LPC*%
G36*
X63203Y85939D02*
X63203Y85939D01*
X60539Y88603D01*
X60539Y92372D01*
X63203Y95036D01*
X66972Y95036D01*
X69636Y92372D01*
X69636Y88603D01*
X66972Y85939D01*
X63203Y85939D01*
G37*
%LPD*%
%LPC*%
G36*
X88603Y84351D02*
X88603Y84351D01*
X85939Y87016D01*
X85939Y90784D01*
X88603Y93449D01*
X92372Y93449D01*
X95036Y90784D01*
X95036Y87016D01*
X92372Y84351D01*
X88603Y84351D01*
G37*
%LPD*%
%LPC*%
G36*
X88603Y266914D02*
X88603Y266914D01*
X85939Y269578D01*
X85939Y273347D01*
X88603Y276011D01*
X92372Y276011D01*
X95036Y273347D01*
X95036Y269578D01*
X92372Y266914D01*
X88603Y266914D01*
G37*
%LPD*%
%LPC*%
G36*
X-66972Y263739D02*
X-66972Y263739D01*
X-69636Y266403D01*
X-69636Y270172D01*
X-66972Y272836D01*
X-63203Y272836D01*
X-60539Y270172D01*
X-60539Y266403D01*
X-63203Y263739D01*
X-66972Y263739D01*
G37*
%LPD*%
%LPC*%
G36*
X88603Y136739D02*
X88603Y136739D01*
X85939Y139403D01*
X85939Y143172D01*
X88603Y145836D01*
X92372Y145836D01*
X95036Y143172D01*
X95036Y139403D01*
X92372Y136739D01*
X88603Y136739D01*
G37*
%LPD*%
%LPC*%
G36*
X-106556Y265576D02*
X-106556Y265576D01*
X-109074Y268094D01*
X-109074Y271656D01*
X-106556Y274174D01*
X-102994Y274174D01*
X-100476Y271656D01*
X-100476Y268094D01*
X-102994Y265576D01*
X-106556Y265576D01*
G37*
%LPD*%
%LPC*%
G36*
X-104968Y211601D02*
X-104968Y211601D01*
X-107486Y214119D01*
X-107486Y217681D01*
X-104968Y220199D01*
X-101407Y220199D01*
X-98889Y217681D01*
X-98889Y214119D01*
X-101407Y211601D01*
X-104968Y211601D01*
G37*
%LPD*%
%LPC*%
G36*
X-100206Y124289D02*
X-100206Y124289D01*
X-102724Y126807D01*
X-102724Y130368D01*
X-100206Y132886D01*
X-96644Y132886D01*
X-94126Y130368D01*
X-94126Y126807D01*
X-96644Y124289D01*
X-100206Y124289D01*
G37*
%LPD*%
%LPC*%
G36*
X-100206Y149689D02*
X-100206Y149689D01*
X-102724Y152207D01*
X-102724Y155768D01*
X-100206Y158286D01*
X-96644Y158286D01*
X-94126Y155768D01*
X-94126Y152207D01*
X-96644Y149689D01*
X-100206Y149689D01*
G37*
%LPD*%
%LPC*%
G36*
X-104968Y229064D02*
X-104968Y229064D01*
X-107486Y231582D01*
X-107486Y235143D01*
X-104968Y237661D01*
X-101407Y237661D01*
X-98889Y235143D01*
X-98889Y231582D01*
X-101407Y229064D01*
X-104968Y229064D01*
G37*
%LPD*%
D10*
X15875Y295275D03*
X-25400Y33338D03*
X0Y33338D03*
X25400Y33338D03*
D11*
X138113Y138113D03*
X138113Y112713D03*
X-138113Y233363D03*
X-138113Y207963D03*
X-138113Y138113D03*
X-138113Y112713D03*
X138113Y233363D03*
X138113Y207963D03*
D12*
X128588Y100013D03*
X120650Y93663D03*
X20638Y19050D03*
X-19050Y19050D03*
X-144463Y125413D03*
X-109538Y68263D03*
X120650Y153988D03*
X111125Y153988D03*
X130175Y244475D03*
X122238Y244475D03*
X19050Y328613D03*
X12700Y322263D03*
X-6350Y280988D03*
X17507Y50844D03*
D13*
X-122238Y133350D03*
D14*
X-106363Y107950D03*
D12*
X-117475Y257175D03*
D13*
X-38100Y268288D03*
X12700Y268288D03*
X65088Y268288D03*
X-38100Y242888D03*
X12700Y242888D03*
X65088Y242888D03*
X-65088Y242888D03*
X-90488Y242888D03*
X-90488Y217488D03*
X-65088Y217488D03*
X12700Y217488D03*
X38100Y217488D03*
X65088Y217488D03*
X90488Y217488D03*
X90488Y193675D03*
X65088Y192088D03*
X38100Y192088D03*
X-38100Y192088D03*
X-65088Y192088D03*
X-90488Y192088D03*
X-65088Y268288D03*
X-90488Y268288D03*
X-12700Y268288D03*
X38100Y268288D03*
X90488Y271463D03*
X38100Y242888D03*
X65088Y166688D03*
X12700Y166688D03*
X-12700Y166688D03*
X90488Y168275D03*
X-65088Y166688D03*
X-90488Y166688D03*
X65088Y141288D03*
X12700Y141288D03*
X-12700Y141288D03*
X-65088Y141288D03*
X-90488Y141288D03*
X90488Y141288D03*
X90488Y115888D03*
X90488Y88900D03*
X38100Y115888D03*
X65088Y115888D03*
X-38100Y115888D03*
X-65088Y115888D03*
X-90488Y115888D03*
X38100Y90488D03*
X65088Y90488D03*
X-38100Y90488D03*
X-65088Y90488D03*
X-90488Y90488D03*
X-12700Y242888D03*
X90488Y242888D03*
X12700Y90488D03*
X-125413Y141288D03*
X-51259Y66252D03*
X54308Y67840D03*
X-125883Y150579D03*
X117945Y182796D03*
X-100013Y280988D03*
X51106Y281411D03*
X-31750Y293211D03*
D14*
X-110510Y96652D03*
X-112925Y88256D03*
D13*
X101600Y76200D03*
X-103188Y100013D03*
X101600Y92075D03*
D14*
X-98425Y112713D03*
D13*
X101600Y101600D03*
D14*
X-98425Y128588D03*
X-98425Y141288D03*
D13*
X101600Y117475D03*
D14*
X-98425Y153988D03*
D13*
X101600Y127000D03*
D14*
X-103188Y168275D03*
D13*
X101600Y142875D03*
D14*
X-103188Y176213D03*
D13*
X101600Y152400D03*
D14*
X-103188Y193675D03*
D13*
X100013Y168275D03*
D14*
X-103188Y203200D03*
D13*
X101600Y177800D03*
D14*
X-103188Y215900D03*
D13*
X101600Y193675D03*
D14*
X-103188Y233363D03*
D13*
X103188Y201613D03*
X103188Y219075D03*
D14*
X-103188Y246063D03*
D13*
X103188Y228600D03*
D14*
X-104775Y254000D03*
X-104775Y269875D03*
D13*
X104775Y244475D03*
X103188Y254000D03*
X101600Y271463D03*
X65088Y255588D03*
X12700Y255588D03*
X-38100Y255588D03*
X-65088Y255588D03*
X-90488Y255588D03*
X38100Y255588D03*
X90488Y255588D03*
X90488Y230188D03*
X65088Y230188D03*
X38100Y230188D03*
X12700Y230188D03*
X-65088Y230188D03*
X-90488Y230188D03*
X-38100Y204788D03*
X-65088Y204788D03*
X-90488Y204788D03*
X38100Y204788D03*
X65088Y204788D03*
X90488Y203200D03*
X90488Y180975D03*
X-65088Y179388D03*
X-90488Y179388D03*
X65088Y153988D03*
X-65088Y153988D03*
X-90488Y153988D03*
X90488Y153988D03*
X90488Y128588D03*
X90488Y101600D03*
X90488Y76200D03*
X65088Y128588D03*
X-65088Y128588D03*
X-90488Y128588D03*
X38100Y103188D03*
X65088Y103188D03*
X-65088Y103188D03*
X-90488Y103188D03*
X38100Y76200D03*
X65088Y76200D03*
X12700Y76200D03*
X-12700Y76200D03*
X-38100Y76200D03*
X-65088Y76200D03*
X-12700Y255588D03*
X-38100Y103188D03*
D15*
X65088Y255588D02*
X90488Y255588D01*
D13*
X-101600Y87313D03*
X-101600Y63500D03*
M02*
