G04 EAGLE Gerber RS-274X export*
G75*
%MOMM*%
%FSLAX34Y34*%
%LPD*%
%INSolderpaste Bottom*%
%IPPOS*%
%AMOC8*
5,1,8,0,0,1.08239X$1,22.5*%
G01*
%ADD10R,0.700000X0.900000*%
%ADD11R,1.100000X1.000000*%
%ADD12R,0.900000X0.700000*%
%ADD13R,0.297181X0.550000*%
%ADD14R,0.550000X0.297181*%
%ADD15R,0.400000X1.399997*%
%ADD16R,0.200000X0.650000*%
%ADD17R,0.200000X0.600000*%
%ADD18R,0.800000X0.500000*%

G36*
X27450Y167499D02*
X27450Y167499D01*
X27452Y167498D01*
X27495Y167518D01*
X27539Y167536D01*
X27539Y167538D01*
X27541Y167539D01*
X27574Y167624D01*
X27574Y179848D01*
X27573Y179850D01*
X27574Y179852D01*
X27554Y179895D01*
X27536Y179939D01*
X27534Y179939D01*
X27533Y179941D01*
X27448Y179974D01*
X15224Y179974D01*
X15222Y179973D01*
X15220Y179974D01*
X15177Y179954D01*
X15133Y179936D01*
X15133Y179934D01*
X15131Y179933D01*
X15098Y179848D01*
X15098Y167624D01*
X15099Y167622D01*
X15098Y167620D01*
X15118Y167577D01*
X15136Y167533D01*
X15138Y167533D01*
X15139Y167531D01*
X15224Y167498D01*
X27448Y167498D01*
X27450Y167499D01*
G37*
G36*
X13226Y167499D02*
X13226Y167499D01*
X13228Y167498D01*
X13271Y167518D01*
X13315Y167536D01*
X13315Y167538D01*
X13317Y167539D01*
X13350Y167624D01*
X13350Y179848D01*
X13349Y179850D01*
X13350Y179852D01*
X13330Y179895D01*
X13312Y179939D01*
X13310Y179939D01*
X13309Y179941D01*
X13224Y179974D01*
X1000Y179974D01*
X998Y179973D01*
X996Y179974D01*
X953Y179954D01*
X909Y179936D01*
X909Y179934D01*
X907Y179933D01*
X874Y179848D01*
X874Y167624D01*
X875Y167622D01*
X874Y167620D01*
X894Y167577D01*
X912Y167533D01*
X914Y167533D01*
X915Y167531D01*
X1000Y167498D01*
X13224Y167498D01*
X13226Y167499D01*
G37*
G36*
X-998Y167499D02*
X-998Y167499D01*
X-996Y167498D01*
X-953Y167518D01*
X-909Y167536D01*
X-909Y167538D01*
X-907Y167539D01*
X-874Y167624D01*
X-874Y179848D01*
X-875Y179850D01*
X-874Y179852D01*
X-894Y179895D01*
X-912Y179939D01*
X-914Y179939D01*
X-915Y179941D01*
X-1000Y179974D01*
X-13224Y179974D01*
X-13226Y179973D01*
X-13228Y179974D01*
X-13271Y179954D01*
X-13315Y179936D01*
X-13315Y179934D01*
X-13317Y179933D01*
X-13350Y179848D01*
X-13350Y167624D01*
X-13349Y167622D01*
X-13350Y167620D01*
X-13330Y167577D01*
X-13312Y167533D01*
X-13310Y167533D01*
X-13309Y167531D01*
X-13224Y167498D01*
X-1000Y167498D01*
X-998Y167499D01*
G37*
G36*
X-15222Y167499D02*
X-15222Y167499D01*
X-15220Y167498D01*
X-15177Y167518D01*
X-15133Y167536D01*
X-15133Y167538D01*
X-15131Y167539D01*
X-15098Y167624D01*
X-15098Y179848D01*
X-15099Y179850D01*
X-15098Y179852D01*
X-15118Y179895D01*
X-15136Y179939D01*
X-15138Y179939D01*
X-15139Y179941D01*
X-15224Y179974D01*
X-27448Y179974D01*
X-27450Y179973D01*
X-27452Y179974D01*
X-27495Y179954D01*
X-27539Y179936D01*
X-27539Y179934D01*
X-27541Y179933D01*
X-27574Y179848D01*
X-27574Y167624D01*
X-27573Y167622D01*
X-27574Y167620D01*
X-27554Y167577D01*
X-27536Y167533D01*
X-27534Y167533D01*
X-27533Y167531D01*
X-27448Y167498D01*
X-15224Y167498D01*
X-15222Y167499D01*
G37*
G36*
X27450Y153275D02*
X27450Y153275D01*
X27452Y153274D01*
X27495Y153294D01*
X27539Y153312D01*
X27539Y153314D01*
X27541Y153315D01*
X27574Y153400D01*
X27574Y165624D01*
X27573Y165626D01*
X27574Y165628D01*
X27554Y165671D01*
X27536Y165715D01*
X27534Y165715D01*
X27533Y165717D01*
X27448Y165750D01*
X15224Y165750D01*
X15222Y165749D01*
X15220Y165750D01*
X15177Y165730D01*
X15133Y165712D01*
X15133Y165710D01*
X15131Y165709D01*
X15098Y165624D01*
X15098Y153400D01*
X15099Y153398D01*
X15098Y153396D01*
X15118Y153353D01*
X15136Y153309D01*
X15138Y153309D01*
X15139Y153307D01*
X15224Y153274D01*
X27448Y153274D01*
X27450Y153275D01*
G37*
G36*
X-15222Y153275D02*
X-15222Y153275D01*
X-15220Y153274D01*
X-15177Y153294D01*
X-15133Y153312D01*
X-15133Y153314D01*
X-15131Y153315D01*
X-15098Y153400D01*
X-15098Y165624D01*
X-15099Y165626D01*
X-15098Y165628D01*
X-15118Y165671D01*
X-15136Y165715D01*
X-15138Y165715D01*
X-15139Y165717D01*
X-15224Y165750D01*
X-27448Y165750D01*
X-27450Y165749D01*
X-27452Y165750D01*
X-27495Y165730D01*
X-27539Y165712D01*
X-27539Y165710D01*
X-27541Y165709D01*
X-27574Y165624D01*
X-27574Y153400D01*
X-27573Y153398D01*
X-27574Y153396D01*
X-27554Y153353D01*
X-27536Y153309D01*
X-27534Y153309D01*
X-27533Y153307D01*
X-27448Y153274D01*
X-15224Y153274D01*
X-15222Y153275D01*
G37*
G36*
X-998Y153275D02*
X-998Y153275D01*
X-996Y153274D01*
X-953Y153294D01*
X-909Y153312D01*
X-909Y153314D01*
X-907Y153315D01*
X-874Y153400D01*
X-874Y165624D01*
X-875Y165626D01*
X-874Y165628D01*
X-894Y165671D01*
X-912Y165715D01*
X-914Y165715D01*
X-915Y165717D01*
X-1000Y165750D01*
X-13224Y165750D01*
X-13226Y165749D01*
X-13228Y165750D01*
X-13271Y165730D01*
X-13315Y165712D01*
X-13315Y165710D01*
X-13317Y165709D01*
X-13350Y165624D01*
X-13350Y153400D01*
X-13349Y153398D01*
X-13350Y153396D01*
X-13330Y153353D01*
X-13312Y153309D01*
X-13310Y153309D01*
X-13309Y153307D01*
X-13224Y153274D01*
X-1000Y153274D01*
X-998Y153275D01*
G37*
G36*
X13226Y153275D02*
X13226Y153275D01*
X13228Y153274D01*
X13271Y153294D01*
X13315Y153312D01*
X13315Y153314D01*
X13317Y153315D01*
X13350Y153400D01*
X13350Y165624D01*
X13349Y165626D01*
X13350Y165628D01*
X13330Y165671D01*
X13312Y165715D01*
X13310Y165715D01*
X13309Y165717D01*
X13224Y165750D01*
X1000Y165750D01*
X998Y165749D01*
X996Y165750D01*
X953Y165730D01*
X909Y165712D01*
X909Y165710D01*
X907Y165709D01*
X874Y165624D01*
X874Y153400D01*
X875Y153398D01*
X874Y153396D01*
X894Y153353D01*
X912Y153309D01*
X914Y153309D01*
X915Y153307D01*
X1000Y153274D01*
X13224Y153274D01*
X13226Y153275D01*
G37*
G36*
X-998Y139051D02*
X-998Y139051D01*
X-996Y139050D01*
X-953Y139070D01*
X-909Y139088D01*
X-909Y139090D01*
X-907Y139091D01*
X-874Y139176D01*
X-874Y151400D01*
X-875Y151402D01*
X-874Y151404D01*
X-894Y151447D01*
X-912Y151491D01*
X-914Y151491D01*
X-915Y151493D01*
X-1000Y151526D01*
X-13224Y151526D01*
X-13226Y151525D01*
X-13228Y151526D01*
X-13271Y151506D01*
X-13315Y151488D01*
X-13315Y151486D01*
X-13317Y151485D01*
X-13350Y151400D01*
X-13350Y139176D01*
X-13349Y139174D01*
X-13350Y139172D01*
X-13330Y139129D01*
X-13312Y139085D01*
X-13310Y139085D01*
X-13309Y139083D01*
X-13224Y139050D01*
X-1000Y139050D01*
X-998Y139051D01*
G37*
G36*
X27450Y139051D02*
X27450Y139051D01*
X27452Y139050D01*
X27495Y139070D01*
X27539Y139088D01*
X27539Y139090D01*
X27541Y139091D01*
X27574Y139176D01*
X27574Y151400D01*
X27573Y151402D01*
X27574Y151404D01*
X27554Y151447D01*
X27536Y151491D01*
X27534Y151491D01*
X27533Y151493D01*
X27448Y151526D01*
X15224Y151526D01*
X15222Y151525D01*
X15220Y151526D01*
X15177Y151506D01*
X15133Y151488D01*
X15133Y151486D01*
X15131Y151485D01*
X15098Y151400D01*
X15098Y139176D01*
X15099Y139174D01*
X15098Y139172D01*
X15118Y139129D01*
X15136Y139085D01*
X15138Y139085D01*
X15139Y139083D01*
X15224Y139050D01*
X27448Y139050D01*
X27450Y139051D01*
G37*
G36*
X13226Y139051D02*
X13226Y139051D01*
X13228Y139050D01*
X13271Y139070D01*
X13315Y139088D01*
X13315Y139090D01*
X13317Y139091D01*
X13350Y139176D01*
X13350Y151400D01*
X13349Y151402D01*
X13350Y151404D01*
X13330Y151447D01*
X13312Y151491D01*
X13310Y151491D01*
X13309Y151493D01*
X13224Y151526D01*
X1000Y151526D01*
X998Y151525D01*
X996Y151526D01*
X953Y151506D01*
X909Y151488D01*
X909Y151486D01*
X907Y151485D01*
X874Y151400D01*
X874Y139176D01*
X875Y139174D01*
X874Y139172D01*
X894Y139129D01*
X912Y139085D01*
X914Y139085D01*
X915Y139083D01*
X1000Y139050D01*
X13224Y139050D01*
X13226Y139051D01*
G37*
G36*
X-15222Y139051D02*
X-15222Y139051D01*
X-15220Y139050D01*
X-15177Y139070D01*
X-15133Y139088D01*
X-15133Y139090D01*
X-15131Y139091D01*
X-15098Y139176D01*
X-15098Y151400D01*
X-15099Y151402D01*
X-15098Y151404D01*
X-15118Y151447D01*
X-15136Y151491D01*
X-15138Y151491D01*
X-15139Y151493D01*
X-15224Y151526D01*
X-27448Y151526D01*
X-27450Y151525D01*
X-27452Y151526D01*
X-27495Y151506D01*
X-27539Y151488D01*
X-27539Y151486D01*
X-27541Y151485D01*
X-27574Y151400D01*
X-27574Y139176D01*
X-27573Y139174D01*
X-27574Y139172D01*
X-27554Y139129D01*
X-27536Y139085D01*
X-27534Y139085D01*
X-27533Y139083D01*
X-27448Y139050D01*
X-15224Y139050D01*
X-15222Y139051D01*
G37*
G36*
X13226Y124827D02*
X13226Y124827D01*
X13228Y124826D01*
X13271Y124846D01*
X13315Y124864D01*
X13315Y124866D01*
X13317Y124867D01*
X13350Y124952D01*
X13350Y137176D01*
X13349Y137178D01*
X13350Y137180D01*
X13330Y137223D01*
X13312Y137267D01*
X13310Y137267D01*
X13309Y137269D01*
X13224Y137302D01*
X1000Y137302D01*
X998Y137301D01*
X996Y137302D01*
X953Y137282D01*
X909Y137264D01*
X909Y137262D01*
X907Y137261D01*
X874Y137176D01*
X874Y124952D01*
X875Y124950D01*
X874Y124948D01*
X894Y124905D01*
X912Y124861D01*
X914Y124861D01*
X915Y124859D01*
X1000Y124826D01*
X13224Y124826D01*
X13226Y124827D01*
G37*
G36*
X-998Y124827D02*
X-998Y124827D01*
X-996Y124826D01*
X-953Y124846D01*
X-909Y124864D01*
X-909Y124866D01*
X-907Y124867D01*
X-874Y124952D01*
X-874Y137176D01*
X-875Y137178D01*
X-874Y137180D01*
X-894Y137223D01*
X-912Y137267D01*
X-914Y137267D01*
X-915Y137269D01*
X-1000Y137302D01*
X-13224Y137302D01*
X-13226Y137301D01*
X-13228Y137302D01*
X-13271Y137282D01*
X-13315Y137264D01*
X-13315Y137262D01*
X-13317Y137261D01*
X-13350Y137176D01*
X-13350Y124952D01*
X-13349Y124950D01*
X-13350Y124948D01*
X-13330Y124905D01*
X-13312Y124861D01*
X-13310Y124861D01*
X-13309Y124859D01*
X-13224Y124826D01*
X-1000Y124826D01*
X-998Y124827D01*
G37*
G36*
X-15222Y124827D02*
X-15222Y124827D01*
X-15220Y124826D01*
X-15177Y124846D01*
X-15133Y124864D01*
X-15133Y124866D01*
X-15131Y124867D01*
X-15098Y124952D01*
X-15098Y137176D01*
X-15099Y137178D01*
X-15098Y137180D01*
X-15118Y137223D01*
X-15136Y137267D01*
X-15138Y137267D01*
X-15139Y137269D01*
X-15224Y137302D01*
X-27448Y137302D01*
X-27450Y137301D01*
X-27452Y137302D01*
X-27495Y137282D01*
X-27539Y137264D01*
X-27539Y137262D01*
X-27541Y137261D01*
X-27574Y137176D01*
X-27574Y124952D01*
X-27573Y124950D01*
X-27574Y124948D01*
X-27554Y124905D01*
X-27536Y124861D01*
X-27534Y124861D01*
X-27533Y124859D01*
X-27448Y124826D01*
X-15224Y124826D01*
X-15222Y124827D01*
G37*
G36*
X27450Y124827D02*
X27450Y124827D01*
X27452Y124826D01*
X27495Y124846D01*
X27539Y124864D01*
X27539Y124866D01*
X27541Y124867D01*
X27574Y124952D01*
X27574Y137176D01*
X27573Y137178D01*
X27574Y137180D01*
X27554Y137223D01*
X27536Y137267D01*
X27534Y137267D01*
X27533Y137269D01*
X27448Y137302D01*
X15224Y137302D01*
X15222Y137301D01*
X15220Y137302D01*
X15177Y137282D01*
X15133Y137264D01*
X15133Y137262D01*
X15131Y137261D01*
X15098Y137176D01*
X15098Y124952D01*
X15099Y124950D01*
X15098Y124948D01*
X15118Y124905D01*
X15136Y124861D01*
X15138Y124861D01*
X15139Y124859D01*
X15224Y124826D01*
X27448Y124826D01*
X27450Y124827D01*
G37*
D10*
X-28725Y220663D03*
X-15725Y220663D03*
X-6500Y106363D03*
X6500Y106363D03*
X-6500Y96838D03*
X6500Y96838D03*
X-28725Y211138D03*
X-15725Y211138D03*
X-28725Y203200D03*
X-15725Y203200D03*
X-28725Y230188D03*
X-15725Y230188D03*
X27138Y239713D03*
X14138Y239713D03*
D11*
X-26988Y243913D03*
X-26988Y260913D03*
D10*
X-31900Y284163D03*
X-18900Y284163D03*
D12*
X-1588Y244625D03*
X-1588Y231625D03*
D10*
X-7788Y53975D03*
X-20788Y53975D03*
D13*
X-27507Y186200D03*
X-22506Y186200D03*
X-17504Y186200D03*
X-12503Y186200D03*
X-7502Y186200D03*
X-2501Y186200D03*
X2501Y186200D03*
X7502Y186200D03*
X12503Y186200D03*
X17504Y186200D03*
X22506Y186200D03*
X27507Y186200D03*
D14*
X33800Y179907D03*
X33800Y174906D03*
X33800Y169904D03*
X33800Y164903D03*
X33800Y159902D03*
X33800Y154901D03*
X33800Y149899D03*
X33800Y144898D03*
X33800Y139897D03*
X33800Y134896D03*
X33800Y129894D03*
X33800Y124893D03*
D13*
X27507Y118600D03*
X22506Y118600D03*
X17504Y118600D03*
X12503Y118600D03*
X7502Y118600D03*
X2501Y118600D03*
X-2501Y118600D03*
X-7502Y118600D03*
X-12503Y118600D03*
X-17504Y118600D03*
X-22506Y118600D03*
X-27507Y118600D03*
D14*
X-33800Y124893D03*
X-33800Y129894D03*
X-33800Y134896D03*
X-33800Y139897D03*
X-33800Y144898D03*
X-33800Y149899D03*
X-33800Y154901D03*
X-33800Y159902D03*
X-33800Y164903D03*
X-33800Y169904D03*
X-33800Y174906D03*
X-33800Y179907D03*
D15*
X21525Y207963D03*
X9525Y207963D03*
X-2475Y207963D03*
D12*
X0Y255438D03*
X0Y268438D03*
X-77788Y230038D03*
X-77788Y243038D03*
X52388Y153838D03*
X52388Y166838D03*
X19050Y255438D03*
X19050Y268438D03*
X77788Y257025D03*
X77788Y270025D03*
D16*
X-121138Y118050D03*
D17*
X-117638Y118300D03*
X-114138Y118300D03*
X-110638Y118300D03*
X-110638Y110300D03*
X-114138Y110300D03*
X-117638Y110300D03*
X-121138Y110300D03*
D10*
G36*
X-118253Y130089D02*
X-121753Y124027D01*
X-129547Y128527D01*
X-126047Y134589D01*
X-118253Y130089D01*
G37*
G36*
X-111753Y141348D02*
X-115253Y135286D01*
X-123047Y139786D01*
X-119547Y145848D01*
X-111753Y141348D01*
G37*
D12*
X-125413Y100163D03*
X-125413Y87163D03*
X-78581Y94025D03*
X-78581Y81025D03*
D10*
X-112069Y87100D03*
X-99069Y87100D03*
D12*
X77788Y204638D03*
X77788Y217638D03*
X-77788Y257025D03*
X-77788Y270025D03*
X77788Y103038D03*
X77788Y116038D03*
X77788Y128438D03*
X77788Y141438D03*
X77788Y230038D03*
X77788Y243038D03*
X-77788Y204638D03*
X-77788Y217638D03*
X-65088Y128438D03*
X-65088Y141438D03*
X25400Y76050D03*
X25400Y89050D03*
X-77788Y180825D03*
X-77788Y193825D03*
X-77788Y155425D03*
X-77788Y168425D03*
X-77788Y128438D03*
X-77788Y141438D03*
X-77788Y104625D03*
X-77788Y117625D03*
X-57150Y77638D03*
X-57150Y90638D03*
X-58738Y103038D03*
X-58738Y116038D03*
X77788Y77638D03*
X77788Y90638D03*
X77788Y179238D03*
X77788Y192238D03*
D18*
X11000Y84138D03*
X-11000Y84138D03*
M02*
